<?xml version="1.0" encoding="UTF-8" standalone="no"?><svg xmlns="http://www.w3.org/2000/svg" xmlns:xlink="http://www.w3.org/1999/xlink" clip-rule="evenodd" stroke-miterlimit="4.00" viewBox="0 0 1024 768"><desc>SVG generated by Keynote</desc><defs></defs><g transform="matrix(1.00, 0.00, -0.00, -1.00, 0.0, 768.0)"><path d="M 0.0 768.0 L 1024.0 768.0 L 1024.0 0.0 L 0.0 0.0 Z M 0.0 768.0 " fill="#000000"></path><g><clipPath id="clip-64"><path d="M 174.0 659.0 L 851.0 659.0 L 851.0 109.0 L 174.0 109.0 Z M 173.7 659.0 "></path></clipPath><g clip-path="url(#clip-64)"><g><clipPath id="clip-65"><path d="M 768.1 109.7 C 763.0 110.3 750.6 112.3 740.7 114.1 C 730.7 116.0 713.7 119.1 702.8 121.2 C 684.3 124.6 678.6 126.3 659.0 134.6 C 655.5 136.1 650.5 138.1 647.9 139.0 C 645.4 139.9 638.8 142.5 633.3 144.8 C 614.1 152.7 567.4 171.6 562.2 173.6 C 556.0 175.9 546.7 179.7 537.3 183.7 C 533.5 185.3 529.1 187.1 527.4 187.6 C 525.6 188.2 518.5 191.0 511.4 194.0 C 504.4 197.0 495.7 200.4 492.3 201.7 C 484.0 204.6 479.1 207.6 463.6 219.0 L 450.8 228.4 L 441.2 245.3 C 430.8 263.5 430.7 263.8 432.8 277.9 C 434.4 288.4 434.0 289.1 424.7 292.3 C 421.1 293.6 413.4 296.5 407.6 298.7 C 375.4 311.0 378.4 310.2 368.7 308.8 L 360.0 307.4 L 266.9 350.4 C 173.8 393.3 173.7 393.3 173.7 396.8 C 173.7 398.7 175.3 408.7 177.2 419.0 C 183.6 452.1 187.5 473.6 188.3 479.5 C 189.1 485.5 193.0 498.7 199.8 518.1 C 216.4 565.3 219.6 574.7 221.5 580.4 C 222.7 583.9 226.7 592.6 230.4 599.6 C 234.1 606.7 240.1 618.2 243.7 625.3 L 250.4 638.0 L 269.5 639.0 C 280.4 639.3 293.3 640.2 299.7 641.4 C 305.8 642.6 319.4 645.1 330.0 647.0 C 340.6 648.9 356.2 651.8 364.7 653.4 C 392.8 658.7 401.9 659.7 408.5 658.5 C 428.0 654.7 427.1 655.1 461.2 639.9 C 470.2 635.9 480.5 631.4 484.0 630.0 C 487.5 628.5 494.9 625.3 500.3 622.9 C 505.8 620.6 513.7 617.2 517.8 615.4 C 522.0 613.6 530.0 610.1 535.5 607.5 C 544.6 603.3 545.8 603.0 547.4 604.6 C 549.5 606.7 563.3 608.2 582.0 608.3 C 595.4 608.4 620.3 604.1 642.1 597.9 C 648.5 596.1 659.8 592.9 667.2 590.8 C 674.5 588.7 685.6 585.6 691.7 583.9 C 709.7 578.7 726.4 573.9 740.7 569.9 C 748.0 567.8 759.3 564.6 765.8 562.8 C 772.2 561.0 781.6 558.3 786.7 556.9 C 794.8 554.6 799.2 552.1 819.9 538.2 C 841.0 524.1 844.1 521.6 846.5 517.0 C 849.2 511.7 849.2 511.6 850.0 442.6 L 851.0 373.5 L 847.0 345.0 C 845.0 329.2 841.7 303.5 839.8 287.8 C 837.8 272.1 834.6 246.7 832.7 231.3 C 825.2 170.9 822.2 151.0 820.0 147.4 C 811.9 134.3 809.8 130.8 807.6 127.1 C 806.2 124.6 801.0 120.0 794.8 115.7 C 783.5 107.8 784.1 107.9 768.1 109.7 "></path></clipPath><g clip-path="url(#clip-65)"><image xlink:href="3C4192A3E6FF71E90E632B8580CE959A.png" width="793.00" height="540.00" transform="matrix(1.07, 0.00, -0.00, -1.07, 89.0, 672.0)"></image></g></g></g></g><text xml:space="preserve" font-family="Helvetica-Light" font-size="80.0" fill="#FEFFFF" transform="matrix(1.00, 0.00, -0.00, -1.00, 7.0, 677.0)">E</text><text xml:space="preserve" font-family="Helvetica-Light" font-size="80.0" fill="#FEFFFF" transform="matrix(1.00, 0.00, -0.00, -1.00, 55.9, 677.0)">x</text><text xml:space="preserve" font-family="Helvetica-Light" font-size="80.0" fill="#FEFFFF" transform="matrix(1.00, 0.00, -0.00, -1.00, 95.9, 677.0)">t</text><text xml:space="preserve" font-family="Helvetica-Light" font-size="80.0" fill="#FEFFFF" transform="matrix(1.00, 0.00, -0.00, -1.00, 118.1, 677.0)">r</text><text xml:space="preserve" font-family="Helvetica-Light" font-size="80.0" fill="#FEFFFF" transform="matrix(1.00, 0.00, -0.00, -1.00, 144.8, 677.0)">a</text><text xml:space="preserve" font-family="Helvetica-Light" font-size="80.0" fill="#FEFFFF" transform="matrix(1.00, 0.00, -0.00, -1.00, 189.2, 677.0)">c</text><text xml:space="preserve" font-family="Helvetica-Light" font-size="80.0" fill="#FEFFFF" transform="matrix(1.00, 0.00, -0.00, -1.00, 233.7, 677.0)">t</text><text xml:space="preserve" font-family="Helvetica-Light" font-size="80.0" fill="#FEFFFF" transform="matrix(1.00, 0.00, -0.00, -1.00, 256.0, 677.0)"> </text><text xml:space="preserve" font-family="Helvetica-Light" font-size="80.0" fill="#FEFFFF" transform="matrix(1.00, 0.00, -0.00, -1.00, 278.2, 677.0)">v</text><text xml:space="preserve" font-family="Helvetica-Light" font-size="80.0" fill="#FEFFFF" transform="matrix(1.00, 0.00, -0.00, -1.00, 318.2, 677.0)">a</text><text xml:space="preserve" font-family="Helvetica-Light" font-size="80.0" fill="#FEFFFF" transform="matrix(1.00, 0.00, -0.00, -1.00, 362.7, 677.0)">l</text><text xml:space="preserve" font-family="Helvetica-Light" font-size="80.0" fill="#FEFFFF" transform="matrix(1.00, 0.00, -0.00, -1.00, 380.4, 677.0)">u</text><text xml:space="preserve" font-family="Helvetica-Light" font-size="80.0" fill="#FEFFFF" transform="matrix(1.00, 0.00, -0.00, -1.00, 424.9, 677.0)">e</text><text xml:space="preserve" font-family="Helvetica-Light" font-size="80.0" fill="#FEFFFF" transform="matrix(1.00, 0.00, -0.00, -1.00, 469.4, 677.0)">s</text><text xml:space="preserve" font-family="Helvetica-Light" font-size="80.0" fill="#FEFFFF" transform="matrix(1.00, 0.00, -0.00, -1.00, 509.4, 677.0)"> </text><text xml:space="preserve" font-family="Helvetica-Light" font-size="80.0" fill="#FEFFFF" transform="matrix(1.00, 0.00, -0.00, -1.00, 531.6, 677.0)">o</text><text xml:space="preserve" font-family="Helvetica-Light" font-size="80.0" fill="#FEFFFF" transform="matrix(1.00, 0.00, -0.00, -1.00, 576.1, 677.0)">f</text><text xml:space="preserve" font-family="Helvetica-Light" font-size="80.0" fill="#FEFFFF" transform="matrix(1.00, 0.00, -0.00, -1.00, 598.4, 677.0)"> </text><text xml:space="preserve" font-family="Helvetica-Light" font-size="80.0" fill="#FEFFFF" transform="matrix(1.00, 0.00, -0.00, -1.00, 620.6, 677.0)">b</text><text xml:space="preserve" font-family="Helvetica-Light" font-size="80.0" fill="#FEFFFF" transform="matrix(1.00, 0.00, -0.00, -1.00, 669.5, 677.0)">o</text><text xml:space="preserve" font-family="Helvetica-Light" font-size="80.0" fill="#FEFFFF" transform="matrix(1.00, 0.00, -0.00, -1.00, 714.0, 677.0)">t</text><text xml:space="preserve" font-family="Helvetica-Light" font-size="80.0" fill="#FEFFFF" transform="matrix(1.00, 0.00, -0.00, -1.00, 736.2, 677.0)">h</text><text xml:space="preserve" font-family="Helvetica-Light" font-size="80.0" fill="#FEFFFF" transform="matrix(1.00, 0.00, -0.00, -1.00, 780.7, 677.0)"> </text><text xml:space="preserve" font-family="Helvetica-Light" font-size="80.0" fill="#FEFFFF" transform="matrix(1.00, 0.00, -0.00, -1.00, 802.9, 677.0)">D</text><text xml:space="preserve" font-family="Helvetica-Light" font-size="80.0" fill="#FEFFFF" transform="matrix(1.00, 0.00, -0.00, -1.00, 860.7, 677.0)">S</text><text xml:space="preserve" font-family="Helvetica-Light" font-size="80.0" fill="#FEFFFF" transform="matrix(1.00, 0.00, -0.00, -1.00, 909.6, 677.0)">M</text><text xml:space="preserve" font-family="Helvetica-Light" font-size="80.0" fill="#FEFFFF" transform="matrix(1.00, 0.00, -0.00, -1.00, 976.2, 677.0)">s</text></g></svg>