<?xml version="1.0" encoding="UTF-8" standalone="no"?><svg xmlns="http://www.w3.org/2000/svg" xmlns:xlink="http://www.w3.org/1999/xlink" clip-rule="evenodd" stroke-miterlimit="10" viewBox="0 0 740 53"><desc>SVG generated by Keynote</desc><defs></defs><g transform="matrix(1.00, 0.00, -0.00, -1.00, 0.0, 53.0)"><text xml:space="preserve" font-family="Aller-Bold,Aller" font-weight="bold" font-size="49.6" fill="#D6D6D6" transform="matrix(1.00, 0.00, -0.00, -1.00, -2.2, 14.1)">r</text><text xml:space="preserve" font-family="Aller-Bold,Aller" font-weight="bold" font-size="49.6" fill="#D6D6D6" transform="matrix(1.00, 0.00, -0.00, -1.00, 17.0, 14.1)">o</text><text xml:space="preserve" font-family="Aller-Bold,Aller" font-weight="bold" font-size="49.6" fill="#D6D6D6" transform="matrix(1.00, 0.00, -0.00, -1.00, 44.8, 14.1)">v</text><text xml:space="preserve" font-family="Aller-Bold,Aller" font-weight="bold" font-size="49.6" fill="#D6D6D6" transform="matrix(1.00, 0.00, -0.00, -1.00, 71.7, 14.1)">i</text><text xml:space="preserve" font-family="Aller-Bold,Aller" font-weight="bold" font-size="49.6" fill="#D6D6D6" transform="matrix(1.00, 0.00, -0.00, -1.00, 87.0, 14.1)">n</text><text xml:space="preserve" font-family="Aller-Bold,Aller" font-weight="bold" font-size="49.6" fill="#D6D6D6" transform="matrix(1.00, 0.00, -0.00, -1.00, 116.1, 14.1)">g</text><text xml:space="preserve" font-family="Aller-Bold,Aller" font-weight="bold" font-size="49.6" fill="#D6D6D6" transform="matrix(1.00, 0.00, -0.00, -1.00, 143.7, 14.1)">,</text><text xml:space="preserve" font-family="Aller-Bold,Aller" font-weight="bold" font-size="49.6" fill="#D6D6D6" transform="matrix(1.00, 0.00, -0.00, -1.00, 158.1, 14.1)"> </text><text xml:space="preserve" font-family="Aller-Bold,Aller" font-weight="bold" font-size="49.6" fill="#D6D6D6" transform="matrix(1.00, 0.00, -0.00, -1.00, 169.0, 14.1)">a</text><text xml:space="preserve" font-family="Aller-Bold,Aller" font-weight="bold" font-size="49.6" fill="#D6D6D6" transform="matrix(1.00, 0.00, -0.00, -1.00, 194.9, 14.1)">n</text><text xml:space="preserve" font-family="Aller-Bold,Aller" font-weight="bold" font-size="49.6" fill="#D6D6D6" transform="matrix(1.00, 0.00, -0.00, -1.00, 224.0, 14.1)">d</text><text xml:space="preserve" font-family="Aller-Bold,Aller" font-weight="bold" font-size="49.6" fill="#D6D6D6" transform="matrix(1.00, 0.00, -0.00, -1.00, 253.2, 14.1)"> </text><text xml:space="preserve" font-family="Aller-Bold,Aller" font-weight="bold" font-size="49.6" fill="#D6D6D6" transform="matrix(1.00, 0.00, -0.00, -1.00, 264.1, 14.1)">s</text><text xml:space="preserve" font-family="Aller-Bold,Aller" font-weight="bold" font-size="49.6" fill="#D6D6D6" transform="matrix(1.00, 0.00, -0.00, -1.00, 286.9, 14.1)">w</text><text xml:space="preserve" font-family="Aller-Bold,Aller" font-weight="bold" font-size="49.6" fill="#D6D6D6" transform="matrix(1.00, 0.00, -0.00, -1.00, 326.9, 14.1)">i</text><text xml:space="preserve" font-family="Aller-Bold,Aller" font-weight="bold" font-size="49.6" fill="#D6D6D6" transform="matrix(1.00, 0.00, -0.00, -1.00, 342.1, 14.1)">m</text><text xml:space="preserve" font-family="Aller-Bold,Aller" font-weight="bold" font-size="49.6" fill="#D6D6D6" transform="matrix(1.00, 0.00, -0.00, -1.00, 385.7, 14.1)">m</text><text xml:space="preserve" font-family="Aller-Bold,Aller" font-weight="bold" font-size="49.6" fill="#D6D6D6" transform="matrix(1.00, 0.00, -0.00, -1.00, 429.3, 14.1)">i</text><text xml:space="preserve" font-family="Aller-Bold,Aller" font-weight="bold" font-size="49.6" fill="#D6D6D6" transform="matrix(1.00, 0.00, -0.00, -1.00, 444.5, 14.1)">n</text><text xml:space="preserve" font-family="Aller-Bold,Aller" font-weight="bold" font-size="49.6" fill="#D6D6D6" transform="matrix(1.00, 0.00, -0.00, -1.00, 473.6, 14.1)">g</text><text xml:space="preserve" font-family="Aller-Bold,Aller" font-weight="bold" font-size="49.6" fill="#D6D6D6" transform="matrix(1.00, 0.00, -0.00, -1.00, 501.7, 14.1)"> </text><text xml:space="preserve" font-family="Aller-Bold,Aller" font-weight="bold" font-size="49.6" fill="#D6D6D6" transform="matrix(1.00, 0.00, -0.00, -1.00, 512.6, 14.1)">r</text><text xml:space="preserve" font-family="Aller-Bold,Aller" font-weight="bold" font-size="49.6" fill="#D6D6D6" transform="matrix(1.00, 0.00, -0.00, -1.00, 531.8, 14.1)">o</text><text xml:space="preserve" font-family="Aller-Bold,Aller" font-weight="bold" font-size="49.6" fill="#D6D6D6" transform="matrix(1.00, 0.00, -0.00, -1.00, 560.6, 14.1)">b</text><text xml:space="preserve" font-family="Aller-Bold,Aller" font-weight="bold" font-size="49.6" fill="#D6D6D6" transform="matrix(1.00, 0.00, -0.00, -1.00, 589.9, 14.1)">o</text><text xml:space="preserve" font-family="Aller-Bold,Aller" font-weight="bold" font-size="49.6" fill="#D6D6D6" transform="matrix(1.00, 0.00, -0.00, -1.00, 618.6, 14.1)">t</text><text xml:space="preserve" font-family="Aller-Bold,Aller" font-weight="bold" font-size="49.6" fill="#D6D6D6" transform="matrix(1.00, 0.00, -0.00, -1.00, 637.6, 14.1)">s</text><text xml:space="preserve" font-family="Aller-Bold,Aller" font-weight="bold" font-size="49.6" fill="#D6D6D6" transform="matrix(1.00, 0.00, -0.00, -1.00, 660.4, 14.1)"> </text><text xml:space="preserve" font-family="Aller-Bold,Aller" font-weight="bold" font-size="49.6" fill="#D6D6D6" transform="matrix(1.00, 0.00, -0.00, -1.00, 671.4, 14.1)">f</text><text xml:space="preserve" font-family="Aller-Bold,Aller" font-weight="bold" font-size="49.6" fill="#D6D6D6" transform="matrix(1.00, 0.00, -0.00, -1.00, 689.5, 14.1)">o</text><text xml:space="preserve" font-family="Aller-Bold,Aller" font-weight="bold" font-size="49.6" fill="#D6D6D6" transform="matrix(1.00, 0.00, -0.00, -1.00, 718.3, 14.1)">r</text></g></svg>