<?xml version="1.0" encoding="UTF-8" standalone="no"?><svg xmlns="http://www.w3.org/2000/svg" xmlns:xlink="http://www.w3.org/1999/xlink" clip-rule="evenodd" stroke-miterlimit="10" viewBox="0 0 726 53"><desc>SVG generated by Keynote</desc><defs></defs><g transform="matrix(1.00, 0.00, -0.00, -1.00, 0.0, 53.0)"><text xml:space="preserve" font-family="Aller-Bold,Aller" font-weight="bold" font-size="49.6" fill="#D6D6D6" transform="matrix(1.00, 0.00, -0.00, -1.00, -1.5, 14.1)">I</text><text xml:space="preserve" font-family="Aller-Bold,Aller" font-weight="bold" font-size="49.6" fill="#D6D6D6" transform="matrix(1.00, 0.00, -0.00, -1.00, 12.7, 14.1)">n</text><text xml:space="preserve" font-family="Aller-Bold,Aller" font-weight="bold" font-size="49.6" fill="#D6D6D6" transform="matrix(1.00, 0.00, -0.00, -1.00, 41.8, 14.1)">t</text><text xml:space="preserve" font-family="Aller-Bold,Aller" font-weight="bold" font-size="49.6" fill="#D6D6D6" transform="matrix(1.00, 0.00, -0.00, -1.00, 60.8, 14.1)">e</text><text xml:space="preserve" font-family="Aller-Bold,Aller" font-weight="bold" font-size="49.6" fill="#D6D6D6" transform="matrix(1.00, 0.00, -0.00, -1.00, 88.7, 14.1)">g</text><text xml:space="preserve" font-family="Aller-Bold,Aller" font-weight="bold" font-size="49.6" fill="#D6D6D6" transform="matrix(1.00, 0.00, -0.00, -1.00, 116.8, 14.1)">r</text><text xml:space="preserve" font-family="Aller-Bold,Aller" font-weight="bold" font-size="49.6" fill="#D6D6D6" transform="matrix(1.00, 0.00, -0.00, -1.00, 136.2, 14.1)">a</text><text xml:space="preserve" font-family="Aller-Bold,Aller" font-weight="bold" font-size="49.6" fill="#D6D6D6" transform="matrix(1.00, 0.00, -0.00, -1.00, 162.1, 14.1)">t</text><text xml:space="preserve" font-family="Aller-Bold,Aller" font-weight="bold" font-size="49.6" fill="#D6D6D6" transform="matrix(1.00, 0.00, -0.00, -1.00, 181.1, 14.1)">i</text><text xml:space="preserve" font-family="Aller-Bold,Aller" font-weight="bold" font-size="49.6" fill="#D6D6D6" transform="matrix(1.00, 0.00, -0.00, -1.00, 196.3, 14.1)">o</text><text xml:space="preserve" font-family="Aller-Bold,Aller" font-weight="bold" font-size="49.6" fill="#D6D6D6" transform="matrix(1.00, 0.00, -0.00, -1.00, 225.1, 14.1)">n</text><text xml:space="preserve" font-family="Aller-Bold,Aller" font-weight="bold" font-size="49.6" fill="#D6D6D6" transform="matrix(1.00, 0.00, -0.00, -1.00, 254.2, 14.1)"> </text><text xml:space="preserve" font-family="Aller-Bold,Aller" font-weight="bold" font-size="49.6" fill="#D6D6D6" transform="matrix(1.00, 0.00, -0.00, -1.00, 265.1, 14.1)">o</text><text xml:space="preserve" font-family="Aller-Bold,Aller" font-weight="bold" font-size="49.6" fill="#D6D6D6" transform="matrix(1.00, 0.00, -0.00, -1.00, 293.9, 14.1)">f</text><text xml:space="preserve" font-family="Aller-Bold,Aller" font-weight="bold" font-size="49.6" fill="#D6D6D6" transform="matrix(1.00, 0.00, -0.00, -1.00, 313.5, 14.1)"> </text><text xml:space="preserve" font-family="Aller-Bold,Aller" font-weight="bold" font-size="49.6" fill="#D6D6D6" transform="matrix(1.00, 0.00, -0.00, -1.00, 324.4, 14.1)">p</text><text xml:space="preserve" font-family="Aller-Bold,Aller" font-weight="bold" font-size="49.6" fill="#D6D6D6" transform="matrix(1.00, 0.00, -0.00, -1.00, 353.7, 14.1)">h</text><text xml:space="preserve" font-family="Aller-Bold,Aller" font-weight="bold" font-size="49.6" fill="#D6D6D6" transform="matrix(1.00, 0.00, -0.00, -1.00, 382.8, 14.1)">o</text><text xml:space="preserve" font-family="Aller-Bold,Aller" font-weight="bold" font-size="49.6" fill="#D6D6D6" transform="matrix(1.00, 0.00, -0.00, -1.00, 411.6, 14.1)">t</text><text xml:space="preserve" font-family="Aller-Bold,Aller" font-weight="bold" font-size="49.6" fill="#D6D6D6" transform="matrix(1.00, 0.00, -0.00, -1.00, 430.6, 14.1)">o</text><text xml:space="preserve" font-family="Aller-Bold,Aller" font-weight="bold" font-size="49.6" fill="#D6D6D6" transform="matrix(1.00, 0.00, -0.00, -1.00, 459.3, 14.1)">g</text><text xml:space="preserve" font-family="Aller-Bold,Aller" font-weight="bold" font-size="49.6" fill="#D6D6D6" transform="matrix(1.00, 0.00, -0.00, -1.00, 487.4, 14.1)">r</text><text xml:space="preserve" font-family="Aller-Bold,Aller" font-weight="bold" font-size="49.6" fill="#D6D6D6" transform="matrix(1.00, 0.00, -0.00, -1.00, 506.9, 14.1)">a</text><text xml:space="preserve" font-family="Aller-Bold,Aller" font-weight="bold" font-size="49.6" fill="#D6D6D6" transform="matrix(1.00, 0.00, -0.00, -1.00, 532.7, 14.1)">m</text><text xml:space="preserve" font-family="Aller-Bold,Aller" font-weight="bold" font-size="49.6" fill="#D6D6D6" transform="matrix(1.00, 0.00, -0.00, -1.00, 576.3, 14.1)">m</text><text xml:space="preserve" font-family="Aller-Bold,Aller" font-weight="bold" font-size="49.6" fill="#D6D6D6" transform="matrix(1.00, 0.00, -0.00, -1.00, 619.9, 14.1)">e</text><text xml:space="preserve" font-family="Aller-Bold,Aller" font-weight="bold" font-size="49.6" fill="#D6D6D6" transform="matrix(1.00, 0.00, -0.00, -1.00, 647.8, 14.1)">t</text><text xml:space="preserve" font-family="Aller-Bold,Aller" font-weight="bold" font-size="49.6" fill="#D6D6D6" transform="matrix(1.00, 0.00, -0.00, -1.00, 666.8, 14.1)">r</text><text xml:space="preserve" font-family="Aller-Bold,Aller" font-weight="bold" font-size="49.6" fill="#D6D6D6" transform="matrix(1.00, 0.00, -0.00, -1.00, 686.8, 14.1)">i</text><text xml:space="preserve" font-family="Aller-Bold,Aller" font-weight="bold" font-size="49.6" fill="#D6D6D6" transform="matrix(1.00, 0.00, -0.00, -1.00, 702.0, 14.1)">c</text></g></svg>