<?xml version="1.0" encoding="UTF-8" standalone="no"?><svg xmlns="http://www.w3.org/2000/svg" xmlns:xlink="http://www.w3.org/1999/xlink" clip-rule="evenodd" stroke-miterlimit="4.00" viewBox="0 0 720 540"><desc>SVG generated by Keynote</desc><defs></defs><g transform="matrix(1.00, 0.00, -0.00, -1.00, 0.0, 540.0)"><path d="M 0.0 540.0 L 720.0 540.0 L 720.0 0.0 L 0.0 0.0 Z M 0.0 540.0 " fill="#000000"></path><text xml:space="preserve" font-family="HelveticaNeue-Bold" font-weight="bold" font-size="56.0" fill="#A2CCA0" transform="matrix(1.00, 0.00, -0.00, -1.00, 78.0, 248.0)">S</text><text xml:space="preserve" font-family="HelveticaNeue-Bold" font-weight="bold" font-size="56.0" fill="#A2CCA0" transform="matrix(1.00, 0.00, -0.00, -1.00, 114.3, 248.0)">o</text><text xml:space="preserve" font-family="HelveticaNeue-Bold" font-weight="bold" font-size="56.0" fill="#A2CCA0" transform="matrix(1.00, 0.00, -0.00, -1.00, 148.6, 248.0)">f</text><text xml:space="preserve" font-family="HelveticaNeue-Bold" font-weight="bold" font-size="56.0" fill="#A2CCA0" transform="matrix(1.00, 0.00, -0.00, -1.00, 167.2, 248.0)">t</text><text xml:space="preserve" font-family="HelveticaNeue-Bold" font-weight="bold" font-size="56.0" fill="#A2CCA0" transform="matrix(1.00, 0.00, -0.00, -1.00, 186.9, 248.0)">w</text><text xml:space="preserve" font-family="HelveticaNeue-Bold" font-weight="bold" font-size="56.0" fill="#A2CCA0" transform="matrix(1.00, 0.00, -0.00, -1.00, 232.5, 248.0)">a</text><text xml:space="preserve" font-family="HelveticaNeue-Bold" font-weight="bold" font-size="56.0" fill="#A2CCA0" transform="matrix(1.00, 0.00, -0.00, -1.00, 264.6, 248.0)">r</text><text xml:space="preserve" font-family="HelveticaNeue-Bold" font-weight="bold" font-size="56.0" fill="#A2CCA0" transform="matrix(1.00, 0.00, -0.00, -1.00, 285.4, 248.0)">e</text><text xml:space="preserve" font-family="HelveticaNeue-Bold" font-weight="bold" font-size="56.0" fill="#A2CCA0" transform="matrix(1.00, 0.00, -0.00, -1.00, 317.6, 248.0)"> </text><text xml:space="preserve" font-family="HelveticaNeue-Bold" font-weight="bold" font-size="56.0" fill="#A2CCA0" transform="matrix(1.00, 0.00, -0.00, -1.00, 333.1, 248.0)">&gt;</text><text xml:space="preserve" font-family="HelveticaNeue-Bold" font-weight="bold" font-size="56.0" fill="#A2CCA0" transform="matrix(1.00, 0.00, -0.00, -1.00, 366.7, 248.0)"> </text><text xml:space="preserve" font-family="HelveticaNeue-Bold" font-weight="bold" font-size="56.0" fill="#A2CCA0" transform="matrix(1.00, 0.00, -0.00, -1.00, 382.3, 248.0)">H</text><text xml:space="preserve" font-family="HelveticaNeue-Bold" font-weight="bold" font-size="56.0" fill="#A2CCA0" transform="matrix(1.00, 0.00, -0.00, -1.00, 423.8, 248.0)">a</text><text xml:space="preserve" font-family="HelveticaNeue-Bold" font-weight="bold" font-size="56.0" fill="#A2CCA0" transform="matrix(1.00, 0.00, -0.00, -1.00, 455.9, 248.0)">r</text><text xml:space="preserve" font-family="HelveticaNeue-Bold" font-weight="bold" font-size="56.0" fill="#A2CCA0" transform="matrix(1.00, 0.00, -0.00, -1.00, 476.7, 248.0)">d</text><text xml:space="preserve" font-family="HelveticaNeue-Bold" font-weight="bold" font-size="56.0" fill="#A2CCA0" transform="matrix(1.00, 0.00, -0.00, -1.00, 510.9, 248.0)">w</text><text xml:space="preserve" font-family="HelveticaNeue-Bold" font-weight="bold" font-size="56.0" fill="#A2CCA0" transform="matrix(1.00, 0.00, -0.00, -1.00, 556.5, 248.0)">a</text><text xml:space="preserve" font-family="HelveticaNeue-Bold" font-weight="bold" font-size="56.0" fill="#A2CCA0" transform="matrix(1.00, 0.00, -0.00, -1.00, 588.7, 248.0)">r</text><text xml:space="preserve" font-family="HelveticaNeue-Bold" font-weight="bold" font-size="56.0" fill="#A2CCA0" transform="matrix(1.00, 0.00, -0.00, -1.00, 609.4, 248.0)">e</text><g><clipPath id="clip-68"><path d="M 622.0 534.6 L 712.9 534.6 L 712.9 417.0 L 622.0 417.0 Z M 622.0 534.6 "></path></clipPath><g clip-path="url(#clip-68)"><g><clipPath id="clip-69"><path d="M 622.0 417.0 L 713.0 417.0 L 713.0 535.0 L 622.0 535.0 Z M 622.0 417.0 "></path></clipPath><g clip-path="url(#clip-69)"><path d="M 622.0 421.0 L 661.1 421.0 L 661.1 417.0 L 622.0 417.0 Z M 622.0 421.0 " fill="#FFFEFE"></path></g></g></g></g><g><clipPath id="clip-70"><path d="M 622.0 417.0 L 713.0 417.0 L 713.0 535.0 L 622.0 535.0 Z M 622.0 417.0 "></path></clipPath><g clip-path="url(#clip-70)"><path d="M 667.6 518.7 C 669.7 518.7 671.4 520.3 671.5 522.4 C 671.5 524.4 669.9 526.2 667.9 526.2 C 665.8 526.3 664.1 524.7 664.0 522.6 C 664.0 520.5 665.6 518.8 667.6 518.7 " fill="#FFFEFE"></path><path d="M 660.7 519.9 C 661.4 519.9 663.5 519.6 665.0 518.5 C 666.4 517.3 668.0 515.0 668.0 514.8 C 668.1 515.0 669.7 517.3 670.3 517.9 C 671.3 518.8 672.5 519.7 675.4 519.9 L 675.4 516.0 C 674.9 516.0 673.8 515.7 672.8 514.8 C 671.8 514.0 670.7 512.4 670.4 511.3 C 670.0 510.1 670.0 509.2 669.9 508.5 L 670.0 500.8 L 666.1 500.8 L 666.2 508.4 C 666.2 509.2 666.1 510.6 665.7 511.4 C 665.3 512.1 664.5 514.1 663.0 515.1 C 662.5 515.4 661.8 516.0 660.7 516.0 L 660.7 519.9 " fill="#FFFEFE"></path><path d="M 668.0 530.0 C 668.1 529.9 671.4 527.7 674.2 524.9 C 675.0 524.0 677.4 521.2 677.4 517.7 C 677.4 514.5 675.6 512.3 675.4 512.1 C 674.8 511.3 672.4 509.4 671.0 509.2 L 671.0 505.2 C 672.7 505.5 675.6 506.6 677.3 508.3 C 678.9 510.0 680.3 512.0 680.9 514.6 C 681.6 517.5 681.1 520.8 680.2 522.8 C 679.0 525.3 676.9 527.8 674.3 529.9 L 668.0 534.6 L 661.6 529.8 C 659.1 527.7 657.0 525.3 655.8 522.7 C 654.9 520.8 654.4 517.4 655.2 514.5 C 655.8 512.0 657.2 509.9 658.8 508.3 C 660.5 506.6 663.4 505.5 665.1 505.1 L 665.1 509.2 C 663.7 509.4 661.3 511.3 660.6 512.0 C 660.4 512.3 658.7 514.5 658.7 517.6 C 658.6 521.1 661.0 524.0 661.8 524.8 C 664.6 527.6 667.9 529.9 668.0 530.0 " fill="#FFFEFE"></path><path d="M 649.8 497.4 C 649.7 498.1 649.3 498.5 648.6 498.5 C 647.8 498.5 647.4 497.8 647.4 496.5 C 647.4 495.6 647.6 494.7 648.7 494.7 C 649.4 494.7 649.7 495.2 649.8 495.8 L 651.8 495.8 C 651.6 494.1 650.4 493.0 648.7 493.0 C 646.6 493.0 645.3 494.4 645.3 496.6 C 645.3 498.8 646.7 500.1 648.5 500.1 C 650.5 500.1 651.6 499.1 651.8 497.4 L 649.8 497.4 " fill="#FFFEFE"></path><path d="M 652.3 499.9 L 654.2 499.9 L 654.2 493.2 L 652.3 493.2 Z M 652.3 499.9 " fill="#FFFEFE"></path><path d="M 656.6 495.2 C 656.6 494.7 657.1 494.3 657.6 494.3 C 657.9 494.3 658.1 494.4 658.3 494.7 L 660.1 494.7 C 659.8 493.5 658.6 493.1 657.5 493.1 C 655.9 493.1 654.7 494.0 654.7 495.6 C 654.7 497.2 655.9 498.3 657.4 498.3 C 659.2 498.3 660.3 497.0 660.2 495.2 L 656.6 495.2 Z M 658.4 496.2 C 658.4 496.7 658.0 497.1 657.5 497.1 C 657.0 497.1 656.6 496.7 656.6 496.2 L 658.4 496.2 " fill="#FFFEFE"></path><path d="M 660.2 498.1 L 662.1 498.1 L 662.9 495.0 L 663.8 498.1 L 665.6 498.1 L 664.0 493.2 L 661.9 493.2 L 660.2 498.1 " fill="#FFFEFE"></path><path d="M 667.2 495.2 C 667.2 494.7 667.7 494.3 668.2 494.3 C 668.5 494.3 668.7 494.4 668.9 494.7 L 670.7 494.7 C 670.3 493.5 669.1 493.1 668.0 493.1 C 666.5 493.1 665.3 494.0 665.3 495.6 C 665.3 497.2 666.5 498.3 668.0 498.3 C 669.8 498.3 670.9 497.0 670.8 495.2 L 667.2 495.2 Z M 668.9 496.2 C 668.9 496.7 668.5 497.1 668.1 497.1 C 667.5 497.1 667.2 496.7 667.2 496.2 L 668.9 496.2 " fill="#FFFEFE"></path><path d="M 671.2 499.9 L 673.1 499.9 L 673.1 493.2 L 671.2 493.2 Z M 671.2 499.9 " fill="#FFFEFE"></path><path d="M 677.2 493.2 L 677.1 493.7 C 676.6 493.2 676.0 493.1 675.3 493.1 C 674.4 493.1 673.6 493.5 673.6 494.6 C 673.6 496.8 677.0 495.8 677.0 496.7 C 677.0 497.0 676.6 497.1 676.4 497.1 C 676.1 497.1 675.8 497.0 675.7 496.6 L 673.9 496.6 C 673.9 497.6 674.6 498.3 676.5 498.3 C 678.7 498.3 678.9 497.4 678.9 496.2 L 678.9 493.9 C 678.9 493.7 678.9 493.5 679.1 493.3 L 679.1 493.2 L 677.2 493.2 Z M 677.0 495.4 C 676.4 495.1 675.6 495.2 675.6 494.6 C 675.6 494.4 675.8 494.2 676.2 494.2 C 676.8 494.2 677.0 494.7 677.0 495.4 " fill="#FFFEFE"></path><path d="M 679.6 498.1 L 681.3 498.1 L 681.3 497.3 C 681.8 497.9 682.2 498.3 682.9 498.3 C 684.2 498.3 684.8 497.5 684.8 496.2 L 684.8 493.2 L 682.9 493.2 L 682.9 495.8 C 682.9 496.3 682.8 496.7 682.2 496.7 C 681.6 496.7 681.5 496.3 681.5 495.7 L 681.5 493.2 L 679.6 493.2 L 679.6 498.1 " fill="#FFFEFE"></path><path d="M 688.8 493.2 L 688.8 493.9 C 688.4 493.3 688.0 493.1 687.3 493.1 C 685.9 493.1 685.2 494.2 685.2 495.6 C 685.2 497.2 686.1 498.3 687.2 498.3 C 687.8 498.3 688.2 498.1 688.6 497.6 L 688.6 499.9 L 690.5 499.9 L 690.5 493.2 L 688.8 493.2 Z M 688.7 495.6 C 688.7 496.2 688.5 496.8 687.9 496.8 C 687.2 496.8 687.1 496.1 687.1 495.6 C 687.1 495.1 687.2 494.5 687.8 494.5 C 688.5 494.5 688.7 495.1 688.7 495.6 " fill="#FFFEFE"></path><path d="M 641.9 485.0 L 641.9 491.7 L 644.5 491.7 L 645.7 487.5 L 646.8 491.7 L 649.4 491.7 L 649.4 485.0 L 647.5 485.0 L 647.5 487.0 L 647.5 488.0 L 647.6 489.3 L 647.6 489.3 L 646.4 485.0 L 644.9 485.0 L 643.7 489.3 L 643.7 489.3 L 643.8 488.3 L 643.8 487.2 L 643.8 485.0 L 641.9 485.0 " fill="#FFFEFE"></path><path d="M 651.7 487.0 C 651.7 486.4 652.1 486.0 652.6 486.0 C 652.9 486.0 653.2 486.1 653.3 486.4 L 655.1 486.4 C 654.8 485.2 653.6 484.8 652.5 484.8 C 651.0 484.8 649.8 485.7 649.8 487.4 C 649.8 489.0 651.0 490.0 652.5 490.0 C 654.2 490.0 655.3 488.7 655.3 487.0 L 651.7 487.0 Z M 653.4 487.9 C 653.4 488.4 653.0 488.8 652.6 488.8 C 652.0 488.8 651.7 488.5 651.7 487.9 L 653.4 487.9 " fill="#FFFEFE"></path><path d="M 658.8 485.0 C 656.3 484.8 656.0 485.0 656.0 486.7 L 656.0 488.7 L 655.4 488.7 L 655.4 489.8 L 656.1 489.8 L 656.1 491.4 L 657.9 491.4 L 657.9 489.8 L 658.8 489.8 L 658.8 488.7 L 657.9 488.7 L 657.9 486.9 C 657.9 486.5 658.0 486.3 658.5 486.3 L 658.8 486.3 L 658.8 485.0 " fill="#FFFEFE"></path><path d="M 659.3 489.8 L 661.0 489.8 L 661.0 488.9 L 661.0 488.9 C 661.3 489.6 661.8 490.0 662.5 490.0 C 662.6 490.0 662.7 490.0 662.7 490.0 L 662.7 488.0 C 662.6 488.0 662.5 488.1 662.4 488.1 C 661.6 488.1 661.2 487.7 661.2 486.6 L 661.2 485.0 L 659.3 485.0 L 659.3 489.8 " fill="#FFFEFE"></path><path d="M 665.5 490.0 C 667.1 490.0 668.2 489.0 668.2 487.4 C 668.2 485.7 667.0 484.8 665.5 484.8 C 663.9 484.8 662.8 485.7 662.8 487.3 C 662.8 489.0 663.9 490.0 665.5 490.0 M 664.7 487.4 C 664.7 486.5 665.0 486.1 665.5 486.1 C 666.0 486.1 666.3 486.5 666.3 487.4 C 666.3 488.2 666.0 488.7 665.5 488.7 C 664.8 488.7 664.7 488.0 664.7 487.4 " fill="#FFFEFE"></path><path d="M 670.3 489.8 L 670.3 489.1 L 670.3 489.1 C 670.5 489.7 671.2 490.0 671.8 490.0 C 673.2 490.0 673.9 488.8 673.9 487.4 C 673.9 485.5 672.7 484.8 671.7 484.8 C 671.2 484.8 670.8 485.0 670.5 485.4 L 670.5 483.3 L 668.6 483.3 L 668.6 489.8 L 670.3 489.8 Z M 672.0 487.4 C 672.0 488.2 671.7 488.5 671.2 488.5 C 670.7 488.5 670.4 488.1 670.4 487.4 C 670.4 486.8 670.7 486.3 671.2 486.3 C 671.7 486.3 672.0 486.7 672.0 487.4 " fill="#FFFEFE"></path><path d="M 677.7 485.0 L 677.6 485.5 C 677.1 485.0 676.5 484.8 675.8 484.8 C 674.9 484.8 674.1 485.3 674.1 486.3 C 674.1 488.5 677.5 487.5 677.5 488.4 C 677.5 488.8 677.1 488.8 676.9 488.8 C 676.6 488.8 676.3 488.8 676.2 488.3 L 674.4 488.3 C 674.4 489.4 675.1 490.0 677.0 490.0 C 679.2 490.0 679.4 489.1 679.4 488.0 L 679.4 485.7 C 679.4 485.4 679.4 485.3 679.6 485.0 L 679.6 485.0 L 677.7 485.0 Z M 677.5 487.1 C 676.9 486.8 676.1 487.0 676.1 486.3 C 676.1 486.1 676.3 485.9 676.7 485.9 C 677.3 485.9 677.5 486.4 677.5 487.1 " fill="#FFFEFE"></path><path d="M 680.2 489.8 L 681.9 489.8 L 681.9 488.9 L 681.9 488.9 C 682.2 489.6 682.6 490.0 683.4 490.0 C 683.4 490.0 683.5 490.0 683.6 490.0 L 683.6 488.0 C 683.5 488.0 683.3 488.1 683.2 488.1 C 682.4 488.1 682.1 487.7 682.1 486.6 L 682.1 485.0 L 680.2 485.0 L 680.2 489.8 " fill="#FFFEFE"></path><path d="M 685.8 486.3 L 685.8 485.0 L 684.0 485.0 L 684.0 491.7 L 685.8 491.7 L 685.8 488.3 L 687.0 489.8 L 689.2 489.8 L 687.5 487.9 L 689.5 485.0 L 687.2 485.0 L 686.2 486.7 L 685.8 486.3 " fill="#FFFEFE"></path></g></g><g><clipPath id="clip-71"><path d="M 622.0 534.6 L 712.9 534.6 L 712.9 417.0 L 622.0 417.0 Z M 622.0 534.6 "></path></clipPath><g clip-path="url(#clip-71)"><g><clipPath id="clip-72"><path d="M 622.0 417.0 L 713.0 417.0 L 713.0 535.0 L 622.0 535.0 Z M 622.0 417.0 "></path></clipPath><g clip-path="url(#clip-72)"><path d="M 691.2 486.5 C 691.2 486.3 691.3 486.1 691.4 486.0 C 691.5 485.9 691.7 485.9 691.8 485.9 C 692.1 485.9 692.4 486.0 692.4 486.3 C 692.4 487.1 689.5 486.5 689.5 488.4 C 689.5 489.6 690.8 490.0 691.8 490.0 C 692.8 490.0 694.0 489.7 694.1 488.4 L 692.4 488.4 C 692.4 488.6 692.3 488.7 692.2 488.8 C 692.1 488.9 692.0 488.9 691.9 488.9 C 691.5 488.9 691.3 488.8 691.3 488.6 C 691.3 487.9 694.3 488.3 694.3 486.5 C 694.3 485.5 693.5 484.8 691.8 484.8 C 690.7 484.8 689.5 485.2 689.4 486.5 L 691.2 486.5 " fill="#FFFEFE"></path><path d="M 677.7 432.4 L 677.7 439.9 C 677.7 442.8 676.3 444.3 673.5 444.3 L 667.2 444.3 L 667.2 417.0 L 670.7 417.0 L 670.7 428.0 L 673.6 428.0 C 676.3 428.0 677.7 429.5 677.7 432.4 M 674.3 432.6 C 674.3 431.6 673.8 431.1 672.9 431.1 L 670.7 431.1 L 670.7 441.2 L 672.7 441.2 C 673.8 441.2 674.3 440.7 674.3 439.7 L 674.3 432.6 " fill="#FFFFFF"></path><path d="M 687.7 420.1 L 682.9 420.1 L 682.9 444.3 L 679.4 444.3 L 679.4 417.0 L 687.7 417.0 L 687.7 420.1 " fill="#FFFFFF"></path><path d="M 700.0 417.0 L 700.0 439.9 C 700.0 442.8 698.7 444.3 695.9 444.3 L 693.3 444.3 C 690.5 444.3 689.2 442.8 689.2 439.9 L 689.2 417.0 L 692.6 417.0 L 692.6 428.1 L 696.6 428.1 L 696.6 417.0 L 700.0 417.0 Z M 696.6 431.2 L 692.6 431.2 L 692.6 439.7 C 692.6 440.7 693.1 441.2 694.1 441.2 L 695.1 441.2 C 696.1 441.2 696.6 440.7 696.6 439.7 L 696.6 431.2 " fill="#FFFFFF"></path><path d="M 708.7 428.2 L 712.8 444.3 L 709.4 444.3 L 707.1 433.2 L 707.0 433.2 L 704.4 444.3 L 701.0 444.3 L 705.2 428.2 L 705.2 417.0 L 708.7 417.0 L 708.7 428.2 " fill="#FFFFFF"></path></g></g></g></g><g><clipPath id="clip-73"><path d="M 622.0 417.0 L 713.0 417.0 L 713.0 535.0 L 622.0 535.0 Z M 622.0 417.0 "></path></clipPath><g clip-path="url(#clip-73)"><path d="M 632.9 424.1 L 632.9 440.8 C 632.9 443.1 631.5 444.3 628.7 444.3 L 626.1 444.3 C 623.4 444.3 622.0 443.1 622.0 440.8 L 622.0 424.1 L 625.5 424.1 L 625.5 431.5 L 629.4 431.5 L 629.4 424.1 L 632.9 424.1 Z M 629.4 433.9 L 625.5 433.9 L 625.5 440.7 C 625.5 441.5 626.0 441.8 627.0 441.8 L 627.9 441.8 C 628.9 441.8 629.4 441.5 629.4 440.7 L 629.4 433.9 " fill="#FFFEFE"></path><path d="M 639.7 444.3 L 636.2 444.3 L 636.2 424.1 L 639.7 424.1 L 639.7 437.3 L 643.4 428.1 L 643.4 424.1 L 646.8 424.1 L 646.8 444.3 L 643.4 444.3 L 643.4 434.5 L 639.7 444.3 " fill="#FFFEFE"></path><path d="M 661.1 427.0 L 661.1 440.4 C 661.1 443.0 659.4 444.3 656.2 444.3 L 650.2 444.3 L 650.2 424.1 L 656.9 424.1 C 659.7 424.1 661.1 425.1 661.1 427.0 M 657.6 427.4 C 657.6 426.8 657.1 426.5 656.2 426.5 L 653.6 426.5 L 653.6 441.8 L 656.0 441.8 C 657.1 441.8 657.6 441.4 657.6 440.4 L 657.6 427.4 " fill="#FFFEFE"></path><path d="M 628.9 453.9 L 628.9 452.4 C 628.9 451.3 628.5 450.8 627.6 450.8 L 626.7 450.8 C 625.8 450.8 625.4 451.3 625.4 452.4 L 625.4 469.9 C 625.4 471.0 625.8 471.5 626.7 471.5 L 627.4 471.5 C 628.4 471.5 628.9 471.0 628.9 469.9 L 628.9 467.1 L 632.3 467.1 L 632.3 470.2 C 632.3 473.3 630.9 474.8 628.2 474.8 L 626.1 474.8 C 623.4 474.8 622.0 473.3 622.0 470.2 L 622.0 452.1 C 622.0 449.0 623.4 447.5 626.1 447.5 L 628.2 447.5 C 630.9 447.5 632.3 449.0 632.3 452.1 L 632.3 453.9 L 628.9 453.9 " fill="#FFFEFE"></path><path d="M 645.5 452.1 L 645.5 470.1 C 645.5 473.3 644.1 474.8 641.4 474.8 L 638.2 474.8 C 635.5 474.8 634.1 473.3 634.1 470.1 L 634.1 452.1 C 634.1 449.0 635.5 447.5 638.2 447.5 L 641.4 447.5 C 644.1 447.5 645.5 449.0 645.5 452.1 M 642.1 452.4 C 642.1 451.3 641.7 450.8 640.8 450.8 L 639.0 450.8 C 638.0 450.8 637.5 451.3 637.5 452.4 L 637.5 469.9 C 637.5 471.0 638.0 471.5 639.0 471.5 L 640.6 471.5 C 641.6 471.5 642.1 471.0 642.1 469.9 L 642.1 452.4 " fill="#FFFEFE"></path><path d="M 651.1 474.8 L 647.3 474.8 L 647.3 447.5 L 650.7 447.5 L 650.4 465.4 L 652.9 452.4 L 655.5 452.4 L 658.1 465.4 L 657.7 447.5 L 661.1 447.5 L 661.1 474.8 L 657.4 474.8 L 654.2 458.8 L 651.1 474.8 " fill="#FFFEFE"></path><path d="M 671.3 447.5 L 671.3 450.8 L 666.3 450.8 L 666.3 459.9 L 670.8 459.9 L 670.8 463.2 L 666.3 463.2 L 666.3 471.5 L 671.3 471.5 L 671.3 474.8 L 662.9 474.8 L 662.9 447.5 L 671.3 447.5 " fill="#FFFEFE"></path><path d="M 688.2 452.1 L 688.2 470.1 C 688.2 473.3 686.9 474.8 684.2 474.8 L 680.9 474.8 C 678.2 474.8 676.9 473.3 676.9 470.1 L 676.9 452.1 C 676.9 449.0 678.3 447.5 681.0 447.5 L 684.2 447.5 C 686.9 447.5 688.2 449.0 688.2 452.1 M 684.9 452.4 C 684.9 451.3 684.4 450.8 683.5 450.8 L 681.8 450.8 C 680.8 450.8 680.3 451.3 680.3 452.4 L 680.3 469.9 C 680.3 471.0 680.8 471.5 681.8 471.5 L 683.3 471.5 C 684.4 471.5 684.9 471.0 684.9 469.9 L 684.9 452.4 " fill="#FFFFFF"></path><path d="M 697.7 474.8 L 697.7 452.6 C 697.7 451.4 697.3 450.8 696.3 450.8 L 695.0 450.8 C 694.0 450.8 693.5 451.4 693.5 452.6 L 693.5 474.8 L 690.1 474.8 L 690.1 452.7 C 690.1 449.2 691.5 447.5 694.2 447.5 L 697.0 447.5 C 699.7 447.5 701.1 449.2 701.1 452.7 L 701.1 474.8 L 697.7 474.8 " fill="#FFFFFF"></path><path d="M 712.8 471.5 L 712.8 474.8 L 703.0 474.8 L 703.0 471.5 L 706.2 471.5 L 706.2 447.5 L 709.6 447.5 L 709.6 471.5 L 712.8 471.5 " fill="#FFFFFF"></path><path d="M 622.0 482.0 L 712.9 482.0 L 712.9 478.0 L 622.0 478.0 Z M 622.0 482.0 " fill="#FFFEFE"></path></g></g></g></svg>