<?xml version="1.0" encoding="UTF-8" standalone="no"?><svg xmlns="http://www.w3.org/2000/svg" xmlns:xlink="http://www.w3.org/1999/xlink" clip-rule="evenodd" stroke-miterlimit="4.00" viewBox="0 0 1024 768"><desc>SVG generated by Keynote</desc><defs></defs><g transform="matrix(1.00, 0.00, -0.00, -1.00, 0.0, 768.0)"><path d="M 0.0 768.0 L 1024.0 768.0 L 1024.0 0.0 L 0.0 0.0 Z M 0.0 768.0 " fill="#000000"></path><text xml:space="preserve" font-family="Helvetica-Light" font-size="70.4" fill="#FEFFFF" transform="matrix(1.00, 0.00, -0.00, -1.00, 185.0, 442.0)">Q</text><text xml:space="preserve" font-family="Helvetica-Light" font-size="70.4" fill="#FEFFFF" transform="matrix(1.00, 0.00, -0.00, -1.00, 239.8, 442.0)">u</text><text xml:space="preserve" font-family="Helvetica-Light" font-size="70.4" fill="#FEFFFF" transform="matrix(1.00, 0.00, -0.00, -1.00, 278.9, 442.0)">i</text><text xml:space="preserve" font-family="Helvetica-Light" font-size="70.4" fill="#FEFFFF" transform="matrix(1.00, 0.00, -0.00, -1.00, 294.5, 442.0)">c</text><text xml:space="preserve" font-family="Helvetica-Light" font-size="70.4" fill="#FEFFFF" transform="matrix(1.00, 0.00, -0.00, -1.00, 333.7, 442.0)">k</text><text xml:space="preserve" font-family="Helvetica-Light" font-size="70.4" fill="#FEFFFF" transform="matrix(1.00, 0.00, -0.00, -1.00, 368.9, 442.0)"> </text><text xml:space="preserve" font-family="Helvetica-Light" font-size="70.4" fill="#FEFFFF" transform="matrix(1.00, 0.00, -0.00, -1.00, 388.5, 442.0)">a</text><text xml:space="preserve" font-family="Helvetica-Light" font-size="70.4" fill="#FEFFFF" transform="matrix(1.00, 0.00, -0.00, -1.00, 427.6, 442.0)">n</text><text xml:space="preserve" font-family="Helvetica-Light" font-size="70.4" fill="#FEFFFF" transform="matrix(1.00, 0.00, -0.00, -1.00, 466.7, 442.0)">d</text><text xml:space="preserve" font-family="Helvetica-Light" font-size="70.4" fill="#FEFFFF" transform="matrix(1.00, 0.00, -0.00, -1.00, 509.8, 442.0)"> </text><text xml:space="preserve" font-family="Helvetica-Light" font-size="70.4" fill="#FEFFFF" transform="matrix(1.00, 0.00, -0.00, -1.00, 529.3, 442.0)">d</text><text xml:space="preserve" font-family="Helvetica-Light" font-size="70.4" fill="#FEFFFF" transform="matrix(1.00, 0.00, -0.00, -1.00, 572.3, 442.0)">i</text><text xml:space="preserve" font-family="Helvetica-Light" font-size="70.4" fill="#FEFFFF" transform="matrix(1.00, 0.00, -0.00, -1.00, 588.0, 442.0)">r</text><text xml:space="preserve" font-family="Helvetica-Light" font-size="70.4" fill="#FEFFFF" transform="matrix(1.00, 0.00, -0.00, -1.00, 612.7, 442.0)">t</text><text xml:space="preserve" font-family="Helvetica-Light" font-size="70.4" fill="#FEFFFF" transform="matrix(1.00, 0.00, -0.00, -1.00, 632.3, 442.0)">y</text><text xml:space="preserve" font-family="Helvetica-Light" font-size="70.4" fill="#FEFFFF" transform="matrix(1.00, 0.00, -0.00, -1.00, 667.5, 442.0)"> </text><text xml:space="preserve" font-family="Helvetica-Light" font-size="70.4" fill="#FEFFFF" transform="matrix(1.00, 0.00, -0.00, -1.00, 687.0, 442.0)">D</text><text xml:space="preserve" font-family="Helvetica-Light" font-size="70.4" fill="#FEFFFF" transform="matrix(1.00, 0.00, -0.00, -1.00, 737.9, 442.0)">S</text><text xml:space="preserve" font-family="Helvetica-Light" font-size="70.4" fill="#FEFFFF" transform="matrix(1.00, 0.00, -0.00, -1.00, 780.9, 442.0)">M</text><text xml:space="preserve" font-family="Helvetica-Light" font-size="70.4" fill="#FEFFFF" transform="matrix(1.00, 0.00, -0.00, -1.00, 839.5, 442.0)"> </text><text xml:space="preserve" font-family="Helvetica-Light" font-size="70.4" fill="#FEFFFF" transform="matrix(1.00, 0.00, -0.00, -1.00, 354.0, 358.0)">C</text><text xml:space="preserve" font-family="Helvetica-Light" font-size="70.4" fill="#FEFFFF" transform="matrix(1.00, 0.00, -0.00, -1.00, 404.8, 358.0)">o</text><text xml:space="preserve" font-family="Helvetica-Light" font-size="70.4" fill="#FEFFFF" transform="matrix(1.00, 0.00, -0.00, -1.00, 444.0, 358.0)">n</text><text xml:space="preserve" font-family="Helvetica-Light" font-size="70.4" fill="#FEFFFF" transform="matrix(1.00, 0.00, -0.00, -1.00, 483.1, 358.0)">ﬂ</text><text xml:space="preserve" font-family="Helvetica-Light" font-size="70.4" fill="#FEFFFF" transform="matrix(1.00, 0.00, -0.00, -1.00, 518.3, 358.0)">a</text><text xml:space="preserve" font-family="Helvetica-Light" font-size="70.4" fill="#FEFFFF" transform="matrix(1.00, 0.00, -0.00, -1.00, 557.5, 358.0)">t</text><text xml:space="preserve" font-family="Helvetica-Light" font-size="70.4" fill="#FEFFFF" transform="matrix(1.00, 0.00, -0.00, -1.00, 577.0, 358.0)">i</text><text xml:space="preserve" font-family="Helvetica-Light" font-size="70.4" fill="#FEFFFF" transform="matrix(1.00, 0.00, -0.00, -1.00, 592.7, 358.0)">o</text><text xml:space="preserve" font-family="Helvetica-Light" font-size="70.4" fill="#FEFFFF" transform="matrix(1.00, 0.00, -0.00, -1.00, 631.8, 358.0)">n</text><text xml:space="preserve" font-family="Helvetica-Light" font-size="70.4" fill="#FEFFFF" transform="matrix(1.00, 0.00, -0.00, -1.00, 670.9, 358.0)"> </text><text xml:space="preserve" font-family="Helvetica-Light" font-size="70.4" fill="#FEFFFF" transform="matrix(1.00, 0.00, -0.00, -1.00, 215.0, 274.0)">(</text><text xml:space="preserve" font-family="Helvetica-Light" font-size="70.4" fill="#FEFFFF" transform="matrix(1.00, 0.00, -0.00, -1.00, 238.4, 274.0)">Z</text><text xml:space="preserve" font-family="Helvetica-Light" font-size="70.4" fill="#FEFFFF" transform="matrix(1.00, 0.00, -0.00, -1.00, 281.5, 274.0)"> </text><text xml:space="preserve" font-family="Helvetica-Light" font-size="70.4" fill="#FEFFFF" transform="matrix(1.00, 0.00, -0.00, -1.00, 301.0, 274.0)">D</text><text xml:space="preserve" font-family="Helvetica-Light" font-size="70.4" fill="#FEFFFF" transform="matrix(1.00, 0.00, -0.00, -1.00, 351.9, 274.0)">a</text><text xml:space="preserve" font-family="Helvetica-Light" font-size="70.4" fill="#FEFFFF" transform="matrix(1.00, 0.00, -0.00, -1.00, 391.0, 274.0)">t</text><text xml:space="preserve" font-family="Helvetica-Light" font-size="70.4" fill="#FEFFFF" transform="matrix(1.00, 0.00, -0.00, -1.00, 410.6, 274.0)">a</text><text xml:space="preserve" font-family="Helvetica-Light" font-size="70.4" fill="#FEFFFF" transform="matrix(1.00, 0.00, -0.00, -1.00, 449.7, 274.0)"> </text><text xml:space="preserve" font-family="Helvetica-Light" font-size="70.4" fill="#FEFFFF" transform="matrix(1.00, 0.00, -0.00, -1.00, 469.3, 274.0)">C</text><text xml:space="preserve" font-family="Helvetica-Light" font-size="70.4" fill="#FEFFFF" transform="matrix(1.00, 0.00, -0.00, -1.00, 520.1, 274.0)">o</text><text xml:space="preserve" font-family="Helvetica-Light" font-size="70.4" fill="#FEFFFF" transform="matrix(1.00, 0.00, -0.00, -1.00, 559.3, 274.0)">n</text><text xml:space="preserve" font-family="Helvetica-Light" font-size="70.4" fill="#FEFFFF" transform="matrix(1.00, 0.00, -0.00, -1.00, 598.4, 274.0)">ﬂ</text><text xml:space="preserve" font-family="Helvetica-Light" font-size="70.4" fill="#FEFFFF" transform="matrix(1.00, 0.00, -0.00, -1.00, 633.6, 274.0)">a</text><text xml:space="preserve" font-family="Helvetica-Light" font-size="70.4" fill="#FEFFFF" transform="matrix(1.00, 0.00, -0.00, -1.00, 672.7, 274.0)">t</text><text xml:space="preserve" font-family="Helvetica-Light" font-size="70.4" fill="#FEFFFF" transform="matrix(1.00, 0.00, -0.00, -1.00, 692.3, 274.0)">i</text><text xml:space="preserve" font-family="Helvetica-Light" font-size="70.4" fill="#FEFFFF" transform="matrix(1.00, 0.00, -0.00, -1.00, 707.9, 274.0)">o</text><text xml:space="preserve" font-family="Helvetica-Light" font-size="70.4" fill="#FEFFFF" transform="matrix(1.00, 0.00, -0.00, -1.00, 747.1, 274.0)">n</text><text xml:space="preserve" font-family="Helvetica-Light" font-size="70.4" fill="#FEFFFF" transform="matrix(1.00, 0.00, -0.00, -1.00, 786.2, 274.0)">)</text></g></svg>