<?xml version="1.0" encoding="UTF-8" standalone="no"?><svg xmlns="http://www.w3.org/2000/svg" xmlns:xlink="http://www.w3.org/1999/xlink" clip-rule="evenodd" stroke-miterlimit="4.00" viewBox="0 0 720 540"><desc>SVG generated by Keynote</desc><defs></defs><g transform="matrix(1.00, 0.00, -0.00, -1.00, 0.0, 540.0)"><path d="M 0.0 540.0 L 720.0 540.0 L 720.0 0.0 L 0.0 0.0 Z M 0.0 540.0 " fill="#000000"></path><image xlink:href="../../9C19C261-1406-4649-B388-9F0A06E95BDC/assets/518784FE563D158B1A2D0774AE2CB303.png" width="660.00" height="443.00" transform="matrix(1.00, 0.00, -0.00, -1.00, 30.3, 561.6)"></image><text xml:space="preserve" font-family="Helvetica-Bold" font-weight="bold" font-size="56.0" fill="#FEFFFF" transform="matrix(1.00, 0.00, -0.00, -1.00, 259.0, 243.0)">R</text><text xml:space="preserve" font-family="Helvetica-Bold" font-weight="bold" font-size="56.0" fill="#FEFFFF" transform="matrix(1.00, 0.00, -0.00, -1.00, 299.5, 243.0)">e</text><text xml:space="preserve" font-family="Helvetica-Bold" font-weight="bold" font-size="56.0" fill="#FEFFFF" transform="matrix(1.00, 0.00, -0.00, -1.00, 330.6, 243.0)">s</text><text xml:space="preserve" font-family="Helvetica-Bold" font-weight="bold" font-size="56.0" fill="#FEFFFF" transform="matrix(1.00, 0.00, -0.00, -1.00, 361.8, 243.0)">u</text><text xml:space="preserve" font-family="Helvetica-Bold" font-weight="bold" font-size="56.0" fill="#FEFFFF" transform="matrix(1.00, 0.00, -0.00, -1.00, 396.0, 243.0)">l</text><text xml:space="preserve" font-family="Helvetica-Bold" font-weight="bold" font-size="56.0" fill="#FEFFFF" transform="matrix(1.00, 0.00, -0.00, -1.00, 411.5, 243.0)">t</text><text xml:space="preserve" font-family="Helvetica-Bold" font-weight="bold" font-size="56.0" fill="#FEFFFF" transform="matrix(1.00, 0.00, -0.00, -1.00, 430.2, 243.0)">s</text><text xml:space="preserve" font-family="Calibri" font-size="14.0" fill="#0463C1" transform="matrix(1.00, 0.00, -0.00, -1.00, 217.0, 5.0)">h</text><text xml:space="preserve" font-family="Calibri" font-size="14.0" fill="#0463C1" transform="matrix(1.00, 0.00, -0.00, -1.00, 224.2, 5.0)">t</text><text xml:space="preserve" font-family="Calibri" font-size="14.0" fill="#0463C1" transform="matrix(1.00, 0.00, -0.00, -1.00, 228.7, 5.0)">t</text><text xml:space="preserve" font-family="Calibri" font-size="14.0" fill="#0463C1" transform="matrix(1.00, 0.00, -0.00, -1.00, 233.4, 5.0)">p</text><text xml:space="preserve" font-family="Calibri" font-size="14.0" fill="#0463C1" transform="matrix(1.00, 0.00, -0.00, -1.00, 240.7, 5.0)">s</text><text xml:space="preserve" font-family="Calibri" font-size="14.0" fill="#0463C1" transform="matrix(1.00, 0.00, -0.00, -1.00, 246.2, 5.0)">:</text><text xml:space="preserve" font-family="Calibri" font-size="14.0" fill="#0463C1" transform="matrix(1.00, 0.00, -0.00, -1.00, 249.9, 5.0)">/</text><text xml:space="preserve" font-family="Calibri" font-size="14.0" fill="#0463C1" transform="matrix(1.00, 0.00, -0.00, -1.00, 255.3, 5.0)">/</text><text xml:space="preserve" font-family="Calibri" font-size="14.0" fill="#0463C1" transform="matrix(1.00, 0.00, -0.00, -1.00, 260.7, 5.0)">w</text><text xml:space="preserve" font-family="Calibri" font-size="14.0" fill="#0463C1" transform="matrix(1.00, 0.00, -0.00, -1.00, 270.8, 5.0)">w</text><text xml:space="preserve" font-family="Calibri" font-size="14.0" fill="#0463C1" transform="matrix(1.00, 0.00, -0.00, -1.00, 280.9, 5.0)">w</text><text xml:space="preserve" font-family="Calibri" font-size="14.0" fill="#0463C1" transform="matrix(1.00, 0.00, -0.00, -1.00, 290.0, 5.0)">.</text><text xml:space="preserve" font-family="Calibri" font-size="14.0" fill="#0463C1" transform="matrix(1.00, 0.00, -0.00, -1.00, 293.0, 5.0)">y</text><text xml:space="preserve" font-family="Calibri" font-size="14.0" fill="#0463C1" transform="matrix(1.00, 0.00, -0.00, -1.00, 299.2, 5.0)">o</text><text xml:space="preserve" font-family="Calibri" font-size="14.0" fill="#0463C1" transform="matrix(1.00, 0.00, -0.00, -1.00, 306.5, 5.0)">u</text><text xml:space="preserve" font-family="Calibri" font-size="14.0" fill="#0463C1" transform="matrix(1.00, 0.00, -0.00, -1.00, 313.9, 5.0)">t</text><text xml:space="preserve" font-family="Calibri" font-size="14.0" fill="#0463C1" transform="matrix(1.00, 0.00, -0.00, -1.00, 318.6, 5.0)">u</text><text xml:space="preserve" font-family="Calibri" font-size="14.0" fill="#0463C1" transform="matrix(1.00, 0.00, -0.00, -1.00, 326.0, 5.0)">b</text><text xml:space="preserve" font-family="Calibri" font-size="14.0" fill="#0463C1" transform="matrix(1.00, 0.00, -0.00, -1.00, 333.3, 5.0)">e</text><text xml:space="preserve" font-family="Calibri" font-size="14.0" fill="#0463C1" transform="matrix(1.00, 0.00, -0.00, -1.00, 340.3, 5.0)">.</text><text xml:space="preserve" font-family="Calibri" font-size="14.0" fill="#0463C1" transform="matrix(1.00, 0.00, -0.00, -1.00, 343.8, 5.0)">c</text><text xml:space="preserve" font-family="Calibri" font-size="14.0" fill="#0463C1" transform="matrix(1.00, 0.00, -0.00, -1.00, 349.6, 5.0)">o</text><text xml:space="preserve" font-family="Calibri" font-size="14.0" fill="#0463C1" transform="matrix(1.00, 0.00, -0.00, -1.00, 357.0, 5.0)">m</text><text xml:space="preserve" font-family="Calibri" font-size="14.0" fill="#0463C1" transform="matrix(1.00, 0.00, -0.00, -1.00, 368.2, 5.0)">/</text><text xml:space="preserve" font-family="Calibri" font-size="14.0" fill="#0463C1" transform="matrix(1.00, 0.00, -0.00, -1.00, 373.6, 5.0)">w</text><text xml:space="preserve" font-family="Calibri" font-size="14.0" fill="#0463C1" transform="matrix(1.00, 0.00, -0.00, -1.00, 383.4, 5.0)">a</text><text xml:space="preserve" font-family="Calibri" font-size="14.0" fill="#0463C1" transform="matrix(1.00, 0.00, -0.00, -1.00, 390.0, 5.0)">t</text><text xml:space="preserve" font-family="Calibri" font-size="14.0" fill="#0463C1" transform="matrix(1.00, 0.00, -0.00, -1.00, 394.5, 5.0)">c</text><text xml:space="preserve" font-family="Calibri" font-size="14.0" fill="#0463C1" transform="matrix(1.00, 0.00, -0.00, -1.00, 400.5, 5.0)">h</text><text xml:space="preserve" font-family="Calibri" font-size="14.0" fill="#0463C1" transform="matrix(1.00, 0.00, -0.00, -1.00, 407.8, 5.0)">?</text><text xml:space="preserve" font-family="Calibri" font-size="14.0" fill="#0463C1" transform="matrix(1.00, 0.00, -0.00, -1.00, 414.3, 5.0)">v</text><text xml:space="preserve" font-family="Calibri" font-size="14.0" fill="#0463C1" transform="matrix(1.00, 0.00, -0.00, -1.00, 420.6, 5.0)">=</text><text xml:space="preserve" font-family="Calibri" font-size="14.0" fill="#0463C1" transform="matrix(1.00, 0.00, -0.00, -1.00, 427.6, 5.0)">P</text><text xml:space="preserve" font-family="Calibri" font-size="14.0" fill="#0463C1" transform="matrix(1.00, 0.00, -0.00, -1.00, 434.8, 5.0)">v</text><text xml:space="preserve" font-family="Calibri" font-size="14.0" fill="#0463C1" transform="matrix(1.00, 0.00, -0.00, -1.00, 441.1, 5.0)">k</text><text xml:space="preserve" font-family="Calibri" font-size="14.0" fill="#0463C1" transform="matrix(1.00, 0.00, -0.00, -1.00, 447.2, 5.0)">c</text><text xml:space="preserve" font-family="Calibri" font-size="14.0" fill="#0463C1" transform="matrix(1.00, 0.00, -0.00, -1.00, 453.1, 5.0)">q</text><text xml:space="preserve" font-family="Calibri" font-size="14.0" fill="#0463C1" transform="matrix(1.00, 0.00, -0.00, -1.00, 460.5, 5.0)">g</text><text xml:space="preserve" font-family="Calibri" font-size="14.0" fill="#0463C1" transform="matrix(1.00, 0.00, -0.00, -1.00, 467.1, 5.0)">p</text><text xml:space="preserve" font-family="Calibri" font-size="14.0" fill="#0463C1" transform="matrix(1.00, 0.00, -0.00, -1.00, 474.5, 5.0)">Z</text><text xml:space="preserve" font-family="Calibri" font-size="14.0" fill="#0463C1" transform="matrix(1.00, 0.00, -0.00, -1.00, 481.0, 5.0)">J</text><text xml:space="preserve" font-family="Calibri" font-size="14.0" fill="#0463C1" transform="matrix(1.00, 0.00, -0.00, -1.00, 485.5, 5.0)">C</text><text xml:space="preserve" font-family="Calibri" font-size="14.0" fill="#0463C1" transform="matrix(1.00, 0.00, -0.00, -1.00, 493.0, 5.0)">w</text><g><clipPath id="clip-28"><path d="M 215.5 1.7 L 502.5 1.7 L 502.5 4.6 L 215.5 4.6 Z M 215.5 1.7 "></path></clipPath><g clip-path="url(#clip-28)"><path d="M 3.6 18.4 L 289.5 18.4 " fill="none" stroke="#0463C1" stroke-width="0.92" stroke-miterlimit="0.00" transform="matrix(1.00, 0.00, 0.00, -1.00, 212.9, 21.6)"></path></g></g><g opacity="0.38"><g><clipPath id="clip-29"><path d="M 0.0 0.0 L 720.0 0.0 L 720.0 540.0 L 0.0 540.0 Z M 0.0 0.0 "></path></clipPath><g clip-path="url(#clip-29)"><image xlink:href="../../9C19C261-1406-4649-B388-9F0A06E95BDC/assets/D7F426B7648EAD7761FF4F43B17A8A5A.png" width="973.00" height="547.00" transform="matrix(1.00, 0.00, -0.00, -1.00, -100.0, 543.0)"></image></g></g></g></g></svg>