<?xml version="1.0" encoding="UTF-8" standalone="no"?><svg xmlns="http://www.w3.org/2000/svg" xmlns:xlink="http://www.w3.org/1999/xlink" clip-rule="evenodd" stroke-miterlimit="4.00" viewBox="0 0 266 25"><desc>SVG generated by Keynote</desc><defs></defs><g transform="matrix(1.00, 0.00, -0.00, -1.00, 0.0, 25.0)"><text xml:space="preserve" font-family="HelveticaNeue" font-size="16.8" fill="#A7D3A9" transform="matrix(1.00, 0.00, -0.00, -1.00, 0.5, 9.2)">•</text><text xml:space="preserve" font-family="HelveticaNeue" font-size="22.4" fill="#A7D3A9" transform="matrix(1.00, 0.00, -0.00, -1.00, 21.0, 7.0)">W</text><text xml:space="preserve" font-family="HelveticaNeue" font-size="22.4" fill="#A7D3A9" transform="matrix(1.00, 0.00, -0.00, -1.00, 40.4, 7.0)">e</text><text xml:space="preserve" font-family="HelveticaNeue" font-size="22.4" fill="#A7D3A9" transform="matrix(1.00, 0.00, -0.00, -1.00, 52.4, 7.0)"> </text><text xml:space="preserve" font-family="HelveticaNeue" font-size="22.4" fill="#A7D3A9" transform="matrix(1.00, 0.00, -0.00, -1.00, 58.7, 7.0)">c</text><text xml:space="preserve" font-family="HelveticaNeue" font-size="22.4" fill="#A7D3A9" transform="matrix(1.00, 0.00, -0.00, -1.00, 70.7, 7.0)">a</text><text xml:space="preserve" font-family="HelveticaNeue" font-size="22.4" fill="#A7D3A9" transform="matrix(1.00, 0.00, -0.00, -1.00, 82.7, 7.0)">n</text><text xml:space="preserve" font-family="HelveticaNeue" font-size="22.4" fill="#A7D3A9" transform="matrix(1.00, 0.00, -0.00, -1.00, 95.1, 7.0)"> </text><text xml:space="preserve" font-family="HelveticaNeue" font-size="22.4" fill="#A7D3A9" transform="matrix(1.00, 0.00, -0.00, -1.00, 101.3, 7.0)">b</text><text xml:space="preserve" font-family="HelveticaNeue" font-size="22.4" fill="#A7D3A9" transform="matrix(1.00, 0.00, -0.00, -1.00, 114.6, 7.0)">r</text><text xml:space="preserve" font-family="HelveticaNeue" font-size="22.4" fill="#A7D3A9" transform="matrix(1.00, 0.00, -0.00, -1.00, 122.0, 7.0)">i</text><text xml:space="preserve" font-family="HelveticaNeue" font-size="22.4" fill="#A7D3A9" transform="matrix(1.00, 0.00, -0.00, -1.00, 127.0, 7.0)">n</text><text xml:space="preserve" font-family="HelveticaNeue" font-size="22.4" fill="#A7D3A9" transform="matrix(1.00, 0.00, -0.00, -1.00, 139.4, 7.0)">g</text><text xml:space="preserve" font-family="HelveticaNeue" font-size="22.4" fill="#A7D3A9" transform="matrix(1.00, 0.00, -0.00, -1.00, 152.3, 7.0)"> </text><text xml:space="preserve" font-family="HelveticaNeue" font-size="22.4" fill="#A7D3A9" transform="matrix(1.00, 0.00, -0.00, -1.00, 158.5, 7.0)">i</text><text xml:space="preserve" font-family="HelveticaNeue" font-size="22.4" fill="#A7D3A9" transform="matrix(1.00, 0.00, -0.00, -1.00, 163.4, 7.0)">n</text><text xml:space="preserve" font-family="HelveticaNeue" font-size="22.4" fill="#A7D3A9" transform="matrix(1.00, 0.00, -0.00, -1.00, 175.9, 7.0)"> </text><text xml:space="preserve" font-family="HelveticaNeue" font-size="22.4" fill="#A7D3A9" transform="matrix(1.00, 0.00, -0.00, -1.00, 182.1, 7.0)">p</text><text xml:space="preserve" font-family="HelveticaNeue" font-size="22.4" fill="#A7D3A9" transform="matrix(1.00, 0.00, -0.00, -1.00, 195.3, 7.0)">a</text><text xml:space="preserve" font-family="HelveticaNeue" font-size="22.4" fill="#A7D3A9" transform="matrix(1.00, 0.00, -0.00, -1.00, 207.3, 7.0)">r</text><text xml:space="preserve" font-family="HelveticaNeue" font-size="22.4" fill="#A7D3A9" transform="matrix(1.00, 0.00, -0.00, -1.00, 214.8, 7.0)">t</text><text xml:space="preserve" font-family="HelveticaNeue" font-size="22.4" fill="#A7D3A9" transform="matrix(1.00, 0.00, -0.00, -1.00, 221.8, 7.0)">n</text><text xml:space="preserve" font-family="HelveticaNeue" font-size="22.4" fill="#A7D3A9" transform="matrix(1.00, 0.00, -0.00, -1.00, 234.3, 7.0)">e</text><text xml:space="preserve" font-family="HelveticaNeue" font-size="22.4" fill="#A7D3A9" transform="matrix(1.00, 0.00, -0.00, -1.00, 246.3, 7.0)">r</text><text xml:space="preserve" font-family="HelveticaNeue" font-size="22.4" fill="#A7D3A9" transform="matrix(1.00, 0.00, -0.00, -1.00, 253.7, 7.0)">s</text></g></svg>