<?xml version="1.0" encoding="UTF-8" standalone="no"?><svg xmlns="http://www.w3.org/2000/svg" xmlns:xlink="http://www.w3.org/1999/xlink" clip-rule="evenodd" stroke-miterlimit="4.00" viewBox="0 0 525 56"><desc>SVG generated by Keynote</desc><defs></defs><g transform="matrix(1.00, 0.00, -0.00, -1.00, 0.0, 56.0)"><text xml:space="preserve" font-family="HelveticaNeue" font-size="56.0" fill="#FEFFFF" transform="matrix(1.00, 0.00, -0.00, -1.00, 2.0, 14.0)">W</text><text xml:space="preserve" font-family="HelveticaNeue" font-size="56.0" fill="#FEFFFF" transform="matrix(1.00, 0.00, -0.00, -1.00, 53.9, 14.0)">h</text><text xml:space="preserve" font-family="HelveticaNeue" font-size="56.0" fill="#FEFFFF" transform="matrix(1.00, 0.00, -0.00, -1.00, 85.0, 14.0)">y</text><text xml:space="preserve" font-family="HelveticaNeue" font-size="56.0" fill="#FEFFFF" transform="matrix(1.00, 0.00, -0.00, -1.00, 113.0, 14.0)"> </text><text xml:space="preserve" font-family="HelveticaNeue" font-size="56.0" fill="#FEFFFF" transform="matrix(1.00, 0.00, -0.00, -1.00, 128.6, 14.0)">B</text><text xml:space="preserve" font-family="HelveticaNeue" font-size="56.0" fill="#FEFFFF" transform="matrix(1.00, 0.00, -0.00, -1.00, 166.9, 14.0)">u</text><text xml:space="preserve" font-family="HelveticaNeue" font-size="56.0" fill="#FEFFFF" transform="matrix(1.00, 0.00, -0.00, -1.00, 198.1, 14.0)">i</text><text xml:space="preserve" font-family="HelveticaNeue" font-size="56.0" fill="#FEFFFF" transform="matrix(1.00, 0.00, -0.00, -1.00, 210.5, 14.0)">l</text><text xml:space="preserve" font-family="HelveticaNeue" font-size="56.0" fill="#FEFFFF" transform="matrix(1.00, 0.00, -0.00, -1.00, 222.9, 14.0)">d</text><text xml:space="preserve" font-family="HelveticaNeue" font-size="56.0" fill="#FEFFFF" transform="matrix(1.00, 0.00, -0.00, -1.00, 256.1, 14.0)"> </text><text xml:space="preserve" font-family="HelveticaNeue" font-size="56.0" fill="#FEFFFF" transform="matrix(1.00, 0.00, -0.00, -1.00, 271.7, 14.0)">O</text><text xml:space="preserve" font-family="HelveticaNeue" font-size="56.0" fill="#FEFFFF" transform="matrix(1.00, 0.00, -0.00, -1.00, 314.3, 14.0)">u</text><text xml:space="preserve" font-family="HelveticaNeue" font-size="56.0" fill="#FEFFFF" transform="matrix(1.00, 0.00, -0.00, -1.00, 345.4, 14.0)">r</text><text xml:space="preserve" font-family="HelveticaNeue" font-size="56.0" fill="#FEFFFF" transform="matrix(1.00, 0.00, -0.00, -1.00, 364.0, 14.0)"> </text><text xml:space="preserve" font-family="HelveticaNeue" font-size="56.0" fill="#FEFFFF" transform="matrix(1.00, 0.00, -0.00, -1.00, 379.6, 14.0)">O</text><text xml:space="preserve" font-family="HelveticaNeue" font-size="56.0" fill="#FEFFFF" transform="matrix(1.00, 0.00, -0.00, -1.00, 422.2, 14.0)">w</text><text xml:space="preserve" font-family="HelveticaNeue" font-size="56.0" fill="#FEFFFF" transform="matrix(1.00, 0.00, -0.00, -1.00, 464.6, 14.0)">n</text><text xml:space="preserve" font-family="HelveticaNeue" font-size="56.0" fill="#FEFFFF" transform="matrix(1.00, 0.00, -0.00, -1.00, 495.8, 14.0)">?</text></g></svg>