<?xml version="1.0" encoding="UTF-8" standalone="no"?><svg xmlns="http://www.w3.org/2000/svg" xmlns:xlink="http://www.w3.org/1999/xlink" clip-rule="evenodd" stroke-miterlimit="4.00" viewBox="0 0 154 25"><desc>SVG generated by Keynote</desc><defs></defs><g transform="matrix(1.00, 0.00, -0.00, -1.00, 0.0, 25.0)"><text xml:space="preserve" font-family="HelveticaNeue" font-size="16.8" fill="#A7D3A9" transform="matrix(1.00, 0.00, -0.00, -1.00, 0.5, 8.4)">•</text><text xml:space="preserve" font-family="HelveticaNeue" font-size="22.4" fill="#A7D3A9" transform="matrix(1.00, 0.00, -0.00, -1.00, 21.0, 6.0)">O</text><text xml:space="preserve" font-family="HelveticaNeue" font-size="22.4" fill="#A7D3A9" transform="matrix(1.00, 0.00, -0.00, -1.00, 38.0, 6.0)">p</text><text xml:space="preserve" font-family="HelveticaNeue" font-size="22.4" fill="#A7D3A9" transform="matrix(1.00, 0.00, -0.00, -1.00, 51.3, 6.0)">e</text><text xml:space="preserve" font-family="HelveticaNeue" font-size="22.4" fill="#A7D3A9" transform="matrix(1.00, 0.00, -0.00, -1.00, 63.3, 6.0)">n</text><text xml:space="preserve" font-family="HelveticaNeue" font-size="22.4" fill="#A7D3A9" transform="matrix(1.00, 0.00, -0.00, -1.00, 75.7, 6.0)"> </text><text xml:space="preserve" font-family="HelveticaNeue" font-size="22.4" fill="#A7D3A9" transform="matrix(1.00, 0.00, -0.00, -1.00, 81.9, 6.0)">S</text><text xml:space="preserve" font-family="HelveticaNeue" font-size="22.4" fill="#A7D3A9" transform="matrix(1.00, 0.00, -0.00, -1.00, 96.4, 6.0)">o</text><text xml:space="preserve" font-family="HelveticaNeue" font-size="22.4" fill="#A7D3A9" transform="matrix(1.00, 0.00, -0.00, -1.00, 109.2, 6.0)">u</text><text xml:space="preserve" font-family="HelveticaNeue" font-size="22.4" fill="#A7D3A9" transform="matrix(1.00, 0.00, -0.00, -1.00, 121.7, 6.0)">r</text><text xml:space="preserve" font-family="HelveticaNeue" font-size="22.4" fill="#A7D3A9" transform="matrix(1.00, 0.00, -0.00, -1.00, 128.7, 6.0)">c</text><text xml:space="preserve" font-family="HelveticaNeue" font-size="22.4" fill="#A7D3A9" transform="matrix(1.00, 0.00, -0.00, -1.00, 140.7, 6.0)">e</text></g></svg>