<?xml version="1.0" encoding="UTF-8" standalone="no"?><svg xmlns="http://www.w3.org/2000/svg" xmlns:xlink="http://www.w3.org/1999/xlink" clip-rule="evenodd" stroke-miterlimit="4.00" viewBox="0 0 246 25"><desc>SVG generated by Keynote</desc><defs></defs><g transform="matrix(1.00, 0.00, -0.00, -1.00, 0.0, 25.0)"><text xml:space="preserve" font-family="HelveticaNeue" font-size="16.8" fill="#FEFFFF" transform="matrix(1.00, 0.00, -0.00, -1.00, 0.5, 9.0)">•</text><text xml:space="preserve" font-family="HelveticaNeue" font-size="22.4" fill="#FEFFFF" transform="matrix(1.00, 0.00, -0.00, -1.00, 21.0, 7.0)">W</text><text xml:space="preserve" font-family="HelveticaNeue" font-size="22.4" fill="#FEFFFF" transform="matrix(1.00, 0.00, -0.00, -1.00, 40.4, 7.0)">e</text><text xml:space="preserve" font-family="HelveticaNeue" font-size="22.4" fill="#FEFFFF" transform="matrix(1.00, 0.00, -0.00, -1.00, 52.4, 7.0)"> </text><text xml:space="preserve" font-family="HelveticaNeue" font-size="22.4" fill="#FEFFFF" transform="matrix(1.00, 0.00, -0.00, -1.00, 58.7, 7.0)">c</text><text xml:space="preserve" font-family="HelveticaNeue" font-size="22.4" fill="#FEFFFF" transform="matrix(1.00, 0.00, -0.00, -1.00, 70.7, 7.0)">a</text><text xml:space="preserve" font-family="HelveticaNeue" font-size="22.4" fill="#FEFFFF" transform="matrix(1.00, 0.00, -0.00, -1.00, 82.7, 7.0)">n</text><text xml:space="preserve" font-family="HelveticaNeue" font-size="22.4" fill="#FEFFFF" transform="matrix(1.00, 0.00, -0.00, -1.00, 95.1, 7.0)"> </text><text xml:space="preserve" font-family="HelveticaNeue" font-size="22.4" fill="#FEFFFF" transform="matrix(1.00, 0.00, -0.00, -1.00, 101.3, 7.0)">l</text><text xml:space="preserve" font-family="HelveticaNeue" font-size="22.4" fill="#FEFFFF" transform="matrix(1.00, 0.00, -0.00, -1.00, 106.3, 7.0)">e</text><text xml:space="preserve" font-family="HelveticaNeue" font-size="22.4" fill="#FEFFFF" transform="matrix(1.00, 0.00, -0.00, -1.00, 118.3, 7.0)">v</text><text xml:space="preserve" font-family="HelveticaNeue" font-size="22.4" fill="#FEFFFF" transform="matrix(1.00, 0.00, -0.00, -1.00, 129.5, 7.0)">e</text><text xml:space="preserve" font-family="HelveticaNeue" font-size="22.4" fill="#FEFFFF" transform="matrix(1.00, 0.00, -0.00, -1.00, 141.5, 7.0)">r</text><text xml:space="preserve" font-family="HelveticaNeue" font-size="22.4" fill="#FEFFFF" transform="matrix(1.00, 0.00, -0.00, -1.00, 148.9, 7.0)">a</text><text xml:space="preserve" font-family="HelveticaNeue" font-size="22.4" fill="#FEFFFF" transform="matrix(1.00, 0.00, -0.00, -1.00, 160.9, 7.0)">g</text><text xml:space="preserve" font-family="HelveticaNeue" font-size="22.4" fill="#FEFFFF" transform="matrix(1.00, 0.00, -0.00, -1.00, 173.8, 7.0)">e</text><text xml:space="preserve" font-family="HelveticaNeue" font-size="22.4" fill="#FEFFFF" transform="matrix(1.00, 0.00, -0.00, -1.00, 185.8, 7.0)"> </text><text xml:space="preserve" font-family="HelveticaNeue" font-size="22.4" fill="#FEFFFF" transform="matrix(1.00, 0.00, -0.00, -1.00, 192.0, 7.0)">o</text><text xml:space="preserve" font-family="HelveticaNeue" font-size="22.4" fill="#FEFFFF" transform="matrix(1.00, 0.00, -0.00, -1.00, 204.8, 7.0)">t</text><text xml:space="preserve" font-family="HelveticaNeue" font-size="22.4" fill="#FEFFFF" transform="matrix(1.00, 0.00, -0.00, -1.00, 211.9, 7.0)">h</text><text xml:space="preserve" font-family="HelveticaNeue" font-size="22.4" fill="#FEFFFF" transform="matrix(1.00, 0.00, -0.00, -1.00, 224.3, 7.0)">e</text><text xml:space="preserve" font-family="HelveticaNeue" font-size="22.4" fill="#FEFFFF" transform="matrix(1.00, 0.00, -0.00, -1.00, 236.3, 7.0)">r</text></g></svg>