<?xml version="1.0" encoding="UTF-8" standalone="no"?><svg xmlns="http://www.w3.org/2000/svg" xmlns:xlink="http://www.w3.org/1999/xlink" clip-rule="evenodd" stroke-miterlimit="4.00" viewBox="0 0 108 21"><desc>SVG generated by Keynote</desc><defs></defs><g transform="matrix(1.00, 0.00, -0.00, -1.00, 0.0, 21.0)"><text xml:space="preserve" font-family="HelveticaNeue" font-size="16.8" fill="#A7D3A9" transform="matrix(1.00, 0.00, -0.00, -1.00, 0.5, 4.8)">•</text><text xml:space="preserve" font-family="HelveticaNeue" font-size="22.4" fill="#A7D3A9" transform="matrix(1.00, 0.00, -0.00, -1.00, 21.0, 3.0)">S</text><text xml:space="preserve" font-family="HelveticaNeue" font-size="22.4" fill="#A7D3A9" transform="matrix(1.00, 0.00, -0.00, -1.00, 35.5, 3.0)">c</text><text xml:space="preserve" font-family="HelveticaNeue" font-size="22.4" fill="#A7D3A9" transform="matrix(1.00, 0.00, -0.00, -1.00, 47.5, 3.0)">a</text><text xml:space="preserve" font-family="HelveticaNeue" font-size="22.4" fill="#A7D3A9" transform="matrix(1.00, 0.00, -0.00, -1.00, 59.5, 3.0)">l</text><text xml:space="preserve" font-family="HelveticaNeue" font-size="22.4" fill="#A7D3A9" transform="matrix(1.00, 0.00, -0.00, -1.00, 64.5, 3.0)">a</text><text xml:space="preserve" font-family="HelveticaNeue" font-size="22.4" fill="#A7D3A9" transform="matrix(1.00, 0.00, -0.00, -1.00, 76.5, 3.0)">b</text><text xml:space="preserve" font-family="HelveticaNeue" font-size="22.4" fill="#A7D3A9" transform="matrix(1.00, 0.00, -0.00, -1.00, 89.7, 3.0)">l</text><text xml:space="preserve" font-family="HelveticaNeue" font-size="22.4" fill="#A7D3A9" transform="matrix(1.00, 0.00, -0.00, -1.00, 94.7, 3.0)">e</text></g></svg>