<?xml version="1.0" encoding="UTF-8" standalone="no"?><svg xmlns="http://www.w3.org/2000/svg" xmlns:xlink="http://www.w3.org/1999/xlink" clip-rule="evenodd" stroke-miterlimit="4.00" viewBox="0 0 240 15"><desc>SVG generated by Keynote</desc><defs></defs><g transform="matrix(1.00, 0.00, -0.00, -1.00, 0.0, 15.0)"><text xml:space="preserve" font-family="Helvetica-Light" font-size="12.0" fill="#FEFFFF" transform="matrix(1.00, 0.00, -0.00, -1.00, 1.0, 4.0)">h</text><text xml:space="preserve" font-family="Helvetica-Light" font-size="12.0" fill="#FEFFFF" transform="matrix(1.00, 0.00, -0.00, -1.00, 7.7, 4.0)">t</text><text xml:space="preserve" font-family="Helvetica-Light" font-size="12.0" fill="#FEFFFF" transform="matrix(1.00, 0.00, -0.00, -1.00, 11.0, 4.0)">t</text><text xml:space="preserve" font-family="Helvetica-Light" font-size="12.0" fill="#FEFFFF" transform="matrix(1.00, 0.00, -0.00, -1.00, 14.3, 4.0)">p</text><text xml:space="preserve" font-family="Helvetica-Light" font-size="12.0" fill="#FEFFFF" transform="matrix(1.00, 0.00, -0.00, -1.00, 21.7, 4.0)">:</text><text xml:space="preserve" font-family="Helvetica-Light" font-size="12.0" fill="#FEFFFF" transform="matrix(1.00, 0.00, -0.00, -1.00, 25.0, 4.0)">/</text><text xml:space="preserve" font-family="Helvetica-Light" font-size="12.0" fill="#FEFFFF" transform="matrix(1.00, 0.00, -0.00, -1.00, 28.3, 4.0)">/</text><text xml:space="preserve" font-family="Helvetica-Light" font-size="12.0" fill="#FEFFFF" transform="matrix(1.00, 0.00, -0.00, -1.00, 31.7, 4.0)">w</text><text xml:space="preserve" font-family="Helvetica-Light" font-size="12.0" fill="#FEFFFF" transform="matrix(1.00, 0.00, -0.00, -1.00, 40.3, 4.0)">w</text><text xml:space="preserve" font-family="Helvetica-Light" font-size="12.0" fill="#FEFFFF" transform="matrix(1.00, 0.00, -0.00, -1.00, 49.0, 4.0)">w</text><text xml:space="preserve" font-family="Helvetica-Light" font-size="12.0" fill="#FEFFFF" transform="matrix(1.00, 0.00, -0.00, -1.00, 57.0, 4.0)">.</text><text xml:space="preserve" font-family="Helvetica-Light" font-size="12.0" fill="#FEFFFF" transform="matrix(1.00, 0.00, -0.00, -1.00, 60.4, 4.0)">m</text><text xml:space="preserve" font-family="Helvetica-Light" font-size="12.0" fill="#FEFFFF" transform="matrix(1.00, 0.00, -0.00, -1.00, 70.3, 4.0)">o</text><text xml:space="preserve" font-family="Helvetica-Light" font-size="12.0" fill="#FEFFFF" transform="matrix(1.00, 0.00, -0.00, -1.00, 77.0, 4.0)">c</text><text xml:space="preserve" font-family="Helvetica-Light" font-size="12.0" fill="#FEFFFF" transform="matrix(1.00, 0.00, -0.00, -1.00, 83.7, 4.0)">p</text><text xml:space="preserve" font-family="Helvetica-Light" font-size="12.0" fill="#FEFFFF" transform="matrix(1.00, 0.00, -0.00, -1.00, 91.0, 4.0)">a</text><text xml:space="preserve" font-family="Helvetica-Light" font-size="12.0" fill="#FEFFFF" transform="matrix(1.00, 0.00, -0.00, -1.00, 97.7, 4.0)">g</text><text xml:space="preserve" font-family="Helvetica-Light" font-size="12.0" fill="#FEFFFF" transform="matrix(1.00, 0.00, -0.00, -1.00, 105.0, 4.0)">e</text><text xml:space="preserve" font-family="Helvetica-Light" font-size="12.0" fill="#FEFFFF" transform="matrix(1.00, 0.00, -0.00, -1.00, 111.7, 4.0)">s</text><text xml:space="preserve" font-family="Helvetica-Light" font-size="12.0" fill="#FEFFFF" transform="matrix(1.00, 0.00, -0.00, -1.00, 117.7, 4.0)">.</text><text xml:space="preserve" font-family="Helvetica-Light" font-size="12.0" fill="#FEFFFF" transform="matrix(1.00, 0.00, -0.00, -1.00, 121.0, 4.0)">c</text><text xml:space="preserve" font-family="Helvetica-Light" font-size="12.0" fill="#FEFFFF" transform="matrix(1.00, 0.00, -0.00, -1.00, 127.7, 4.0)">o</text><text xml:space="preserve" font-family="Helvetica-Light" font-size="12.0" fill="#FEFFFF" transform="matrix(1.00, 0.00, -0.00, -1.00, 134.4, 4.0)">m</text><text xml:space="preserve" font-family="Helvetica-Light" font-size="12.0" fill="#FEFFFF" transform="matrix(1.00, 0.00, -0.00, -1.00, 144.4, 4.0)">/</text><text xml:space="preserve" font-family="Helvetica-Light" font-size="12.0" fill="#FEFFFF" transform="matrix(1.00, 0.00, -0.00, -1.00, 147.7, 4.0)">m</text><text xml:space="preserve" font-family="Helvetica-Light" font-size="12.0" fill="#FEFFFF" transform="matrix(1.00, 0.00, -0.00, -1.00, 157.7, 4.0)">o</text><text xml:space="preserve" font-family="Helvetica-Light" font-size="12.0" fill="#FEFFFF" transform="matrix(1.00, 0.00, -0.00, -1.00, 164.4, 4.0)">c</text><text xml:space="preserve" font-family="Helvetica-Light" font-size="12.0" fill="#FEFFFF" transform="matrix(1.00, 0.00, -0.00, -1.00, 171.1, 4.0)">.</text><text xml:space="preserve" font-family="Helvetica-Light" font-size="12.0" fill="#FEFFFF" transform="matrix(1.00, 0.00, -0.00, -1.00, 174.4, 4.0)">p</text><text xml:space="preserve" font-family="Helvetica-Light" font-size="12.0" fill="#FEFFFF" transform="matrix(1.00, 0.00, -0.00, -1.00, 181.7, 4.0)">h</text><text xml:space="preserve" font-family="Helvetica-Light" font-size="12.0" fill="#FEFFFF" transform="matrix(1.00, 0.00, -0.00, -1.00, 188.4, 4.0)">p</text><text xml:space="preserve" font-family="Helvetica-Light" font-size="12.0" fill="#FEFFFF" transform="matrix(1.00, 0.00, -0.00, -1.00, 195.7, 4.0)">/</text><text xml:space="preserve" font-family="Helvetica-Light" font-size="12.0" fill="#FEFFFF" transform="matrix(1.00, 0.00, -0.00, -1.00, 199.1, 4.0)">2</text><text xml:space="preserve" font-family="Helvetica-Light" font-size="12.0" fill="#FEFFFF" transform="matrix(1.00, 0.00, -0.00, -1.00, 205.7, 4.0)">6</text><text xml:space="preserve" font-family="Helvetica-Light" font-size="12.0" fill="#FEFFFF" transform="matrix(1.00, 0.00, -0.00, -1.00, 212.4, 4.0)">4</text><text xml:space="preserve" font-family="Helvetica-Light" font-size="12.0" fill="#FEFFFF" transform="matrix(1.00, 0.00, -0.00, -1.00, 219.1, 4.0)">5</text><text xml:space="preserve" font-family="Helvetica-Light" font-size="12.0" fill="#FEFFFF" transform="matrix(1.00, 0.00, -0.00, -1.00, 225.7, 4.0)">6</text><text xml:space="preserve" font-family="Helvetica-Light" font-size="12.0" fill="#FEFFFF" transform="matrix(1.00, 0.00, -0.00, -1.00, 232.4, 4.0)">6</text></g></svg>