<?xml version="1.0" encoding="UTF-8" standalone="no"?><svg xmlns="http://www.w3.org/2000/svg" xmlns:xlink="http://www.w3.org/1999/xlink" clip-rule="evenodd" stroke-miterlimit="4.00" viewBox="0 0 255 25"><desc>SVG generated by Keynote</desc><defs></defs><g transform="matrix(1.00, 0.00, -0.00, -1.00, 0.0, 25.0)"><text xml:space="preserve" font-family="HelveticaNeue" font-size="16.8" fill="#FEFFFF" transform="matrix(1.00, 0.00, -0.00, -1.00, 0.5, 8.6)">•</text><text xml:space="preserve" font-family="HelveticaNeue" font-size="22.4" fill="#FEFFFF" transform="matrix(1.00, 0.00, -0.00, -1.00, 21.0, 6.0)">W</text><text xml:space="preserve" font-family="HelveticaNeue" font-size="22.4" fill="#FEFFFF" transform="matrix(1.00, 0.00, -0.00, -1.00, 40.4, 6.0)">e</text><text xml:space="preserve" font-family="HelveticaNeue" font-size="22.4" fill="#FEFFFF" transform="matrix(1.00, 0.00, -0.00, -1.00, 52.4, 6.0)"> </text><text xml:space="preserve" font-family="HelveticaNeue" font-size="22.4" fill="#FEFFFF" transform="matrix(1.00, 0.00, -0.00, -1.00, 58.7, 6.0)">c</text><text xml:space="preserve" font-family="HelveticaNeue" font-size="22.4" fill="#FEFFFF" transform="matrix(1.00, 0.00, -0.00, -1.00, 70.7, 6.0)">a</text><text xml:space="preserve" font-family="HelveticaNeue" font-size="22.4" fill="#FEFFFF" transform="matrix(1.00, 0.00, -0.00, -1.00, 82.7, 6.0)">n</text><text xml:space="preserve" font-family="HelveticaNeue" font-size="22.4" fill="#FEFFFF" transform="matrix(1.00, 0.00, -0.00, -1.00, 95.1, 6.0)"> </text><text xml:space="preserve" font-family="HelveticaNeue" font-size="22.4" fill="#FEFFFF" transform="matrix(1.00, 0.00, -0.00, -1.00, 101.3, 6.0)">ﬁ</text><text xml:space="preserve" font-family="HelveticaNeue" font-size="22.4" fill="#FEFFFF" transform="matrix(1.00, 0.00, -0.00, -1.00, 112.9, 6.0)">x</text><text xml:space="preserve" font-family="HelveticaNeue" font-size="22.4" fill="#FEFFFF" transform="matrix(1.00, 0.00, -0.00, -1.00, 124.5, 6.0)"> </text><text xml:space="preserve" font-family="HelveticaNeue" font-size="22.4" fill="#FEFFFF" transform="matrix(1.00, 0.00, -0.00, -1.00, 130.7, 6.0)">i</text><text xml:space="preserve" font-family="HelveticaNeue" font-size="22.4" fill="#FEFFFF" transform="matrix(1.00, 0.00, -0.00, -1.00, 135.7, 6.0)">t</text><text xml:space="preserve" font-family="HelveticaNeue" font-size="22.4" fill="#FEFFFF" transform="matrix(1.00, 0.00, -0.00, -1.00, 142.7, 6.0)">,</text><text xml:space="preserve" font-family="HelveticaNeue" font-size="22.4" fill="#FEFFFF" transform="matrix(1.00, 0.00, -0.00, -1.00, 148.9, 6.0)"> </text><text xml:space="preserve" font-family="HelveticaNeue" font-size="22.4" fill="#FEFFFF" transform="matrix(1.00, 0.00, -0.00, -1.00, 155.1, 6.0)">i</text><text xml:space="preserve" font-family="HelveticaNeue" font-size="22.4" fill="#FEFFFF" transform="matrix(1.00, 0.00, -0.00, -1.00, 160.1, 6.0)">m</text><text xml:space="preserve" font-family="HelveticaNeue" font-size="22.4" fill="#FEFFFF" transform="matrix(1.00, 0.00, -0.00, -1.00, 179.2, 6.0)">p</text><text xml:space="preserve" font-family="HelveticaNeue" font-size="22.4" fill="#FEFFFF" transform="matrix(1.00, 0.00, -0.00, -1.00, 192.4, 6.0)">r</text><text xml:space="preserve" font-family="HelveticaNeue" font-size="22.4" fill="#FEFFFF" transform="matrix(1.00, 0.00, -0.00, -1.00, 199.5, 6.0)">o</text><text xml:space="preserve" font-family="HelveticaNeue" font-size="22.4" fill="#FEFFFF" transform="matrix(1.00, 0.00, -0.00, -1.00, 212.3, 6.0)">v</text><text xml:space="preserve" font-family="HelveticaNeue" font-size="22.4" fill="#FEFFFF" transform="matrix(1.00, 0.00, -0.00, -1.00, 223.5, 6.0)">e</text><text xml:space="preserve" font-family="HelveticaNeue" font-size="22.4" fill="#FEFFFF" transform="matrix(1.00, 0.00, -0.00, -1.00, 235.5, 6.0)"> </text><text xml:space="preserve" font-family="HelveticaNeue" font-size="22.4" fill="#FEFFFF" transform="matrix(1.00, 0.00, -0.00, -1.00, 241.7, 6.0)">i</text><text xml:space="preserve" font-family="HelveticaNeue" font-size="22.4" fill="#FEFFFF" transform="matrix(1.00, 0.00, -0.00, -1.00, 246.7, 6.0)">t</text></g></svg>