<?xml version="1.0" encoding="UTF-8" standalone="no"?><svg xmlns="http://www.w3.org/2000/svg" xmlns:xlink="http://www.w3.org/1999/xlink" clip-rule="evenodd" stroke-miterlimit="4.00" viewBox="0 0 301 27"><desc>SVG generated by Keynote</desc><defs></defs><g transform="matrix(1.00, 0.00, -0.00, -1.00, 0.0, 27.0)"><text xml:space="preserve" font-family="HelveticaNeue" font-size="24.0" fill="#FEFFFF" transform="matrix(1.00, 0.00, -0.00, -1.00, 0.0, 8.0)">N</text><text xml:space="preserve" font-family="HelveticaNeue" font-size="24.0" fill="#FEFFFF" transform="matrix(1.00, 0.00, -0.00, -1.00, 17.3, 8.0)">o</text><text xml:space="preserve" font-family="HelveticaNeue" font-size="24.0" fill="#FEFFFF" transform="matrix(1.00, 0.00, -0.00, -1.00, 31.1, 8.0)">t</text><text xml:space="preserve" font-family="HelveticaNeue" font-size="24.0" fill="#FEFFFF" transform="matrix(1.00, 0.00, -0.00, -1.00, 38.7, 8.0)">h</text><text xml:space="preserve" font-family="HelveticaNeue" font-size="24.0" fill="#FEFFFF" transform="matrix(1.00, 0.00, -0.00, -1.00, 52.0, 8.0)">i</text><text xml:space="preserve" font-family="HelveticaNeue" font-size="24.0" fill="#FEFFFF" transform="matrix(1.00, 0.00, -0.00, -1.00, 57.3, 8.0)">n</text><text xml:space="preserve" font-family="HelveticaNeue" font-size="24.0" fill="#FEFFFF" transform="matrix(1.00, 0.00, -0.00, -1.00, 70.7, 8.0)">g</text><text xml:space="preserve" font-family="HelveticaNeue" font-size="24.0" fill="#FEFFFF" transform="matrix(1.00, 0.00, -0.00, -1.00, 84.5, 8.0)"> </text><text xml:space="preserve" font-family="HelveticaNeue" font-size="24.0" fill="#FEFFFF" transform="matrix(1.00, 0.00, -0.00, -1.00, 91.1, 8.0)">m</text><text xml:space="preserve" font-family="HelveticaNeue" font-size="24.0" fill="#FEFFFF" transform="matrix(1.00, 0.00, -0.00, -1.00, 111.6, 8.0)">o</text><text xml:space="preserve" font-family="HelveticaNeue" font-size="24.0" fill="#FEFFFF" transform="matrix(1.00, 0.00, -0.00, -1.00, 125.4, 8.0)">r</text><text xml:space="preserve" font-family="HelveticaNeue" font-size="24.0" fill="#FEFFFF" transform="matrix(1.00, 0.00, -0.00, -1.00, 132.9, 8.0)">e</text><text xml:space="preserve" font-family="HelveticaNeue" font-size="24.0" fill="#FEFFFF" transform="matrix(1.00, 0.00, -0.00, -1.00, 145.8, 8.0)"> </text><text xml:space="preserve" font-family="HelveticaNeue" font-size="24.0" fill="#FEFFFF" transform="matrix(1.00, 0.00, -0.00, -1.00, 152.5, 8.0)">t</text><text xml:space="preserve" font-family="HelveticaNeue" font-size="24.0" fill="#FEFFFF" transform="matrix(1.00, 0.00, -0.00, -1.00, 160.1, 8.0)">h</text><text xml:space="preserve" font-family="HelveticaNeue" font-size="24.0" fill="#FEFFFF" transform="matrix(1.00, 0.00, -0.00, -1.00, 173.4, 8.0)">a</text><text xml:space="preserve" font-family="HelveticaNeue" font-size="24.0" fill="#FEFFFF" transform="matrix(1.00, 0.00, -0.00, -1.00, 186.3, 8.0)">n</text><text xml:space="preserve" font-family="HelveticaNeue" font-size="24.0" fill="#FEFFFF" transform="matrix(1.00, 0.00, -0.00, -1.00, 199.6, 8.0)"> </text><text xml:space="preserve" font-family="HelveticaNeue" font-size="24.0" fill="#A7D3A9" transform="matrix(1.00, 0.00, -0.00, -1.00, 206.3, 8.0)">R</text><text xml:space="preserve" font-family="HelveticaNeue" font-size="24.0" fill="#A7D3A9" transform="matrix(1.00, 0.00, -0.00, -1.00, 222.7, 8.0)">e</text><text xml:space="preserve" font-family="HelveticaNeue" font-size="24.0" fill="#A7D3A9" transform="matrix(1.00, 0.00, -0.00, -1.00, 235.6, 8.0)">a</text><text xml:space="preserve" font-family="HelveticaNeue" font-size="24.0" fill="#A7D3A9" transform="matrix(1.00, 0.00, -0.00, -1.00, 248.5, 8.0)">s</text><text xml:space="preserve" font-family="HelveticaNeue" font-size="24.0" fill="#A7D3A9" transform="matrix(1.00, 0.00, -0.00, -1.00, 260.5, 8.0)">o</text><text xml:space="preserve" font-family="HelveticaNeue" font-size="24.0" fill="#A7D3A9" transform="matrix(1.00, 0.00, -0.00, -1.00, 274.3, 8.0)">n</text><text xml:space="preserve" font-family="HelveticaNeue" font-size="24.0" fill="#A7D3A9" transform="matrix(1.00, 0.00, -0.00, -1.00, 287.6, 8.0)">s</text></g></svg>