<?xml version="1.0" encoding="UTF-8" standalone="no"?><svg xmlns="http://www.w3.org/2000/svg" xmlns:xlink="http://www.w3.org/1999/xlink" clip-rule="evenodd" stroke-miterlimit="4.00" viewBox="0 0 275 26"><desc>SVG generated by Keynote</desc><defs></defs><g transform="matrix(1.00, 0.00, -0.00, -1.00, 0.0, 26.0)"><text xml:space="preserve" font-family="HelveticaNeue" font-size="16.8" fill="#A7D3A9" transform="matrix(1.00, 0.00, -0.00, -1.00, 0.5, 9.4)">•</text><text xml:space="preserve" font-family="HelveticaNeue" font-size="22.4" fill="#A7D3A9" transform="matrix(1.00, 0.00, -0.00, -1.00, 21.0, 7.0)">S</text><text xml:space="preserve" font-family="HelveticaNeue" font-size="22.4" fill="#A7D3A9" transform="matrix(1.00, 0.00, -0.00, -1.00, 35.5, 7.0)">o</text><text xml:space="preserve" font-family="HelveticaNeue" font-size="22.4" fill="#A7D3A9" transform="matrix(1.00, 0.00, -0.00, -1.00, 48.3, 7.0)">l</text><text xml:space="preserve" font-family="HelveticaNeue" font-size="22.4" fill="#A7D3A9" transform="matrix(1.00, 0.00, -0.00, -1.00, 53.3, 7.0)">v</text><text xml:space="preserve" font-family="HelveticaNeue" font-size="22.4" fill="#A7D3A9" transform="matrix(1.00, 0.00, -0.00, -1.00, 64.5, 7.0)">i</text><text xml:space="preserve" font-family="HelveticaNeue" font-size="22.4" fill="#A7D3A9" transform="matrix(1.00, 0.00, -0.00, -1.00, 69.4, 7.0)">n</text><text xml:space="preserve" font-family="HelveticaNeue" font-size="22.4" fill="#A7D3A9" transform="matrix(1.00, 0.00, -0.00, -1.00, 81.9, 7.0)">g</text><text xml:space="preserve" font-family="HelveticaNeue" font-size="22.4" fill="#A7D3A9" transform="matrix(1.00, 0.00, -0.00, -1.00, 94.7, 7.0)"> </text><text xml:space="preserve" font-family="HelveticaNeue" font-size="22.4" fill="#A7D3A9" transform="matrix(1.00, 0.00, -0.00, -1.00, 100.9, 7.0)">s</text><text xml:space="preserve" font-family="HelveticaNeue" font-size="22.4" fill="#A7D3A9" transform="matrix(1.00, 0.00, -0.00, -1.00, 112.1, 7.0)">p</text><text xml:space="preserve" font-family="HelveticaNeue" font-size="22.4" fill="#A7D3A9" transform="matrix(1.00, 0.00, -0.00, -1.00, 125.4, 7.0)">e</text><text xml:space="preserve" font-family="HelveticaNeue" font-size="22.4" fill="#A7D3A9" transform="matrix(1.00, 0.00, -0.00, -1.00, 137.4, 7.0)">c</text><text xml:space="preserve" font-family="HelveticaNeue" font-size="22.4" fill="#A7D3A9" transform="matrix(1.00, 0.00, -0.00, -1.00, 149.4, 7.0)">i</text><text xml:space="preserve" font-family="HelveticaNeue" font-size="22.4" fill="#A7D3A9" transform="matrix(1.00, 0.00, -0.00, -1.00, 154.3, 7.0)">ﬁ</text><text xml:space="preserve" font-family="HelveticaNeue" font-size="22.4" fill="#A7D3A9" transform="matrix(1.00, 0.00, -0.00, -1.00, 165.9, 7.0)">c</text><text xml:space="preserve" font-family="HelveticaNeue" font-size="22.4" fill="#A7D3A9" transform="matrix(1.00, 0.00, -0.00, -1.00, 177.9, 7.0)"> </text><text xml:space="preserve" font-family="HelveticaNeue" font-size="22.4" fill="#A7D3A9" transform="matrix(1.00, 0.00, -0.00, -1.00, 184.1, 7.0)">u</text><text xml:space="preserve" font-family="HelveticaNeue" font-size="22.4" fill="#A7D3A9" transform="matrix(1.00, 0.00, -0.00, -1.00, 196.6, 7.0)">n</text><text xml:space="preserve" font-family="HelveticaNeue" font-size="22.4" fill="#A7D3A9" transform="matrix(1.00, 0.00, -0.00, -1.00, 209.0, 7.0)">s</text><text xml:space="preserve" font-family="HelveticaNeue" font-size="22.4" fill="#A7D3A9" transform="matrix(1.00, 0.00, -0.00, -1.00, 220.2, 7.0)">o</text><text xml:space="preserve" font-family="HelveticaNeue" font-size="22.4" fill="#A7D3A9" transform="matrix(1.00, 0.00, -0.00, -1.00, 233.0, 7.0)">l</text><text xml:space="preserve" font-family="HelveticaNeue" font-size="22.4" fill="#A7D3A9" transform="matrix(1.00, 0.00, -0.00, -1.00, 238.0, 7.0)">v</text><text xml:space="preserve" font-family="HelveticaNeue" font-size="22.4" fill="#A7D3A9" transform="matrix(1.00, 0.00, -0.00, -1.00, 249.2, 7.0)">e</text><text xml:space="preserve" font-family="HelveticaNeue" font-size="22.4" fill="#A7D3A9" transform="matrix(1.00, 0.00, -0.00, -1.00, 261.2, 7.0)">d</text></g></svg>