<?xml version="1.0" encoding="UTF-8" standalone="no"?><svg xmlns="http://www.w3.org/2000/svg" xmlns:xlink="http://www.w3.org/1999/xlink" clip-rule="evenodd" stroke-miterlimit="4.00" viewBox="0 0 1024 768"><desc>SVG generated by Keynote</desc><defs></defs><g transform="matrix(1.00, 0.00, -0.00, -1.00, 0.0, 768.0)"><path d="M 0.0 768.0 L 1024.0 768.0 L 1024.0 0.0 L 0.0 0.0 Z M 0.0 768.0 " fill="#000000"></path><g><clipPath id="clip-46"><path d="M 174.0 659.0 L 850.0 659.0 L 850.0 110.0 L 174.0 110.0 Z M 173.7 659.0 "></path></clipPath><g clip-path="url(#clip-46)"><g><clipPath id="clip-47"><path d="M 768.5 110.7 C 762.3 111.3 752.9 112.7 747.5 114.0 C 742.1 115.3 733.8 116.8 729.0 117.5 C 724.2 118.2 714.3 120.1 706.9 121.7 C 699.6 123.3 691.9 124.6 689.7 124.6 C 687.6 124.6 682.3 126.2 678.1 128.1 C 673.8 130.1 669.8 131.6 669.2 131.6 C 668.6 131.6 664.7 133.2 660.6 135.1 C 656.4 137.1 652.5 138.6 652.0 138.6 C 651.4 138.6 647.9 140.0 644.2 141.7 C 640.5 143.3 636.1 145.1 634.5 145.7 C 632.9 146.2 625.8 149.1 618.8 152.1 C 611.7 155.0 603.8 158.2 601.2 159.1 C 598.7 159.9 590.3 163.3 582.6 166.6 C 574.9 169.9 566.7 173.2 564.5 173.8 C 562.3 174.5 559.9 175.4 559.2 175.9 C 558.6 176.4 554.9 177.9 551.1 179.4 C 544.2 181.9 539.3 183.9 522.8 191.0 C 518.1 192.9 513.8 194.6 513.2 194.6 C 512.6 194.6 508.8 196.2 504.6 198.1 C 500.4 200.0 496.5 201.6 495.9 201.6 C 493.4 201.6 478.4 209.1 474.7 212.3 C 472.4 214.2 466.2 218.9 460.9 222.8 C 453.2 228.4 450.5 231.1 447.7 236.4 C 445.8 240.0 441.9 246.9 439.1 251.7 C 436.3 256.5 433.6 261.2 433.1 262.1 C 432.7 263.0 432.9 268.2 433.7 273.7 C 434.5 279.2 435.2 284.7 435.4 285.9 C 435.6 288.2 435.3 288.3 405.8 299.4 C 401.0 301.2 392.7 304.4 387.3 306.4 C 377.7 310.0 377.3 310.1 368.7 308.8 L 360.0 307.4 L 266.9 350.4 C 173.8 393.3 173.7 393.3 173.7 396.8 C 173.7 398.7 175.2 408.6 177.2 418.7 C 183.6 452.4 187.5 473.7 188.3 479.5 C 189.1 485.5 193.0 498.7 199.8 518.1 C 216.4 565.3 219.6 574.7 221.5 580.4 C 222.7 583.9 226.7 592.6 230.4 599.6 C 234.1 606.7 240.1 618.2 243.7 625.3 L 250.4 638.0 L 269.5 639.0 C 280.4 639.3 293.3 640.2 299.7 641.4 C 305.8 642.6 319.4 645.1 330.0 647.0 C 340.6 648.9 356.2 651.8 364.7 653.4 C 392.8 658.7 401.9 659.7 408.5 658.5 C 428.0 654.7 427.1 655.1 461.2 639.9 C 470.2 635.9 480.5 631.4 484.0 630.0 C 487.5 628.5 494.9 625.3 500.3 622.9 C 505.8 620.6 513.7 617.2 517.8 615.4 C 522.0 613.6 530.1 610.0 535.9 607.4 C 543.8 603.9 546.7 603.0 547.9 604.0 C 548.8 604.7 558.0 606.0 568.4 606.9 L 587.2 608.5 L 606.5 604.9 C 633.4 599.8 630.5 600.5 663.7 590.8 C 669.8 589.1 680.3 586.0 687.0 584.1 C 693.7 582.2 704.0 579.2 709.8 577.5 C 715.5 575.7 722.4 573.9 724.9 573.4 C 727.5 573.0 732.0 571.7 735.0 570.7 C 738.0 569.6 744.3 567.7 749.0 566.5 C 773.6 560.2 798.1 552.4 800.8 550.1 C 802.0 549.0 806.2 546.1 810.1 543.6 C 820.1 537.2 819.9 537.3 829.4 530.9 C 834.2 527.7 839.1 524.6 840.3 523.9 C 841.6 523.3 843.7 520.4 845.2 517.5 C 847.6 512.4 847.8 510.4 848.9 451.8 C 849.6 418.5 849.7 390.2 849.2 388.8 C 848.7 387.4 848.9 385.5 849.5 384.4 C 850.4 383.0 849.9 375.9 847.5 358.7 C 845.6 345.7 844.0 332.0 843.8 328.4 C 843.6 324.7 842.1 312.1 840.4 300.4 C 838.7 288.7 837.2 277.8 837.2 276.2 C 837.2 274.6 835.6 262.0 833.7 248.2 C 831.8 234.4 830.3 221.8 830.3 220.2 C 830.3 218.6 828.8 206.3 826.9 192.8 C 825.0 179.4 823.3 165.4 823.0 161.8 C 822.6 155.5 820.3 149.4 815.0 140.8 C 813.6 138.5 810.9 134.1 809.0 131.1 C 807.1 128.0 804.3 124.1 802.6 122.4 C 798.3 117.9 784.7 109.5 782.0 109.7 C 780.8 109.7 774.7 110.2 768.5 110.7 "></path></clipPath><g clip-path="url(#clip-47)"><image xlink:href="../../2BFCB59F-43BD-4BE0-B547-B0789D842381/assets/9D7DA4A6535CA7DFAAE41519C379B24C.png" width="793.00" height="540.00" transform="matrix(1.07, 0.00, -0.00, -1.07, 89.0, 672.0)"></image></g></g></g></g><text xml:space="preserve" font-family="Helvetica-Light" font-size="64.8" fill="#FEFFFF" transform="matrix(1.00, 0.00, -0.00, -1.00, 9.0, 683.0)">E</text><text xml:space="preserve" font-family="Helvetica-Light" font-size="64.8" fill="#FEFFFF" transform="matrix(1.00, 0.00, -0.00, -1.00, 48.6, 683.0)">x</text><text xml:space="preserve" font-family="Helvetica-Light" font-size="64.8" fill="#FEFFFF" transform="matrix(1.00, 0.00, -0.00, -1.00, 81.0, 683.0)">t</text><text xml:space="preserve" font-family="Helvetica-Light" font-size="64.8" fill="#FEFFFF" transform="matrix(1.00, 0.00, -0.00, -1.00, 99.0, 683.0)">r</text><text xml:space="preserve" font-family="Helvetica-Light" font-size="64.8" fill="#FEFFFF" transform="matrix(1.00, 0.00, -0.00, -1.00, 120.6, 683.0)">a</text><text xml:space="preserve" font-family="Helvetica-Light" font-size="64.8" fill="#FEFFFF" transform="matrix(1.00, 0.00, -0.00, -1.00, 156.6, 683.0)">c</text><text xml:space="preserve" font-family="Helvetica-Light" font-size="64.8" fill="#FEFFFF" transform="matrix(1.00, 0.00, -0.00, -1.00, 192.6, 683.0)">t</text><text xml:space="preserve" font-family="Helvetica-Light" font-size="64.8" fill="#FEFFFF" transform="matrix(1.00, 0.00, -0.00, -1.00, 210.7, 683.0)"> </text><text xml:space="preserve" font-family="Helvetica-Light" font-size="64.8" fill="#FEFFFF" transform="matrix(1.00, 0.00, -0.00, -1.00, 228.7, 683.0)">b</text><text xml:space="preserve" font-family="Helvetica-Light" font-size="64.8" fill="#FEFFFF" transform="matrix(1.00, 0.00, -0.00, -1.00, 268.3, 683.0)">o</text><text xml:space="preserve" font-family="Helvetica-Light" font-size="64.8" fill="#FEFFFF" transform="matrix(1.00, 0.00, -0.00, -1.00, 304.3, 683.0)">u</text><text xml:space="preserve" font-family="Helvetica-Light" font-size="64.8" fill="#FEFFFF" transform="matrix(1.00, 0.00, -0.00, -1.00, 340.3, 683.0)">n</text><text xml:space="preserve" font-family="Helvetica-Light" font-size="64.8" fill="#FEFFFF" transform="matrix(1.00, 0.00, -0.00, -1.00, 376.4, 683.0)">d</text><text xml:space="preserve" font-family="Helvetica-Light" font-size="64.8" fill="#FEFFFF" transform="matrix(1.00, 0.00, -0.00, -1.00, 415.9, 683.0)">a</text><text xml:space="preserve" font-family="Helvetica-Light" font-size="64.8" fill="#FEFFFF" transform="matrix(1.00, 0.00, -0.00, -1.00, 452.0, 683.0)">r</text><text xml:space="preserve" font-family="Helvetica-Light" font-size="64.8" fill="#FEFFFF" transform="matrix(1.00, 0.00, -0.00, -1.00, 474.7, 683.0)">y</text><text xml:space="preserve" font-family="Helvetica-Light" font-size="64.8" fill="#FEFFFF" transform="matrix(1.00, 0.00, -0.00, -1.00, 507.1, 683.0)"> </text><text xml:space="preserve" font-family="Helvetica-Light" font-size="64.8" fill="#FEFFFF" transform="matrix(1.00, 0.00, -0.00, -1.00, 525.1, 683.0)">o</text><text xml:space="preserve" font-family="Helvetica-Light" font-size="64.8" fill="#FEFFFF" transform="matrix(1.00, 0.00, -0.00, -1.00, 561.2, 683.0)">f</text><text xml:space="preserve" font-family="Helvetica-Light" font-size="64.8" fill="#FEFFFF" transform="matrix(1.00, 0.00, -0.00, -1.00, 579.2, 683.0)"> </text><text xml:space="preserve" font-family="Helvetica-Light" font-size="64.8" fill="#FEFFFF" transform="matrix(1.00, 0.00, -0.00, -1.00, 597.2, 683.0)">n</text><text xml:space="preserve" font-family="Helvetica-Light" font-size="64.8" fill="#FEFFFF" transform="matrix(1.00, 0.00, -0.00, -1.00, 633.2, 683.0)">o</text><text xml:space="preserve" font-family="Helvetica-Light" font-size="64.8" fill="#FEFFFF" transform="matrix(1.00, 0.00, -0.00, -1.00, 669.2, 683.0)">n</text><text xml:space="preserve" font-family="Helvetica-Light" font-size="64.8" fill="#FEFFFF" transform="matrix(1.00, 0.00, -0.00, -1.00, 705.3, 683.0)">-</text><text xml:space="preserve" font-family="Helvetica-Light" font-size="64.8" fill="#FEFFFF" transform="matrix(1.00, 0.00, -0.00, -1.00, 726.9, 683.0)">n</text><text xml:space="preserve" font-family="Helvetica-Light" font-size="64.8" fill="#FEFFFF" transform="matrix(1.00, 0.00, -0.00, -1.00, 762.9, 683.0)">u</text><text xml:space="preserve" font-family="Helvetica-Light" font-size="64.8" fill="#FEFFFF" transform="matrix(1.00, 0.00, -0.00, -1.00, 798.9, 683.0)">l</text><text xml:space="preserve" font-family="Helvetica-Light" font-size="64.8" fill="#FEFFFF" transform="matrix(1.00, 0.00, -0.00, -1.00, 813.3, 683.0)">l</text><text xml:space="preserve" font-family="Helvetica-Light" font-size="64.8" fill="#FEFFFF" transform="matrix(1.00, 0.00, -0.00, -1.00, 827.7, 683.0)"> </text><text xml:space="preserve" font-family="Helvetica-Light" font-size="64.8" fill="#FEFFFF" transform="matrix(1.00, 0.00, -0.00, -1.00, 845.7, 683.0)">p</text><text xml:space="preserve" font-family="Helvetica-Light" font-size="64.8" fill="#FEFFFF" transform="matrix(1.00, 0.00, -0.00, -1.00, 885.3, 683.0)">i</text><text xml:space="preserve" font-family="Helvetica-Light" font-size="64.8" fill="#FEFFFF" transform="matrix(1.00, 0.00, -0.00, -1.00, 899.7, 683.0)">x</text><text xml:space="preserve" font-family="Helvetica-Light" font-size="64.8" fill="#FEFFFF" transform="matrix(1.00, 0.00, -0.00, -1.00, 932.1, 683.0)">e</text><text xml:space="preserve" font-family="Helvetica-Light" font-size="64.8" fill="#FEFFFF" transform="matrix(1.00, 0.00, -0.00, -1.00, 968.1, 683.0)">l</text><text xml:space="preserve" font-family="Helvetica-Light" font-size="64.8" fill="#FEFFFF" transform="matrix(1.00, 0.00, -0.00, -1.00, 982.5, 683.0)">s</text></g></svg>