<?xml version="1.0" encoding="UTF-8" standalone="no"?><svg xmlns="http://www.w3.org/2000/svg" xmlns:xlink="http://www.w3.org/1999/xlink" clip-rule="evenodd" stroke-miterlimit="10" viewBox="0 0 803 76"><desc>SVG generated by Keynote</desc><defs></defs><g transform="matrix(1.00, 0.00, -0.00, -1.00, 0.0, 76.0)"><text xml:space="preserve" font-family="Aller-Bold,Aller" font-weight="bold" font-size="72.0" fill="#000000" transform="matrix(1.00, 0.00, -0.00, -1.00, -3.2, 20.5)">p</text><text xml:space="preserve" font-family="Aller-Bold,Aller" font-weight="bold" font-size="72.0" fill="#000000" transform="matrix(1.00, 0.00, -0.00, -1.00, 39.4, 20.5)">h</text><text xml:space="preserve" font-family="Aller-Bold,Aller" font-weight="bold" font-size="72.0" fill="#000000" transform="matrix(1.00, 0.00, -0.00, -1.00, 81.6, 20.5)">o</text><text xml:space="preserve" font-family="Aller-Bold,Aller" font-weight="bold" font-size="72.0" fill="#000000" transform="matrix(1.00, 0.00, -0.00, -1.00, 123.4, 20.5)">t</text><text xml:space="preserve" font-family="Aller-Bold,Aller" font-weight="bold" font-size="72.0" fill="#000000" transform="matrix(1.00, 0.00, -0.00, -1.00, 150.9, 20.5)">o</text><text xml:space="preserve" font-family="Aller-Bold,Aller" font-weight="bold" font-size="72.0" fill="#000000" transform="matrix(1.00, 0.00, -0.00, -1.00, 192.7, 20.5)">g</text><text xml:space="preserve" font-family="Aller-Bold,Aller" font-weight="bold" font-size="72.0" fill="#000000" transform="matrix(1.00, 0.00, -0.00, -1.00, 233.4, 20.5)">r</text><text xml:space="preserve" font-family="Aller-Bold,Aller" font-weight="bold" font-size="72.0" fill="#000000" transform="matrix(1.00, 0.00, -0.00, -1.00, 261.7, 20.5)">a</text><text xml:space="preserve" font-family="Aller-Bold,Aller" font-weight="bold" font-size="72.0" fill="#000000" transform="matrix(1.00, 0.00, -0.00, -1.00, 299.2, 20.5)">m</text><text xml:space="preserve" font-family="Aller-Bold,Aller" font-weight="bold" font-size="72.0" fill="#000000" transform="matrix(1.00, 0.00, -0.00, -1.00, 362.5, 20.5)">m</text><text xml:space="preserve" font-family="Aller-Bold,Aller" font-weight="bold" font-size="72.0" fill="#000000" transform="matrix(1.00, 0.00, -0.00, -1.00, 425.8, 20.5)">e</text><text xml:space="preserve" font-family="Aller-Bold,Aller" font-weight="bold" font-size="72.0" fill="#000000" transform="matrix(1.00, 0.00, -0.00, -1.00, 466.3, 20.5)">t</text><text xml:space="preserve" font-family="Aller-Bold,Aller" font-weight="bold" font-size="72.0" fill="#000000" transform="matrix(1.00, 0.00, -0.00, -1.00, 493.9, 20.5)">r</text><text xml:space="preserve" font-family="Aller-Bold,Aller" font-weight="bold" font-size="72.0" fill="#000000" transform="matrix(1.00, 0.00, -0.00, -1.00, 522.8, 20.5)">i</text><text xml:space="preserve" font-family="Aller-Bold,Aller" font-weight="bold" font-size="72.0" fill="#000000" transform="matrix(1.00, 0.00, -0.00, -1.00, 544.9, 20.5)">c</text><text xml:space="preserve" font-family="Aller-Bold,Aller" font-weight="bold" font-size="72.0" fill="#000000" transform="matrix(1.00, 0.00, -0.00, -1.00, 579.1, 20.5)"> </text><text xml:space="preserve" font-family="Aller-Bold,Aller" font-weight="bold" font-size="72.0" fill="#000000" transform="matrix(1.00, 0.00, -0.00, -1.00, 595.0, 20.5)">i</text><text xml:space="preserve" font-family="Aller-Bold,Aller" font-weight="bold" font-size="72.0" fill="#000000" transform="matrix(1.00, 0.00, -0.00, -1.00, 617.1, 20.5)">n</text><text xml:space="preserve" font-family="Aller-Bold,Aller" font-weight="bold" font-size="72.0" fill="#000000" transform="matrix(1.00, 0.00, -0.00, -1.00, 659.3, 20.5)">p</text><text xml:space="preserve" font-family="Aller-Bold,Aller" font-weight="bold" font-size="72.0" fill="#000000" transform="matrix(1.00, 0.00, -0.00, -1.00, 701.9, 20.5)">u</text><text xml:space="preserve" font-family="Aller-Bold,Aller" font-weight="bold" font-size="72.0" fill="#000000" transform="matrix(1.00, 0.00, -0.00, -1.00, 743.1, 20.5)">t</text><text xml:space="preserve" font-family="Aller-Bold,Aller" font-weight="bold" font-size="72.0" fill="#000000" transform="matrix(1.00, 0.00, -0.00, -1.00, 770.6, 20.5)">s</text></g></svg>