<?xml version="1.0" encoding="UTF-8" standalone="no"?><svg xmlns="http://www.w3.org/2000/svg" xmlns:xlink="http://www.w3.org/1999/xlink" clip-rule="evenodd" stroke-miterlimit="10" viewBox="0 0 133 170"><desc>SVG generated by Keynote</desc><defs></defs><g transform="matrix(1.00, 0.00, -0.00, -1.00, 0.0, 170.0)"><g><clipPath id="clip0x600000cb7640"><path d="M 2.0 167.5 L 131.8 167.5 L 131.8 1.0 L 2.0 1.0 Z M 2.0 167.5 "></path></clipPath><g clip-path="url(#clip0x600000cb7640)"><g><clipPath id="clip0x600000ea7ce0"><path d="M 2.0 1.0 L 132.0 1.0 L 132.0 168.0 L 2.0 168.0 Z M 2.0 1.0 "></path></clipPath><g clip-path="url(#clip0x600000ea7ce0)"><path d="M 2.0 6.6 L 57.8 6.6 L 57.8 1.0 L 2.0 1.0 Z M 2.0 6.6 " fill="#FFFEFE"></path></g></g></g></g><g><clipPath id="clip0x600000cab760"><path d="M 2.0 1.0 L 132.0 1.0 L 132.0 168.0 L 2.0 168.0 Z M 2.0 1.0 "></path></clipPath><g clip-path="url(#clip0x600000cab760)"><path d="M 67.2 145.0 C 70.1 144.9 72.6 147.2 72.7 150.1 C 72.8 153.1 70.5 155.5 67.5 155.6 C 64.6 155.7 62.1 153.4 62.0 150.4 C 62.0 147.5 64.3 145.1 67.2 145.0 " fill="#FFFEFE"></path><path d="M 57.3 146.6 C 58.2 146.6 61.3 146.1 63.4 144.6 C 65.4 143.0 67.7 139.7 67.7 139.3 C 67.8 139.7 70.1 143.0 71.0 143.7 C 72.5 145.0 74.2 146.3 78.3 146.7 L 78.3 141.1 C 77.5 141.1 75.9 140.6 74.5 139.5 C 73.1 138.3 71.6 136.0 71.1 134.4 C 70.6 132.8 70.5 131.4 70.5 130.5 L 70.6 119.6 L 65.0 119.6 L 65.2 130.4 C 65.1 131.4 64.9 133.5 64.4 134.6 C 63.9 135.6 62.7 138.4 60.5 139.8 C 59.9 140.2 58.9 141.1 57.3 141.1 L 57.3 146.6 " fill="#FFFEFE"></path><path d="M 67.7 160.9 C 67.8 160.8 72.6 157.6 76.5 153.7 C 77.8 152.4 81.1 148.4 81.1 143.5 C 81.1 139.0 78.6 135.9 78.3 135.5 C 77.4 134.5 74.0 131.8 72.0 131.5 L 72.0 125.8 C 74.4 126.3 78.6 127.9 80.9 130.2 C 83.3 132.6 85.3 135.5 86.1 139.1 C 87.1 143.2 86.4 148.0 85.1 150.7 C 83.4 154.3 80.5 157.8 76.8 160.8 L 67.7 167.5 L 58.6 160.7 C 54.9 157.7 52.0 154.3 50.3 150.6 C 49.0 147.9 48.3 143.1 49.4 139.0 C 50.3 135.4 52.2 132.5 54.6 130.2 C 57.0 127.8 61.1 126.2 63.6 125.8 L 63.5 131.5 C 61.6 131.7 58.1 134.4 57.2 135.5 C 56.9 135.8 54.4 139.0 54.4 143.4 C 54.4 148.4 57.7 152.4 58.9 153.6 C 62.8 157.6 67.6 160.8 67.7 160.9 " fill="#FFFEFE"></path><path d="M 41.7 114.8 C 41.6 115.7 41.0 116.3 40.0 116.3 C 38.9 116.3 38.3 115.4 38.3 113.5 C 38.3 112.2 38.6 111.0 40.1 111.0 C 41.1 111.0 41.6 111.7 41.7 112.6 L 44.6 112.6 C 44.3 110.1 42.6 108.6 40.2 108.6 C 37.1 108.6 35.2 110.6 35.2 113.6 C 35.2 116.7 37.3 118.6 39.9 118.6 C 42.7 118.6 44.3 117.2 44.6 114.8 L 41.7 114.8 " fill="#FFFEFE"></path><path d="M 45.3 118.4 L 48.0 118.4 L 48.0 108.9 L 45.3 108.9 Z M 45.3 118.4 " fill="#FFFEFE"></path><path d="M 51.5 111.7 C 51.5 110.9 52.1 110.4 52.8 110.4 C 53.2 110.4 53.6 110.6 53.8 111.0 L 56.4 111.0 C 55.9 109.3 54.2 108.7 52.6 108.7 C 50.5 108.7 48.8 109.9 48.8 112.3 C 48.8 114.5 50.5 116.0 52.6 116.0 C 55.1 116.0 56.7 114.2 56.6 111.7 L 51.5 111.7 Z M 53.9 113.1 C 53.9 113.7 53.4 114.3 52.7 114.3 C 51.9 114.3 51.5 113.9 51.5 113.1 L 53.9 113.1 " fill="#FFFEFE"></path><path d="M 56.6 115.8 L 59.3 115.8 L 60.5 111.4 L 61.6 115.8 L 64.2 115.8 L 61.9 108.9 L 58.9 108.9 L 56.6 115.8 " fill="#FFFEFE"></path><path d="M 66.6 111.7 C 66.6 110.9 67.2 110.4 67.9 110.4 C 68.4 110.4 68.8 110.6 69.0 111.0 L 71.5 111.0 C 71.1 109.3 69.4 108.7 67.8 108.7 C 65.6 108.7 63.9 109.9 63.9 112.3 C 63.9 114.5 65.6 116.0 67.8 116.0 C 70.3 116.0 71.8 114.2 71.7 111.7 L 66.6 111.7 Z M 69.1 113.1 C 69.1 113.7 68.5 114.3 67.9 114.3 C 67.1 114.3 66.6 113.9 66.6 113.1 L 69.1 113.1 " fill="#FFFEFE"></path><path d="M 72.4 118.4 L 75.0 118.4 L 75.0 108.9 L 72.4 108.9 Z M 72.4 118.4 " fill="#FFFEFE"></path><path d="M 80.8 108.9 L 80.7 109.6 C 79.9 108.9 79.2 108.7 78.1 108.7 C 76.9 108.7 75.7 109.3 75.7 110.8 C 75.7 113.9 80.6 112.5 80.6 113.8 C 80.6 114.3 80.0 114.3 79.7 114.3 C 79.3 114.3 78.8 114.3 78.7 113.7 L 76.1 113.7 C 76.1 115.1 77.2 116.0 79.8 116.0 C 83.1 116.0 83.2 114.8 83.2 113.1 L 83.2 109.9 C 83.2 109.5 83.3 109.3 83.6 109.0 L 83.6 108.9 L 80.8 108.9 Z M 80.6 111.9 C 79.7 111.5 78.5 111.7 78.5 110.8 C 78.5 110.5 78.8 110.2 79.4 110.2 C 80.3 110.2 80.6 111.0 80.6 111.9 " fill="#FFFEFE"></path><path d="M 84.3 115.8 L 86.8 115.8 L 86.8 114.7 C 87.4 115.5 88.0 116.0 89.0 116.0 C 90.8 116.0 91.7 114.9 91.7 113.0 L 91.7 108.9 L 89.0 108.9 L 89.0 112.5 C 89.0 113.2 88.8 113.8 88.0 113.8 C 87.2 113.8 87.0 113.3 87.0 112.4 L 87.0 108.9 L 84.3 108.9 L 84.3 115.8 " fill="#FFFEFE"></path><path d="M 97.4 108.9 L 97.4 109.8 C 96.8 109.0 96.2 108.7 95.4 108.7 C 93.3 108.7 92.3 110.3 92.3 112.2 C 92.3 114.5 93.5 116.0 95.2 116.0 C 96.0 116.0 96.6 115.8 97.2 115.1 L 97.2 118.4 L 99.9 118.4 L 99.9 108.9 L 97.4 108.9 Z M 97.3 112.3 C 97.3 113.0 97.0 113.9 96.1 113.9 C 95.2 113.9 95.0 113.0 95.0 112.2 C 95.0 111.5 95.2 110.7 96.0 110.7 C 97.0 110.7 97.3 111.5 97.3 112.3 " fill="#FFFEFE"></path><path d="M 30.5 97.2 L 30.5 106.7 L 34.1 106.7 L 35.8 100.7 L 37.4 106.7 L 41.1 106.7 L 41.1 97.2 L 38.4 97.2 L 38.4 100.1 L 38.4 101.6 L 38.6 103.3 L 38.5 103.3 L 36.9 97.2 L 34.7 97.2 L 33.0 103.3 L 33.0 103.3 L 33.1 101.9 L 33.2 100.4 L 33.2 97.2 L 30.5 97.2 " fill="#FFFEFE"></path><path d="M 44.4 100.0 C 44.4 99.2 45.0 98.7 45.7 98.7 C 46.2 98.7 46.5 98.8 46.7 99.3 L 49.3 99.3 C 48.9 97.5 47.1 97.0 45.6 97.0 C 43.4 97.0 41.7 98.2 41.7 100.6 C 41.7 102.8 43.4 104.3 45.6 104.3 C 48.1 104.3 49.6 102.5 49.5 100.0 L 44.4 100.0 Z M 46.8 101.4 C 46.8 102.0 46.3 102.6 45.7 102.6 C 44.9 102.6 44.4 102.1 44.4 101.4 L 46.8 101.4 " fill="#FFFEFE"></path><path d="M 54.6 97.2 C 51.0 97.0 50.6 97.2 50.6 99.6 L 50.6 102.5 L 49.7 102.5 L 49.7 104.1 L 50.7 104.1 L 50.7 106.2 L 53.3 106.2 L 53.3 104.1 L 54.6 104.1 L 54.6 102.5 L 53.3 102.5 L 53.3 100.0 C 53.3 99.4 53.4 99.1 54.2 99.1 L 54.6 99.1 L 54.6 97.2 " fill="#FFFEFE"></path><path d="M 55.3 104.1 L 57.8 104.1 L 57.8 102.7 L 57.8 102.7 C 58.2 103.8 58.8 104.3 59.9 104.3 C 60.0 104.3 60.1 104.3 60.2 104.2 L 60.2 101.5 C 60.0 101.5 59.8 101.6 59.7 101.6 C 58.6 101.6 58.0 101.1 58.0 99.6 L 58.0 97.2 L 55.3 97.2 L 55.3 104.1 " fill="#FFFEFE"></path><path d="M 64.1 104.3 C 66.5 104.3 68.0 102.8 68.0 100.7 C 68.0 98.2 66.3 97.0 64.1 97.0 C 61.9 97.0 60.2 98.2 60.2 100.6 C 60.2 103.0 61.8 104.3 64.1 104.3 M 62.9 100.7 C 62.9 99.4 63.4 98.8 64.1 98.8 C 64.8 98.8 65.3 99.4 65.3 100.7 C 65.3 101.7 64.8 102.5 64.1 102.4 C 63.2 102.4 62.9 101.5 62.9 100.7 " fill="#FFFEFE"></path><path d="M 70.9 104.1 L 70.9 103.1 L 71.0 103.1 C 71.3 103.9 72.3 104.3 73.1 104.3 C 75.1 104.3 76.1 102.6 76.1 100.7 C 76.1 98.0 74.5 97.0 73.0 97.0 C 72.2 97.0 71.7 97.3 71.2 97.9 L 71.2 94.8 L 68.5 94.8 L 68.5 104.1 L 70.9 104.1 Z M 73.4 100.6 C 73.4 101.7 73.0 102.3 72.3 102.3 C 71.6 102.3 71.2 101.6 71.2 100.7 C 71.2 99.7 71.6 99.1 72.3 99.1 C 73.0 99.1 73.4 99.7 73.4 100.6 " fill="#FFFEFE"></path><path d="M 81.6 97.2 L 81.4 97.9 C 80.7 97.2 79.9 97.0 78.9 97.0 C 77.6 97.0 76.5 97.6 76.5 99.1 C 76.5 102.2 81.3 100.8 81.3 102.1 C 81.3 102.6 80.7 102.6 80.4 102.6 C 80.0 102.6 79.5 102.6 79.5 102.0 L 76.9 102.0 C 76.9 103.4 77.9 104.3 80.6 104.3 C 83.8 104.3 84.0 103.1 84.0 101.4 L 84.0 98.2 C 84.0 97.8 84.0 97.6 84.3 97.3 L 84.3 97.2 L 81.6 97.2 Z M 81.3 100.2 C 80.4 99.8 79.2 100.0 79.2 99.1 C 79.2 98.8 79.6 98.5 80.1 98.5 C 81.0 98.5 81.3 99.3 81.3 100.2 " fill="#FFFEFE"></path><path d="M 85.1 104.1 L 87.6 104.1 L 87.6 102.7 L 87.6 102.7 C 88.0 103.8 88.6 104.3 89.7 104.3 C 89.8 104.3 89.9 104.3 90.0 104.2 L 90.0 101.5 C 89.8 101.5 89.6 101.6 89.5 101.6 C 88.4 101.6 87.8 101.1 87.8 99.6 L 87.8 97.2 L 85.1 97.2 L 85.1 104.1 " fill="#FFFEFE"></path><path d="M 93.2 99.1 L 93.2 97.2 L 90.5 97.2 L 90.5 106.7 L 93.2 106.7 L 93.2 102.0 L 94.9 104.1 L 98.1 104.1 L 95.6 101.4 L 98.4 97.2 L 95.2 97.2 L 93.7 99.6 L 93.2 99.1 " fill="#FFFEFE"></path></g></g><g><clipPath id="clip0x600000ea0780"><path d="M 2.0 167.5 L 131.8 167.5 L 131.8 1.0 L 2.0 1.0 Z M 2.0 167.5 "></path></clipPath><g clip-path="url(#clip0x600000ea0780)"><g><clipPath id="clip0x600000cbb540"><path d="M 2.0 1.0 L 132.0 1.0 L 132.0 168.0 L 2.0 168.0 Z M 2.0 1.0 "></path></clipPath><g clip-path="url(#clip0x600000cbb540)"><path d="M 100.8 99.3 C 100.8 99.0 100.9 98.8 101.1 98.7 C 101.3 98.6 101.5 98.5 101.8 98.5 C 102.2 98.5 102.6 98.6 102.6 99.1 C 102.6 100.2 98.5 99.3 98.5 102.0 C 98.5 103.8 100.3 104.3 101.7 104.3 C 103.2 104.3 104.9 103.9 105.0 102.1 L 102.6 102.1 C 102.6 102.3 102.5 102.5 102.3 102.6 C 102.2 102.7 102.0 102.8 101.8 102.8 C 101.3 102.8 101.0 102.6 101.0 102.3 C 101.0 101.3 105.3 102.0 105.3 99.4 C 105.3 98.0 104.2 97.0 101.7 97.0 C 100.1 97.0 98.4 97.5 98.3 99.3 L 100.8 99.3 " fill="#FFFEFE"></path><path d="M 81.6 22.7 L 81.6 33.4 C 81.6 37.6 79.6 39.6 75.6 39.6 L 66.6 39.6 L 66.6 1.0 L 71.6 1.0 L 71.6 16.6 L 75.7 16.6 C 79.6 16.6 81.6 18.6 81.6 22.7 M 76.7 23.1 C 76.7 21.7 76.0 21.0 74.7 21.0 L 71.6 21.0 L 71.6 35.3 L 74.5 35.3 C 75.9 35.3 76.7 34.6 76.7 33.1 L 76.7 23.1 " fill="#FFFFFF"></path><path d="M 95.8 5.4 L 89.0 5.4 L 89.0 39.7 L 84.1 39.7 L 84.1 1.0 L 95.8 1.0 L 95.8 5.4 " fill="#FFFFFF"></path><path d="M 113.5 1.0 L 113.5 33.4 C 113.5 37.6 111.5 39.6 107.6 39.6 L 103.9 39.6 C 99.9 39.6 97.9 37.6 97.9 33.4 L 97.9 1.0 L 102.9 1.0 L 102.9 16.8 L 108.6 16.8 L 108.6 1.0 L 113.5 1.0 Z M 108.6 21.1 L 102.9 21.1 L 102.9 33.1 C 102.9 34.6 103.6 35.3 105.1 35.3 L 106.4 35.3 C 107.8 35.3 108.6 34.6 108.6 33.1 L 108.6 21.1 " fill="#FFFFFF"></path><path d="M 125.8 16.8 L 131.8 39.6 L 126.9 39.6 L 123.5 23.9 L 123.4 23.9 L 119.7 39.6 L 114.8 39.6 L 120.9 16.8 L 120.9 1.0 L 125.8 1.0 L 125.8 16.8 " fill="#FFFFFF"></path></g></g></g></g><g><clipPath id="clip0x600000ea1920"><path d="M 2.0 1.0 L 132.0 1.0 L 132.0 168.0 L 2.0 168.0 Z M 2.0 1.0 "></path></clipPath><g clip-path="url(#clip0x600000ea1920)"><path d="M 17.5 11.0 L 17.5 34.7 C 17.5 38.0 15.6 39.6 11.6 39.6 L 7.9 39.6 C 4.0 39.6 2.0 38.0 2.0 34.7 L 2.0 11.0 L 6.9 11.0 L 6.9 21.5 L 12.6 21.5 L 12.6 11.0 L 17.5 11.0 Z M 12.6 25.0 L 6.9 25.0 L 6.9 34.5 C 6.9 35.6 7.7 36.2 9.1 36.2 L 10.4 36.2 C 11.9 36.2 12.6 35.6 12.6 34.5 L 12.6 25.0 " fill="#FFFEFE"></path><path d="M 27.2 39.6 L 22.3 39.6 L 22.3 11.0 L 27.2 11.0 L 27.2 29.8 L 32.5 16.7 L 32.5 11.0 L 37.5 11.0 L 37.5 39.6 L 32.5 39.6 L 32.5 25.8 L 27.2 39.6 " fill="#FFFEFE"></path><path d="M 57.8 15.2 L 57.8 34.1 C 57.8 37.8 55.5 39.6 50.8 39.6 L 42.2 39.6 L 42.2 11.0 L 51.9 11.0 C 55.8 11.0 57.8 12.4 57.8 15.2 M 52.9 15.8 C 52.9 14.9 52.2 14.5 50.9 14.5 L 47.2 14.5 L 47.2 36.2 L 50.6 36.2 C 52.1 36.2 52.9 35.5 52.9 34.1 L 52.9 15.8 " fill="#FFFEFE"></path><path d="M 11.9 53.2 L 11.9 51.1 C 11.9 49.6 11.2 48.9 10.0 48.9 L 8.7 48.9 C 7.5 48.9 6.8 49.6 6.8 51.1 L 6.8 75.9 C 6.8 77.4 7.5 78.1 8.7 78.1 L 9.7 78.1 C 11.1 78.1 11.9 77.4 11.9 75.9 L 11.9 71.9 L 16.7 71.9 L 16.7 76.3 C 16.7 80.6 14.8 82.8 10.9 82.8 L 7.8 82.8 C 3.9 82.8 2.0 80.6 2.0 76.3 L 2.0 50.7 C 2.0 46.4 3.9 44.2 7.8 44.2 L 10.9 44.2 C 14.8 44.2 16.7 46.4 16.7 50.7 L 16.7 53.2 L 11.9 53.2 " fill="#FFFEFE"></path><path d="M 35.6 50.7 L 35.6 76.2 C 35.6 80.6 33.6 82.8 29.8 82.8 L 25.1 82.8 C 21.3 82.8 19.4 80.6 19.4 76.2 L 19.4 50.7 C 19.4 46.4 21.3 44.2 25.2 44.2 L 29.7 44.2 C 33.6 44.2 35.6 46.4 35.6 50.7 M 30.7 51.1 C 30.7 49.6 30.1 48.9 28.8 48.9 L 26.3 48.9 C 24.9 48.9 24.2 49.6 24.2 51.1 L 24.2 75.9 C 24.2 77.4 24.9 78.1 26.3 78.1 L 28.6 78.1 C 30.0 78.1 30.7 77.4 30.7 75.9 L 30.7 51.1 " fill="#FFFEFE"></path><path d="M 43.5 82.8 L 38.2 82.8 L 38.2 44.2 L 43.0 44.2 L 42.5 69.5 L 46.2 51.2 L 49.9 51.2 L 53.5 69.5 L 53.0 44.2 L 57.8 44.2 L 57.8 82.8 L 52.5 82.8 L 48.0 60.1 L 43.5 82.8 " fill="#FFFEFE"></path><path d="M 72.5 44.2 L 72.5 48.9 L 65.3 48.9 L 65.3 61.7 L 71.7 61.7 L 71.7 66.4 L 65.3 66.4 L 65.3 78.1 L 72.5 78.1 L 72.5 82.8 L 60.5 82.8 L 60.5 44.2 L 72.5 44.2 " fill="#FFFEFE"></path><path d="M 96.6 50.7 L 96.6 76.2 C 96.6 80.6 94.7 82.8 90.8 82.8 L 86.2 82.8 C 82.3 82.8 80.4 80.6 80.4 76.2 L 80.4 50.7 C 80.4 46.4 82.4 44.2 86.3 44.2 L 90.8 44.2 C 94.7 44.2 96.6 46.4 96.6 50.7 M 91.8 51.1 C 91.8 49.6 91.2 48.9 89.9 48.9 L 87.4 48.9 C 86.0 48.9 85.3 49.6 85.3 51.1 L 85.3 75.9 C 85.3 77.4 86.0 78.1 87.4 78.1 L 89.6 78.1 C 91.1 78.1 91.8 77.4 91.8 75.9 L 91.8 51.1 " fill="#FFFFFF"></path><path d="M 110.2 82.8 L 110.2 51.4 C 110.2 49.7 109.5 48.9 108.2 48.9 L 106.2 48.9 C 104.8 48.9 104.1 49.7 104.1 51.4 L 104.1 82.8 L 99.3 82.8 L 99.3 51.5 C 99.3 46.6 101.2 44.2 105.1 44.2 L 109.2 44.2 C 113.1 44.2 115.0 46.6 115.0 51.5 L 115.0 82.8 L 110.2 82.8 " fill="#FFFFFF"></path><path d="M 131.8 78.1 L 131.8 82.8 L 117.7 82.8 L 117.7 78.1 L 122.3 78.1 L 122.3 44.2 L 127.1 44.2 L 127.1 78.1 L 131.8 78.1 " fill="#FFFFFF"></path><path d="M 2.0 93.0 L 131.8 93.0 L 131.8 87.3 L 2.0 87.3 Z M 2.0 93.0 " fill="#FFFEFE"></path></g></g></g></svg>