<?xml version="1.0" encoding="UTF-8" standalone="no"?><svg xmlns="http://www.w3.org/2000/svg" xmlns:xlink="http://www.w3.org/1999/xlink" clip-rule="evenodd" stroke-miterlimit="10" viewBox="0 0 705 76"><desc>SVG generated by Keynote</desc><defs></defs><g transform="matrix(1.00, 0.00, -0.00, -1.00, 0.0, 76.0)"><text xml:space="preserve" font-family="Aller-Bold,Aller" font-weight="bold" font-size="72.0" fill="#A7D3A9" transform="matrix(1.00, 0.00, -0.00, -1.00, -3.6, 20.5)">r</text><text xml:space="preserve" font-family="Aller-Bold,Aller" font-weight="bold" font-size="72.0" fill="#A7D3A9" transform="matrix(1.00, 0.00, -0.00, -1.00, 24.3, 20.5)">o</text><text xml:space="preserve" font-family="Aller-Bold,Aller" font-weight="bold" font-size="72.0" fill="#A7D3A9" transform="matrix(1.00, 0.00, -0.00, -1.00, 66.0, 20.5)">b</text><text xml:space="preserve" font-family="Aller-Bold,Aller" font-weight="bold" font-size="72.0" fill="#A7D3A9" transform="matrix(1.00, 0.00, -0.00, -1.00, 108.5, 20.5)">o</text><text xml:space="preserve" font-family="Aller-Bold,Aller" font-weight="bold" font-size="72.0" fill="#A7D3A9" transform="matrix(1.00, 0.00, -0.00, -1.00, 150.3, 20.5)">t</text><text xml:space="preserve" font-family="Aller-Bold,Aller" font-weight="bold" font-size="72.0" fill="#A7D3A9" transform="matrix(1.00, 0.00, -0.00, -1.00, 177.8, 20.5)">s</text><text xml:space="preserve" font-family="Aller-Bold,Aller" font-weight="bold" font-size="72.0" fill="#A7D3A9" transform="matrix(1.00, 0.00, -0.00, -1.00, 211.0, 20.5)"> </text><text xml:space="preserve" font-family="Aller-Bold,Aller" font-weight="bold" font-size="72.0" fill="#A7D3A9" transform="matrix(1.00, 0.00, -0.00, -1.00, 226.8, 20.5)">f</text><text xml:space="preserve" font-family="Aller-Bold,Aller" font-weight="bold" font-size="72.0" fill="#A7D3A9" transform="matrix(1.00, 0.00, -0.00, -1.00, 253.2, 20.5)">o</text><text xml:space="preserve" font-family="Aller-Bold,Aller" font-weight="bold" font-size="72.0" fill="#A7D3A9" transform="matrix(1.00, 0.00, -0.00, -1.00, 294.9, 20.5)">r</text><text xml:space="preserve" font-family="Aller-Bold,Aller" font-weight="bold" font-size="72.0" fill="#A7D3A9" transform="matrix(1.00, 0.00, -0.00, -1.00, 323.9, 20.5)"> </text><text xml:space="preserve" font-family="Aller-Bold,Aller" font-weight="bold" font-size="72.0" fill="#A7D3A9" transform="matrix(1.00, 0.00, -0.00, -1.00, 339.7, 20.5)">g</text><text xml:space="preserve" font-family="Aller-Bold,Aller" font-weight="bold" font-size="72.0" fill="#A7D3A9" transform="matrix(1.00, 0.00, -0.00, -1.00, 379.7, 20.5)">e</text><text xml:space="preserve" font-family="Aller-Bold,Aller" font-weight="bold" font-size="72.0" fill="#A7D3A9" transform="matrix(1.00, 0.00, -0.00, -1.00, 420.2, 20.5)">o</text><text xml:space="preserve" font-family="Aller-Bold,Aller" font-weight="bold" font-size="72.0" fill="#A7D3A9" transform="matrix(1.00, 0.00, -0.00, -1.00, 462.0, 20.5)">s</text><text xml:space="preserve" font-family="Aller-Bold,Aller" font-weight="bold" font-size="72.0" fill="#A7D3A9" transform="matrix(1.00, 0.00, -0.00, -1.00, 495.1, 20.5)">p</text><text xml:space="preserve" font-family="Aller-Bold,Aller" font-weight="bold" font-size="72.0" fill="#A7D3A9" transform="matrix(1.00, 0.00, -0.00, -1.00, 537.6, 20.5)">a</text><text xml:space="preserve" font-family="Aller-Bold,Aller" font-weight="bold" font-size="72.0" fill="#A7D3A9" transform="matrix(1.00, 0.00, -0.00, -1.00, 575.2, 20.5)">t</text><text xml:space="preserve" font-family="Aller-Bold,Aller" font-weight="bold" font-size="72.0" fill="#A7D3A9" transform="matrix(1.00, 0.00, -0.00, -1.00, 602.8, 20.5)">i</text><text xml:space="preserve" font-family="Aller-Bold,Aller" font-weight="bold" font-size="72.0" fill="#A7D3A9" transform="matrix(1.00, 0.00, -0.00, -1.00, 624.9, 20.5)">a</text><text xml:space="preserve" font-family="Aller-Bold,Aller" font-weight="bold" font-size="72.0" fill="#A7D3A9" transform="matrix(1.00, 0.00, -0.00, -1.00, 662.5, 20.5)">l</text><text xml:space="preserve" font-family="Aller-Bold,Aller" font-weight="bold" font-size="72.0" fill="#000000" transform="matrix(1.00, 0.00, -0.00, -1.00, 685.8, 20.5)">,</text></g></svg>