<?xml version="1.0" encoding="UTF-8" standalone="no"?><svg xmlns="http://www.w3.org/2000/svg" xmlns:xlink="http://www.w3.org/1999/xlink" clip-rule="evenodd" stroke-miterlimit="10" viewBox="0 0 816 76"><desc>SVG generated by Keynote</desc><defs></defs><g transform="matrix(1.00, 0.00, -0.00, -1.00, 0.0, 76.0)"><text xml:space="preserve" font-family="Aller-Bold,Aller" font-weight="bold" font-size="72.0" fill="#000000" transform="matrix(1.00, 0.00, -0.00, -1.00, -0.9, 20.5)">e</text><text xml:space="preserve" font-family="Aller-Bold,Aller" font-weight="bold" font-size="72.0" fill="#000000" transform="matrix(1.00, 0.00, -0.00, -1.00, 39.5, 20.5)">n</text><text xml:space="preserve" font-family="Aller-Bold,Aller" font-weight="bold" font-size="72.0" fill="#000000" transform="matrix(1.00, 0.00, -0.00, -1.00, 81.8, 20.5)">g</text><text xml:space="preserve" font-family="Aller-Bold,Aller" font-weight="bold" font-size="72.0" fill="#000000" transform="matrix(1.00, 0.00, -0.00, -1.00, 122.6, 20.5)">i</text><text xml:space="preserve" font-family="Aller-Bold,Aller" font-weight="bold" font-size="72.0" fill="#000000" transform="matrix(1.00, 0.00, -0.00, -1.00, 144.7, 20.5)">n</text><text xml:space="preserve" font-family="Aller-Bold,Aller" font-weight="bold" font-size="72.0" fill="#000000" transform="matrix(1.00, 0.00, -0.00, -1.00, 186.9, 20.5)">e</text><text xml:space="preserve" font-family="Aller-Bold,Aller" font-weight="bold" font-size="72.0" fill="#000000" transform="matrix(1.00, 0.00, -0.00, -1.00, 227.4, 20.5)">e</text><text xml:space="preserve" font-family="Aller-Bold,Aller" font-weight="bold" font-size="72.0" fill="#000000" transform="matrix(1.00, 0.00, -0.00, -1.00, 267.8, 20.5)">r</text><text xml:space="preserve" font-family="Aller-Bold,Aller" font-weight="bold" font-size="72.0" fill="#000000" transform="matrix(1.00, 0.00, -0.00, -1.00, 296.8, 20.5)">i</text><text xml:space="preserve" font-family="Aller-Bold,Aller" font-weight="bold" font-size="72.0" fill="#000000" transform="matrix(1.00, 0.00, -0.00, -1.00, 318.9, 20.5)">n</text><text xml:space="preserve" font-family="Aller-Bold,Aller" font-weight="bold" font-size="72.0" fill="#000000" transform="matrix(1.00, 0.00, -0.00, -1.00, 361.2, 20.5)">g</text><text xml:space="preserve" font-family="Aller-Bold,Aller" font-weight="bold" font-size="72.0" fill="#000000" transform="matrix(1.00, 0.00, -0.00, -1.00, 401.2, 20.5)">,</text><text xml:space="preserve" font-family="Aller-Bold,Aller" font-weight="bold" font-size="72.0" fill="#000000" transform="matrix(1.00, 0.00, -0.00, -1.00, 422.1, 20.5)"> </text><text xml:space="preserve" font-family="Aller-Bold,Aller" font-weight="bold" font-size="72.0" fill="#000000" transform="matrix(1.00, 0.00, -0.00, -1.00, 438.0, 20.5)">a</text><text xml:space="preserve" font-family="Aller-Bold,Aller" font-weight="bold" font-size="72.0" fill="#000000" transform="matrix(1.00, 0.00, -0.00, -1.00, 475.6, 20.5)">n</text><text xml:space="preserve" font-family="Aller-Bold,Aller" font-weight="bold" font-size="72.0" fill="#000000" transform="matrix(1.00, 0.00, -0.00, -1.00, 517.8, 20.5)">d</text><text xml:space="preserve" font-family="Aller-Bold,Aller" font-weight="bold" font-size="72.0" fill="#000000" transform="matrix(1.00, 0.00, -0.00, -1.00, 560.2, 20.5)"> </text><text xml:space="preserve" font-family="Aller-Bold,Aller" font-weight="bold" font-size="72.0" fill="#000000" transform="matrix(1.00, 0.00, -0.00, -1.00, 576.0, 20.5)">n</text><text xml:space="preserve" font-family="Aller-Bold,Aller" font-weight="bold" font-size="72.0" fill="#000000" transform="matrix(1.00, 0.00, -0.00, -1.00, 618.3, 20.5)">a</text><text xml:space="preserve" font-family="Aller-Bold,Aller" font-weight="bold" font-size="72.0" fill="#000000" transform="matrix(1.00, 0.00, -0.00, -1.00, 655.9, 20.5)">t</text><text xml:space="preserve" font-family="Aller-Bold,Aller" font-weight="bold" font-size="72.0" fill="#000000" transform="matrix(1.00, 0.00, -0.00, -1.00, 683.4, 20.5)">u</text><text xml:space="preserve" font-family="Aller-Bold,Aller" font-weight="bold" font-size="72.0" fill="#000000" transform="matrix(1.00, 0.00, -0.00, -1.00, 724.6, 20.5)">r</text><text xml:space="preserve" font-family="Aller-Bold,Aller" font-weight="bold" font-size="72.0" fill="#000000" transform="matrix(1.00, 0.00, -0.00, -1.00, 752.8, 20.5)">a</text><text xml:space="preserve" font-family="Aller-Bold,Aller" font-weight="bold" font-size="72.0" fill="#000000" transform="matrix(1.00, 0.00, -0.00, -1.00, 790.4, 20.5)">l</text></g></svg>