<?xml version="1.0" encoding="UTF-8" standalone="no"?><svg xmlns="http://www.w3.org/2000/svg" xmlns:xlink="http://www.w3.org/1999/xlink" clip-rule="evenodd" stroke-miterlimit="4.00" viewBox="0 0 720 540"><desc>SVG generated by Keynote</desc><defs></defs><g transform="matrix(1.00, 0.00, -0.00, -1.00, 0.0, 540.0)"><path d="M 0.0 540.0 L 720.0 540.0 L 720.0 0.0 L 0.0 0.0 Z M 0.0 540.0 " fill="#000000"></path><g><clipPath id="clip-38"><path d="M 16.0 496.0 L 719.0 496.0 L 719.0 29.0 L 16.0 29.0 Z M 15.7 496.3 "></path></clipPath><g clip-path="url(#clip-38)"><g><clipPath id="clip-39"><path d="M 694.8 31.9 C 693.9 33.4 692.8 36.4 692.5 38.4 C 691.7 42.6 689.5 44.3 686.1 43.5 C 684.6 43.1 683.4 43.5 682.5 44.8 C 681.3 46.5 681.1 46.5 680.5 45.0 C 679.9 43.6 677.8 43.4 664.6 43.4 C 649.9 43.5 649.3 43.6 648.3 45.7 C 647.3 47.9 647.4 47.9 652.5 47.9 C 656.9 47.9 657.9 47.5 658.3 45.9 C 658.9 43.8 661.0 44.4 661.0 46.6 C 661.0 47.7 664.1 48.0 676.2 48.0 L 691.5 48.0 L 693.5 50.7 C 699.2 58.4 708.2 65.3 716.7 68.0 L 719.0 68.0 L 719.0 48.7 L 719.0 29.0 L 707.7 29.0 C 696.4 29.0 696.4 29.2 694.8 31.9 M 261.5 59.4 C 220.1 65.9 189.1 83.6 178.1 107.1 C 174.9 114.1 174.6 115.3 174.6 124.1 C 174.7 135.1 176.3 140.2 182.7 149.6 C 200.7 175.8 246.9 192.5 296.5 190.8 C 315.0 190.1 327.0 188.2 342.6 183.5 C 371.9 174.7 391.9 160.5 400.7 142.3 C 404.3 134.9 404.5 134.2 404.5 124.1 C 404.5 114.0 404.3 113.3 400.7 105.9 C 389.6 83.0 359.5 66.2 316.9 59.2 C 309.0 57.9 270.0 58.0 261.5 59.4 M 343.0 199.6 C 301.2 202.0 262.1 210.2 229.1 223.6 C 191.1 239.1 161.9 260.5 146.9 284.0 C 144.2 288.1 141.5 292.3 140.8 293.2 C 139.6 294.8 135.5 295.0 92.5 295.5 C 66.7 295.8 40.0 296.7 33.3 297.0 L 21.1 297.0 L 20.1 300.3 C 17.2 309.3 16.0 322.2 15.9 344.5 C 15.9 357.1 15.8 373.6 15.7 381.0 C 15.6 389.9 15.9 395.1 16.7 396.0 C 17.3 396.8 18.1 399.0 18.5 400.9 C 19.8 406.9 24.0 419.2 26.4 423.9 L 28.7 428.0 L 43.6 428.0 C 51.8 427.9 66.4 427.4 76.0 426.9 C 85.6 426.4 105.9 425.4 121.0 424.8 C 136.1 424.2 148.7 423.5 148.9 423.3 C 149.1 423.1 148.2 421.4 147.0 419.4 C 145.5 417.0 145.1 415.4 145.7 414.8 C 146.4 414.2 148.7 416.2 152.3 420.7 C 166.9 438.4 187.8 454.0 213.3 466.2 C 218.7 468.8 223.3 470.9 223.6 470.9 C 223.8 470.9 225.9 471.8 228.3 472.8 C 241.2 478.8 274.1 488.1 295.5 491.7 C 319.3 495.8 327.6 496.4 362.5 496.3 C 402.3 496.3 412.8 495.2 448.0 487.7 C 472.5 482.4 510.3 467.7 527.0 456.9 C 530.0 455.0 533.7 452.7 535.2 451.9 C 539.9 449.4 551.8 439.9 560.5 431.7 C 568.8 423.8 575.4 415.6 580.1 407.1 C 582.4 403.0 583.2 402.5 585.6 402.7 C 587.2 402.9 602.4 402.3 619.5 401.5 C 636.5 400.7 662.8 399.4 677.7 398.8 L 705.0 397.5 L 706.2 393.5 C 707.3 389.5 707.5 377.4 707.2 342.6 C 707.1 333.3 707.3 325.3 707.6 324.8 C 707.9 324.4 709.1 324.0 710.3 324.0 C 712.0 324.0 712.6 323.3 712.7 321.5 C 712.9 319.5 712.5 319.0 709.8 318.8 C 706.7 318.5 706.7 318.4 704.9 309.5 C 702.7 298.9 700.3 291.8 694.4 279.3 L 690.0 270.0 L 684.3 271.0 C 681.1 271.3 662.6 272.2 643.2 273.5 C 611.1 275.6 607.4 275.7 602.2 274.3 C 599.1 273.5 596.0 272.4 595.3 271.9 C 594.6 271.2 593.9 271.3 593.5 272.0 C 593.2 272.5 589.4 273.0 585.2 273.0 C 580.9 273.0 575.8 273.4 573.6 273.9 C 569.8 274.8 569.8 274.8 563.4 268.0 C 559.8 264.3 553.3 258.4 548.9 254.9 C 542.1 249.5 541.2 248.4 542.4 247.2 C 543.4 246.1 544.2 246.1 545.8 246.9 C 546.9 247.5 549.3 248.0 551.0 248.0 C 552.7 248.0 556.3 249.2 559.1 250.6 C 561.9 252.0 564.4 252.9 564.8 252.6 C 565.1 252.3 563.4 250.3 561.2 248.2 C 557.9 245.1 556.8 244.6 555.9 245.6 C 554.7 247.1 549.5 246.7 547.5 245.0 C 546.8 244.4 546.4 242.9 546.7 241.7 C 547.1 239.8 547.0 239.7 546.0 241.3 C 545.1 242.6 544.4 242.8 543.0 242.0 C 540.7 240.8 541.0 237.9 543.6 236.9 C 545.1 236.3 544.8 236.1 542.3 236.1 C 539.9 236.0 539.2 236.4 539.6 237.4 C 539.9 238.2 538.7 239.5 536.2 240.8 L 532.4 242.8 L 524.4 238.3 C 490.0 218.6 448.6 206.4 399.0 201.1 C 388.5 200.0 353.2 199.1 343.0 199.6 M 552.5 237.0 C 552.8 237.6 553.6 238.0 554.1 238.0 C 554.7 238.0 554.8 237.6 554.5 237.0 C 554.1 236.5 553.4 236.0 552.9 236.0 C 552.3 236.0 552.1 236.5 552.5 237.0 M 716.0 321.5 C 716.0 323.0 716.5 324.0 717.5 324.0 C 718.4 324.0 719.0 323.0 719.0 321.5 C 719.0 319.9 718.4 319.0 717.5 319.0 C 716.5 319.0 716.0 319.9 716.0 321.5 "></path></clipPath><g clip-path="url(#clip-39)"><image xlink:href="123A9CB8D756018A68A4DB87CABB0225.png" width="718.00" height="481.00" transform="matrix(1.00, 0.00, -0.00, -1.00, 1.0, 511.0)"></image></g></g></g></g></g></svg>