<?xml version="1.0" encoding="UTF-8" standalone="no"?><svg xmlns="http://www.w3.org/2000/svg" xmlns:xlink="http://www.w3.org/1999/xlink" clip-rule="evenodd" stroke-miterlimit="4.00" viewBox="0 0 526 55"><desc>SVG generated by Keynote</desc><defs></defs><g transform="matrix(1.00, 0.00, -0.00, -1.00, 0.0, 55.0)"><text xml:space="preserve" font-family="HelveticaNeue-Bold" font-weight="bold" font-size="56.0" fill="#A0CCA2" transform="matrix(1.00, 0.00, -0.00, -1.00, -2.0, 13.0)">P</text><text xml:space="preserve" font-family="HelveticaNeue-Bold" font-weight="bold" font-size="56.0" fill="#A0CCA2" transform="matrix(1.00, 0.00, -0.00, -1.00, 35.4, 13.0)">h</text><text xml:space="preserve" font-family="HelveticaNeue-Bold" font-weight="bold" font-size="56.0" fill="#A0CCA2" transform="matrix(1.00, 0.00, -0.00, -1.00, 68.6, 13.0)">y</text><text xml:space="preserve" font-family="HelveticaNeue-Bold" font-weight="bold" font-size="56.0" fill="#A0CCA2" transform="matrix(1.00, 0.00, -0.00, -1.00, 97.6, 13.0)">s</text><text xml:space="preserve" font-family="HelveticaNeue-Bold" font-weight="bold" font-size="56.0" fill="#A0CCA2" transform="matrix(1.00, 0.00, -0.00, -1.00, 127.7, 13.0)">i</text><text xml:space="preserve" font-family="HelveticaNeue-Bold" font-weight="bold" font-size="56.0" fill="#A0CCA2" transform="matrix(1.00, 0.00, -0.00, -1.00, 142.1, 13.0)">c</text><text xml:space="preserve" font-family="HelveticaNeue-Bold" font-weight="bold" font-size="56.0" fill="#A0CCA2" transform="matrix(1.00, 0.00, -0.00, -1.00, 174.3, 13.0)">a</text><text xml:space="preserve" font-family="HelveticaNeue-Bold" font-weight="bold" font-size="56.0" fill="#A0CCA2" transform="matrix(1.00, 0.00, -0.00, -1.00, 206.4, 13.0)">l</text><text xml:space="preserve" font-family="HelveticaNeue-Bold" font-weight="bold" font-size="56.0" fill="#A0CCA2" transform="matrix(1.00, 0.00, -0.00, -1.00, 220.9, 13.0)"> </text><text xml:space="preserve" font-family="HelveticaNeue-Bold" font-weight="bold" font-size="56.0" fill="#A0CCA2" transform="matrix(1.00, 0.00, -0.00, -1.00, 236.4, 13.0)">C</text><text xml:space="preserve" font-family="HelveticaNeue-Bold" font-weight="bold" font-size="56.0" fill="#A0CCA2" transform="matrix(1.00, 0.00, -0.00, -1.00, 277.9, 13.0)">o</text><text xml:space="preserve" font-family="HelveticaNeue-Bold" font-weight="bold" font-size="56.0" fill="#A0CCA2" transform="matrix(1.00, 0.00, -0.00, -1.00, 312.2, 13.0)">n</text><text xml:space="preserve" font-family="HelveticaNeue-Bold" font-weight="bold" font-size="56.0" fill="#A0CCA2" transform="matrix(1.00, 0.00, -0.00, -1.00, 345.4, 13.0)">d</text><text xml:space="preserve" font-family="HelveticaNeue-Bold" font-weight="bold" font-size="56.0" fill="#A0CCA2" transform="matrix(1.00, 0.00, -0.00, -1.00, 379.6, 13.0)">i</text><text xml:space="preserve" font-family="HelveticaNeue-Bold" font-weight="bold" font-size="56.0" fill="#A0CCA2" transform="matrix(1.00, 0.00, -0.00, -1.00, 394.0, 13.0)">t</text><text xml:space="preserve" font-family="HelveticaNeue-Bold" font-weight="bold" font-size="56.0" fill="#A0CCA2" transform="matrix(1.00, 0.00, -0.00, -1.00, 413.7, 13.0)">i</text><text xml:space="preserve" font-family="HelveticaNeue-Bold" font-weight="bold" font-size="56.0" fill="#A0CCA2" transform="matrix(1.00, 0.00, -0.00, -1.00, 428.2, 13.0)">o</text><text xml:space="preserve" font-family="HelveticaNeue-Bold" font-weight="bold" font-size="56.0" fill="#A0CCA2" transform="matrix(1.00, 0.00, -0.00, -1.00, 462.4, 13.0)">n</text><text xml:space="preserve" font-family="HelveticaNeue-Bold" font-weight="bold" font-size="56.0" fill="#A0CCA2" transform="matrix(1.00, 0.00, -0.00, -1.00, 495.6, 13.0)">s</text></g></svg>