<?xml version="1.0" encoding="UTF-8" standalone="no"?><svg xmlns="http://www.w3.org/2000/svg" xmlns:xlink="http://www.w3.org/1999/xlink" clip-rule="evenodd" stroke-miterlimit="4.00" viewBox="0 0 720 540"><desc>SVG generated by Keynote</desc><defs></defs><g transform="matrix(1.00, 0.00, -0.00, -1.00, 0.0, 540.0)"><path d="M 0.0 540.0 L 720.0 540.0 L 720.0 0.0 L 0.0 0.0 Z M 0.0 540.0 " fill="#000000"></path><image xlink:href="27D77EFDA36D95ACD4E199201D886646.png" width="720.00" height="345.00" transform="matrix(1.00, 0.00, -0.00, -1.00, 0.0, 443.0)"></image><text xml:space="preserve" font-family="Calibri" font-size="14.0" fill="#0463C1" transform="matrix(1.00, 0.00, -0.00, -1.00, 91.0, 6.0)">h</text><text xml:space="preserve" font-family="Calibri" font-size="14.0" fill="#0463C1" transform="matrix(1.00, 0.00, -0.00, -1.00, 98.2, 6.0)">t</text><text xml:space="preserve" font-family="Calibri" font-size="14.0" fill="#0463C1" transform="matrix(1.00, 0.00, -0.00, -1.00, 102.7, 6.0)">t</text><text xml:space="preserve" font-family="Calibri" font-size="14.0" fill="#0463C1" transform="matrix(1.00, 0.00, -0.00, -1.00, 107.4, 6.0)">p</text><text xml:space="preserve" font-family="Calibri" font-size="14.0" fill="#0463C1" transform="matrix(1.00, 0.00, -0.00, -1.00, 114.8, 6.0)">:</text><text xml:space="preserve" font-family="Calibri" font-size="14.0" fill="#0463C1" transform="matrix(1.00, 0.00, -0.00, -1.00, 118.5, 6.0)">/</text><text xml:space="preserve" font-family="Calibri" font-size="14.0" fill="#0463C1" transform="matrix(1.00, 0.00, -0.00, -1.00, 123.9, 6.0)">/</text><text xml:space="preserve" font-family="Calibri" font-size="14.0" fill="#0463C1" transform="matrix(1.00, 0.00, -0.00, -1.00, 129.3, 6.0)">f</text><text xml:space="preserve" font-family="Calibri" font-size="14.0" fill="#0463C1" transform="matrix(1.00, 0.00, -0.00, -1.00, 133.3, 6.0)">o</text><text xml:space="preserve" font-family="Calibri" font-size="14.0" fill="#0463C1" transform="matrix(1.00, 0.00, -0.00, -1.00, 140.7, 6.0)">r</text><text xml:space="preserve" font-family="Calibri" font-size="14.0" fill="#0463C1" transform="matrix(1.00, 0.00, -0.00, -1.00, 145.6, 6.0)">u</text><text xml:space="preserve" font-family="Calibri" font-size="14.0" fill="#0463C1" transform="matrix(1.00, 0.00, -0.00, -1.00, 152.9, 6.0)">m</text><text xml:space="preserve" font-family="Calibri" font-size="14.0" fill="#0463C1" transform="matrix(1.00, 0.00, -0.00, -1.00, 164.1, 6.0)">s</text><text xml:space="preserve" font-family="Calibri" font-size="14.0" fill="#0463C1" transform="matrix(1.00, 0.00, -0.00, -1.00, 169.6, 6.0)">.</text><text xml:space="preserve" font-family="Calibri" font-size="14.0" fill="#0463C1" transform="matrix(1.00, 0.00, -0.00, -1.00, 173.1, 6.0)">x</text><text xml:space="preserve" font-family="Calibri" font-size="14.0" fill="#0463C1" transform="matrix(1.00, 0.00, -0.00, -1.00, 178.8, 6.0)">-</text><text xml:space="preserve" font-family="Calibri" font-size="14.0" fill="#0463C1" transform="matrix(1.00, 0.00, -0.00, -1.00, 183.1, 6.0)">p</text><text xml:space="preserve" font-family="Calibri" font-size="14.0" fill="#0463C1" transform="matrix(1.00, 0.00, -0.00, -1.00, 190.4, 6.0)">l</text><text xml:space="preserve" font-family="Calibri" font-size="14.0" fill="#0463C1" transform="matrix(1.00, 0.00, -0.00, -1.00, 193.6, 6.0)">a</text><text xml:space="preserve" font-family="Calibri" font-size="14.0" fill="#0463C1" transform="matrix(1.00, 0.00, -0.00, -1.00, 200.4, 6.0)">n</text><text xml:space="preserve" font-family="Calibri" font-size="14.0" fill="#0463C1" transform="matrix(1.00, 0.00, -0.00, -1.00, 207.7, 6.0)">e</text><text xml:space="preserve" font-family="Calibri" font-size="14.0" fill="#0463C1" transform="matrix(1.00, 0.00, -0.00, -1.00, 214.7, 6.0)">.</text><text xml:space="preserve" font-family="Calibri" font-size="14.0" fill="#0463C1" transform="matrix(1.00, 0.00, -0.00, -1.00, 218.2, 6.0)">o</text><text xml:space="preserve" font-family="Calibri" font-size="14.0" fill="#0463C1" transform="matrix(1.00, 0.00, -0.00, -1.00, 225.6, 6.0)">r</text><text xml:space="preserve" font-family="Calibri" font-size="14.0" fill="#0463C1" transform="matrix(1.00, 0.00, -0.00, -1.00, 230.3, 6.0)">g</text><text xml:space="preserve" font-family="Calibri" font-size="14.0" fill="#0463C1" transform="matrix(1.00, 0.00, -0.00, -1.00, 237.4, 6.0)">/</text><text xml:space="preserve" font-family="Calibri" font-size="14.0" fill="#0463C1" transform="matrix(1.00, 0.00, -0.00, -1.00, 242.8, 6.0)">u</text><text xml:space="preserve" font-family="Calibri" font-size="14.0" fill="#0463C1" transform="matrix(1.00, 0.00, -0.00, -1.00, 250.1, 6.0)">p</text><text xml:space="preserve" font-family="Calibri" font-size="14.0" fill="#0463C1" transform="matrix(1.00, 0.00, -0.00, -1.00, 257.5, 6.0)">l</text><text xml:space="preserve" font-family="Calibri" font-size="14.0" fill="#0463C1" transform="matrix(1.00, 0.00, -0.00, -1.00, 260.7, 6.0)">o</text><text xml:space="preserve" font-family="Calibri" font-size="14.0" fill="#0463C1" transform="matrix(1.00, 0.00, -0.00, -1.00, 268.1, 6.0)">a</text><text xml:space="preserve" font-family="Calibri" font-size="14.0" fill="#0463C1" transform="matrix(1.00, 0.00, -0.00, -1.00, 274.8, 6.0)">d</text><text xml:space="preserve" font-family="Calibri" font-size="14.0" fill="#0463C1" transform="matrix(1.00, 0.00, -0.00, -1.00, 282.2, 6.0)">s</text><text xml:space="preserve" font-family="Calibri" font-size="14.0" fill="#0463C1" transform="matrix(1.00, 0.00, -0.00, -1.00, 287.7, 6.0)">/</text><text xml:space="preserve" font-family="Calibri" font-size="14.0" fill="#0463C1" transform="matrix(1.00, 0.00, -0.00, -1.00, 293.1, 6.0)">m</text><text xml:space="preserve" font-family="Calibri" font-size="14.0" fill="#0463C1" transform="matrix(1.00, 0.00, -0.00, -1.00, 304.2, 6.0)">o</text><text xml:space="preserve" font-family="Calibri" font-size="14.0" fill="#0463C1" transform="matrix(1.00, 0.00, -0.00, -1.00, 311.6, 6.0)">n</text><text xml:space="preserve" font-family="Calibri" font-size="14.0" fill="#0463C1" transform="matrix(1.00, 0.00, -0.00, -1.00, 318.9, 6.0)">t</text><text xml:space="preserve" font-family="Calibri" font-size="14.0" fill="#0463C1" transform="matrix(1.00, 0.00, -0.00, -1.00, 323.5, 6.0)">h</text><text xml:space="preserve" font-family="Calibri" font-size="14.0" fill="#0463C1" transform="matrix(1.00, 0.00, -0.00, -1.00, 330.9, 6.0)">l</text><text xml:space="preserve" font-family="Calibri" font-size="14.0" fill="#0463C1" transform="matrix(1.00, 0.00, -0.00, -1.00, 334.1, 6.0)">y</text><text xml:space="preserve" font-family="Calibri" font-size="14.0" fill="#0463C1" transform="matrix(1.00, 0.00, -0.00, -1.00, 340.5, 6.0)">_</text><text xml:space="preserve" font-family="Calibri" font-size="14.0" fill="#0463C1" transform="matrix(1.00, 0.00, -0.00, -1.00, 347.4, 6.0)">0</text><text xml:space="preserve" font-family="Calibri" font-size="14.0" fill="#0463C1" transform="matrix(1.00, 0.00, -0.00, -1.00, 354.5, 6.0)">9</text><text xml:space="preserve" font-family="Calibri" font-size="14.0" fill="#0463C1" transform="matrix(1.00, 0.00, -0.00, -1.00, 361.6, 6.0)">_</text><text xml:space="preserve" font-family="Calibri" font-size="14.0" fill="#0463C1" transform="matrix(1.00, 0.00, -0.00, -1.00, 368.6, 6.0)">2</text><text xml:space="preserve" font-family="Calibri" font-size="14.0" fill="#0463C1" transform="matrix(1.00, 0.00, -0.00, -1.00, 375.7, 6.0)">0</text><text xml:space="preserve" font-family="Calibri" font-size="14.0" fill="#0463C1" transform="matrix(1.00, 0.00, -0.00, -1.00, 382.8, 6.0)">1</text><text xml:space="preserve" font-family="Calibri" font-size="14.0" fill="#0463C1" transform="matrix(1.00, 0.00, -0.00, -1.00, 389.9, 6.0)">1</text><text xml:space="preserve" font-family="Calibri" font-size="14.0" fill="#0463C1" transform="matrix(1.00, 0.00, -0.00, -1.00, 397.0, 6.0)">/</text><text xml:space="preserve" font-family="Calibri" font-size="14.0" fill="#0463C1" transform="matrix(1.00, 0.00, -0.00, -1.00, 402.4, 6.0)">p</text><text xml:space="preserve" font-family="Calibri" font-size="14.0" fill="#0463C1" transform="matrix(1.00, 0.00, -0.00, -1.00, 409.7, 6.0)">o</text><text xml:space="preserve" font-family="Calibri" font-size="14.0" fill="#0463C1" transform="matrix(1.00, 0.00, -0.00, -1.00, 417.1, 6.0)">s</text><text xml:space="preserve" font-family="Calibri" font-size="14.0" fill="#0463C1" transform="matrix(1.00, 0.00, -0.00, -1.00, 422.4, 6.0)">t</text><text xml:space="preserve" font-family="Calibri" font-size="14.0" fill="#0463C1" transform="matrix(1.00, 0.00, -0.00, -1.00, 426.7, 6.0)">-</text><text xml:space="preserve" font-family="Calibri" font-size="14.0" fill="#0463C1" transform="matrix(1.00, 0.00, -0.00, -1.00, 431.0, 6.0)">1</text><text xml:space="preserve" font-family="Calibri" font-size="14.0" fill="#0463C1" transform="matrix(1.00, 0.00, -0.00, -1.00, 438.1, 6.0)">3</text><text xml:space="preserve" font-family="Calibri" font-size="14.0" fill="#0463C1" transform="matrix(1.00, 0.00, -0.00, -1.00, 445.2, 6.0)">7</text><text xml:space="preserve" font-family="Calibri" font-size="14.0" fill="#0463C1" transform="matrix(1.00, 0.00, -0.00, -1.00, 452.3, 6.0)">9</text><text xml:space="preserve" font-family="Calibri" font-size="14.0" fill="#0463C1" transform="matrix(1.00, 0.00, -0.00, -1.00, 459.4, 6.0)">-</text><text xml:space="preserve" font-family="Calibri" font-size="14.0" fill="#0463C1" transform="matrix(1.00, 0.00, -0.00, -1.00, 463.7, 6.0)">0</text><text xml:space="preserve" font-family="Calibri" font-size="14.0" fill="#0463C1" transform="matrix(1.00, 0.00, -0.00, -1.00, 470.7, 6.0)">-</text><text xml:space="preserve" font-family="Calibri" font-size="14.0" fill="#0463C1" transform="matrix(1.00, 0.00, -0.00, -1.00, 475.0, 6.0)">4</text><text xml:space="preserve" font-family="Calibri" font-size="14.0" fill="#0463C1" transform="matrix(1.00, 0.00, -0.00, -1.00, 482.1, 6.0)">7</text><text xml:space="preserve" font-family="Calibri" font-size="14.0" fill="#0463C1" transform="matrix(1.00, 0.00, -0.00, -1.00, 489.2, 6.0)">7</text><text xml:space="preserve" font-family="Calibri" font-size="14.0" fill="#0463C1" transform="matrix(1.00, 0.00, -0.00, -1.00, 496.3, 6.0)">3</text><text xml:space="preserve" font-family="Calibri" font-size="14.0" fill="#0463C1" transform="matrix(1.00, 0.00, -0.00, -1.00, 503.4, 6.0)">1</text><text xml:space="preserve" font-family="Calibri" font-size="14.0" fill="#0463C1" transform="matrix(1.00, 0.00, -0.00, -1.00, 510.5, 6.0)">7</text><text xml:space="preserve" font-family="Calibri" font-size="14.0" fill="#0463C1" transform="matrix(1.00, 0.00, -0.00, -1.00, 517.6, 6.0)">0</text><text xml:space="preserve" font-family="Calibri" font-size="14.0" fill="#0463C1" transform="matrix(1.00, 0.00, -0.00, -1.00, 524.7, 6.0)">0</text><text xml:space="preserve" font-family="Calibri" font-size="14.0" fill="#0463C1" transform="matrix(1.00, 0.00, -0.00, -1.00, 531.8, 6.0)">-</text><text xml:space="preserve" font-family="Calibri" font-size="14.0" fill="#0463C1" transform="matrix(1.00, 0.00, -0.00, -1.00, 536.1, 6.0)">1</text><text xml:space="preserve" font-family="Calibri" font-size="14.0" fill="#0463C1" transform="matrix(1.00, 0.00, -0.00, -1.00, 543.2, 6.0)">3</text><text xml:space="preserve" font-family="Calibri" font-size="14.0" fill="#0463C1" transform="matrix(1.00, 0.00, -0.00, -1.00, 550.3, 6.0)">1</text><text xml:space="preserve" font-family="Calibri" font-size="14.0" fill="#0463C1" transform="matrix(1.00, 0.00, -0.00, -1.00, 557.3, 6.0)">7</text><text xml:space="preserve" font-family="Calibri" font-size="14.0" fill="#0463C1" transform="matrix(1.00, 0.00, -0.00, -1.00, 564.4, 6.0)">4</text><text xml:space="preserve" font-family="Calibri" font-size="14.0" fill="#0463C1" transform="matrix(1.00, 0.00, -0.00, -1.00, 571.5, 6.0)">1</text><text xml:space="preserve" font-family="Calibri" font-size="14.0" fill="#0463C1" transform="matrix(1.00, 0.00, -0.00, -1.00, 578.6, 6.0)">2</text><text xml:space="preserve" font-family="Calibri" font-size="14.0" fill="#0463C1" transform="matrix(1.00, 0.00, -0.00, -1.00, 585.7, 6.0)">4</text><text xml:space="preserve" font-family="Calibri" font-size="14.0" fill="#0463C1" transform="matrix(1.00, 0.00, -0.00, -1.00, 592.8, 6.0)">6</text><text xml:space="preserve" font-family="Calibri" font-size="14.0" fill="#0463C1" transform="matrix(1.00, 0.00, -0.00, -1.00, 599.9, 6.0)">2</text><text xml:space="preserve" font-family="Calibri" font-size="14.0" fill="#0463C1" transform="matrix(1.00, 0.00, -0.00, -1.00, 607.0, 6.0)">.</text><text xml:space="preserve" font-family="Calibri" font-size="14.0" fill="#0463C1" transform="matrix(1.00, 0.00, -0.00, -1.00, 610.5, 6.0)">j</text><text xml:space="preserve" font-family="Calibri" font-size="14.0" fill="#0463C1" transform="matrix(1.00, 0.00, -0.00, -1.00, 613.9, 6.0)">p</text><text xml:space="preserve" font-family="Calibri" font-size="14.0" fill="#0463C1" transform="matrix(1.00, 0.00, -0.00, -1.00, 621.2, 6.0)">g</text><g><clipPath id="clip-36"><path d="M 90.1 2.7 L 627.9 2.7 L 627.9 5.6 L 90.1 5.6 Z M 90.1 2.7 "></path></clipPath><g clip-path="url(#clip-36)"><path d="M 3.6 18.4 L 540.4 18.4 " fill="none" stroke="#0463C1" stroke-width="0.92" stroke-miterlimit="0.00" transform="matrix(1.00, 0.00, 0.00, -1.00, 87.5, 22.6)"></path></g></g></g></svg>