<?xml version="1.0" encoding="UTF-8" standalone="no"?><svg xmlns="http://www.w3.org/2000/svg" xmlns:xlink="http://www.w3.org/1999/xlink" clip-rule="evenodd" stroke-miterlimit="4.00" viewBox="0 0 86 109"><desc>SVG generated by Keynote</desc><defs></defs><g transform="matrix(1.00, 0.00, -0.00, -1.00, 0.0, 109.0)"><g><clipPath id="clip-574"><path d="M 2.0 107.7 L 83.9 107.7 L 83.9 2.0 L 2.0 2.0 Z M 2.0 107.7 "></path></clipPath><g clip-path="url(#clip-574)"><g><clipPath id="clip-575"><path d="M 2.0 2.0 L 84.0 2.0 L 84.0 108.0 L 2.0 108.0 Z M 2.0 2.0 "></path></clipPath><g clip-path="url(#clip-575)"><path d="M 2.0 5.6 L 37.2 5.6 L 37.2 2.0 L 2.0 2.0 Z M 2.0 5.6 " fill="#FFFEFE"></path></g></g></g></g><g><clipPath id="clip-576"><path d="M 2.0 2.0 L 84.0 2.0 L 84.0 108.0 L 2.0 108.0 Z M 2.0 2.0 "></path></clipPath><g clip-path="url(#clip-576)"><path d="M 43.1 93.4 C 45.0 93.3 46.5 94.8 46.6 96.7 C 46.6 98.5 45.2 100.1 43.3 100.1 C 41.5 100.2 39.9 98.7 39.9 96.9 C 39.8 95.0 41.3 93.4 43.1 93.4 " fill="#FFFEFE"></path><path d="M 36.9 94.4 C 37.5 94.4 39.4 94.1 40.7 93.1 C 42.0 92.1 43.4 90.1 43.5 89.8 C 43.5 90.1 45.0 92.1 45.5 92.6 C 46.5 93.4 47.5 94.2 50.1 94.5 L 50.1 90.9 C 49.6 90.9 48.6 90.6 47.8 89.9 C 46.9 89.2 45.9 87.7 45.6 86.7 C 45.3 85.6 45.2 84.8 45.2 84.2 L 45.3 77.3 L 41.7 77.3 L 41.8 84.1 C 41.8 84.8 41.7 86.1 41.4 86.8 C 41.0 87.4 40.3 89.2 38.9 90.1 C 38.5 90.4 37.9 90.9 36.9 90.9 L 36.9 94.4 " fill="#FFFEFE"></path><path d="M 43.4 103.5 C 43.5 103.4 46.5 101.4 49.0 98.9 C 49.8 98.1 51.9 95.6 51.9 92.4 C 51.9 89.6 50.3 87.6 50.1 87.4 C 49.5 86.7 47.4 85.0 46.1 84.8 L 46.1 81.2 C 47.7 81.5 50.3 82.5 51.8 84.0 C 53.3 85.5 54.5 87.4 55.1 89.6 C 55.7 92.3 55.2 95.3 54.4 97.0 C 53.3 99.3 51.5 101.5 49.2 103.4 L 43.4 107.7 L 37.7 103.4 C 35.4 101.5 33.5 99.3 32.5 97.0 C 31.7 95.2 31.2 92.2 31.9 89.6 C 32.4 87.3 33.7 85.5 35.2 84.0 C 36.7 82.5 39.3 81.5 40.8 81.2 L 40.8 84.8 C 39.6 85.0 37.4 86.7 36.8 87.4 C 36.6 87.6 35.0 89.6 35.0 92.4 C 35.0 95.5 37.1 98.1 37.9 98.9 C 40.4 101.4 43.4 103.4 43.4 103.5 " fill="#FFFEFE"></path><path d="M 27.0 74.2 C 27.0 74.8 26.6 75.2 26.0 75.2 C 25.3 75.2 24.9 74.6 24.9 73.4 C 24.9 72.6 25.1 71.8 26.0 71.8 C 26.7 71.8 27.0 72.2 27.0 72.8 L 28.9 72.8 C 28.7 71.3 27.6 70.3 26.1 70.3 C 24.1 70.3 23.0 71.5 23.0 73.5 C 23.0 75.5 24.2 76.7 25.9 76.7 C 27.7 76.7 28.7 75.8 28.8 74.2 L 27.0 74.2 " fill="#FFFEFE"></path><path d="M 29.3 76.5 L 31.0 76.5 L 31.0 70.5 L 29.3 70.5 Z M 29.3 76.5 " fill="#FFFEFE"></path><path d="M 33.2 72.3 C 33.2 71.8 33.6 71.4 34.1 71.4 C 34.3 71.4 34.6 71.5 34.7 71.8 L 36.3 71.8 C 36.0 70.7 34.9 70.3 33.9 70.3 C 32.6 70.3 31.5 71.2 31.5 72.6 C 31.5 74.1 32.6 75.0 33.9 75.0 C 35.5 75.0 36.5 73.9 36.5 72.3 L 33.2 72.3 Z M 34.8 73.2 C 34.8 73.6 34.4 73.9 34.0 73.9 C 33.5 73.9 33.2 73.6 33.2 73.2 L 34.8 73.2 " fill="#FFFEFE"></path><path d="M 36.4 74.9 L 38.1 74.9 L 38.9 72.1 L 39.6 74.9 L 41.3 74.9 L 39.8 70.5 L 37.9 70.5 L 36.4 74.9 " fill="#FFFEFE"></path><path d="M 42.8 72.3 C 42.8 71.8 43.1 71.4 43.6 71.4 C 43.9 71.4 44.1 71.5 44.2 71.8 L 45.9 71.8 C 45.6 70.7 44.5 70.3 43.5 70.3 C 42.1 70.3 41.1 71.2 41.1 72.6 C 41.1 74.1 42.1 75.0 43.5 75.0 C 45.1 75.0 46.0 73.9 46.0 72.3 L 42.8 72.3 Z M 44.3 73.2 C 44.3 73.6 43.9 73.9 43.5 73.9 C 43.0 73.9 42.8 73.6 42.8 73.2 L 44.3 73.2 " fill="#FFFEFE"></path><path d="M 46.4 76.5 L 48.1 76.5 L 48.1 70.5 L 46.4 70.5 Z M 46.4 76.5 " fill="#FFFEFE"></path><path d="M 51.7 70.5 L 51.6 70.9 C 51.2 70.5 50.7 70.3 50.0 70.3 C 49.2 70.3 48.5 70.8 48.5 71.7 C 48.5 73.7 51.5 72.8 51.5 73.6 C 51.5 73.9 51.2 73.9 51.0 73.9 C 50.8 73.9 50.4 73.9 50.4 73.5 L 48.8 73.5 C 48.8 74.4 49.4 75.0 51.1 75.0 C 53.1 75.0 53.2 74.2 53.2 73.2 L 53.2 71.1 C 53.2 70.9 53.3 70.7 53.5 70.6 L 53.5 70.5 L 51.7 70.5 Z M 51.5 72.4 C 51.0 72.1 50.3 72.3 50.3 71.7 C 50.3 71.5 50.5 71.3 50.8 71.3 C 51.4 71.3 51.6 71.8 51.5 72.4 " fill="#FFFEFE"></path><path d="M 53.9 74.9 L 55.5 74.9 L 55.5 74.2 C 55.8 74.7 56.3 75.0 56.9 75.0 C 58.0 75.0 58.6 74.3 58.6 73.1 L 58.6 70.5 L 56.9 70.5 L 56.9 72.8 C 56.9 73.2 56.8 73.6 56.3 73.6 C 55.7 73.6 55.6 73.3 55.6 72.7 L 55.6 70.5 L 53.9 70.5 L 53.9 74.9 " fill="#FFFEFE"></path><path d="M 62.2 70.5 L 62.2 71.1 C 61.8 70.5 61.4 70.3 60.9 70.3 C 59.6 70.3 58.9 71.3 58.9 72.6 C 58.9 74.0 59.7 75.0 60.8 75.0 C 61.3 75.0 61.7 74.9 62.0 74.4 L 62.0 76.5 L 63.7 76.5 L 63.7 70.5 L 62.2 70.5 Z M 62.1 72.6 C 62.1 73.1 61.9 73.6 61.4 73.6 C 60.8 73.6 60.6 73.1 60.6 72.6 C 60.6 72.1 60.8 71.6 61.3 71.6 C 61.9 71.6 62.1 72.1 62.1 72.6 " fill="#FFFEFE"></path><path d="M 19.9 63.0 L 19.9 69.1 L 22.3 69.1 L 23.3 65.3 L 24.3 69.1 L 26.7 69.1 L 26.7 63.0 L 24.9 63.0 L 24.9 64.9 L 25.0 65.8 L 25.1 66.9 L 25.1 66.9 L 24.0 63.0 L 22.6 63.0 L 21.6 66.9 L 21.6 66.9 L 21.6 66.0 L 21.7 65.1 L 21.7 63.0 L 19.9 63.0 " fill="#FFFEFE"></path><path d="M 28.7 64.8 C 28.7 64.3 29.1 64.0 29.6 64.0 C 29.9 64.0 30.1 64.1 30.2 64.4 L 31.8 64.4 C 31.6 63.3 30.5 62.9 29.5 62.9 C 28.1 62.9 27.0 63.7 27.0 65.2 C 27.0 66.6 28.1 67.6 29.5 67.6 C 31.1 67.6 32.0 66.4 32.0 64.8 L 28.7 64.8 Z M 30.3 65.7 C 30.3 66.1 29.9 66.5 29.5 66.5 C 29.0 66.5 28.7 66.2 28.7 65.7 L 30.3 65.7 " fill="#FFFEFE"></path><path d="M 35.2 63.0 C 32.9 62.9 32.7 63.1 32.7 64.6 L 32.7 66.4 L 32.1 66.4 L 32.1 67.4 L 32.7 67.4 L 32.7 68.8 L 34.4 68.8 L 34.4 67.4 L 35.2 67.4 L 35.2 66.4 L 34.4 66.4 L 34.4 64.8 C 34.4 64.4 34.4 64.3 34.9 64.3 L 35.2 64.3 L 35.2 63.0 " fill="#FFFEFE"></path><path d="M 35.6 67.4 L 37.2 67.4 L 37.2 66.5 L 37.2 66.5 C 37.4 67.2 37.8 67.6 38.5 67.6 C 38.6 67.6 38.6 67.5 38.7 67.5 L 38.7 65.8 C 38.6 65.8 38.5 65.8 38.4 65.8 C 37.7 65.8 37.3 65.5 37.3 64.6 L 37.3 63.0 L 35.6 63.0 L 35.6 67.4 " fill="#FFFEFE"></path><path d="M 41.2 67.6 C 42.7 67.6 43.6 66.6 43.6 65.3 C 43.6 63.7 42.5 62.9 41.2 62.9 C 39.8 62.9 38.7 63.7 38.7 65.2 C 38.7 66.7 39.7 67.6 41.2 67.6 M 40.4 65.3 C 40.4 64.5 40.7 64.1 41.2 64.1 C 41.6 64.1 41.9 64.5 41.9 65.3 C 41.9 65.9 41.6 66.4 41.2 66.4 C 40.6 66.4 40.4 65.8 40.4 65.3 " fill="#FFFEFE"></path><path d="M 45.5 67.4 L 45.5 66.8 L 45.5 66.8 C 45.7 67.3 46.4 67.6 46.8 67.6 C 48.1 67.6 48.8 66.5 48.8 65.3 C 48.8 63.5 47.7 62.9 46.8 62.9 C 46.3 62.9 45.9 63.1 45.7 63.5 L 45.7 61.6 L 44.0 61.6 L 44.0 67.4 L 45.5 67.4 Z M 47.1 65.2 C 47.1 65.9 46.8 66.3 46.3 66.3 C 45.9 66.3 45.6 65.9 45.6 65.3 C 45.6 64.7 45.9 64.2 46.3 64.2 C 46.8 64.2 47.1 64.6 47.1 65.2 " fill="#FFFEFE"></path><path d="M 52.2 63.0 L 52.1 63.5 C 51.6 63.1 51.1 62.9 50.5 62.9 C 49.7 62.9 49.0 63.3 49.0 64.2 C 49.0 66.2 52.0 65.3 52.0 66.2 C 52.0 66.5 51.6 66.5 51.5 66.5 C 51.2 66.5 50.9 66.5 50.9 66.1 L 49.2 66.1 C 49.2 67.0 49.9 67.6 51.6 67.6 C 53.6 67.6 53.7 66.8 53.7 65.7 L 53.7 63.7 C 53.7 63.4 53.7 63.3 53.9 63.1 L 53.9 63.0 L 52.2 63.0 Z M 52.0 65.0 C 51.5 64.7 50.7 64.8 50.7 64.3 C 50.7 64.1 50.9 63.9 51.3 63.9 C 51.9 63.9 52.0 64.4 52.0 65.0 " fill="#FFFEFE"></path><path d="M 54.4 67.4 L 56.0 67.4 L 56.0 66.5 L 56.0 66.5 C 56.2 67.2 56.6 67.6 57.3 67.6 C 57.4 67.6 57.4 67.5 57.5 67.5 L 57.5 65.8 C 57.4 65.8 57.3 65.8 57.2 65.8 C 56.5 65.8 56.1 65.5 56.1 64.6 L 56.1 63.0 L 54.4 63.0 L 54.4 67.4 " fill="#FFFEFE"></path><path d="M 59.5 64.3 L 59.5 63.0 L 57.8 63.0 L 57.8 69.1 L 59.5 69.1 L 59.5 66.1 L 60.6 67.4 L 62.6 67.4 L 61.0 65.7 L 62.8 63.0 L 60.8 63.0 L 59.8 64.6 L 59.5 64.3 " fill="#FFFEFE"></path></g></g><g><clipPath id="clip-577"><path d="M 2.0 107.7 L 83.9 107.7 L 83.9 2.0 L 2.0 2.0 Z M 2.0 107.7 "></path></clipPath><g clip-path="url(#clip-577)"><g><clipPath id="clip-578"><path d="M 2.0 2.0 L 84.0 2.0 L 84.0 108.0 L 2.0 108.0 Z M 2.0 2.0 "></path></clipPath><g clip-path="url(#clip-578)"><path d="M 64.3 64.4 C 64.3 64.2 64.4 64.1 64.5 64.0 C 64.6 63.9 64.8 63.9 64.9 63.9 C 65.2 63.9 65.5 64.0 65.5 64.3 C 65.5 65.0 62.8 64.4 62.8 66.1 C 62.8 67.2 64.0 67.6 64.9 67.6 C 65.8 67.6 66.9 67.3 67.0 66.2 L 65.5 66.2 C 65.4 66.3 65.4 66.4 65.3 66.5 C 65.2 66.6 65.1 66.6 64.9 66.6 C 64.7 66.6 64.5 66.5 64.5 66.3 C 64.5 65.7 67.2 66.1 67.2 64.5 C 67.2 63.5 66.4 62.9 64.9 62.9 C 63.9 62.9 62.8 63.2 62.7 64.4 L 64.3 64.4 " fill="#FFFEFE"></path><path d="M 52.2 15.8 L 52.2 22.6 C 52.2 25.2 51.0 26.5 48.4 26.5 L 42.8 26.5 L 42.8 2.0 L 45.9 2.0 L 45.9 11.9 L 48.5 11.9 C 51.0 11.9 52.2 13.2 52.2 15.8 M 49.1 16.0 C 49.1 15.1 48.7 14.7 47.9 14.7 L 45.9 14.7 L 45.9 23.7 L 47.7 23.7 C 48.6 23.7 49.1 23.3 49.1 22.4 L 49.1 16.0 " fill="#FFFFFF"></path><path d="M 61.2 4.8 L 56.9 4.8 L 56.9 26.5 L 53.8 26.5 L 53.8 2.0 L 61.2 2.0 L 61.2 4.8 " fill="#FFFFFF"></path><path d="M 72.3 2.0 L 72.3 22.6 C 72.3 25.2 71.1 26.5 68.6 26.5 L 66.3 26.5 C 63.8 26.5 62.5 25.2 62.5 22.6 L 62.5 2.0 L 65.6 2.0 L 65.6 12.0 L 69.2 12.0 L 69.2 2.0 L 72.3 2.0 Z M 69.2 14.8 L 65.6 14.8 L 65.6 22.4 C 65.6 23.3 66.1 23.7 67.0 23.7 L 67.8 23.7 C 68.8 23.7 69.2 23.3 69.2 22.4 L 69.2 14.8 " fill="#FFFFFF"></path><path d="M 80.1 12.0 L 83.9 26.5 L 80.8 26.5 L 78.7 16.6 L 78.6 16.6 L 76.2 26.5 L 73.1 26.5 L 77.0 12.0 L 77.0 2.0 L 80.1 2.0 L 80.1 12.0 " fill="#FFFFFF"></path></g></g></g></g><g><clipPath id="clip-579"><path d="M 2.0 2.0 L 84.0 2.0 L 84.0 108.0 L 2.0 108.0 Z M 2.0 2.0 "></path></clipPath><g clip-path="url(#clip-579)"><path d="M 11.8 8.4 L 11.8 23.4 C 11.8 25.5 10.6 26.5 8.1 26.5 L 5.7 26.5 C 3.2 26.5 2.0 25.5 2.0 23.4 L 2.0 8.4 L 5.1 8.4 L 5.1 15.0 L 8.7 15.0 L 8.7 8.4 L 11.8 8.4 Z M 8.7 17.2 L 5.1 17.2 L 5.1 23.3 C 5.1 24.0 5.6 24.3 6.5 24.3 L 7.3 24.3 C 8.2 24.3 8.7 24.0 8.7 23.3 L 8.7 17.2 " fill="#FFFEFE"></path><path d="M 17.9 26.5 L 14.8 26.5 L 14.8 8.4 L 17.9 8.4 L 17.9 20.2 L 21.3 12.0 L 21.3 8.4 L 24.4 8.4 L 24.4 26.5 L 21.3 26.5 L 21.3 17.7 L 17.9 26.5 " fill="#FFFEFE"></path><path d="M 37.2 11.0 L 37.2 23.0 C 37.2 25.4 35.7 26.5 32.8 26.5 L 27.4 26.5 L 27.4 8.4 L 33.5 8.4 C 35.9 8.4 37.2 9.2 37.2 11.0 M 34.1 11.4 C 34.1 10.8 33.7 10.6 32.8 10.6 L 30.5 10.6 L 30.5 24.3 L 32.7 24.3 C 33.6 24.3 34.1 23.9 34.1 23.0 L 34.1 11.4 " fill="#FFFEFE"></path><path d="M 8.2 35.1 L 8.2 33.8 C 8.2 32.9 7.8 32.4 7.0 32.4 L 6.3 32.4 C 5.5 32.4 5.0 32.9 5.0 33.8 L 5.0 49.5 C 5.0 50.5 5.5 51.0 6.3 51.0 L 6.9 51.0 C 7.8 51.0 8.2 50.5 8.2 49.5 L 8.2 47.0 L 11.3 47.0 L 11.3 49.8 C 11.3 52.5 10.1 53.9 7.6 53.9 L 5.7 53.9 C 3.2 53.9 2.0 52.5 2.0 49.8 L 2.0 33.6 C 2.0 30.8 3.2 29.4 5.7 29.4 L 7.6 29.4 C 10.1 29.4 11.3 30.8 11.3 33.6 L 11.3 35.1 L 8.2 35.1 " fill="#FFFEFE"></path><path d="M 23.2 33.6 L 23.2 49.7 C 23.2 52.5 22.0 53.9 19.5 53.9 L 16.6 53.9 C 14.2 53.9 12.9 52.5 12.9 49.7 L 12.9 33.6 C 12.9 30.8 14.2 29.4 16.6 29.4 L 19.5 29.4 C 21.9 29.4 23.2 30.8 23.2 33.6 M 20.1 33.8 C 20.1 32.9 19.7 32.4 18.9 32.4 L 17.4 32.4 C 16.4 32.4 16.0 32.9 16.0 33.8 L 16.0 49.5 C 16.0 50.5 16.4 51.0 17.3 51.0 L 18.8 51.0 C 19.7 51.0 20.1 50.5 20.1 49.5 L 20.1 33.8 " fill="#FFFEFE"></path><path d="M 28.2 53.9 L 24.8 53.9 L 24.8 29.4 L 27.9 29.4 L 27.6 45.5 L 29.9 33.8 L 32.2 33.8 L 34.5 45.5 L 34.2 29.4 L 37.2 29.4 L 37.2 53.9 L 33.9 53.9 L 31.0 39.5 L 28.2 53.9 " fill="#FFFEFE"></path><path d="M 46.5 29.4 L 46.5 32.4 L 41.9 32.4 L 41.9 40.5 L 45.9 40.5 L 45.9 43.5 L 41.9 43.5 L 41.9 51.0 L 46.5 51.0 L 46.5 53.9 L 38.9 53.9 L 38.9 29.4 L 46.5 29.4 " fill="#FFFEFE"></path><path d="M 61.7 33.6 L 61.7 49.7 C 61.7 52.5 60.5 53.9 58.0 53.9 L 55.1 53.9 C 52.7 53.9 51.5 52.5 51.5 49.7 L 51.5 33.6 C 51.5 30.8 52.7 29.4 55.1 29.4 L 58.0 29.4 C 60.5 29.4 61.7 30.8 61.7 33.6 M 58.6 33.8 C 58.6 32.9 58.2 32.4 57.4 32.4 L 55.9 32.4 C 55.0 32.4 54.5 32.9 54.5 33.8 L 54.5 49.5 C 54.5 50.5 55.0 51.0 55.8 51.0 L 57.3 51.0 C 58.2 51.0 58.6 50.5 58.6 49.5 L 58.6 33.8 " fill="#FFFFFF"></path><path d="M 70.2 53.9 L 70.2 34.0 C 70.2 32.9 69.8 32.4 69.0 32.4 L 67.8 32.4 C 66.9 32.4 66.4 32.9 66.4 34.0 L 66.4 53.9 L 63.4 53.9 L 63.4 34.1 C 63.4 31.0 64.6 29.4 67.0 29.4 L 69.6 29.4 C 72.1 29.4 73.3 30.9 73.3 34.0 L 73.3 53.9 L 70.2 53.9 " fill="#FFFFFF"></path><path d="M 83.9 51.0 L 83.9 53.9 L 75.0 53.9 L 75.0 51.0 L 77.9 51.0 L 77.9 29.4 L 80.9 29.4 L 80.9 51.0 L 83.9 51.0 " fill="#FFFFFF"></path><path d="M 2.0 60.4 L 83.9 60.4 L 83.9 56.8 L 2.0 56.8 Z M 2.0 60.4 " fill="#FFFEFE"></path></g></g></g></svg>