<?xml version="1.0" encoding="UTF-8" standalone="no"?><svg xmlns="http://www.w3.org/2000/svg" xmlns:xlink="http://www.w3.org/1999/xlink" clip-rule="evenodd" stroke-miterlimit="10" viewBox="0 0 1024 768"><desc>SVG generated by Keynote</desc><defs></defs><g transform="matrix(1.00, 0.00, -0.00, -1.00, 0.0, 768.0)"><path d="M 0.0 768.0 L 1024.0 768.0 L 1024.0 0.0 L 0.0 0.0 Z M 0.0 768.0 " fill="#000000"></path><g><clipPath id="clip0x608000eaa680"><path d="M 0.0 768.0 L 1024.0 768.0 L 1024.0 0.0 L 0.0 0.0 Z M -0.2 768.0 "></path></clipPath><g clip-path="url(#clip0x608000eaa680)"><image xlink:href="../../DC168C44-E7CE-4B22-85BE-CAB8811799A7/assets/10AA38575FD53FE831FE8C08DC8647EC.png" width="740.00" height="1131.00" transform="matrix(0.68, 0.00, -0.00, -0.68, 261.0, 768.0)"></image></g></g><g><clipPath id="clip0x608000eaa320"><path d="M 0.0 768.0 L 1024.0 768.0 L 1024.0 0.0 L 0.0 0.0 Z M 0.0 768.0 "></path></clipPath><g clip-path="url(#clip0x608000eaa320)"><image xlink:href="../../54CEAEFC-53C6-4A7D-90C6-6E2451EA2189/assets/B59706F07E06483F61721A5B74A8E6E6.png" width="1400.00" height="1050.00" transform="matrix(2.19, 0.00, -0.00, -2.19, -866.0, 1607.0)"></image></g></g><image xlink:href="../../0FED7DAB-DDDD-4301-83A6-23462C9E0A50/assets/A1611D1671E43A3F9BB14F7047C318B4.png" width="1400.00" height="1050.00" transform="matrix(0.73, 0.00, -0.00, -0.73, 0.0, 768.0)"></image></g></svg>