<?xml version="1.0" encoding="UTF-8" standalone="no"?><svg xmlns="http://www.w3.org/2000/svg" xmlns:xlink="http://www.w3.org/1999/xlink" clip-rule="evenodd" stroke-miterlimit="4.00" viewBox="0 0 212 15"><desc>SVG generated by Keynote</desc><defs></defs><g transform="matrix(1.00, 0.00, -0.00, -1.00, 0.0, 15.0)"><text xml:space="preserve" font-family="HelveticaNeue" font-size="12.0" fill="#FEFFFF" transform="matrix(1.00, 0.00, -0.00, -1.00, 2.0, 5.0)">*</text><text xml:space="preserve" font-family="HelveticaNeue" font-size="12.0" fill="#FEFFFF" transform="matrix(1.00, 0.00, -0.00, -1.00, 6.2, 5.0)"> </text><text xml:space="preserve" font-family="HelveticaNeue" font-size="12.0" fill="#FEFFFF" transform="matrix(1.00, 0.00, -0.00, -1.00, 9.6, 5.0)">p</text><text xml:space="preserve" font-family="HelveticaNeue" font-size="12.0" fill="#FEFFFF" transform="matrix(1.00, 0.00, -0.00, -1.00, 16.7, 5.0)">e</text><text xml:space="preserve" font-family="HelveticaNeue" font-size="12.0" fill="#FEFFFF" transform="matrix(1.00, 0.00, -0.00, -1.00, 23.1, 5.0)">r</text><text xml:space="preserve" font-family="HelveticaNeue" font-size="12.0" fill="#FEFFFF" transform="matrix(1.00, 0.00, -0.00, -1.00, 27.1, 5.0)"> </text><text xml:space="preserve" font-family="HelveticaNeue" font-size="12.0" fill="#FEFFFF" transform="matrix(1.00, 0.00, -0.00, -1.00, 30.5, 5.0)">r</text><text xml:space="preserve" font-family="HelveticaNeue" font-size="12.0" fill="#FEFFFF" transform="matrix(1.00, 0.00, -0.00, -1.00, 34.2, 5.0)">e</text><text xml:space="preserve" font-family="HelveticaNeue" font-size="12.0" fill="#FEFFFF" transform="matrix(1.00, 0.00, -0.00, -1.00, 40.7, 5.0)">g</text><text xml:space="preserve" font-family="HelveticaNeue" font-size="12.0" fill="#FEFFFF" transform="matrix(1.00, 0.00, -0.00, -1.00, 47.6, 5.0)">u</text><text xml:space="preserve" font-family="HelveticaNeue" font-size="12.0" fill="#FEFFFF" transform="matrix(1.00, 0.00, -0.00, -1.00, 54.2, 5.0)">l</text><text xml:space="preserve" font-family="HelveticaNeue" font-size="12.0" fill="#FEFFFF" transform="matrix(1.00, 0.00, -0.00, -1.00, 56.9, 5.0)">a</text><text xml:space="preserve" font-family="HelveticaNeue" font-size="12.0" fill="#FEFFFF" transform="matrix(1.00, 0.00, -0.00, -1.00, 63.3, 5.0)">t</text><text xml:space="preserve" font-family="HelveticaNeue" font-size="12.0" fill="#FEFFFF" transform="matrix(1.00, 0.00, -0.00, -1.00, 67.1, 5.0)">i</text><text xml:space="preserve" font-family="HelveticaNeue" font-size="12.0" fill="#FEFFFF" transform="matrix(1.00, 0.00, -0.00, -1.00, 69.8, 5.0)">o</text><text xml:space="preserve" font-family="HelveticaNeue" font-size="12.0" fill="#FEFFFF" transform="matrix(1.00, 0.00, -0.00, -1.00, 76.7, 5.0)">n</text><text xml:space="preserve" font-family="HelveticaNeue" font-size="12.0" fill="#FEFFFF" transform="matrix(1.00, 0.00, -0.00, -1.00, 83.3, 5.0)">,</text><text xml:space="preserve" font-family="HelveticaNeue" font-size="12.0" fill="#FEFFFF" transform="matrix(1.00, 0.00, -0.00, -1.00, 86.7, 5.0)"> </text><text xml:space="preserve" font-family="HelveticaNeue" font-size="12.0" fill="#FEFFFF" transform="matrix(1.00, 0.00, -0.00, -1.00, 90.0, 5.0)">n</text><text xml:space="preserve" font-family="HelveticaNeue" font-size="12.0" fill="#FEFFFF" transform="matrix(1.00, 0.00, -0.00, -1.00, 96.7, 5.0)">o</text><text xml:space="preserve" font-family="HelveticaNeue" font-size="12.0" fill="#FEFFFF" transform="matrix(1.00, 0.00, -0.00, -1.00, 103.6, 5.0)">t</text><text xml:space="preserve" font-family="HelveticaNeue" font-size="12.0" fill="#FEFFFF" transform="matrix(1.00, 0.00, -0.00, -1.00, 107.4, 5.0)"> </text><text xml:space="preserve" font-family="HelveticaNeue" font-size="12.0" fill="#FEFFFF" transform="matrix(1.00, 0.00, -0.00, -1.00, 110.7, 5.0)">t</text><text xml:space="preserve" font-family="HelveticaNeue" font-size="12.0" fill="#FEFFFF" transform="matrix(1.00, 0.00, -0.00, -1.00, 114.5, 5.0)">e</text><text xml:space="preserve" font-family="HelveticaNeue" font-size="12.0" fill="#FEFFFF" transform="matrix(1.00, 0.00, -0.00, -1.00, 120.9, 5.0)">c</text><text xml:space="preserve" font-family="HelveticaNeue" font-size="12.0" fill="#FEFFFF" transform="matrix(1.00, 0.00, -0.00, -1.00, 127.4, 5.0)">h</text><text xml:space="preserve" font-family="HelveticaNeue" font-size="12.0" fill="#FEFFFF" transform="matrix(1.00, 0.00, -0.00, -1.00, 134.0, 5.0)">n</text><text xml:space="preserve" font-family="HelveticaNeue" font-size="12.0" fill="#FEFFFF" transform="matrix(1.00, 0.00, -0.00, -1.00, 140.7, 5.0)">i</text><text xml:space="preserve" font-family="HelveticaNeue" font-size="12.0" fill="#FEFFFF" transform="matrix(1.00, 0.00, -0.00, -1.00, 143.4, 5.0)">c</text><text xml:space="preserve" font-family="HelveticaNeue" font-size="12.0" fill="#FEFFFF" transform="matrix(1.00, 0.00, -0.00, -1.00, 149.8, 5.0)">a</text><text xml:space="preserve" font-family="HelveticaNeue" font-size="12.0" fill="#FEFFFF" transform="matrix(1.00, 0.00, -0.00, -1.00, 156.3, 5.0)">l</text><text xml:space="preserve" font-family="HelveticaNeue" font-size="12.0" fill="#FEFFFF" transform="matrix(1.00, 0.00, -0.00, -1.00, 158.9, 5.0)"> </text><text xml:space="preserve" font-family="HelveticaNeue" font-size="12.0" fill="#FEFFFF" transform="matrix(1.00, 0.00, -0.00, -1.00, 162.3, 5.0)">l</text><text xml:space="preserve" font-family="HelveticaNeue" font-size="12.0" fill="#FEFFFF" transform="matrix(1.00, 0.00, -0.00, -1.00, 164.9, 5.0)">i</text><text xml:space="preserve" font-family="HelveticaNeue" font-size="12.0" fill="#FEFFFF" transform="matrix(1.00, 0.00, -0.00, -1.00, 167.6, 5.0)">m</text><text xml:space="preserve" font-family="HelveticaNeue" font-size="12.0" fill="#FEFFFF" transform="matrix(1.00, 0.00, -0.00, -1.00, 177.8, 5.0)">i</text><text xml:space="preserve" font-family="HelveticaNeue" font-size="12.0" fill="#FEFFFF" transform="matrix(1.00, 0.00, -0.00, -1.00, 180.5, 5.0)">t</text><text xml:space="preserve" font-family="HelveticaNeue" font-size="12.0" fill="#FEFFFF" transform="matrix(1.00, 0.00, -0.00, -1.00, 184.3, 5.0)">a</text><text xml:space="preserve" font-family="HelveticaNeue" font-size="12.0" fill="#FEFFFF" transform="matrix(1.00, 0.00, -0.00, -1.00, 190.7, 5.0)">t</text><text xml:space="preserve" font-family="HelveticaNeue" font-size="12.0" fill="#FEFFFF" transform="matrix(1.00, 0.00, -0.00, -1.00, 194.5, 5.0)">i</text><text xml:space="preserve" font-family="HelveticaNeue" font-size="12.0" fill="#FEFFFF" transform="matrix(1.00, 0.00, -0.00, -1.00, 197.2, 5.0)">o</text><text xml:space="preserve" font-family="HelveticaNeue" font-size="12.0" fill="#FEFFFF" transform="matrix(1.00, 0.00, -0.00, -1.00, 204.0, 5.0)">n</text></g></svg>