<?xml version="1.0" encoding="UTF-8" standalone="no"?><svg xmlns="http://www.w3.org/2000/svg" xmlns:xlink="http://www.w3.org/1999/xlink" clip-rule="evenodd" stroke-miterlimit="4.00" viewBox="0 0 456 33"><desc>SVG generated by Keynote</desc><defs></defs><g transform="matrix(1.00, 0.00, -0.00, -1.00, 0.0, 33.0)"><g><clipPath id="clip-146"><path d="M 0.0 0.0 L 456.0 0.0 L 456.0 33.0 L 0.0 33.0 Z M 0.0 0.0 "></path></clipPath><g clip-path="url(#clip-146)"><text xml:space="preserve" font-family="HelveticaNeue-Bold" font-weight="bold" font-size="39.2" fill="#A2CCA0" transform="matrix(1.00, 0.00, -0.00, -1.00, 0.0, 3.0)">P</text><text xml:space="preserve" font-family="HelveticaNeue-Bold" font-weight="bold" font-size="39.2" fill="#A2CCA0" transform="matrix(1.00, 0.00, -0.00, -1.00, 26.1, 3.0)">l</text><text xml:space="preserve" font-family="HelveticaNeue-Bold" font-weight="bold" font-size="39.2" fill="#A2CCA0" transform="matrix(1.00, 0.00, -0.00, -1.00, 36.3, 3.0)">a</text><text xml:space="preserve" font-family="HelveticaNeue-Bold" font-weight="bold" font-size="39.2" fill="#A2CCA0" transform="matrix(1.00, 0.00, -0.00, -1.00, 58.8, 3.0)">t</text><text xml:space="preserve" font-family="HelveticaNeue-Bold" font-weight="bold" font-size="39.2" fill="#A2CCA0" transform="matrix(1.00, 0.00, -0.00, -1.00, 72.6, 3.0)">f</text><text xml:space="preserve" font-family="HelveticaNeue-Bold" font-weight="bold" font-size="39.2" fill="#A2CCA0" transform="matrix(1.00, 0.00, -0.00, -1.00, 85.6, 3.0)">o</text><text xml:space="preserve" font-family="HelveticaNeue-Bold" font-weight="bold" font-size="39.2" fill="#A2CCA0" transform="matrix(1.00, 0.00, -0.00, -1.00, 109.6, 3.0)">r</text><text xml:space="preserve" font-family="HelveticaNeue-Bold" font-weight="bold" font-size="39.2" fill="#A2CCA0" transform="matrix(1.00, 0.00, -0.00, -1.00, 124.8, 3.0)">m</text><text xml:space="preserve" font-family="HelveticaNeue-Bold" font-weight="bold" font-size="39.2" fill="#A2CCA0" transform="matrix(1.00, 0.00, -0.00, -1.00, 160.3, 3.0)"> </text><text xml:space="preserve" font-family="HelveticaNeue-Bold" font-weight="bold" font-size="39.2" fill="#A2CCA0" transform="matrix(1.00, 0.00, -0.00, -1.00, 171.2, 3.0)">C</text><text xml:space="preserve" font-family="HelveticaNeue-Bold" font-weight="bold" font-size="39.2" fill="#A2CCA0" transform="matrix(1.00, 0.00, -0.00, -1.00, 200.3, 3.0)">o</text><text xml:space="preserve" font-family="HelveticaNeue-Bold" font-weight="bold" font-size="39.2" fill="#A2CCA0" transform="matrix(1.00, 0.00, -0.00, -1.00, 224.2, 3.0)">n</text><text xml:space="preserve" font-family="HelveticaNeue-Bold" font-weight="bold" font-size="39.2" fill="#A2CCA0" transform="matrix(1.00, 0.00, -0.00, -1.00, 247.5, 3.0)">s</text><text xml:space="preserve" font-family="HelveticaNeue-Bold" font-weight="bold" font-size="39.2" fill="#A2CCA0" transform="matrix(1.00, 0.00, -0.00, -1.00, 268.5, 3.0)">i</text><text xml:space="preserve" font-family="HelveticaNeue-Bold" font-weight="bold" font-size="39.2" fill="#A2CCA0" transform="matrix(1.00, 0.00, -0.00, -1.00, 278.6, 3.0)">d</text><text xml:space="preserve" font-family="HelveticaNeue-Bold" font-weight="bold" font-size="39.2" fill="#A2CCA0" transform="matrix(1.00, 0.00, -0.00, -1.00, 302.6, 3.0)">e</text><text xml:space="preserve" font-family="HelveticaNeue-Bold" font-weight="bold" font-size="39.2" fill="#A2CCA0" transform="matrix(1.00, 0.00, -0.00, -1.00, 325.1, 3.0)">r</text><text xml:space="preserve" font-family="HelveticaNeue-Bold" font-weight="bold" font-size="39.2" fill="#A2CCA0" transform="matrix(1.00, 0.00, -0.00, -1.00, 340.3, 3.0)">a</text><text xml:space="preserve" font-family="HelveticaNeue-Bold" font-weight="bold" font-size="39.2" fill="#A2CCA0" transform="matrix(1.00, 0.00, -0.00, -1.00, 362.8, 3.0)">t</text><text xml:space="preserve" font-family="HelveticaNeue-Bold" font-weight="bold" font-size="39.2" fill="#A2CCA0" transform="matrix(1.00, 0.00, -0.00, -1.00, 376.6, 3.0)">i</text><text xml:space="preserve" font-family="HelveticaNeue-Bold" font-weight="bold" font-size="39.2" fill="#A2CCA0" transform="matrix(1.00, 0.00, -0.00, -1.00, 386.7, 3.0)">o</text><text xml:space="preserve" font-family="HelveticaNeue-Bold" font-weight="bold" font-size="39.2" fill="#A2CCA0" transform="matrix(1.00, 0.00, -0.00, -1.00, 410.7, 3.0)">n</text><text xml:space="preserve" font-family="HelveticaNeue-Bold" font-weight="bold" font-size="39.2" fill="#A2CCA0" transform="matrix(1.00, 0.00, -0.00, -1.00, 433.9, 3.0)">s</text></g></g></g></svg>