<?xml version="1.0" encoding="UTF-8" standalone="no"?><svg xmlns="http://www.w3.org/2000/svg" xmlns:xlink="http://www.w3.org/1999/xlink" clip-rule="evenodd" stroke-miterlimit="4.00" viewBox="0 0 124 19"><desc>SVG generated by Keynote</desc><defs></defs><g transform="matrix(1.00, 0.00, -0.00, -1.00, 0.0, 19.0)"><text xml:space="preserve" font-family="HelveticaNeue" font-size="14.4" fill="#FEFFFF" transform="matrix(1.00, 0.00, -0.00, -1.00, 0.5, 4.4)">•</text><text xml:space="preserve" font-family="HelveticaNeue" font-size="19.2" fill="#FEFFFF" transform="matrix(1.00, 0.00, -0.00, -1.00, 18.0, 3.0)">S</text><text xml:space="preserve" font-family="HelveticaNeue" font-size="19.2" fill="#FEFFFF" transform="matrix(1.00, 0.00, -0.00, -1.00, 30.5, 3.0)">m</text><text xml:space="preserve" font-family="HelveticaNeue" font-size="19.2" fill="#FEFFFF" transform="matrix(1.00, 0.00, -0.00, -1.00, 46.9, 3.0)">a</text><text xml:space="preserve" font-family="HelveticaNeue" font-size="19.2" fill="#FEFFFF" transform="matrix(1.00, 0.00, -0.00, -1.00, 57.2, 3.0)">l</text><text xml:space="preserve" font-family="HelveticaNeue" font-size="19.2" fill="#FEFFFF" transform="matrix(1.00, 0.00, -0.00, -1.00, 61.5, 3.0)">l</text><text xml:space="preserve" font-family="HelveticaNeue" font-size="19.2" fill="#FEFFFF" transform="matrix(1.00, 0.00, -0.00, -1.00, 65.8, 3.0)"> </text><text xml:space="preserve" font-family="HelveticaNeue" font-size="19.2" fill="#FEFFFF" transform="matrix(1.00, 0.00, -0.00, -1.00, 71.1, 3.0)">&amp;</text><text xml:space="preserve" font-family="HelveticaNeue" font-size="19.2" fill="#FEFFFF" transform="matrix(1.00, 0.00, -0.00, -1.00, 83.2, 3.0)"> </text><text xml:space="preserve" font-family="HelveticaNeue" font-size="19.2" fill="#FEFFFF" transform="matrix(1.00, 0.00, -0.00, -1.00, 88.6, 3.0)">d</text><text xml:space="preserve" font-family="HelveticaNeue" font-size="19.2" fill="#FEFFFF" transform="matrix(1.00, 0.00, -0.00, -1.00, 100.0, 3.0)">e</text><text xml:space="preserve" font-family="HelveticaNeue" font-size="19.2" fill="#FEFFFF" transform="matrix(1.00, 0.00, -0.00, -1.00, 110.3, 3.0)">f</text><text xml:space="preserve" font-family="HelveticaNeue" font-size="19.2" fill="#FEFFFF" transform="matrix(1.00, 0.00, -0.00, -1.00, 116.0, 3.0)">t</text></g></svg>