<?xml version="1.0" encoding="UTF-8" standalone="no"?><svg xmlns="http://www.w3.org/2000/svg" xmlns:xlink="http://www.w3.org/1999/xlink" clip-rule="evenodd" stroke-miterlimit="4.00" viewBox="0 0 185 22"><desc>SVG generated by Keynote</desc><defs></defs><g transform="matrix(1.00, 0.00, -0.00, -1.00, 0.0, 22.0)"><text xml:space="preserve" font-family="HelveticaNeue" font-size="14.4" fill="#FEFFFF" transform="matrix(1.00, 0.00, -0.00, -1.00, 0.5, 7.6)">•</text><text xml:space="preserve" font-family="HelveticaNeue" font-size="19.2" fill="#FEFFFF" transform="matrix(1.00, 0.00, -0.00, -1.00, 18.0, 6.0)">L</text><text xml:space="preserve" font-family="HelveticaNeue" font-size="19.2" fill="#FEFFFF" transform="matrix(1.00, 0.00, -0.00, -1.00, 28.7, 6.0)">a</text><text xml:space="preserve" font-family="HelveticaNeue" font-size="19.2" fill="#FEFFFF" transform="matrix(1.00, 0.00, -0.00, -1.00, 39.0, 6.0)">r</text><text xml:space="preserve" font-family="HelveticaNeue" font-size="19.2" fill="#FEFFFF" transform="matrix(1.00, 0.00, -0.00, -1.00, 44.9, 6.0)">g</text><text xml:space="preserve" font-family="HelveticaNeue" font-size="19.2" fill="#FEFFFF" transform="matrix(1.00, 0.00, -0.00, -1.00, 55.9, 6.0)">e</text><text xml:space="preserve" font-family="HelveticaNeue" font-size="19.2" fill="#FEFFFF" transform="matrix(1.00, 0.00, -0.00, -1.00, 66.3, 6.0)"> </text><text xml:space="preserve" font-family="HelveticaNeue" font-size="19.2" fill="#FEFFFF" transform="matrix(1.00, 0.00, -0.00, -1.00, 71.6, 6.0)">&amp;</text><text xml:space="preserve" font-family="HelveticaNeue" font-size="19.2" fill="#FEFFFF" transform="matrix(1.00, 0.00, -0.00, -1.00, 83.7, 6.0)"> </text><text xml:space="preserve" font-family="HelveticaNeue" font-size="19.2" fill="#FEFFFF" transform="matrix(1.00, 0.00, -0.00, -1.00, 89.1, 6.0)">l</text><text xml:space="preserve" font-family="HelveticaNeue" font-size="19.2" fill="#FEFFFF" transform="matrix(1.00, 0.00, -0.00, -1.00, 93.4, 6.0)">o</text><text xml:space="preserve" font-family="HelveticaNeue" font-size="19.2" fill="#FEFFFF" transform="matrix(1.00, 0.00, -0.00, -1.00, 104.4, 6.0)">n</text><text xml:space="preserve" font-family="HelveticaNeue" font-size="19.2" fill="#FEFFFF" transform="matrix(1.00, 0.00, -0.00, -1.00, 115.1, 6.0)">g</text><text xml:space="preserve" font-family="HelveticaNeue" font-size="19.2" fill="#FEFFFF" transform="matrix(1.00, 0.00, -0.00, -1.00, 126.1, 6.0)"> </text><text xml:space="preserve" font-family="HelveticaNeue" font-size="19.2" fill="#FEFFFF" transform="matrix(1.00, 0.00, -0.00, -1.00, 131.5, 6.0)">ﬂ</text><text xml:space="preserve" font-family="HelveticaNeue" font-size="19.2" fill="#FEFFFF" transform="matrix(1.00, 0.00, -0.00, -1.00, 141.5, 6.0)">i</text><text xml:space="preserve" font-family="HelveticaNeue" font-size="19.2" fill="#FEFFFF" transform="matrix(1.00, 0.00, -0.00, -1.00, 145.7, 6.0)">g</text><text xml:space="preserve" font-family="HelveticaNeue" font-size="19.2" fill="#FEFFFF" transform="matrix(1.00, 0.00, -0.00, -1.00, 156.8, 6.0)">h</text><text xml:space="preserve" font-family="HelveticaNeue" font-size="19.2" fill="#FEFFFF" transform="matrix(1.00, 0.00, -0.00, -1.00, 167.5, 6.0)">t</text><text xml:space="preserve" font-family="HelveticaNeue" font-size="19.2" fill="#FEFFFF" transform="matrix(1.00, 0.00, -0.00, -1.00, 173.5, 6.0)">s</text></g></svg>