<?xml version="1.0" encoding="UTF-8" standalone="no"?><svg xmlns="http://www.w3.org/2000/svg" xmlns:xlink="http://www.w3.org/1999/xlink" clip-rule="evenodd" stroke-miterlimit="4.00" viewBox="0 0 114 22"><desc>SVG generated by Keynote</desc><defs></defs><g transform="matrix(1.00, 0.00, -0.00, -1.00, 0.0, 22.0)"><text xml:space="preserve" font-family="HelveticaNeue" font-size="14.4" fill="#FEFFFF" transform="matrix(1.00, 0.00, -0.00, -1.00, 0.5, 8.3)">•</text><text xml:space="preserve" font-family="HelveticaNeue" font-size="19.2" fill="#FEFFFF" transform="matrix(1.00, 0.00, -0.00, -1.00, 18.0, 6.0)">F</text><text xml:space="preserve" font-family="HelveticaNeue" font-size="19.2" fill="#FEFFFF" transform="matrix(1.00, 0.00, -0.00, -1.00, 29.0, 6.0)">i</text><text xml:space="preserve" font-family="HelveticaNeue" font-size="19.2" fill="#FEFFFF" transform="matrix(1.00, 0.00, -0.00, -1.00, 33.3, 6.0)">x</text><text xml:space="preserve" font-family="HelveticaNeue" font-size="19.2" fill="#FEFFFF" transform="matrix(1.00, 0.00, -0.00, -1.00, 43.3, 6.0)">e</text><text xml:space="preserve" font-family="HelveticaNeue" font-size="19.2" fill="#FEFFFF" transform="matrix(1.00, 0.00, -0.00, -1.00, 53.6, 6.0)">d</text><text xml:space="preserve" font-family="HelveticaNeue" font-size="19.2" fill="#FEFFFF" transform="matrix(1.00, 0.00, -0.00, -1.00, 65.0, 6.0)">-</text><text xml:space="preserve" font-family="HelveticaNeue" font-size="19.2" fill="#FEFFFF" transform="matrix(1.00, 0.00, -0.00, -1.00, 72.5, 6.0)">w</text><text xml:space="preserve" font-family="HelveticaNeue" font-size="19.2" fill="#FEFFFF" transform="matrix(1.00, 0.00, -0.00, -1.00, 87.1, 6.0)">i</text><text xml:space="preserve" font-family="HelveticaNeue" font-size="19.2" fill="#FEFFFF" transform="matrix(1.00, 0.00, -0.00, -1.00, 91.4, 6.0)">n</text><text xml:space="preserve" font-family="HelveticaNeue" font-size="19.2" fill="#FEFFFF" transform="matrix(1.00, 0.00, -0.00, -1.00, 102.1, 6.0)">g</text></g></svg>