<?xml version="1.0" encoding="UTF-8" standalone="no"?>
<!-- Created with Inkscape (http://www.inkscape.org/) -->

<svg
   xmlns:dc="http://purl.org/dc/elements/1.1/"
   xmlns:cc="http://creativecommons.org/ns#"
   xmlns:rdf="http://www.w3.org/1999/02/22-rdf-syntax-ns#"
   xmlns:svg="http://www.w3.org/2000/svg"
   xmlns="http://www.w3.org/2000/svg"
   xmlns:sodipodi="http://sodipodi.sourceforge.net/DTD/sodipodi-0.dtd"
   xmlns:inkscape="http://www.inkscape.org/namespaces/inkscape"
   width="2208"
   height="1242"
   id="svg2"
   version="1.1"
   inkscape:version="0.48.4 r9939"
   sodipodi:docname="05_even_moar_credits.svg">
  <defs
     id="defs4" />
  <sodipodi:namedview
     id="base"
     pagecolor="#ffffff"
     bordercolor="#666666"
     borderopacity="1.0"
     inkscape:pageopacity="0.0"
     inkscape:pageshadow="2"
     inkscape:zoom="0.49497475"
     inkscape:cx="1109.7098"
     inkscape:cy="437.71956"
     inkscape:document-units="px"
     inkscape:current-layer="layer1"
     showgrid="false"
     fit-margin-top="0"
     fit-margin-left="0"
     fit-margin-right="0"
     fit-margin-bottom="0"
     inkscape:window-width="1920"
     inkscape:window-height="1056"
     inkscape:window-x="0"
     inkscape:window-y="24"
     inkscape:window-maximized="1" />
  <metadata
     id="metadata7">
    <rdf:RDF>
      <cc:Work
         rdf:about="">
        <dc:format>image/svg+xml</dc:format>
        <dc:type
           rdf:resource="http://purl.org/dc/dcmitype/StillImage" />
        <dc:title />
      </cc:Work>
    </rdf:RDF>
  </metadata>
  <g
     inkscape:label="Layer 1"
     inkscape:groupmode="layer"
     id="layer1"
     transform="translate(712.57147,180.06639)">
    <rect
       style="fill:#000000;fill-opacity:1;stroke:#253fe6;stroke-width:0.10000000000000001;stroke-linecap:butt;stroke-linejoin:miter;stroke-miterlimit:4;stroke-opacity:1;stroke-dasharray:none;stroke-dashoffset:0"
       id="rect3795"
       width="2214.2544"
       height="1250.5688"
       x="0"
       y="-2.5079353"
       transform="translate(-712.57147,-180.06639)" />
    <text
       xml:space="preserve"
       style="font-size:41.72266006px;font-style:normal;font-weight:normal;line-height:125%;letter-spacing:0px;word-spacing:0px;fill:#000000;fill-opacity:1;stroke:none;font-family:Sans"
       x="-142.92413"
       y="556.40869"
       id="text2996"
       sodipodi:linespacing="125%"
       transform="scale(1.0430665,0.95871165)"><tspan
         sodipodi:role="line"
         x="-142.92413"
         y="556.40869"
         style="font-size:36px;fill:#ffffff"
         id="tspan3995">AARONR</tspan></text>
    <text
       xml:space="preserve"
       style="font-size:41.72266006px;font-style:normal;font-weight:normal;line-height:125%;letter-spacing:0px;word-spacing:0px;fill:#000000;fill-opacity:1;stroke:none;font-family:Sans"
       x="-142.92413"
       y="605.32306"
       id="text2996-2"
       sodipodi:linespacing="125%"
       transform="scale(1.0430665,0.95871165)"
       inkscape:transform-center-y="-34.285714"><tspan
         sodipodi:role="line"
         x="-142.92413"
         y="605.32306"
         style="font-size:36px;fill:#ffffff"
         id="tspan3995-3">MICHELETOBIAS</tspan></text>
    <text
       xml:space="preserve"
       style="font-size:41.72266006px;font-style:normal;font-weight:normal;line-height:125%;letter-spacing:0px;word-spacing:0px;fill:#000000;fill-opacity:1;stroke:none;font-family:Sans"
       x="-142.92413"
       y="653.0061"
       id="text2996-7"
       sodipodi:linespacing="125%"
       transform="scale(1.0430665,0.95871165)"
       inkscape:transform-center-x="21.428571"
       inkscape:transform-center-y="-40"><tspan
         sodipodi:role="line"
         x="-142.92413"
         y="653.0061"
         style="font-size:36px;fill:#ffffff"
         id="tspan3995-35">@FREDJUDSON</tspan></text>
    <g
       id="g4335">
      <path
         transform="matrix(1.2296738,0,0,1.2296738,-158.84074,55.048341)"
         d="m 842.46724,590.4516 c 0,28.45248 -23.06529,51.51778 -51.51778,51.51778 -28.45248,0 -51.51778,-23.0653 -51.51778,-51.51778 0,-28.45249 23.0653,-51.51778 51.51778,-51.51778 28.45249,0 51.51778,23.06529 51.51778,51.51778 z"
         sodipodi:ry="51.51778"
         sodipodi:rx="51.51778"
         sodipodi:cy="590.4516"
         sodipodi:cx="790.94946"
         id="path4020-9-0"
         style="fill:#00848e;fill-opacity:1;stroke:#253fe6;stroke-width:0.1;stroke-linecap:butt;stroke-linejoin:miter;stroke-miterlimit:4;stroke-opacity:1;stroke-dasharray:none;stroke-dashoffset:0"
         sodipodi:type="arc" />
      <path
         transform="matrix(1.2296738,0,0,1.2296738,-18.429602,55.048341)"
         d="m 842.46724,590.4516 c 0,28.45248 -23.06529,51.51778 -51.51778,51.51778 -28.45248,0 -51.51778,-23.0653 -51.51778,-51.51778 0,-28.45249 23.0653,-51.51778 51.51778,-51.51778 28.45249,0 51.51778,23.06529 51.51778,51.51778 z"
         sodipodi:ry="51.51778"
         sodipodi:rx="51.51778"
         sodipodi:cy="590.4516"
         sodipodi:cx="790.94946"
         id="path4020-9-0-4"
         style="fill:#00848e;fill-opacity:1;stroke:#253fe6;stroke-width:0.1;stroke-linecap:butt;stroke-linejoin:miter;stroke-miterlimit:4;stroke-opacity:1;stroke-dasharray:none;stroke-dashoffset:0"
         sodipodi:type="arc" />
      <path
         transform="matrix(1.2296738,0,0,1.2296738,-299.25199,55.048341)"
         d="m 842.46724,590.4516 c 0,28.45248 -23.06529,51.51778 -51.51778,51.51778 -28.45248,0 -51.51778,-23.0653 -51.51778,-51.51778 0,-28.45249 23.0653,-51.51778 51.51778,-51.51778 28.45249,0 51.51778,23.06529 51.51778,51.51778 z"
         sodipodi:ry="51.51778"
         sodipodi:rx="51.51778"
         sodipodi:cy="590.4516"
         sodipodi:cx="790.94946"
         id="path4020-9-0-2"
         style="fill:#00848e;fill-opacity:1;stroke:#253fe6;stroke-width:0.1;stroke-linecap:butt;stroke-linejoin:miter;stroke-miterlimit:4;stroke-opacity:1;stroke-dasharray:none;stroke-dashoffset:0"
         sodipodi:type="arc" />
      <path
         transform="matrix(1.2296738,0,0,1.2296738,-439.6633,55.048341)"
         d="m 842.46724,590.4516 c 0,28.45248 -23.06529,51.51778 -51.51778,51.51778 -28.45248,0 -51.51778,-23.0653 -51.51778,-51.51778 0,-28.45249 23.0653,-51.51778 51.51778,-51.51778 28.45249,0 51.51778,23.06529 51.51778,51.51778 z"
         sodipodi:ry="51.51778"
         sodipodi:rx="51.51778"
         sodipodi:cy="590.4516"
         sodipodi:cx="790.94946"
         id="path4020-9-0-7"
         style="fill:#00848e;fill-opacity:1;stroke:#253fe6;stroke-width:0.1;stroke-linecap:butt;stroke-linejoin:miter;stroke-miterlimit:4;stroke-opacity:1;stroke-dasharray:none;stroke-dashoffset:0"
         sodipodi:type="arc" />
      <path
         transform="matrix(1.2296738,0,0,1.2296738,-580.07441,55.048341)"
         d="m 842.46724,590.4516 c 0,28.45248 -23.06529,51.51778 -51.51778,51.51778 -28.45248,0 -51.51778,-23.0653 -51.51778,-51.51778 0,-28.45249 23.0653,-51.51778 51.51778,-51.51778 28.45249,0 51.51778,23.06529 51.51778,51.51778 z"
         sodipodi:ry="51.51778"
         sodipodi:rx="51.51778"
         sodipodi:cy="590.4516"
         sodipodi:cx="790.94946"
         id="path4020-9-0-76"
         style="fill:#00848e;fill-opacity:1;stroke:#253fe6;stroke-width:0.1;stroke-linecap:butt;stroke-linejoin:miter;stroke-miterlimit:4;stroke-opacity:1;stroke-dasharray:none;stroke-dashoffset:0"
         sodipodi:type="arc" />
      <path
         transform="matrix(1.2296738,0,0,1.2296738,-720.48562,55.048341)"
         d="m 842.46724,590.4516 c 0,28.45248 -23.06529,51.51778 -51.51778,51.51778 -28.45248,0 -51.51778,-23.0653 -51.51778,-51.51778 0,-28.45249 23.0653,-51.51778 51.51778,-51.51778 28.45249,0 51.51778,23.06529 51.51778,51.51778 z"
         sodipodi:ry="51.51778"
         sodipodi:rx="51.51778"
         sodipodi:cy="590.4516"
         sodipodi:cx="790.94946"
         id="path4020-9-0-8"
         style="fill:#00848e;fill-opacity:1;stroke:#253fe6;stroke-width:0.1;stroke-linecap:butt;stroke-linejoin:miter;stroke-miterlimit:4;stroke-opacity:1;stroke-dasharray:none;stroke-dashoffset:0"
         sodipodi:type="arc" />
    </g>
    <g
       id="g4343"
       transform="translate(0,-0.11633301)">
      <path
         transform="matrix(1.2296738,0,0,1.2296738,-155.96925,-77.281642)"
         d="m 842.46724,590.4516 c 0,28.45248 -23.06529,51.51778 -51.51778,51.51778 -28.45248,0 -51.51778,-23.0653 -51.51778,-51.51778 0,-28.45249 23.0653,-51.51778 51.51778,-51.51778 28.45249,0 51.51778,23.06529 51.51778,51.51778 z"
         sodipodi:ry="51.51778"
         sodipodi:rx="51.51778"
         sodipodi:cy="590.4516"
         sodipodi:cx="790.94946"
         id="path4020-9-0-0"
         style="fill:#00848e;fill-opacity:1;stroke:#253fe6;stroke-width:0.1;stroke-linecap:butt;stroke-linejoin:miter;stroke-miterlimit:4;stroke-opacity:1;stroke-dasharray:none;stroke-dashoffset:0"
         sodipodi:type="arc" />
      <path
         transform="matrix(1.2296738,0,0,1.2296738,-296.30097,-77.281642)"
         d="m 842.46724,590.4516 c 0,28.45248 -23.06529,51.51778 -51.51778,51.51778 -28.45248,0 -51.51778,-23.0653 -51.51778,-51.51778 0,-28.45249 23.0653,-51.51778 51.51778,-51.51778 28.45249,0 51.51778,23.06529 51.51778,51.51778 z"
         sodipodi:ry="51.51778"
         sodipodi:rx="51.51778"
         sodipodi:cy="590.4516"
         sodipodi:cx="790.94946"
         id="path4020-9-0-2-2"
         style="fill:#00848e;fill-opacity:1;stroke:#253fe6;stroke-width:0.1;stroke-linecap:butt;stroke-linejoin:miter;stroke-miterlimit:4;stroke-opacity:1;stroke-dasharray:none;stroke-dashoffset:0"
         sodipodi:type="arc" />
      <path
         transform="matrix(1.2296738,0,0,1.2296738,-436.63275,-77.281642)"
         d="m 842.46724,590.4516 c 0,28.45248 -23.06529,51.51778 -51.51778,51.51778 -28.45248,0 -51.51778,-23.0653 -51.51778,-51.51778 0,-28.45249 23.0653,-51.51778 51.51778,-51.51778 28.45249,0 51.51778,23.06529 51.51778,51.51778 z"
         sodipodi:ry="51.51778"
         sodipodi:rx="51.51778"
         sodipodi:cy="590.4516"
         sodipodi:cx="790.94946"
         id="path4020-9-0-7-4"
         style="fill:#00848e;fill-opacity:1;stroke:#253fe6;stroke-width:0.1;stroke-linecap:butt;stroke-linejoin:miter;stroke-miterlimit:4;stroke-opacity:1;stroke-dasharray:none;stroke-dashoffset:0"
         sodipodi:type="arc" />
      <path
         transform="matrix(1.2296738,0,0,1.2296738,-576.96452,-77.281642)"
         d="m 842.46724,590.4516 c 0,28.45248 -23.06529,51.51778 -51.51778,51.51778 -28.45248,0 -51.51778,-23.0653 -51.51778,-51.51778 0,-28.45249 23.0653,-51.51778 51.51778,-51.51778 28.45249,0 51.51778,23.06529 51.51778,51.51778 z"
         sodipodi:ry="51.51778"
         sodipodi:rx="51.51778"
         sodipodi:cy="590.4516"
         sodipodi:cx="790.94946"
         id="path4020-9-0-76-3"
         style="fill:#00848e;fill-opacity:1;stroke:#253fe6;stroke-width:0.1;stroke-linecap:butt;stroke-linejoin:miter;stroke-miterlimit:4;stroke-opacity:1;stroke-dasharray:none;stroke-dashoffset:0"
         sodipodi:type="arc" />
      <path
         transform="matrix(1.2296738,0,0,1.2296738,-717.29625,-77.281642)"
         d="m 842.46724,590.4516 c 0,28.45248 -23.06529,51.51778 -51.51778,51.51778 -28.45248,0 -51.51778,-23.0653 -51.51778,-51.51778 0,-28.45249 23.0653,-51.51778 51.51778,-51.51778 28.45249,0 51.51778,23.06529 51.51778,51.51778 z"
         sodipodi:ry="51.51778"
         sodipodi:rx="51.51778"
         sodipodi:cy="590.4516"
         sodipodi:cx="790.94946"
         id="path4020-9-0-8-4"
         style="fill:#00848e;fill-opacity:1;stroke:#253fe6;stroke-width:0.1;stroke-linecap:butt;stroke-linejoin:miter;stroke-miterlimit:4;stroke-opacity:1;stroke-dasharray:none;stroke-dashoffset:0"
         sodipodi:type="arc" />
    </g>
    <g
       id="g4350"
       transform="translate(0,-5.2835083)">
      <path
         transform="matrix(1.2296738,0,0,1.2296738,-296.06271,-204.56086)"
         d="m 842.46724,590.4516 c 0,28.45248 -23.06529,51.51778 -51.51778,51.51778 -28.45248,0 -51.51778,-23.0653 -51.51778,-51.51778 0,-28.45249 23.0653,-51.51778 51.51778,-51.51778 28.45249,0 51.51778,23.06529 51.51778,51.51778 z"
         sodipodi:ry="51.51778"
         sodipodi:rx="51.51778"
         sodipodi:cy="590.4516"
         sodipodi:cx="790.94946"
         id="path4020-9-0-2-8"
         style="fill:#00848e;fill-opacity:1;stroke:#253fe6;stroke-width:0.1;stroke-linecap:butt;stroke-linejoin:miter;stroke-miterlimit:4;stroke-opacity:1;stroke-dasharray:none;stroke-dashoffset:0"
         sodipodi:type="arc" />
      <path
         transform="matrix(1.2296738,0,0,1.2296738,-436.81063,-204.56086)"
         d="m 842.46724,590.4516 c 0,28.45248 -23.06529,51.51778 -51.51778,51.51778 -28.45248,0 -51.51778,-23.0653 -51.51778,-51.51778 0,-28.45249 23.0653,-51.51778 51.51778,-51.51778 28.45249,0 51.51778,23.06529 51.51778,51.51778 z"
         sodipodi:ry="51.51778"
         sodipodi:rx="51.51778"
         sodipodi:cy="590.4516"
         sodipodi:cx="790.94946"
         id="path4020-9-0-7-2"
         style="fill:#00848e;fill-opacity:1;stroke:#253fe6;stroke-width:0.1;stroke-linecap:butt;stroke-linejoin:miter;stroke-miterlimit:4;stroke-opacity:1;stroke-dasharray:none;stroke-dashoffset:0"
         sodipodi:type="arc" />
      <path
         transform="matrix(1.2296738,0,0,1.2296738,-577.55854,-204.56086)"
         d="m 842.46724,590.4516 c 0,28.45248 -23.06529,51.51778 -51.51778,51.51778 -28.45248,0 -51.51778,-23.0653 -51.51778,-51.51778 0,-28.45249 23.0653,-51.51778 51.51778,-51.51778 28.45249,0 51.51778,23.06529 51.51778,51.51778 z"
         sodipodi:ry="51.51778"
         sodipodi:rx="51.51778"
         sodipodi:cy="590.4516"
         sodipodi:cx="790.94946"
         id="path4020-9-0-76-0"
         style="fill:#00848e;fill-opacity:1;stroke:#253fe6;stroke-width:0.1;stroke-linecap:butt;stroke-linejoin:miter;stroke-miterlimit:4;stroke-opacity:1;stroke-dasharray:none;stroke-dashoffset:0"
         sodipodi:type="arc" />
      <path
         transform="matrix(1.2296738,0,0,1.2296738,-718.30641,-204.56086)"
         d="m 842.46724,590.4516 c 0,28.45248 -23.06529,51.51778 -51.51778,51.51778 -28.45248,0 -51.51778,-23.0653 -51.51778,-51.51778 0,-28.45249 23.0653,-51.51778 51.51778,-51.51778 28.45249,0 51.51778,23.06529 51.51778,51.51778 z"
         sodipodi:ry="51.51778"
         sodipodi:rx="51.51778"
         sodipodi:cy="590.4516"
         sodipodi:cx="790.94946"
         id="path4020-9-0-8-2"
         style="fill:#00848e;fill-opacity:1;stroke:#253fe6;stroke-width:0.1;stroke-linecap:butt;stroke-linejoin:miter;stroke-miterlimit:4;stroke-opacity:1;stroke-dasharray:none;stroke-dashoffset:0"
         sodipodi:type="arc" />
    </g>
    <g
       id="g4356"
       transform="translate(0,-0.34899902)">
      <path
         transform="matrix(1.2296738,0,0,1.2296738,-439.50432,-341.94161)"
         d="m 842.46724,590.4516 c 0,28.45248 -23.06529,51.51778 -51.51778,51.51778 -28.45248,0 -51.51778,-23.0653 -51.51778,-51.51778 0,-28.45249 23.0653,-51.51778 51.51778,-51.51778 28.45249,0 51.51778,23.06529 51.51778,51.51778 z"
         sodipodi:ry="51.51778"
         sodipodi:rx="51.51778"
         sodipodi:cy="590.4516"
         sodipodi:cx="790.94946"
         id="path4020-9-0-7-7"
         style="fill:#00848e;fill-opacity:1;stroke:#253fe6;stroke-width:0.1;stroke-linecap:butt;stroke-linejoin:miter;stroke-miterlimit:4;stroke-opacity:1;stroke-dasharray:none;stroke-dashoffset:0"
         sodipodi:type="arc" />
      <path
         transform="matrix(1.2296738,0,0,1.2296738,-580.92569,-341.94161)"
         d="m 842.46724,590.4516 c 0,28.45248 -23.06529,51.51778 -51.51778,51.51778 -28.45248,0 -51.51778,-23.0653 -51.51778,-51.51778 0,-28.45249 23.0653,-51.51778 51.51778,-51.51778 28.45249,0 51.51778,23.06529 51.51778,51.51778 z"
         sodipodi:ry="51.51778"
         sodipodi:rx="51.51778"
         sodipodi:cy="590.4516"
         sodipodi:cx="790.94946"
         id="path4020-9-0-76-09"
         style="fill:#00848e;fill-opacity:1;stroke:#253fe6;stroke-width:0.1;stroke-linecap:butt;stroke-linejoin:miter;stroke-miterlimit:4;stroke-opacity:1;stroke-dasharray:none;stroke-dashoffset:0"
         sodipodi:type="arc" />
      <path
         transform="matrix(1.2296738,0,0,1.2296738,-722.34702,-341.94161)"
         d="m 842.46724,590.4516 c 0,28.45248 -23.06529,51.51778 -51.51778,51.51778 -28.45248,0 -51.51778,-23.0653 -51.51778,-51.51778 0,-28.45249 23.0653,-51.51778 51.51778,-51.51778 28.45249,0 51.51778,23.06529 51.51778,51.51778 z"
         sodipodi:ry="51.51778"
         sodipodi:rx="51.51778"
         sodipodi:cy="590.4516"
         sodipodi:cx="790.94946"
         id="path4020-9-0-8-6"
         style="fill:#00848e;fill-opacity:1;stroke:#253fe6;stroke-width:0.1;stroke-linecap:butt;stroke-linejoin:miter;stroke-miterlimit:4;stroke-opacity:1;stroke-dasharray:none;stroke-dashoffset:0"
         sodipodi:type="arc" />
    </g>
    <path
       sodipodi:type="arc"
       style="fill:#00848e;fill-opacity:1;stroke:#253fe6;stroke-width:0.1;stroke-linecap:butt;stroke-linejoin:miter;stroke-miterlimit:4;stroke-opacity:1;stroke-dasharray:none;stroke-dashoffset:0"
       id="path4020-9-0-5"
       sodipodi:cx="790.94946"
       sodipodi:cy="590.4516"
       sodipodi:rx="51.51778"
       sodipodi:ry="51.51778"
       d="m 842.46724,590.4516 c 0,28.45248 -23.06529,51.51778 -51.51778,51.51778 -28.45248,0 -51.51778,-23.0653 -51.51778,-51.51778 0,-28.45249 23.0653,-51.51778 51.51778,-51.51778 28.45249,0 51.51778,23.06529 51.51778,51.51778 z"
       transform="matrix(1.2296738,0,0,1.2296738,-713.57346,-607.18318)" />
    <g
       id="g4361"
       transform="translate(0,2.5651245)">
      <path
         transform="matrix(1.2296738,0,0,1.2296738,-578.90536,-477.30204)"
         d="m 842.46724,590.4516 c 0,28.45248 -23.06529,51.51778 -51.51778,51.51778 -28.45248,0 -51.51778,-23.0653 -51.51778,-51.51778 0,-28.45249 23.0653,-51.51778 51.51778,-51.51778 28.45249,0 51.51778,23.06529 51.51778,51.51778 z"
         sodipodi:ry="51.51778"
         sodipodi:rx="51.51778"
         sodipodi:cy="590.4516"
         sodipodi:cx="790.94946"
         id="path4020-9-0-76-8"
         style="fill:#00848e;fill-opacity:1;stroke:#253fe6;stroke-width:0.1;stroke-linecap:butt;stroke-linejoin:miter;stroke-miterlimit:4;stroke-opacity:1;stroke-dasharray:none;stroke-dashoffset:0"
         sodipodi:type="arc" />
      <path
         transform="matrix(1.2296738,0,0,1.2296738,-719.31657,-477.30204)"
         d="m 842.46724,590.4516 c 0,28.45248 -23.06529,51.51778 -51.51778,51.51778 -28.45248,0 -51.51778,-23.0653 -51.51778,-51.51778 0,-28.45249 23.0653,-51.51778 51.51778,-51.51778 28.45249,0 51.51778,23.06529 51.51778,51.51778 z"
         sodipodi:ry="51.51778"
         sodipodi:rx="51.51778"
         sodipodi:cy="590.4516"
         sodipodi:cx="790.94946"
         id="path4020-9-0-8-62"
         style="fill:#00848e;fill-opacity:1;stroke:#253fe6;stroke-width:0.1;stroke-linecap:butt;stroke-linejoin:miter;stroke-miterlimit:4;stroke-opacity:1;stroke-dasharray:none;stroke-dashoffset:0"
         sodipodi:type="arc" />
    </g>
    <text
       xml:space="preserve"
       style="font-size:41.72266006px;font-style:normal;font-weight:normal;line-height:125%;letter-spacing:0px;word-spacing:0px;fill:#000000;fill-opacity:1;stroke:none;font-family:Sans"
       x="-258.87497"
       y="556.01208"
       id="text2996-1"
       sodipodi:linespacing="125%"
       transform="scale(1.0430665,0.95871165)"><tspan
         sodipodi:role="line"
         x="-258.87497"
         y="556.01208"
         style="font-size:36px;fill:#ffffff"
         id="tspan3995-32">data</tspan></text>
  </g>
</svg>
