<?xml version="1.0" encoding="UTF-8" standalone="no"?>
<!-- Created with Inkscape (http://www.inkscape.org/) -->

<svg
   xmlns:dc="http://purl.org/dc/elements/1.1/"
   xmlns:cc="http://creativecommons.org/ns#"
   xmlns:rdf="http://www.w3.org/1999/02/22-rdf-syntax-ns#"
   xmlns:svg="http://www.w3.org/2000/svg"
   xmlns="http://www.w3.org/2000/svg"
   xmlns:sodipodi="http://sodipodi.sourceforge.net/DTD/sodipodi-0.dtd"
   xmlns:inkscape="http://www.inkscape.org/namespaces/inkscape"
   width="2208"
   height="1242"
   id="svg2"
   version="1.1"
   inkscape:version="0.48.4 r9939"
   sodipodi:docname="even_moar_credits.svg">
  <defs
     id="defs4">
    <clipPath
       clipPathUnits="userSpaceOnUse"
       id="clipPath4681">
      <rect
         style="fill:#740000;fill-opacity:1;stroke:#d73319;stroke-width:0.1;stroke-linecap:butt;stroke-linejoin:miter;stroke-miterlimit:4;stroke-opacity:1;stroke-dasharray:none;stroke-dashoffset:0"
         id="rect4683"
         width="1588.5714"
         height="901.42859"
         x="-404.00003"
         y="-10.923537" />
    </clipPath>
  </defs>
  <sodipodi:namedview
     id="base"
     pagecolor="#ffffff"
     bordercolor="#666666"
     borderopacity="1.0"
     inkscape:pageopacity="0.0"
     inkscape:pageshadow="2"
     inkscape:zoom="0.7"
     inkscape:cx="1055.6119"
     inkscape:cy="499.76833"
     inkscape:document-units="px"
     inkscape:current-layer="layer1"
     showgrid="false"
     fit-margin-top="0"
     fit-margin-left="0"
     fit-margin-right="0"
     fit-margin-bottom="0"
     inkscape:window-width="1920"
     inkscape:window-height="1056"
     inkscape:window-x="0"
     inkscape:window-y="24"
     inkscape:window-maximized="1" />
  <metadata
     id="metadata7">
    <rdf:RDF>
      <cc:Work
         rdf:about="">
        <dc:format>image/svg+xml</dc:format>
        <dc:type
           rdf:resource="http://purl.org/dc/dcmitype/StillImage" />
        <dc:title></dc:title>
      </cc:Work>
    </rdf:RDF>
  </metadata>
  <g
     inkscape:label="Layer 1"
     inkscape:groupmode="layer"
     id="layer1"
     transform="translate(712.57147,180.06639)">
    <rect
       style="fill:#000000;fill-opacity:1;stroke:#253fe6;stroke-width:0.10000000000000001;stroke-linecap:butt;stroke-linejoin:miter;stroke-miterlimit:4;stroke-opacity:1;stroke-dasharray:none;stroke-dashoffset:0"
       id="rect3795"
       width="2214.2544"
       height="1250.5688"
       x="0"
       y="-2.5079353"
       transform="translate(-712.57147,-180.06639)" />
    <g
       id="g4661"
       clip-path="url(#clipPath4681)">
      <g
         transform="translate(0.77526901,2.8571429)"
         id="g4638">
        <path
           sodipodi:type="arc"
           style="fill:#740000;fill-opacity:1;stroke:#d73319;stroke-width:0.1;stroke-linecap:butt;stroke-linejoin:miter;stroke-miterlimit:4;stroke-opacity:1;stroke-dasharray:none;stroke-dashoffset:0"
           id="path4480"
           sodipodi:cx="668.57141"
           sodipodi:cy="617.71429"
           sodipodi:rx="195.71428"
           sodipodi:ry="195.71428"
           d="m 864.28569,617.71429 c 0,108.09002 -87.62427,195.71428 -195.71428,195.71428 -108.09001,0 -195.71428,-87.62426 -195.71428,-195.71428 0,-108.09001 87.62427,-195.71427 195.71428,-195.71427 108.09001,0 195.71428,87.62426 195.71428,195.71427 z"
           transform="matrix(1.0401384,0.02189095,0,0.99999493,-757.62109,-203.27035)" />
        <path
           sodipodi:type="arc"
           style="fill:#740000;fill-opacity:1;stroke:#d73319;stroke-width:0.1;stroke-linecap:butt;stroke-linejoin:miter;stroke-miterlimit:4;stroke-opacity:1;stroke-dasharray:none;stroke-dashoffset:0"
           id="path4480-3"
           sodipodi:cx="668.57141"
           sodipodi:cy="617.71429"
           sodipodi:rx="195.71428"
           sodipodi:ry="195.71428"
           d="m 864.28569,617.71429 c 0,108.09002 -87.62427,195.71428 -195.71428,195.71428 -108.09001,0 -195.71428,-87.62426 -195.71428,-195.71428 0,-108.09001 87.62427,-195.71427 195.71428,-195.71427 108.09001,0 195.71428,87.62426 195.71428,195.71427 z"
           transform="matrix(1.0401384,0.02189095,0,0.99999493,-330.12107,-197.55608)" />
        <path
           sodipodi:type="arc"
           style="fill:#740000;fill-opacity:1;stroke:#d73319;stroke-width:0.1;stroke-linecap:butt;stroke-linejoin:miter;stroke-miterlimit:4;stroke-opacity:1;stroke-dasharray:none;stroke-dashoffset:0"
           id="path4480-6"
           sodipodi:cx="668.57141"
           sodipodi:cy="617.71429"
           sodipodi:rx="195.71428"
           sodipodi:ry="195.71428"
           d="m 864.28569,617.71429 c 0,108.09002 -87.62427,195.71428 -195.71428,195.71428 -108.09001,0 -195.71428,-87.62426 -195.71428,-195.71428 0,-108.09001 87.62427,-195.71427 195.71428,-195.71427 108.09001,0 195.71428,87.62426 195.71428,195.71427 z"
           transform="matrix(1.0401384,0.02189095,0,0.99999493,97.378843,-193.27035)" />
        <path
           sodipodi:type="arc"
           style="fill:#740000;fill-opacity:1;stroke:#d73319;stroke-width:0.1;stroke-linecap:butt;stroke-linejoin:miter;stroke-miterlimit:4;stroke-opacity:1;stroke-dasharray:none;stroke-dashoffset:0"
           id="path4480-87"
           sodipodi:cx="668.57141"
           sodipodi:cy="617.71429"
           sodipodi:rx="195.71428"
           sodipodi:ry="195.71428"
           d="m 864.28569,617.71429 c 0,108.09002 -87.62427,195.71428 -195.71428,195.71428 -108.09001,0 -195.71428,-87.62426 -195.71428,-195.71428 0,-108.09001 87.62427,-195.71427 195.71428,-195.71427 108.09001,0 195.71428,87.62426 195.71428,195.71427 z"
           transform="matrix(1.0401384,0.02189095,0,0.99999493,524.87887,-196.12751)" />
        <path
           sodipodi:type="arc"
           style="fill:#740000;fill-opacity:1;stroke:#d73319;stroke-width:0.1;stroke-linecap:butt;stroke-linejoin:miter;stroke-miterlimit:4;stroke-opacity:1;stroke-dasharray:none;stroke-dashoffset:0"
           id="path4480-91"
           sodipodi:cx="668.57141"
           sodipodi:cy="617.71429"
           sodipodi:rx="195.71428"
           sodipodi:ry="195.71428"
           d="m 864.28569,617.71429 c 0,108.09002 -87.62427,195.71428 -195.71428,195.71428 -108.09001,0 -195.71428,-87.62426 -195.71428,-195.71428 0,-108.09001 87.62427,-195.71427 195.71428,-195.71427 108.09001,0 195.71428,87.62426 195.71428,195.71427 z"
           transform="matrix(1.0401384,0.02189095,0,0.99999493,-1185.1211,-208.98464)" />
      </g>
      <g
         transform="translate(1.489569,2.8571429)"
         id="g4652">
        <path
           sodipodi:type="arc"
           style="fill:#740000;fill-opacity:1;stroke:#d73319;stroke-width:0.1;stroke-linecap:butt;stroke-linejoin:miter;stroke-miterlimit:4;stroke-opacity:1;stroke-dasharray:none;stroke-dashoffset:0"
           id="path4480-1"
           sodipodi:cx="668.57141"
           sodipodi:cy="617.71429"
           sodipodi:rx="195.71428"
           sodipodi:ry="195.71428"
           d="m 864.28569,617.71429 c 0,108.09002 -87.62427,195.71428 -195.71428,195.71428 -108.09001,0 -195.71428,-87.62426 -195.71428,-195.71428 0,-108.09001 87.62427,-195.71427 195.71428,-195.71427 108.09001,0 195.71428,87.62426 195.71428,195.71427 z"
           transform="matrix(1.0401384,0.02189095,0,0.99999493,-758.33539,208.8725)" />
        <path
           sodipodi:type="arc"
           style="fill:#740000;fill-opacity:1;stroke:#d73319;stroke-width:0.1;stroke-linecap:butt;stroke-linejoin:miter;stroke-miterlimit:4;stroke-opacity:1;stroke-dasharray:none;stroke-dashoffset:0"
           id="path4480-3-0"
           sodipodi:cx="668.57141"
           sodipodi:cy="617.71429"
           sodipodi:rx="195.71428"
           sodipodi:ry="195.71428"
           d="m 864.28569,617.71429 c 0,108.09002 -87.62427,195.71428 -195.71428,195.71428 -108.09001,0 -195.71428,-87.62426 -195.71428,-195.71428 0,-108.09001 87.62427,-195.71427 195.71428,-195.71427 108.09001,0 195.71428,87.62426 195.71428,195.71427 z"
           transform="matrix(1.0401384,0.02189095,0,0.99999493,-330.83537,214.58677)" />
        <path
           sodipodi:type="arc"
           style="fill:#740000;fill-opacity:1;stroke:#d73319;stroke-width:0.1;stroke-linecap:butt;stroke-linejoin:miter;stroke-miterlimit:4;stroke-opacity:1;stroke-dasharray:none;stroke-dashoffset:0"
           id="path4480-6-9"
           sodipodi:cx="668.57141"
           sodipodi:cy="617.71429"
           sodipodi:rx="195.71428"
           sodipodi:ry="195.71428"
           d="m 864.28569,617.71429 c 0,108.09002 -87.62427,195.71428 -195.71428,195.71428 -108.09001,0 -195.71428,-87.62426 -195.71428,-195.71428 0,-108.09001 87.62427,-195.71427 195.71428,-195.71427 108.09001,0 195.71428,87.62426 195.71428,195.71427 z"
           transform="matrix(1.0401384,0.02189095,0,0.99999493,96.664537,218.8725)" />
        <path
           sodipodi:type="arc"
           style="fill:#740000;fill-opacity:1;stroke:#d73319;stroke-width:0.1;stroke-linecap:butt;stroke-linejoin:miter;stroke-miterlimit:4;stroke-opacity:1;stroke-dasharray:none;stroke-dashoffset:0"
           id="path4480-87-9"
           sodipodi:cx="668.57141"
           sodipodi:cy="617.71429"
           sodipodi:rx="195.71428"
           sodipodi:ry="195.71428"
           d="m 864.28569,617.71429 c 0,108.09002 -87.62427,195.71428 -195.71428,195.71428 -108.09001,0 -195.71428,-87.62426 -195.71428,-195.71428 0,-108.09001 87.62427,-195.71427 195.71428,-195.71427 108.09001,0 195.71428,87.62426 195.71428,195.71427 z"
           transform="matrix(1.0401384,0.02189095,0,0.99999493,524.16456,216.01534)" />
        <path
           sodipodi:type="arc"
           style="fill:#740000;fill-opacity:1;stroke:#d73319;stroke-width:0.1;stroke-linecap:butt;stroke-linejoin:miter;stroke-miterlimit:4;stroke-opacity:1;stroke-dasharray:none;stroke-dashoffset:0"
           id="path4480-91-0"
           sodipodi:cx="668.57141"
           sodipodi:cy="617.71429"
           sodipodi:rx="195.71428"
           sodipodi:ry="195.71428"
           d="m 864.28569,617.71429 c 0,108.09002 -87.62427,195.71428 -195.71428,195.71428 -108.09001,0 -195.71428,-87.62426 -195.71428,-195.71428 0,-108.09001 87.62427,-195.71427 195.71428,-195.71427 108.09001,0 195.71428,87.62426 195.71428,195.71427 z"
           transform="matrix(1.0401384,0.02189095,0,0.99999493,-1185.8354,203.15821)" />
      </g>
      <g
         transform="translate(-9.939031,2.8571429)"
         id="g4645">
        <path
           sodipodi:type="arc"
           style="fill:#740000;fill-opacity:1;stroke:#d73319;stroke-width:0.1;stroke-linecap:butt;stroke-linejoin:miter;stroke-miterlimit:4;stroke-opacity:1;stroke-dasharray:none;stroke-dashoffset:0"
           id="path4480-39"
           sodipodi:cx="668.57141"
           sodipodi:cy="617.71429"
           sodipodi:rx="195.71428"
           sodipodi:ry="195.71428"
           d="m 864.28569,617.71429 c 0,108.09002 -87.62427,195.71428 -195.71428,195.71428 -108.09001,0 -195.71428,-87.62426 -195.71428,-195.71428 0,-108.09001 87.62427,-195.71427 195.71428,-195.71427 108.09001,0 195.71428,87.62426 195.71428,195.71427 z"
           transform="matrix(1.0401384,0.02189095,0,0.99999493,-746.9068,-615.41321)" />
        <path
           sodipodi:type="arc"
           style="fill:#740000;fill-opacity:1;stroke:#d73319;stroke-width:0.1;stroke-linecap:butt;stroke-linejoin:miter;stroke-miterlimit:4;stroke-opacity:1;stroke-dasharray:none;stroke-dashoffset:0"
           id="path4480-3-3"
           sodipodi:cx="668.57141"
           sodipodi:cy="617.71429"
           sodipodi:rx="195.71428"
           sodipodi:ry="195.71428"
           d="m 864.28569,617.71429 c 0,108.09002 -87.62427,195.71428 -195.71428,195.71428 -108.09001,0 -195.71428,-87.62426 -195.71428,-195.71428 0,-108.09001 87.62427,-195.71427 195.71428,-195.71427 108.09001,0 195.71428,87.62426 195.71428,195.71427 z"
           transform="matrix(1.0401384,0.02189095,0,0.99999493,-319.4068,-609.69894)" />
        <path
           sodipodi:type="arc"
           style="fill:#740000;fill-opacity:1;stroke:#d73319;stroke-width:0.1;stroke-linecap:butt;stroke-linejoin:miter;stroke-miterlimit:4;stroke-opacity:1;stroke-dasharray:none;stroke-dashoffset:0"
           id="path4480-6-1"
           sodipodi:cx="668.57141"
           sodipodi:cy="617.71429"
           sodipodi:rx="195.71428"
           sodipodi:ry="195.71428"
           d="m 864.28569,617.71429 c 0,108.09002 -87.62427,195.71428 -195.71428,195.71428 -108.09001,0 -195.71428,-87.62426 -195.71428,-195.71428 0,-108.09001 87.62427,-195.71427 195.71428,-195.71427 108.09001,0 195.71428,87.62426 195.71428,195.71427 z"
           transform="matrix(1.0401384,0.02189095,0,0.99999493,108.09311,-605.41321)" />
        <path
           sodipodi:type="arc"
           style="fill:#740000;fill-opacity:1;stroke:#d73319;stroke-width:0.1;stroke-linecap:butt;stroke-linejoin:miter;stroke-miterlimit:4;stroke-opacity:1;stroke-dasharray:none;stroke-dashoffset:0"
           id="path4480-87-2"
           sodipodi:cx="668.57141"
           sodipodi:cy="617.71429"
           sodipodi:rx="195.71428"
           sodipodi:ry="195.71428"
           d="m 864.28569,617.71429 c 0,108.09002 -87.62427,195.71428 -195.71428,195.71428 -108.09001,0 -195.71428,-87.62426 -195.71428,-195.71428 0,-108.09001 87.62427,-195.71427 195.71428,-195.71427 108.09001,0 195.71428,87.62426 195.71428,195.71427 z"
           transform="matrix(1.0401384,0.02189095,0,0.99999493,535.59313,-608.27037)" />
        <path
           sodipodi:type="arc"
           style="fill:#740000;fill-opacity:1;stroke:#d73319;stroke-width:0.1;stroke-linecap:butt;stroke-linejoin:miter;stroke-miterlimit:4;stroke-opacity:1;stroke-dasharray:none;stroke-dashoffset:0"
           id="path4480-91-1"
           sodipodi:cx="668.57141"
           sodipodi:cy="617.71429"
           sodipodi:rx="195.71428"
           sodipodi:ry="195.71428"
           d="m 864.28569,617.71429 c 0,108.09002 -87.62427,195.71428 -195.71428,195.71428 -108.09001,0 -195.71428,-87.62426 -195.71428,-195.71428 0,-108.09001 87.62427,-195.71427 195.71428,-195.71427 108.09001,0 195.71428,87.62426 195.71428,195.71427 z"
           transform="matrix(1.0401384,0.02189095,0,0.99999493,-1174.4068,-621.1275)" />
      </g>
    </g>
    <text
       xml:space="preserve"
       style="font-size:46.20383835px;font-style:normal;font-weight:normal;line-height:125%;letter-spacing:0px;word-spacing:0px;fill:#000000;fill-opacity:1;stroke:none;font-family:Sans"
       x="-108.43958"
       y="458.19537"
       id="text2996"
       sodipodi:linespacing="125%"
       transform="scale(1.0430665,0.95871165)"><tspan
         sodipodi:role="line"
         x="-108.43958"
         y="458.19537"
         style="font-size:39.86654282px;fill:#ffffff"
         id="tspan3995">Director of Photography</tspan></text>
    <text
       xml:space="preserve"
       style="font-size:40px;font-style:normal;font-weight:normal;line-height:125%;letter-spacing:0px;word-spacing:0px;fill:#000000;fill-opacity:1;stroke:none;font-family:Sans"
       x="1137.8571"
       y="597.71429"
       id="text4434"
       sodipodi:linespacing="125%"
       transform="translate(-712.57147,-180.06639)"><tspan
         sodipodi:role="line"
         id="tspan4436"></tspan></text>
    <text
       xml:space="preserve"
       style="font-size:60.53667831px;font-style:normal;font-weight:normal;line-height:125%;letter-spacing:0px;word-spacing:0px;fill:#000000;fill-opacity:1;stroke:none;font-family:Sans"
       x="392.75168"
       y="458.79166"
       id="text2996-1"
       sodipodi:linespacing="125%"
       transform="scale(1.0430665,0.95871165)"><tspan
         sodipodi:role="line"
         x="392.75168"
         y="458.79166"
         style="font-size:52.23349762px;fill:#ffffff"
         id="tspan3995-0">TED MOORE</tspan></text>
    <text
       xml:space="preserve"
       style="font-size:44.42563248px;font-style:normal;font-weight:normal;line-height:125%;letter-spacing:0px;word-spacing:0px;fill:#000000;fill-opacity:1;stroke:none;font-family:Sans"
       x="757.57916"
       y="445.92029"
       id="text2996-2"
       sodipodi:linespacing="125%"
       transform="scale(1.0029229,0.99708561)"><tspan
         sodipodi:role="line"
         x="757.57916"
         y="445.92029"
         style="font-size:38.33223343px;fill:#ffffff"
         id="tspan3995-6">B.S.C</tspan></text>
  </g>
</svg>
