<?xml version="1.0" encoding="UTF-8" standalone="no"?><svg xmlns="http://www.w3.org/2000/svg" xmlns:xlink="http://www.w3.org/1999/xlink" clip-rule="evenodd" stroke-miterlimit="10" viewBox="0 0 757 81"><desc>SVG generated by Keynote</desc><defs></defs><g transform="matrix(1.00, 0.00, -0.00, -1.00, 0.0, 81.0)"><text xml:space="preserve" font-family="Aller,Aller" font-size="80.0" fill="#D5D5D5" transform="matrix(1.00, 0.00, -0.00, -1.00, -3.1, 21.0)">O</text><text xml:space="preserve" font-family="Aller,Aller" font-size="80.0" fill="#D5D5D5" transform="matrix(1.00, 0.00, -0.00, -1.00, 55.2, 21.0)">p</text><text xml:space="preserve" font-family="Aller,Aller" font-size="80.0" fill="#D5D5D5" transform="matrix(1.00, 0.00, -0.00, -1.00, 102.4, 21.0)">e</text><text xml:space="preserve" font-family="Aller,Aller" font-size="80.0" fill="#D5D5D5" transform="matrix(1.00, 0.00, -0.00, -1.00, 146.9, 21.0)">n</text><text xml:space="preserve" font-family="Aller,Aller" font-size="80.0" fill="#D5D5D5" transform="matrix(1.00, 0.00, -0.00, -1.00, 193.1, 21.0)">D</text><text xml:space="preserve" font-family="Aller,Aller" font-size="80.0" fill="#D5D5D5" transform="matrix(1.00, 0.00, -0.00, -1.00, 249.0, 21.0)">r</text><text xml:space="preserve" font-family="Aller,Aller" font-size="80.0" fill="#D5D5D5" transform="matrix(1.00, 0.00, -0.00, -1.00, 277.6, 21.0)">o</text><text xml:space="preserve" font-family="Aller,Aller" font-size="80.0" fill="#D5D5D5" transform="matrix(1.00, 0.00, -0.00, -1.00, 323.8, 21.0)">n</text><text xml:space="preserve" font-family="Aller,Aller" font-size="80.0" fill="#D5D5D5" transform="matrix(1.00, 0.00, -0.00, -1.00, 370.0, 21.0)">e</text><text xml:space="preserve" font-family="Aller,Aller" font-size="80.0" fill="#D5D5D5" transform="matrix(1.00, 0.00, -0.00, -1.00, 414.5, 21.0)">M</text><text xml:space="preserve" font-family="Aller,Aller" font-size="80.0" fill="#D5D5D5" transform="matrix(1.00, 0.00, -0.00, -1.00, 479.8, 21.0)">a</text><text xml:space="preserve" font-family="Aller,Aller" font-size="80.0" fill="#D5D5D5" transform="matrix(1.00, 0.00, -0.00, -1.00, 521.1, 21.0)">p</text><text xml:space="preserve" font-family="Aller,Aller" font-size="80.0" fill="#D5D5D5" transform="matrix(1.00, 0.00, -0.00, -1.00, 568.3, 21.0)"> </text><text xml:space="preserve" font-family="Aller,Aller" font-size="80.0" fill="#A7D3A9" transform="matrix(1.00, 0.00, -0.00, -1.00, 587.3, 21.0)">I</text><text xml:space="preserve" font-family="Aller,Aller" font-size="80.0" fill="#A7D3A9" transform="matrix(1.00, 0.00, -0.00, -1.00, 609.5, 21.0)">n</text><text xml:space="preserve" font-family="Aller,Aller" font-size="80.0" fill="#A7D3A9" transform="matrix(1.00, 0.00, -0.00, -1.00, 655.8, 21.0)">t</text><text xml:space="preserve" font-family="Aller,Aller" font-size="80.0" fill="#A7D3A9" transform="matrix(1.00, 0.00, -0.00, -1.00, 684.4, 21.0)">r</text><text xml:space="preserve" font-family="Aller,Aller" font-size="80.0" fill="#A7D3A9" transform="matrix(1.00, 0.00, -0.00, -1.00, 713.0, 21.0)">o</text></g></svg>