<?xml version="1.0" encoding="UTF-8" standalone="no"?><svg xmlns="http://www.w3.org/2000/svg" xmlns:xlink="http://www.w3.org/1999/xlink" clip-rule="evenodd" stroke-miterlimit="10" viewBox="0 0 1024 768"><desc>SVG generated by Keynote</desc><defs></defs><g transform="matrix(1.00, 0.00, -0.00, -1.00, 0.0, 768.0)"><path d="M 0.0 768.0 L 1024.0 768.0 L 1024.0 0.0 L 0.0 0.0 Z M 0.0 768.0 " fill="#000000"></path><text xml:space="preserve" font-family="Aller-Bold,Aller" font-weight="bold" font-size="80.0" fill="#FEFFFF" transform="matrix(1.00, 0.00, -0.00, -1.00, 135.7, 658.0)">W</text><text xml:space="preserve" font-family="Aller-Bold,Aller" font-weight="bold" font-size="80.0" fill="#FEFFFF" transform="matrix(1.00, 0.00, -0.00, -1.00, 209.4, 658.0)">h</text><text xml:space="preserve" font-family="Aller-Bold,Aller" font-weight="bold" font-size="80.0" fill="#FEFFFF" transform="matrix(1.00, 0.00, -0.00, -1.00, 256.3, 658.0)">y</text><text xml:space="preserve" font-family="Aller-Bold,Aller" font-weight="bold" font-size="80.0" fill="#FEFFFF" transform="matrix(1.00, 0.00, -0.00, -1.00, 299.6, 658.0)"> </text><text xml:space="preserve" font-family="Aller-Bold,Aller" font-weight="bold" font-size="80.0" fill="#FEFFFF" transform="matrix(1.00, 0.00, -0.00, -1.00, 317.2, 658.0)">B</text><text xml:space="preserve" font-family="Aller-Bold,Aller" font-weight="bold" font-size="80.0" fill="#FEFFFF" transform="matrix(1.00, 0.00, -0.00, -1.00, 365.6, 658.0)">u</text><text xml:space="preserve" font-family="Aller-Bold,Aller" font-weight="bold" font-size="80.0" fill="#FEFFFF" transform="matrix(1.00, 0.00, -0.00, -1.00, 411.4, 658.0)">i</text><text xml:space="preserve" font-family="Aller-Bold,Aller" font-weight="bold" font-size="80.0" fill="#FEFFFF" transform="matrix(1.00, 0.00, -0.00, -1.00, 436.0, 658.0)">l</text><text xml:space="preserve" font-family="Aller-Bold,Aller" font-weight="bold" font-size="80.0" fill="#FEFFFF" transform="matrix(1.00, 0.00, -0.00, -1.00, 461.9, 658.0)">d</text><text xml:space="preserve" font-family="Aller-Bold,Aller" font-weight="bold" font-size="80.0" fill="#FEFFFF" transform="matrix(1.00, 0.00, -0.00, -1.00, 508.9, 658.0)"> </text><text xml:space="preserve" font-family="Aller-Bold,Aller" font-weight="bold" font-size="80.0" fill="#FEFFFF" transform="matrix(1.00, 0.00, -0.00, -1.00, 526.5, 658.0)">O</text><text xml:space="preserve" font-family="Aller-Bold,Aller" font-weight="bold" font-size="80.0" fill="#FEFFFF" transform="matrix(1.00, 0.00, -0.00, -1.00, 584.6, 658.0)">u</text><text xml:space="preserve" font-family="Aller-Bold,Aller" font-weight="bold" font-size="80.0" fill="#FEFFFF" transform="matrix(1.00, 0.00, -0.00, -1.00, 630.4, 658.0)">r</text><text xml:space="preserve" font-family="Aller-Bold,Aller" font-weight="bold" font-size="80.0" fill="#FEFFFF" transform="matrix(1.00, 0.00, -0.00, -1.00, 662.5, 658.0)"> </text><text xml:space="preserve" font-family="Aller-Bold,Aller" font-weight="bold" font-size="80.0" fill="#FEFFFF" transform="matrix(1.00, 0.00, -0.00, -1.00, 680.1, 658.0)">O</text><text xml:space="preserve" font-family="Aller-Bold,Aller" font-weight="bold" font-size="80.0" fill="#FEFFFF" transform="matrix(1.00, 0.00, -0.00, -1.00, 738.2, 658.0)">w</text><text xml:space="preserve" font-family="Aller-Bold,Aller" font-weight="bold" font-size="80.0" fill="#FEFFFF" transform="matrix(1.00, 0.00, -0.00, -1.00, 802.7, 658.0)">n</text><text xml:space="preserve" font-family="Aller-Bold,Aller" font-weight="bold" font-size="80.0" fill="#FEFFFF" transform="matrix(1.00, 0.00, -0.00, -1.00, 848.8, 658.0)">?</text><text xml:space="preserve" font-family="Aller-Bold,Aller" font-weight="bold" font-size="80.0" fill="#FEFFFF" transform="matrix(1.00, 0.00, -0.00, -1.00, 888.3, 658.0)"> </text><text xml:space="preserve" font-family="Aller,Aller" font-size="36.0" fill="#FEFFFF" transform="matrix(1.00, 0.00, -0.00, -1.00, 288.5, 601.9)">N</text><text xml:space="preserve" font-family="Aller,Aller" font-size="36.0" fill="#FEFFFF" transform="matrix(1.00, 0.00, -0.00, -1.00, 313.0, 601.9)">o</text><text xml:space="preserve" font-family="Aller,Aller" font-size="36.0" fill="#FEFFFF" transform="matrix(1.00, 0.00, -0.00, -1.00, 333.7, 601.9)">t</text><text xml:space="preserve" font-family="Aller,Aller" font-size="36.0" fill="#FEFFFF" transform="matrix(1.00, 0.00, -0.00, -1.00, 346.6, 601.9)">h</text><text xml:space="preserve" font-family="Aller,Aller" font-size="36.0" fill="#FEFFFF" transform="matrix(1.00, 0.00, -0.00, -1.00, 367.4, 601.9)">i</text><text xml:space="preserve" font-family="Aller,Aller" font-size="36.0" fill="#FEFFFF" transform="matrix(1.00, 0.00, -0.00, -1.00, 377.8, 601.9)">n</text><text xml:space="preserve" font-family="Aller,Aller" font-size="36.0" fill="#FEFFFF" transform="matrix(1.00, 0.00, -0.00, -1.00, 398.6, 601.9)">g</text><text xml:space="preserve" font-family="Aller,Aller" font-size="36.0" fill="#FEFFFF" transform="matrix(1.00, 0.00, -0.00, -1.00, 418.5, 601.9)"> </text><text xml:space="preserve" font-family="Aller,Aller" font-size="36.0" fill="#FEFFFF" transform="matrix(1.00, 0.00, -0.00, -1.00, 427.0, 601.9)">m</text><text xml:space="preserve" font-family="Aller,Aller" font-size="36.0" fill="#FEFFFF" transform="matrix(1.00, 0.00, -0.00, -1.00, 457.8, 601.9)">o</text><text xml:space="preserve" font-family="Aller,Aller" font-size="36.0" fill="#FEFFFF" transform="matrix(1.00, 0.00, -0.00, -1.00, 478.6, 601.9)">r</text><text xml:space="preserve" font-family="Aller,Aller" font-size="36.0" fill="#FEFFFF" transform="matrix(1.00, 0.00, -0.00, -1.00, 491.4, 601.9)">e</text><text xml:space="preserve" font-family="Aller,Aller" font-size="36.0" fill="#FEFFFF" transform="matrix(1.00, 0.00, -0.00, -1.00, 511.4, 601.9)"> </text><text xml:space="preserve" font-family="Aller,Aller" font-size="36.0" fill="#FEFFFF" transform="matrix(1.00, 0.00, -0.00, -1.00, 520.0, 601.9)">t</text><text xml:space="preserve" font-family="Aller,Aller" font-size="36.0" fill="#FEFFFF" transform="matrix(1.00, 0.00, -0.00, -1.00, 532.8, 601.9)">h</text><text xml:space="preserve" font-family="Aller,Aller" font-size="36.0" fill="#FEFFFF" transform="matrix(1.00, 0.00, -0.00, -1.00, 553.7, 601.9)">a</text><text xml:space="preserve" font-family="Aller,Aller" font-size="36.0" fill="#FEFFFF" transform="matrix(1.00, 0.00, -0.00, -1.00, 572.3, 601.9)">n</text><text xml:space="preserve" font-family="Aller,Aller" font-size="36.0" fill="#FEFFFF" transform="matrix(1.00, 0.00, -0.00, -1.00, 593.1, 601.9)"> </text><text xml:space="preserve" font-family="Aller,Aller" font-size="36.0" fill="#A7D3A9" transform="matrix(1.00, 0.00, -0.00, -1.00, 601.6, 601.9)">R</text><text xml:space="preserve" font-family="Aller,Aller" font-size="36.0" fill="#A7D3A9" transform="matrix(1.00, 0.00, -0.00, -1.00, 622.6, 601.9)">e</text><text xml:space="preserve" font-family="Aller,Aller" font-size="36.0" fill="#A7D3A9" transform="matrix(1.00, 0.00, -0.00, -1.00, 642.6, 601.9)">a</text><text xml:space="preserve" font-family="Aller,Aller" font-size="36.0" fill="#A7D3A9" transform="matrix(1.00, 0.00, -0.00, -1.00, 661.2, 601.9)">s</text><text xml:space="preserve" font-family="Aller,Aller" font-size="36.0" fill="#A7D3A9" transform="matrix(1.00, 0.00, -0.00, -1.00, 677.6, 601.9)">o</text><text xml:space="preserve" font-family="Aller,Aller" font-size="36.0" fill="#A7D3A9" transform="matrix(1.00, 0.00, -0.00, -1.00, 698.3, 601.9)">n</text><text xml:space="preserve" font-family="Aller,Aller" font-size="36.0" fill="#A7D3A9" transform="matrix(1.00, 0.00, -0.00, -1.00, 719.1, 601.9)">s</text><text xml:space="preserve" font-family="Aller,Aller" font-size="23.7" fill="#A7D3A9" transform="matrix(1.00, 0.00, -0.00, -1.00, 79.0, 531.6)">•</text><text xml:space="preserve" font-family="Aller,Aller" font-size="31.5" fill="#A7D3A9" transform="matrix(1.00, 0.00, -0.00, -1.00, 108.0, 528.7)">O</text><text xml:space="preserve" font-family="Aller,Aller" font-size="31.5" fill="#A7D3A9" transform="matrix(1.00, 0.00, -0.00, -1.00, 131.0, 528.7)">p</text><text xml:space="preserve" font-family="Aller,Aller" font-size="31.5" fill="#A7D3A9" transform="matrix(1.00, 0.00, -0.00, -1.00, 149.7, 528.7)">e</text><text xml:space="preserve" font-family="Aller,Aller" font-size="31.5" fill="#A7D3A9" transform="matrix(1.00, 0.00, -0.00, -1.00, 167.2, 528.7)">n</text><text xml:space="preserve" font-family="Aller,Aller" font-size="31.5" fill="#A7D3A9" transform="matrix(1.00, 0.00, -0.00, -1.00, 185.4, 528.7)"> </text><text xml:space="preserve" font-family="Aller,Aller" font-size="31.5" fill="#A7D3A9" transform="matrix(1.00, 0.00, -0.00, -1.00, 192.9, 528.7)">S</text><text xml:space="preserve" font-family="Aller,Aller" font-size="31.5" fill="#A7D3A9" transform="matrix(1.00, 0.00, -0.00, -1.00, 210.1, 528.7)">o</text><text xml:space="preserve" font-family="Aller,Aller" font-size="31.5" fill="#A7D3A9" transform="matrix(1.00, 0.00, -0.00, -1.00, 228.3, 528.7)">u</text><text xml:space="preserve" font-family="Aller,Aller" font-size="31.5" fill="#A7D3A9" transform="matrix(1.00, 0.00, -0.00, -1.00, 246.4, 528.7)">r</text><text xml:space="preserve" font-family="Aller,Aller" font-size="31.5" fill="#A7D3A9" transform="matrix(1.00, 0.00, -0.00, -1.00, 257.6, 528.7)">c</text><text xml:space="preserve" font-family="Aller,Aller" font-size="31.5" fill="#A7D3A9" transform="matrix(1.00, 0.00, -0.00, -1.00, 272.2, 528.7)">e</text><text xml:space="preserve" font-family="Aller,Aller" font-size="31.5" fill="#A7D3A9" transform="matrix(1.00, 0.00, -0.00, -1.00, 289.8, 528.7)"> </text><text xml:space="preserve" font-family="Aller,Aller" font-size="23.7" fill="#FEFFFF" transform="matrix(1.00, 0.00, -0.00, -1.00, 114.0, 457.7)">•</text><text xml:space="preserve" font-family="Aller,Aller" font-size="31.5" fill="#FEFFFF" transform="matrix(1.00, 0.00, -0.00, -1.00, 143.1, 454.8)">W</text><text xml:space="preserve" font-family="Aller,Aller" font-size="31.5" fill="#FEFFFF" transform="matrix(1.00, 0.00, -0.00, -1.00, 171.0, 454.8)">e</text><text xml:space="preserve" font-family="Aller,Aller" font-size="31.5" fill="#FEFFFF" transform="matrix(1.00, 0.00, -0.00, -1.00, 188.5, 454.8)"> </text><text xml:space="preserve" font-family="Aller,Aller" font-size="31.5" fill="#FEFFFF" transform="matrix(1.00, 0.00, -0.00, -1.00, 196.0, 454.8)">c</text><text xml:space="preserve" font-family="Aller,Aller" font-size="31.5" fill="#FEFFFF" transform="matrix(1.00, 0.00, -0.00, -1.00, 211.1, 454.8)">a</text><text xml:space="preserve" font-family="Aller,Aller" font-size="31.5" fill="#FEFFFF" transform="matrix(1.00, 0.00, -0.00, -1.00, 227.4, 454.8)">n</text><text xml:space="preserve" font-family="Aller,Aller" font-size="31.5" fill="#FEFFFF" transform="matrix(1.00, 0.00, -0.00, -1.00, 245.6, 454.8)"> </text><text xml:space="preserve" font-family="Aller,Aller" font-size="31.5" fill="#FEFFFF" transform="matrix(1.00, 0.00, -0.00, -1.00, 253.1, 454.8)">l</text><text xml:space="preserve" font-family="Aller,Aller" font-size="31.5" fill="#FEFFFF" transform="matrix(1.00, 0.00, -0.00, -1.00, 262.5, 454.8)">e</text><text xml:space="preserve" font-family="Aller,Aller" font-size="31.5" fill="#FEFFFF" transform="matrix(1.00, 0.00, -0.00, -1.00, 279.4, 454.8)">v</text><text xml:space="preserve" font-family="Aller,Aller" font-size="31.5" fill="#FEFFFF" transform="matrix(1.00, 0.00, -0.00, -1.00, 295.5, 454.8)">e</text><text xml:space="preserve" font-family="Aller,Aller" font-size="31.5" fill="#FEFFFF" transform="matrix(1.00, 0.00, -0.00, -1.00, 313.0, 454.8)">r</text><text xml:space="preserve" font-family="Aller,Aller" font-size="31.5" fill="#FEFFFF" transform="matrix(1.00, 0.00, -0.00, -1.00, 324.4, 454.8)">a</text><text xml:space="preserve" font-family="Aller,Aller" font-size="31.5" fill="#FEFFFF" transform="matrix(1.00, 0.00, -0.00, -1.00, 340.7, 454.8)">g</text><text xml:space="preserve" font-family="Aller,Aller" font-size="31.5" fill="#FEFFFF" transform="matrix(1.00, 0.00, -0.00, -1.00, 357.9, 454.8)">e</text><text xml:space="preserve" font-family="Aller,Aller" font-size="31.5" fill="#FEFFFF" transform="matrix(1.00, 0.00, -0.00, -1.00, 375.4, 454.8)"> </text><text xml:space="preserve" font-family="Aller,Aller" font-size="31.5" fill="#FEFFFF" transform="matrix(1.00, 0.00, -0.00, -1.00, 382.9, 454.8)">o</text><text xml:space="preserve" font-family="Aller,Aller" font-size="31.5" fill="#FEFFFF" transform="matrix(1.00, 0.00, -0.00, -1.00, 401.1, 454.8)">t</text><text xml:space="preserve" font-family="Aller,Aller" font-size="31.5" fill="#FEFFFF" transform="matrix(1.00, 0.00, -0.00, -1.00, 412.4, 454.8)">h</text><text xml:space="preserve" font-family="Aller,Aller" font-size="31.5" fill="#FEFFFF" transform="matrix(1.00, 0.00, -0.00, -1.00, 430.6, 454.8)">e</text><text xml:space="preserve" font-family="Aller,Aller" font-size="31.5" fill="#FEFFFF" transform="matrix(1.00, 0.00, -0.00, -1.00, 448.1, 454.8)">r</text><text xml:space="preserve" font-family="Aller,Aller" font-size="31.5" fill="#FEFFFF" transform="matrix(1.00, 0.00, -0.00, -1.00, 459.9, 454.8)"> </text><text xml:space="preserve" font-family="Aller,Aller" font-size="31.5" fill="#FEFFFF" transform="matrix(1.00, 0.00, -0.00, -1.00, 143.1, 415.8)">w</text><text xml:space="preserve" font-family="Aller,Aller" font-size="31.5" fill="#FEFFFF" transform="matrix(1.00, 0.00, -0.00, -1.00, 167.0, 415.8)">o</text><text xml:space="preserve" font-family="Aller,Aller" font-size="31.5" fill="#FEFFFF" transform="matrix(1.00, 0.00, -0.00, -1.00, 185.2, 415.8)">r</text><text xml:space="preserve" font-family="Aller,Aller" font-size="31.5" fill="#FEFFFF" transform="matrix(1.00, 0.00, -0.00, -1.00, 196.9, 415.8)">k</text><text xml:space="preserve" font-family="Aller,Aller" font-size="31.5" fill="#FEFFFF" transform="matrix(1.00, 0.00, -0.00, -1.00, 213.1, 415.8)"> </text><text xml:space="preserve" font-family="Aller,Aller" font-size="23.7" fill="#FEFFFF" transform="matrix(1.00, 0.00, -0.00, -1.00, 114.0, 344.9)">•</text><text xml:space="preserve" font-family="Aller,Aller" font-size="31.5" fill="#FEFFFF" transform="matrix(1.00, 0.00, -0.00, -1.00, 143.1, 342.0)">W</text><text xml:space="preserve" font-family="Aller,Aller" font-size="31.5" fill="#FEFFFF" transform="matrix(1.00, 0.00, -0.00, -1.00, 171.0, 342.0)">e</text><text xml:space="preserve" font-family="Aller,Aller" font-size="31.5" fill="#FEFFFF" transform="matrix(1.00, 0.00, -0.00, -1.00, 188.5, 342.0)"> </text><text xml:space="preserve" font-family="Aller,Aller" font-size="31.5" fill="#FEFFFF" transform="matrix(1.00, 0.00, -0.00, -1.00, 196.0, 342.0)">c</text><text xml:space="preserve" font-family="Aller,Aller" font-size="31.5" fill="#FEFFFF" transform="matrix(1.00, 0.00, -0.00, -1.00, 211.1, 342.0)">a</text><text xml:space="preserve" font-family="Aller,Aller" font-size="31.5" fill="#FEFFFF" transform="matrix(1.00, 0.00, -0.00, -1.00, 227.4, 342.0)">n</text><text xml:space="preserve" font-family="Aller,Aller" font-size="31.5" fill="#FEFFFF" transform="matrix(1.00, 0.00, -0.00, -1.00, 245.6, 342.0)"> </text><text xml:space="preserve" font-family="Aller,Aller" font-size="31.5" fill="#FEFFFF" transform="matrix(1.00, 0.00, -0.00, -1.00, 253.1, 342.0)">ﬁ</text><text xml:space="preserve" font-family="Aller,Aller" font-size="31.5" fill="#FEFFFF" transform="matrix(1.00, 0.00, -0.00, -1.00, 272.1, 342.0)">x</text><text xml:space="preserve" font-family="Aller,Aller" font-size="31.5" fill="#FEFFFF" transform="matrix(1.00, 0.00, -0.00, -1.00, 288.1, 342.0)"> </text><text xml:space="preserve" font-family="Aller,Aller" font-size="31.5" fill="#FEFFFF" transform="matrix(1.00, 0.00, -0.00, -1.00, 295.6, 342.0)">i</text><text xml:space="preserve" font-family="Aller,Aller" font-size="31.5" fill="#FEFFFF" transform="matrix(1.00, 0.00, -0.00, -1.00, 304.7, 342.0)">t</text><text xml:space="preserve" font-family="Aller,Aller" font-size="31.5" fill="#FEFFFF" transform="matrix(1.00, 0.00, -0.00, -1.00, 316.0, 342.0)">,</text><text xml:space="preserve" font-family="Aller,Aller" font-size="31.5" fill="#FEFFFF" transform="matrix(1.00, 0.00, -0.00, -1.00, 322.7, 342.0)"> </text><text xml:space="preserve" font-family="Aller,Aller" font-size="31.5" fill="#FEFFFF" transform="matrix(1.00, 0.00, -0.00, -1.00, 330.2, 342.0)">i</text><text xml:space="preserve" font-family="Aller,Aller" font-size="31.5" fill="#FEFFFF" transform="matrix(1.00, 0.00, -0.00, -1.00, 339.3, 342.0)">m</text><text xml:space="preserve" font-family="Aller,Aller" font-size="31.5" fill="#FEFFFF" transform="matrix(1.00, 0.00, -0.00, -1.00, 366.2, 342.0)">p</text><text xml:space="preserve" font-family="Aller,Aller" font-size="31.5" fill="#FEFFFF" transform="matrix(1.00, 0.00, -0.00, -1.00, 384.8, 342.0)">r</text><text xml:space="preserve" font-family="Aller,Aller" font-size="31.5" fill="#FEFFFF" transform="matrix(1.00, 0.00, -0.00, -1.00, 396.1, 342.0)">o</text><text xml:space="preserve" font-family="Aller,Aller" font-size="31.5" fill="#FEFFFF" transform="matrix(1.00, 0.00, -0.00, -1.00, 413.6, 342.0)">v</text><text xml:space="preserve" font-family="Aller,Aller" font-size="31.5" fill="#FEFFFF" transform="matrix(1.00, 0.00, -0.00, -1.00, 429.7, 342.0)">e</text><text xml:space="preserve" font-family="Aller,Aller" font-size="31.5" fill="#FEFFFF" transform="matrix(1.00, 0.00, -0.00, -1.00, 447.3, 342.0)"> </text><text xml:space="preserve" font-family="Aller,Aller" font-size="31.5" fill="#FEFFFF" transform="matrix(1.00, 0.00, -0.00, -1.00, 454.8, 342.0)">i</text><text xml:space="preserve" font-family="Aller,Aller" font-size="31.5" fill="#FEFFFF" transform="matrix(1.00, 0.00, -0.00, -1.00, 463.8, 342.0)">t</text><text xml:space="preserve" font-family="Aller,Aller" font-size="31.5" fill="#FEFFFF" transform="matrix(1.00, 0.00, -0.00, -1.00, 475.1, 342.0)"> </text><text xml:space="preserve" font-family="Aller,Aller" font-size="23.7" fill="#A7D3A9" transform="matrix(1.00, 0.00, -0.00, -1.00, 79.0, 271.0)">•</text><text xml:space="preserve" font-family="Aller,Aller" font-size="31.5" fill="#A7D3A9" transform="matrix(1.00, 0.00, -0.00, -1.00, 108.0, 268.1)">W</text><text xml:space="preserve" font-family="Aller,Aller" font-size="31.5" fill="#A7D3A9" transform="matrix(1.00, 0.00, -0.00, -1.00, 136.0, 268.1)">e</text><text xml:space="preserve" font-family="Aller,Aller" font-size="31.5" fill="#A7D3A9" transform="matrix(1.00, 0.00, -0.00, -1.00, 153.5, 268.1)"> </text><text xml:space="preserve" font-family="Aller,Aller" font-size="31.5" fill="#A7D3A9" transform="matrix(1.00, 0.00, -0.00, -1.00, 161.0, 268.1)">c</text><text xml:space="preserve" font-family="Aller,Aller" font-size="31.5" fill="#A7D3A9" transform="matrix(1.00, 0.00, -0.00, -1.00, 176.1, 268.1)">a</text><text xml:space="preserve" font-family="Aller,Aller" font-size="31.5" fill="#A7D3A9" transform="matrix(1.00, 0.00, -0.00, -1.00, 192.4, 268.1)">n</text><text xml:space="preserve" font-family="Aller,Aller" font-size="31.5" fill="#A7D3A9" transform="matrix(1.00, 0.00, -0.00, -1.00, 210.6, 268.1)"> </text><text xml:space="preserve" font-family="Aller,Aller" font-size="31.5" fill="#A7D3A9" transform="matrix(1.00, 0.00, -0.00, -1.00, 218.1, 268.1)">b</text><text xml:space="preserve" font-family="Aller,Aller" font-size="31.5" fill="#A7D3A9" transform="matrix(1.00, 0.00, -0.00, -1.00, 236.7, 268.1)">r</text><text xml:space="preserve" font-family="Aller,Aller" font-size="31.5" fill="#A7D3A9" transform="matrix(1.00, 0.00, -0.00, -1.00, 248.4, 268.1)">i</text><text xml:space="preserve" font-family="Aller,Aller" font-size="31.5" fill="#A7D3A9" transform="matrix(1.00, 0.00, -0.00, -1.00, 257.5, 268.1)">n</text><text xml:space="preserve" font-family="Aller,Aller" font-size="31.5" fill="#A7D3A9" transform="matrix(1.00, 0.00, -0.00, -1.00, 275.7, 268.1)">g</text><text xml:space="preserve" font-family="Aller,Aller" font-size="31.5" fill="#A7D3A9" transform="matrix(1.00, 0.00, -0.00, -1.00, 293.2, 268.1)"> </text><text xml:space="preserve" font-family="Aller,Aller" font-size="31.5" fill="#A7D3A9" transform="matrix(1.00, 0.00, -0.00, -1.00, 300.6, 268.1)">i</text><text xml:space="preserve" font-family="Aller,Aller" font-size="31.5" fill="#A7D3A9" transform="matrix(1.00, 0.00, -0.00, -1.00, 309.7, 268.1)">n</text><text xml:space="preserve" font-family="Aller,Aller" font-size="31.5" fill="#A7D3A9" transform="matrix(1.00, 0.00, -0.00, -1.00, 327.9, 268.1)"> </text><text xml:space="preserve" font-family="Aller,Aller" font-size="31.5" fill="#A7D3A9" transform="matrix(1.00, 0.00, -0.00, -1.00, 335.4, 268.1)">p</text><text xml:space="preserve" font-family="Aller,Aller" font-size="31.5" fill="#A7D3A9" transform="matrix(1.00, 0.00, -0.00, -1.00, 354.0, 268.1)">a</text><text xml:space="preserve" font-family="Aller,Aller" font-size="31.5" fill="#A7D3A9" transform="matrix(1.00, 0.00, -0.00, -1.00, 370.3, 268.1)">r</text><text xml:space="preserve" font-family="Aller,Aller" font-size="31.5" fill="#A7D3A9" transform="matrix(1.00, 0.00, -0.00, -1.00, 382.1, 268.1)">t</text><text xml:space="preserve" font-family="Aller,Aller" font-size="31.5" fill="#A7D3A9" transform="matrix(1.00, 0.00, -0.00, -1.00, 393.4, 268.1)">n</text><text xml:space="preserve" font-family="Aller,Aller" font-size="31.5" fill="#A7D3A9" transform="matrix(1.00, 0.00, -0.00, -1.00, 411.6, 268.1)">e</text><text xml:space="preserve" font-family="Aller,Aller" font-size="31.5" fill="#A7D3A9" transform="matrix(1.00, 0.00, -0.00, -1.00, 429.1, 268.1)">r</text><text xml:space="preserve" font-family="Aller,Aller" font-size="31.5" fill="#A7D3A9" transform="matrix(1.00, 0.00, -0.00, -1.00, 440.5, 268.1)">s</text><text xml:space="preserve" font-family="Aller,Aller" font-size="31.5" fill="#A7D3A9" transform="matrix(1.00, 0.00, -0.00, -1.00, 454.9, 268.1)"> </text><text xml:space="preserve" font-family="Aller,Aller" font-size="23.7" fill="#A7D3A9" transform="matrix(1.00, 0.00, -0.00, -1.00, 79.0, 197.2)">•</text><text xml:space="preserve" font-family="Aller,Aller" font-size="31.5" fill="#A7D3A9" transform="matrix(1.00, 0.00, -0.00, -1.00, 108.0, 194.2)">S</text><text xml:space="preserve" font-family="Aller,Aller" font-size="31.5" fill="#A7D3A9" transform="matrix(1.00, 0.00, -0.00, -1.00, 125.2, 194.2)">c</text><text xml:space="preserve" font-family="Aller,Aller" font-size="31.5" fill="#A7D3A9" transform="matrix(1.00, 0.00, -0.00, -1.00, 140.3, 194.2)">a</text><text xml:space="preserve" font-family="Aller,Aller" font-size="31.5" fill="#A7D3A9" transform="matrix(1.00, 0.00, -0.00, -1.00, 156.6, 194.2)">l</text><text xml:space="preserve" font-family="Aller,Aller" font-size="31.5" fill="#A7D3A9" transform="matrix(1.00, 0.00, -0.00, -1.00, 166.0, 194.2)">a</text><text xml:space="preserve" font-family="Aller,Aller" font-size="31.5" fill="#A7D3A9" transform="matrix(1.00, 0.00, -0.00, -1.00, 182.3, 194.2)">b</text><text xml:space="preserve" font-family="Aller,Aller" font-size="31.5" fill="#A7D3A9" transform="matrix(1.00, 0.00, -0.00, -1.00, 200.9, 194.2)">l</text><text xml:space="preserve" font-family="Aller,Aller" font-size="31.5" fill="#A7D3A9" transform="matrix(1.00, 0.00, -0.00, -1.00, 210.3, 194.2)">e</text><text xml:space="preserve" font-family="Aller,Aller" font-size="31.5" fill="#A7D3A9" transform="matrix(1.00, 0.00, -0.00, -1.00, 227.9, 194.2)"> </text><text xml:space="preserve" font-family="Aller,Aller" font-size="23.7" fill="#A7D3A9" transform="matrix(1.00, 0.00, -0.00, -1.00, 79.0, 123.3)">•</text><text xml:space="preserve" font-family="Aller,Aller" font-size="31.5" fill="#A7D3A9" transform="matrix(1.00, 0.00, -0.00, -1.00, 108.0, 120.4)">S</text><text xml:space="preserve" font-family="Aller,Aller" font-size="31.5" fill="#A7D3A9" transform="matrix(1.00, 0.00, -0.00, -1.00, 125.2, 120.4)">o</text><text xml:space="preserve" font-family="Aller,Aller" font-size="31.5" fill="#A7D3A9" transform="matrix(1.00, 0.00, -0.00, -1.00, 143.4, 120.4)">l</text><text xml:space="preserve" font-family="Aller,Aller" font-size="31.5" fill="#A7D3A9" transform="matrix(1.00, 0.00, -0.00, -1.00, 152.4, 120.4)">v</text><text xml:space="preserve" font-family="Aller,Aller" font-size="31.5" fill="#A7D3A9" transform="matrix(1.00, 0.00, -0.00, -1.00, 169.1, 120.4)">i</text><text xml:space="preserve" font-family="Aller,Aller" font-size="31.5" fill="#A7D3A9" transform="matrix(1.00, 0.00, -0.00, -1.00, 178.2, 120.4)">n</text><text xml:space="preserve" font-family="Aller,Aller" font-size="31.5" fill="#A7D3A9" transform="matrix(1.00, 0.00, -0.00, -1.00, 196.4, 120.4)">g</text><text xml:space="preserve" font-family="Aller,Aller" font-size="31.5" fill="#A7D3A9" transform="matrix(1.00, 0.00, -0.00, -1.00, 213.9, 120.4)"> </text><text xml:space="preserve" font-family="Aller,Aller" font-size="31.5" fill="#A7D3A9" transform="matrix(1.00, 0.00, -0.00, -1.00, 221.3, 120.4)">s</text><text xml:space="preserve" font-family="Aller,Aller" font-size="31.5" fill="#A7D3A9" transform="matrix(1.00, 0.00, -0.00, -1.00, 235.7, 120.4)">p</text><text xml:space="preserve" font-family="Aller,Aller" font-size="31.5" fill="#A7D3A9" transform="matrix(1.00, 0.00, -0.00, -1.00, 254.3, 120.4)">e</text><text xml:space="preserve" font-family="Aller,Aller" font-size="31.5" fill="#A7D3A9" transform="matrix(1.00, 0.00, -0.00, -1.00, 271.8, 120.4)">c</text><text xml:space="preserve" font-family="Aller,Aller" font-size="31.5" fill="#A7D3A9" transform="matrix(1.00, 0.00, -0.00, -1.00, 286.9, 120.4)">i</text><text xml:space="preserve" font-family="Aller,Aller" font-size="31.5" fill="#A7D3A9" transform="matrix(1.00, 0.00, -0.00, -1.00, 296.0, 120.4)">ﬁ</text><text xml:space="preserve" font-family="Aller,Aller" font-size="31.5" fill="#A7D3A9" transform="matrix(1.00, 0.00, -0.00, -1.00, 315.0, 120.4)">c</text><text xml:space="preserve" font-family="Aller,Aller" font-size="31.5" fill="#A7D3A9" transform="matrix(1.00, 0.00, -0.00, -1.00, 330.1, 120.4)"> </text><text xml:space="preserve" font-family="Aller,Aller" font-size="31.5" fill="#A7D3A9" transform="matrix(1.00, 0.00, -0.00, -1.00, 337.6, 120.4)">u</text><text xml:space="preserve" font-family="Aller,Aller" font-size="31.5" fill="#A7D3A9" transform="matrix(1.00, 0.00, -0.00, -1.00, 355.7, 120.4)">n</text><text xml:space="preserve" font-family="Aller,Aller" font-size="31.5" fill="#A7D3A9" transform="matrix(1.00, 0.00, -0.00, -1.00, 373.9, 120.4)">s</text><text xml:space="preserve" font-family="Aller,Aller" font-size="31.5" fill="#A7D3A9" transform="matrix(1.00, 0.00, -0.00, -1.00, 388.3, 120.4)">o</text><text xml:space="preserve" font-family="Aller,Aller" font-size="31.5" fill="#A7D3A9" transform="matrix(1.00, 0.00, -0.00, -1.00, 406.4, 120.4)">l</text><text xml:space="preserve" font-family="Aller,Aller" font-size="31.5" fill="#A7D3A9" transform="matrix(1.00, 0.00, -0.00, -1.00, 415.4, 120.4)">v</text><text xml:space="preserve" font-family="Aller,Aller" font-size="31.5" fill="#A7D3A9" transform="matrix(1.00, 0.00, -0.00, -1.00, 431.5, 120.4)">e</text><text xml:space="preserve" font-family="Aller,Aller" font-size="31.5" fill="#A7D3A9" transform="matrix(1.00, 0.00, -0.00, -1.00, 449.0, 120.4)">d</text><text xml:space="preserve" font-family="Aller,Aller" font-size="31.5" fill="#A7D3A9" transform="matrix(1.00, 0.00, -0.00, -1.00, 467.5, 120.4)"> </text><text xml:space="preserve" font-family="Aller,Aller" font-size="31.5" fill="#A7D3A9" transform="matrix(1.00, 0.00, -0.00, -1.00, 108.0, 81.4)">p</text><text xml:space="preserve" font-family="Aller,Aller" font-size="31.5" fill="#A7D3A9" transform="matrix(1.00, 0.00, -0.00, -1.00, 126.7, 81.4)">r</text><text xml:space="preserve" font-family="Aller,Aller" font-size="31.5" fill="#A7D3A9" transform="matrix(1.00, 0.00, -0.00, -1.00, 137.9, 81.4)">o</text><text xml:space="preserve" font-family="Aller,Aller" font-size="31.5" fill="#A7D3A9" transform="matrix(1.00, 0.00, -0.00, -1.00, 156.1, 81.4)">b</text><text xml:space="preserve" font-family="Aller,Aller" font-size="31.5" fill="#A7D3A9" transform="matrix(1.00, 0.00, -0.00, -1.00, 174.7, 81.4)">l</text><text xml:space="preserve" font-family="Aller,Aller" font-size="31.5" fill="#A7D3A9" transform="matrix(1.00, 0.00, -0.00, -1.00, 184.1, 81.4)">e</text><text xml:space="preserve" font-family="Aller,Aller" font-size="31.5" fill="#A7D3A9" transform="matrix(1.00, 0.00, -0.00, -1.00, 201.7, 81.4)">m</text><text xml:space="preserve" font-family="Aller,Aller" font-size="31.5" fill="#A7D3A9" transform="matrix(1.00, 0.00, -0.00, -1.00, 228.6, 81.4)">s</text><image xlink:href="8C33E79FFF4E26FB98BDC12C3A51AC5E.png" width="500.00" height="375.00" transform="matrix(0.83, 0.00, -0.00, -0.83, 579.0, 496.0)"></image><text xml:space="preserve" font-family="Helvetica-Light,Helvetica" font-size="18.0" fill="#FEFFFF" transform="matrix(1.00, 0.00, -0.00, -1.00, 582.3, 79.3)">h</text><text xml:space="preserve" font-family="Helvetica-Light,Helvetica" font-size="18.0" fill="#FEFFFF" transform="matrix(1.00, 0.00, -0.00, -1.00, 592.3, 79.3)">t</text><text xml:space="preserve" font-family="Helvetica-Light,Helvetica" font-size="18.0" fill="#FEFFFF" transform="matrix(1.00, 0.00, -0.00, -1.00, 597.3, 79.3)">t</text><text xml:space="preserve" font-family="Helvetica-Light,Helvetica" font-size="18.0" fill="#FEFFFF" transform="matrix(1.00, 0.00, -0.00, -1.00, 602.3, 79.3)">p</text><text xml:space="preserve" font-family="Helvetica-Light,Helvetica" font-size="18.0" fill="#FEFFFF" transform="matrix(1.00, 0.00, -0.00, -1.00, 613.3, 79.3)">:</text><text xml:space="preserve" font-family="Helvetica-Light,Helvetica" font-size="18.0" fill="#FEFFFF" transform="matrix(1.00, 0.00, -0.00, -1.00, 618.3, 79.3)">/</text><text xml:space="preserve" font-family="Helvetica-Light,Helvetica" font-size="18.0" fill="#FEFFFF" transform="matrix(1.00, 0.00, -0.00, -1.00, 623.3, 79.3)">/</text><text xml:space="preserve" font-family="Helvetica-Light,Helvetica" font-size="18.0" fill="#FEFFFF" transform="matrix(1.00, 0.00, -0.00, -1.00, 628.3, 79.3)">w</text><text xml:space="preserve" font-family="Helvetica-Light,Helvetica" font-size="18.0" fill="#FEFFFF" transform="matrix(1.00, 0.00, -0.00, -1.00, 641.3, 79.3)">w</text><text xml:space="preserve" font-family="Helvetica-Light,Helvetica" font-size="18.0" fill="#FEFFFF" transform="matrix(1.00, 0.00, -0.00, -1.00, 654.3, 79.3)">w</text><text xml:space="preserve" font-family="Helvetica-Light,Helvetica" font-size="18.0" fill="#FEFFFF" transform="matrix(1.00, 0.00, -0.00, -1.00, 666.3, 79.3)">.</text><text xml:space="preserve" font-family="Helvetica-Light,Helvetica" font-size="18.0" fill="#FEFFFF" transform="matrix(1.00, 0.00, -0.00, -1.00, 671.3, 79.3)">m</text><text xml:space="preserve" font-family="Helvetica-Light,Helvetica" font-size="18.0" fill="#FEFFFF" transform="matrix(1.00, 0.00, -0.00, -1.00, 686.3, 79.3)">o</text><text xml:space="preserve" font-family="Helvetica-Light,Helvetica" font-size="18.0" fill="#FEFFFF" transform="matrix(1.00, 0.00, -0.00, -1.00, 696.3, 79.3)">c</text><text xml:space="preserve" font-family="Helvetica-Light,Helvetica" font-size="18.0" fill="#FEFFFF" transform="matrix(1.00, 0.00, -0.00, -1.00, 706.3, 79.3)">p</text><text xml:space="preserve" font-family="Helvetica-Light,Helvetica" font-size="18.0" fill="#FEFFFF" transform="matrix(1.00, 0.00, -0.00, -1.00, 717.3, 79.3)">a</text><text xml:space="preserve" font-family="Helvetica-Light,Helvetica" font-size="18.0" fill="#FEFFFF" transform="matrix(1.00, 0.00, -0.00, -1.00, 727.3, 79.3)">g</text><text xml:space="preserve" font-family="Helvetica-Light,Helvetica" font-size="18.0" fill="#FEFFFF" transform="matrix(1.00, 0.00, -0.00, -1.00, 738.3, 79.3)">e</text><text xml:space="preserve" font-family="Helvetica-Light,Helvetica" font-size="18.0" fill="#FEFFFF" transform="matrix(1.00, 0.00, -0.00, -1.00, 748.3, 79.3)">s</text><text xml:space="preserve" font-family="Helvetica-Light,Helvetica" font-size="18.0" fill="#FEFFFF" transform="matrix(1.00, 0.00, -0.00, -1.00, 757.3, 79.3)">.</text><text xml:space="preserve" font-family="Helvetica-Light,Helvetica" font-size="18.0" fill="#FEFFFF" transform="matrix(1.00, 0.00, -0.00, -1.00, 762.3, 79.3)">c</text><text xml:space="preserve" font-family="Helvetica-Light,Helvetica" font-size="18.0" fill="#FEFFFF" transform="matrix(1.00, 0.00, -0.00, -1.00, 772.3, 79.3)">o</text><text xml:space="preserve" font-family="Helvetica-Light,Helvetica" font-size="18.0" fill="#FEFFFF" transform="matrix(1.00, 0.00, -0.00, -1.00, 782.3, 79.3)">m</text><text xml:space="preserve" font-family="Helvetica-Light,Helvetica" font-size="18.0" fill="#FEFFFF" transform="matrix(1.00, 0.00, -0.00, -1.00, 797.3, 79.3)">/</text><text xml:space="preserve" font-family="Helvetica-Light,Helvetica" font-size="18.0" fill="#FEFFFF" transform="matrix(1.00, 0.00, -0.00, -1.00, 802.3, 79.3)">m</text><text xml:space="preserve" font-family="Helvetica-Light,Helvetica" font-size="18.0" fill="#FEFFFF" transform="matrix(1.00, 0.00, -0.00, -1.00, 817.3, 79.3)">o</text><text xml:space="preserve" font-family="Helvetica-Light,Helvetica" font-size="18.0" fill="#FEFFFF" transform="matrix(1.00, 0.00, -0.00, -1.00, 827.3, 79.3)">c</text><text xml:space="preserve" font-family="Helvetica-Light,Helvetica" font-size="18.0" fill="#FEFFFF" transform="matrix(1.00, 0.00, -0.00, -1.00, 837.3, 79.3)">.</text><text xml:space="preserve" font-family="Helvetica-Light,Helvetica" font-size="18.0" fill="#FEFFFF" transform="matrix(1.00, 0.00, -0.00, -1.00, 842.3, 79.3)">p</text><text xml:space="preserve" font-family="Helvetica-Light,Helvetica" font-size="18.0" fill="#FEFFFF" transform="matrix(1.00, 0.00, -0.00, -1.00, 853.3, 79.3)">h</text><text xml:space="preserve" font-family="Helvetica-Light,Helvetica" font-size="18.0" fill="#FEFFFF" transform="matrix(1.00, 0.00, -0.00, -1.00, 863.3, 79.3)">p</text><text xml:space="preserve" font-family="Helvetica-Light,Helvetica" font-size="18.0" fill="#FEFFFF" transform="matrix(1.00, 0.00, -0.00, -1.00, 874.3, 79.3)">/</text><text xml:space="preserve" font-family="Helvetica-Light,Helvetica" font-size="18.0" fill="#FEFFFF" transform="matrix(1.00, 0.00, -0.00, -1.00, 879.3, 79.3)">2</text><text xml:space="preserve" font-family="Helvetica-Light,Helvetica" font-size="18.0" fill="#FEFFFF" transform="matrix(1.00, 0.00, -0.00, -1.00, 889.4, 79.3)">6</text><text xml:space="preserve" font-family="Helvetica-Light,Helvetica" font-size="18.0" fill="#FEFFFF" transform="matrix(1.00, 0.00, -0.00, -1.00, 899.4, 79.3)">4</text><text xml:space="preserve" font-family="Helvetica-Light,Helvetica" font-size="18.0" fill="#FEFFFF" transform="matrix(1.00, 0.00, -0.00, -1.00, 909.4, 79.3)">5</text><text xml:space="preserve" font-family="Helvetica-Light,Helvetica" font-size="18.0" fill="#FEFFFF" transform="matrix(1.00, 0.00, -0.00, -1.00, 919.4, 79.3)">6</text><text xml:space="preserve" font-family="Helvetica-Light,Helvetica" font-size="18.0" fill="#FEFFFF" transform="matrix(1.00, 0.00, -0.00, -1.00, 929.4, 79.3)">6</text></g></svg>