<?xml version="1.0" encoding="UTF-8" standalone="no"?><svg xmlns="http://www.w3.org/2000/svg" xmlns:xlink="http://www.w3.org/1999/xlink" clip-rule="evenodd" stroke-miterlimit="10" viewBox="0 0 1024 768"><desc>SVG generated by Keynote</desc><defs></defs><g transform="matrix(1.00, 0.00, -0.00, -1.00, 0.0, 768.0)"><path d="M 0.0 768.0 L 1024.0 768.0 L 1024.0 0.0 L 0.0 0.0 Z M 0.0 768.0 " fill="#000000"></path><text xml:space="preserve" font-family="Aller,Aller" font-size="80.0" fill="#D5D5D5" transform="matrix(1.00, 0.00, -0.00, -1.00, 130.9, 635.0)">O</text><text xml:space="preserve" font-family="Aller,Aller" font-size="80.0" fill="#D5D5D5" transform="matrix(1.00, 0.00, -0.00, -1.00, 189.2, 635.0)">p</text><text xml:space="preserve" font-family="Aller,Aller" font-size="80.0" fill="#D5D5D5" transform="matrix(1.00, 0.00, -0.00, -1.00, 236.4, 635.0)">e</text><text xml:space="preserve" font-family="Aller,Aller" font-size="80.0" fill="#D5D5D5" transform="matrix(1.00, 0.00, -0.00, -1.00, 280.9, 635.0)">n</text><text xml:space="preserve" font-family="Aller,Aller" font-size="80.0" fill="#D5D5D5" transform="matrix(1.00, 0.00, -0.00, -1.00, 327.1, 635.0)">D</text><text xml:space="preserve" font-family="Aller,Aller" font-size="80.0" fill="#D5D5D5" transform="matrix(1.00, 0.00, -0.00, -1.00, 383.0, 635.0)">r</text><text xml:space="preserve" font-family="Aller,Aller" font-size="80.0" fill="#D5D5D5" transform="matrix(1.00, 0.00, -0.00, -1.00, 411.6, 635.0)">o</text><text xml:space="preserve" font-family="Aller,Aller" font-size="80.0" fill="#D5D5D5" transform="matrix(1.00, 0.00, -0.00, -1.00, 457.8, 635.0)">n</text><text xml:space="preserve" font-family="Aller,Aller" font-size="80.0" fill="#D5D5D5" transform="matrix(1.00, 0.00, -0.00, -1.00, 504.0, 635.0)">e</text><text xml:space="preserve" font-family="Aller,Aller" font-size="80.0" fill="#D5D5D5" transform="matrix(1.00, 0.00, -0.00, -1.00, 548.5, 635.0)">M</text><text xml:space="preserve" font-family="Aller,Aller" font-size="80.0" fill="#D5D5D5" transform="matrix(1.00, 0.00, -0.00, -1.00, 613.8, 635.0)">a</text><text xml:space="preserve" font-family="Aller,Aller" font-size="80.0" fill="#D5D5D5" transform="matrix(1.00, 0.00, -0.00, -1.00, 655.1, 635.0)">p</text><text xml:space="preserve" font-family="Aller,Aller" font-size="80.0" fill="#D5D5D5" transform="matrix(1.00, 0.00, -0.00, -1.00, 702.3, 635.0)"> </text><text xml:space="preserve" font-family="Aller,Aller" font-size="80.0" fill="#A7D3A9" transform="matrix(1.00, 0.00, -0.00, -1.00, 721.3, 635.0)">I</text><text xml:space="preserve" font-family="Aller,Aller" font-size="80.0" fill="#A7D3A9" transform="matrix(1.00, 0.00, -0.00, -1.00, 743.5, 635.0)">n</text><text xml:space="preserve" font-family="Aller,Aller" font-size="80.0" fill="#A7D3A9" transform="matrix(1.00, 0.00, -0.00, -1.00, 789.8, 635.0)">t</text><text xml:space="preserve" font-family="Aller,Aller" font-size="80.0" fill="#A7D3A9" transform="matrix(1.00, 0.00, -0.00, -1.00, 818.4, 635.0)">r</text><text xml:space="preserve" font-family="Aller,Aller" font-size="80.0" fill="#A7D3A9" transform="matrix(1.00, 0.00, -0.00, -1.00, 847.0, 635.0)">o</text><image xlink:href="../../E25DB6C8-A4AA-4407-A9CC-A5516FB62B7A/assets/0498D88000B3B7DF126AEC2448B8ACDA.png" width="1280.00" height="720.00" transform="matrix(0.80, 0.00, -0.00, -0.80, 0.0, 587.0)"></image><g><clipPath id="clip0x608000abce00"><path d="M 951.0 759.7 L 1013.9 759.7 L 1013.9 680.0 L 951.0 680.0 Z M 951.0 759.7 "></path></clipPath><g clip-path="url(#clip0x608000abce00)"><g><clipPath id="clip0x608000aba340"><path d="M 951.0 680.0 L 1014.0 680.0 L 1014.0 760.0 L 951.0 760.0 Z M 951.0 680.0 "></path></clipPath><g clip-path="url(#clip0x608000aba340)"><path d="M 951.0 682.7 L 978.1 682.7 L 978.1 680.0 L 951.0 680.0 Z M 951.0 682.7 " fill="#FFFEFE"></path></g></g></g></g><g><clipPath id="clip0x608000abdb80"><path d="M 951.0 680.0 L 1014.0 680.0 L 1014.0 760.0 L 951.0 760.0 Z M 951.0 680.0 "></path></clipPath><g clip-path="url(#clip0x608000abdb80)"><path d="M 982.6 749.0 C 984.0 748.9 985.2 750.0 985.3 751.4 C 985.3 752.8 984.2 754.0 982.7 754.1 C 981.3 754.1 980.1 753.0 980.1 751.6 C 980.1 750.2 981.2 749.0 982.6 749.0 " fill="#FFFEFE"></path><path d="M 977.8 749.8 C 978.3 749.8 979.7 749.5 980.7 748.8 C 981.7 748.0 982.8 746.5 982.9 746.3 C 982.9 746.5 984.0 748.0 984.4 748.4 C 985.2 749.0 986.0 749.6 988.0 749.8 L 988.0 747.1 C 987.6 747.1 986.8 746.9 986.2 746.3 C 985.5 745.8 984.7 744.7 984.5 743.9 C 984.3 743.1 984.2 742.5 984.2 742.0 L 984.3 736.8 L 981.5 736.8 L 981.6 742.0 C 981.6 742.5 981.5 743.5 981.2 744.0 C 981.0 744.5 980.4 745.8 979.4 746.5 C 979.0 746.7 978.6 747.1 977.8 747.1 L 977.8 749.8 " fill="#FFFEFE"></path><path d="M 982.8 756.6 C 982.9 756.5 985.2 755.0 987.1 753.1 C 987.7 752.5 989.3 750.6 989.3 748.2 C 989.3 746.1 988.1 744.6 988.0 744.5 C 987.5 743.9 985.9 742.6 984.9 742.5 L 984.9 739.8 C 986.1 740.0 988.1 740.8 989.3 741.9 C 990.4 743.0 991.3 744.4 991.8 746.1 C 992.3 748.1 991.9 750.4 991.3 751.7 C 990.4 753.5 989.0 755.1 987.2 756.5 L 982.8 759.7 L 978.4 756.5 C 976.7 755.1 975.2 753.4 974.4 751.7 C 973.8 750.4 973.5 748.1 974.0 746.1 C 974.4 744.4 975.3 743.0 976.5 741.9 C 977.6 740.7 979.7 740.0 980.8 739.8 L 980.8 742.5 C 979.9 742.6 978.2 743.9 977.7 744.4 C 977.6 744.6 976.4 746.1 976.4 748.2 C 976.4 750.6 978.0 752.5 978.6 753.1 C 980.5 755.0 982.8 756.5 982.8 756.6 " fill="#FFFEFE"></path><path d="M 970.2 734.5 C 970.2 735.0 969.9 735.2 969.4 735.2 C 968.9 735.2 968.6 734.8 968.6 733.9 C 968.6 733.3 968.7 732.7 969.5 732.7 C 969.9 732.7 970.2 733.0 970.2 733.4 L 971.7 733.4 C 971.5 732.3 970.7 731.6 969.5 731.6 C 968.0 731.6 967.1 732.5 967.1 734.0 C 967.1 735.4 968.1 736.4 969.4 736.4 C 970.7 736.4 971.5 735.7 971.6 734.5 L 970.2 734.5 " fill="#FFFEFE"></path><path d="M 972.0 736.2 L 973.3 736.2 L 973.3 731.7 L 972.0 731.7 Z M 972.0 736.2 " fill="#FFFEFE"></path><path d="M 975.0 733.0 C 975.0 732.6 975.3 732.4 975.6 732.4 C 975.8 732.4 976.0 732.5 976.1 732.7 L 977.4 732.7 C 977.1 731.9 976.3 731.6 975.5 731.6 C 974.5 731.6 973.7 732.2 973.7 733.3 C 973.7 734.4 974.5 735.1 975.5 735.1 C 976.8 735.1 977.5 734.2 977.5 733.0 L 975.0 733.0 Z M 976.2 733.7 C 976.2 734.0 975.9 734.3 975.6 734.3 C 975.2 734.3 975.0 734.1 975.0 733.7 L 976.2 733.7 " fill="#FFFEFE"></path><path d="M 977.5 735.0 L 978.8 735.0 L 979.3 732.9 L 979.9 735.0 L 981.2 735.0 L 980.1 731.7 L 978.6 731.7 L 977.5 735.0 " fill="#FFFEFE"></path><path d="M 982.3 733.0 C 982.3 732.6 982.6 732.4 983.0 732.4 C 983.2 732.4 983.4 732.5 983.4 732.7 L 984.7 732.7 C 984.5 731.9 983.6 731.6 982.9 731.6 C 981.8 731.6 981.0 732.2 981.0 733.3 C 981.0 734.4 981.8 735.1 982.9 735.1 C 984.1 735.1 984.8 734.2 984.8 733.0 L 982.3 733.0 Z M 983.5 733.7 C 983.5 734.0 983.2 734.3 982.9 734.3 C 982.5 734.3 982.3 734.1 982.3 733.7 L 983.5 733.7 " fill="#FFFEFE"></path><path d="M 985.1 736.2 L 986.4 736.2 L 986.4 731.7 L 985.1 731.7 Z M 985.1 736.2 " fill="#FFFEFE"></path><path d="M 989.2 731.7 L 989.1 732.0 C 988.8 731.7 988.4 731.6 987.9 731.6 C 987.3 731.6 986.7 731.9 986.7 732.6 C 986.7 734.1 989.1 733.4 989.1 734.0 C 989.1 734.3 988.8 734.3 988.6 734.3 C 988.5 734.3 988.2 734.3 988.2 734.0 L 986.9 734.0 C 986.9 734.7 987.4 735.1 988.7 735.1 C 990.3 735.1 990.4 734.5 990.4 733.7 L 990.4 732.2 C 990.4 732.0 990.4 731.9 990.5 731.7 L 990.5 731.7 L 989.2 731.7 Z M 989.1 733.1 C 988.6 732.9 988.1 733.0 988.1 732.6 C 988.1 732.4 988.2 732.3 988.5 732.3 C 988.9 732.3 989.1 732.7 989.1 733.1 " fill="#FFFEFE"></path><path d="M 990.9 735.0 L 992.1 735.0 L 992.1 734.5 C 992.4 734.9 992.7 735.1 993.2 735.1 C 994.1 735.1 994.5 734.6 994.5 733.7 L 994.5 731.7 L 993.2 731.7 L 993.2 733.4 C 993.2 733.8 993.1 734.1 992.7 734.1 C 992.3 734.1 992.2 733.8 992.2 733.4 L 992.2 731.7 L 990.9 731.7 L 990.9 735.0 " fill="#FFFEFE"></path><path d="M 997.3 731.7 L 997.3 732.1 C 996.9 731.7 996.7 731.6 996.2 731.6 C 995.2 731.6 994.7 732.3 994.7 733.3 C 994.7 734.4 995.4 735.1 996.1 735.1 C 996.6 735.1 996.8 735.0 997.1 734.7 L 997.1 736.2 L 998.4 736.2 L 998.4 731.7 L 997.3 731.7 Z M 997.2 733.3 C 997.2 733.7 997.0 734.1 996.6 734.1 C 996.2 734.1 996.1 733.7 996.1 733.3 C 996.1 732.9 996.1 732.5 996.6 732.5 C 997.0 732.5 997.2 732.9 997.2 733.3 " fill="#FFFEFE"></path><path d="M 964.8 726.1 L 964.8 730.6 L 966.6 730.6 L 967.4 727.8 L 968.2 730.6 L 970.0 730.6 L 970.0 726.1 L 968.6 726.1 L 968.6 727.5 L 968.6 728.2 L 968.7 729.0 L 968.7 729.0 L 967.9 726.1 L 966.9 726.1 L 966.0 729.0 L 966.0 729.0 L 966.1 728.3 L 966.1 727.6 L 966.1 726.1 L 964.8 726.1 " fill="#FFFEFE"></path><path d="M 971.5 727.4 C 971.5 727.0 971.8 726.8 972.2 726.8 C 972.4 726.8 972.6 726.9 972.7 727.1 L 973.9 727.1 C 973.7 726.2 972.9 726.0 972.1 726.0 C 971.1 726.0 970.2 726.6 970.2 727.7 C 970.2 728.8 971.1 729.5 972.1 729.5 C 973.3 729.5 974.1 728.6 974.0 727.4 L 971.5 727.4 Z M 972.7 728.1 C 972.7 728.4 972.5 728.7 972.2 728.7 C 971.8 728.7 971.5 728.5 971.5 728.1 L 972.7 728.1 " fill="#FFFEFE"></path><path d="M 976.5 726.1 C 974.8 726.0 974.6 726.1 974.6 727.2 L 974.6 728.6 L 974.1 728.6 L 974.1 729.4 L 974.6 729.4 L 974.6 730.4 L 975.9 730.4 L 975.9 729.4 L 976.5 729.4 L 976.5 728.6 L 975.9 728.6 L 975.9 727.4 C 975.9 727.1 975.9 727.0 976.3 727.0 L 976.5 727.0 L 976.5 726.1 " fill="#FFFEFE"></path><path d="M 976.8 729.4 L 978.0 729.4 L 978.0 728.7 L 978.0 728.7 C 978.2 729.2 978.5 729.5 979.0 729.5 C 979.1 729.5 979.2 729.5 979.2 729.5 L 979.2 728.1 C 979.1 728.2 979.0 728.2 978.9 728.2 C 978.4 728.2 978.1 727.9 978.1 727.2 L 978.1 726.1 L 976.8 726.1 L 976.8 729.4 " fill="#FFFEFE"></path><path d="M 981.1 729.5 C 982.2 729.5 983.0 728.8 983.0 727.8 C 983.0 726.5 982.1 726.0 981.1 726.0 C 980.0 726.0 979.2 726.6 979.2 727.7 C 979.2 728.8 980.0 729.5 981.1 729.5 M 980.5 727.8 C 980.5 727.1 980.8 726.9 981.1 726.9 C 981.4 726.9 981.7 727.1 981.7 727.8 C 981.7 728.2 981.4 728.6 981.1 728.6 C 980.7 728.6 980.5 728.1 980.5 727.8 " fill="#FFFEFE"></path><path d="M 984.4 729.4 L 984.4 728.9 L 984.4 728.9 C 984.6 729.3 985.1 729.5 985.5 729.5 C 986.4 729.5 986.9 728.7 986.9 727.8 C 986.9 726.4 986.1 726.0 985.4 726.0 C 985.0 726.0 984.8 726.1 984.5 726.4 L 984.5 724.9 L 983.2 724.9 L 983.2 729.4 L 984.4 729.4 Z M 985.6 727.7 C 985.6 728.3 985.4 728.5 985.0 728.5 C 984.7 728.5 984.5 728.2 984.5 727.8 C 984.5 727.3 984.7 727.0 985.1 727.0 C 985.4 727.0 985.6 727.3 985.6 727.7 " fill="#FFFEFE"></path><path d="M 989.6 726.1 L 989.5 726.4 C 989.1 726.1 988.7 726.0 988.3 726.0 C 987.6 726.0 987.1 726.3 987.1 727.0 C 987.1 728.5 989.4 727.8 989.4 728.4 C 989.4 728.7 989.1 728.7 989.0 728.7 C 988.8 728.7 988.6 728.6 988.5 728.4 L 987.3 728.4 C 987.3 729.1 987.8 729.5 989.1 729.5 C 990.6 729.5 990.7 728.9 990.7 728.1 L 990.7 726.6 C 990.7 726.4 990.7 726.3 990.9 726.1 L 990.9 726.1 L 989.6 726.1 Z M 989.4 727.5 C 989.0 727.3 988.4 727.4 988.4 727.0 C 988.4 726.8 988.6 726.7 988.8 726.7 C 989.3 726.7 989.5 727.1 989.4 727.5 " fill="#FFFEFE"></path><path d="M 991.3 729.4 L 992.5 729.4 L 992.5 728.7 L 992.5 728.7 C 992.7 729.2 993.0 729.5 993.5 729.5 C 993.5 729.5 993.6 729.5 993.7 729.5 L 993.7 728.1 C 993.6 728.2 993.5 728.2 993.4 728.2 C 992.8 728.2 992.6 727.9 992.6 727.2 L 992.6 726.1 L 991.3 726.1 L 991.3 729.4 " fill="#FFFEFE"></path><path d="M 995.2 727.0 L 995.2 726.1 L 993.9 726.1 L 993.9 730.6 L 995.2 730.6 L 995.2 728.4 L 996.0 729.4 L 997.6 729.4 L 996.3 728.1 L 997.7 726.1 L 996.1 726.1 L 995.4 727.2 L 995.2 727.0 " fill="#FFFEFE"></path></g></g><g><clipPath id="clip0x608000ca8ee0"><path d="M 951.0 759.7 L 1013.9 759.7 L 1013.9 680.0 L 951.0 680.0 Z M 951.0 759.7 "></path></clipPath><g clip-path="url(#clip0x608000ca8ee0)"><g><clipPath id="clip0x608000ca9120"><path d="M 951.0 680.0 L 1014.0 680.0 L 1014.0 760.0 L 951.0 760.0 Z M 951.0 680.0 "></path></clipPath><g clip-path="url(#clip0x608000ca9120)"><path d="M 998.9 727.1 C 998.9 727.0 998.9 726.9 999.0 726.8 C 999.1 726.7 999.2 726.7 999.4 726.7 C 999.6 726.7 999.8 726.8 999.8 727.0 C 999.8 727.5 997.7 727.1 997.7 728.4 C 997.7 729.2 998.6 729.5 999.3 729.5 C 1000.0 729.5 1000.9 729.3 1000.9 728.4 L 999.8 728.4 C 999.7 728.5 999.7 728.6 999.6 728.7 C 999.6 728.7 999.5 728.8 999.4 728.8 C 999.1 728.8 999.0 728.7 999.0 728.5 C 999.0 728.1 1001.1 728.4 1001.1 727.1 C 1001.1 726.4 1000.5 726.0 999.3 726.0 C 998.5 726.0 997.7 726.2 997.6 727.1 L 998.9 727.1 " fill="#FFFEFE"></path><path d="M 989.6 690.4 L 989.6 695.5 C 989.6 697.5 988.6 698.5 986.7 698.5 L 982.3 698.5 L 982.3 680.0 L 984.7 680.0 L 984.7 687.5 L 986.7 687.5 C 988.6 687.5 989.6 688.5 989.6 690.4 M 987.2 690.6 C 987.2 689.9 986.9 689.6 986.2 689.6 L 984.7 689.6 L 984.7 696.4 L 986.1 696.4 C 986.8 696.4 987.2 696.1 987.2 695.4 L 987.2 690.6 " fill="#FFFFFF"></path><path d="M 996.5 682.1 L 993.2 682.1 L 993.2 698.5 L 990.8 698.5 L 990.8 680.0 L 996.5 680.0 L 996.5 682.1 " fill="#FFFFFF"></path><path d="M 1005.0 680.0 L 1005.0 695.5 C 1005.0 697.5 1004.1 698.5 1002.2 698.5 L 1000.4 698.5 C 998.5 698.5 997.5 697.5 997.5 695.5 L 997.5 680.0 L 999.9 680.0 L 999.9 687.5 L 1002.6 687.5 L 1002.6 680.0 L 1005.0 680.0 Z M 1002.6 689.6 L 999.9 689.6 L 999.9 695.4 C 999.9 696.1 1000.2 696.4 1000.9 696.4 L 1001.6 696.4 C 1002.3 696.4 1002.6 696.1 1002.6 695.4 L 1002.6 689.6 " fill="#FFFFFF"></path><path d="M 1011.0 687.6 L 1013.9 698.5 L 1011.5 698.5 L 1009.9 691.0 L 1009.8 691.0 L 1008.0 698.5 L 1005.7 698.5 L 1008.6 687.6 L 1008.6 680.0 L 1011.0 680.0 L 1011.0 687.6 " fill="#FFFFFF"></path></g></g></g></g><g><clipPath id="clip0x608000ca9480"><path d="M 951.0 680.0 L 1014.0 680.0 L 1014.0 760.0 L 951.0 760.0 Z M 951.0 680.0 "></path></clipPath><g clip-path="url(#clip0x608000ca9480)"><path d="M 958.5 684.8 L 958.5 696.2 C 958.5 697.7 957.6 698.5 955.7 698.5 L 953.9 698.5 C 952.0 698.5 951.0 697.7 951.0 696.2 L 951.0 684.8 L 953.4 684.8 L 953.4 689.8 L 956.1 689.8 L 956.1 684.8 L 958.5 684.8 Z M 956.1 691.5 L 953.4 691.5 L 953.4 696.0 C 953.4 696.6 953.7 696.8 954.4 696.8 L 955.1 696.8 C 955.8 696.8 956.1 696.6 956.1 696.0 L 956.1 691.5 " fill="#FFFEFE"></path><path d="M 963.2 698.5 L 960.8 698.5 L 960.8 684.8 L 963.2 684.8 L 963.2 693.8 L 965.8 687.5 L 965.8 684.8 L 968.2 684.8 L 968.2 698.5 L 965.8 698.5 L 965.8 691.9 L 963.2 698.5 " fill="#FFFEFE"></path><path d="M 978.0 686.8 L 978.0 695.9 C 978.0 697.6 976.9 698.5 974.7 698.5 L 970.5 698.5 L 970.5 684.8 L 975.2 684.8 C 977.1 684.8 978.0 685.5 978.0 686.8 M 975.6 687.1 C 975.6 686.7 975.3 686.5 974.7 686.5 L 972.9 686.5 L 972.9 696.8 L 974.6 696.8 C 975.3 696.8 975.6 696.5 975.6 695.9 L 975.6 687.1 " fill="#FFFEFE"></path><path d="M 955.8 705.0 L 955.8 704.0 C 955.8 703.3 955.5 702.9 954.9 702.9 L 954.3 702.9 C 953.7 702.9 953.3 703.3 953.3 704.0 L 953.3 715.9 C 953.3 716.6 953.7 717.0 954.3 717.0 L 954.7 717.0 C 955.4 717.0 955.8 716.6 955.8 715.9 L 955.8 714.0 L 958.1 714.0 L 958.1 716.0 C 958.1 718.1 957.2 719.2 955.3 719.2 L 953.8 719.2 C 951.9 719.2 951.0 718.1 951.0 716.0 L 951.0 703.8 C 951.0 701.7 951.9 700.7 953.8 700.7 L 955.3 700.7 C 957.2 700.7 958.1 701.7 958.1 703.8 L 958.1 705.0 L 955.8 705.0 " fill="#FFFEFE"></path><path d="M 967.3 703.8 L 967.3 716.0 C 967.3 718.1 966.3 719.2 964.5 719.2 L 962.2 719.2 C 960.3 719.2 959.4 718.1 959.4 716.0 L 959.4 703.8 C 959.4 701.7 960.4 700.7 962.2 700.7 L 964.4 700.7 C 966.3 700.7 967.3 701.7 967.3 703.8 M 964.9 704.0 C 964.9 703.3 964.6 702.9 964.0 702.9 L 962.8 702.9 C 962.1 702.9 961.8 703.3 961.8 704.0 L 961.8 715.9 C 961.8 716.6 962.1 717.0 962.8 717.0 L 963.9 717.0 C 964.6 717.0 964.9 716.6 964.9 715.9 L 964.9 704.0 " fill="#FFFEFE"></path><path d="M 971.1 719.2 L 968.5 719.2 L 968.5 700.7 L 970.9 700.7 L 970.6 712.8 L 972.4 704.0 L 974.2 704.0 L 976.0 712.8 L 975.7 700.7 L 978.1 700.7 L 978.1 719.2 L 975.5 719.2 L 973.3 708.3 L 971.1 719.2 " fill="#FFFEFE"></path><path d="M 985.2 700.7 L 985.2 702.9 L 981.7 702.9 L 981.7 709.1 L 984.8 709.1 L 984.8 711.3 L 981.7 711.3 L 981.7 717.0 L 985.2 717.0 L 985.2 719.2 L 979.3 719.2 L 979.3 700.7 L 985.2 700.7 " fill="#FFFEFE"></path><path d="M 996.9 703.8 L 996.9 716.0 C 996.9 718.1 995.9 719.2 994.1 719.2 L 991.8 719.2 C 989.9 719.2 989.0 718.1 989.0 716.0 L 989.0 703.8 C 989.0 701.7 989.9 700.7 991.8 700.7 L 994.0 700.7 C 995.9 700.7 996.9 701.7 996.9 703.8 M 994.5 704.0 C 994.5 703.3 994.2 702.9 993.6 702.9 L 992.4 702.9 C 991.7 702.9 991.3 703.3 991.3 704.0 L 991.3 715.9 C 991.3 716.6 991.7 717.0 992.4 717.0 L 993.5 717.0 C 994.2 717.0 994.5 716.6 994.5 715.9 L 994.5 704.0 " fill="#FFFFFF"></path><path d="M 1003.4 719.2 L 1003.4 704.1 C 1003.4 703.3 1003.1 702.9 1002.5 702.9 L 1001.5 702.9 C 1000.8 702.9 1000.5 703.3 1000.5 704.1 L 1000.5 719.2 L 998.2 719.2 L 998.2 704.2 C 998.2 701.9 999.1 700.7 1001.0 700.7 L 1002.9 700.7 C 1004.8 700.7 1005.8 701.8 1005.8 704.2 L 1005.8 719.2 L 1003.4 719.2 " fill="#FFFFFF"></path><path d="M 1013.9 717.0 L 1013.9 719.2 L 1007.1 719.2 L 1007.1 717.0 L 1009.3 717.0 L 1009.3 700.7 L 1011.6 700.7 L 1011.6 717.0 L 1013.9 717.0 " fill="#FFFFFF"></path><path d="M 951.0 724.1 L 1013.9 724.1 L 1013.9 721.3 L 951.0 721.3 Z M 951.0 724.1 " fill="#FFFEFE"></path></g></g></g></svg>