<?xml version="1.0" encoding="UTF-8" standalone="no"?><svg xmlns="http://www.w3.org/2000/svg" xmlns:xlink="http://www.w3.org/1999/xlink" clip-rule="evenodd" stroke-miterlimit="10" viewBox="0 0 771 64"><desc>SVG generated by Keynote</desc><defs></defs><g transform="matrix(1.00, 0.00, -0.00, -1.00, 0.0, 64.0)"><text xml:space="preserve" font-family="Aller-Bold,Aller" font-weight="bold" font-size="80.0" fill="#A2CCA0" transform="matrix(1.00, 0.00, -0.00, -1.00, -1.0, 2.6)">S</text><text xml:space="preserve" font-family="Aller-Bold,Aller" font-weight="bold" font-size="80.0" fill="#A2CCA0" transform="matrix(1.00, 0.00, -0.00, -1.00, 43.0, 2.6)">o</text><text xml:space="preserve" font-family="Aller-Bold,Aller" font-weight="bold" font-size="80.0" fill="#A2CCA0" transform="matrix(1.00, 0.00, -0.00, -1.00, 89.4, 2.6)">f</text><text xml:space="preserve" font-family="Aller-Bold,Aller" font-weight="bold" font-size="80.0" fill="#A2CCA0" transform="matrix(1.00, 0.00, -0.00, -1.00, 121.1, 2.6)">t</text><text xml:space="preserve" font-family="Aller-Bold,Aller" font-weight="bold" font-size="80.0" fill="#A2CCA0" transform="matrix(1.00, 0.00, -0.00, -1.00, 151.7, 2.6)">w</text><text xml:space="preserve" font-family="Aller-Bold,Aller" font-weight="bold" font-size="80.0" fill="#A2CCA0" transform="matrix(1.00, 0.00, -0.00, -1.00, 216.2, 2.6)">a</text><text xml:space="preserve" font-family="Aller-Bold,Aller" font-weight="bold" font-size="80.0" fill="#A2CCA0" transform="matrix(1.00, 0.00, -0.00, -1.00, 258.0, 2.6)">r</text><text xml:space="preserve" font-family="Aller-Bold,Aller" font-weight="bold" font-size="80.0" fill="#A2CCA0" transform="matrix(1.00, 0.00, -0.00, -1.00, 288.9, 2.6)">e</text><text xml:space="preserve" font-family="Aller-Bold,Aller" font-weight="bold" font-size="80.0" fill="#A2CCA0" transform="matrix(1.00, 0.00, -0.00, -1.00, 333.9, 2.6)"> </text><text xml:space="preserve" font-family="Aller-Bold,Aller" font-weight="bold" font-size="80.0" fill="#A2CCA0" transform="matrix(1.00, 0.00, -0.00, -1.00, 351.5, 2.6)">&gt;</text><text xml:space="preserve" font-family="Aller-Bold,Aller" font-weight="bold" font-size="80.0" fill="#A2CCA0" transform="matrix(1.00, 0.00, -0.00, -1.00, 399.5, 2.6)"> </text><text xml:space="preserve" font-family="Aller-Bold,Aller" font-weight="bold" font-size="80.0" fill="#A2CCA0" transform="matrix(1.00, 0.00, -0.00, -1.00, 417.1, 2.6)">H</text><text xml:space="preserve" font-family="Aller-Bold,Aller" font-weight="bold" font-size="80.0" fill="#A2CCA0" transform="matrix(1.00, 0.00, -0.00, -1.00, 471.1, 2.6)">a</text><text xml:space="preserve" font-family="Aller-Bold,Aller" font-weight="bold" font-size="80.0" fill="#A2CCA0" transform="matrix(1.00, 0.00, -0.00, -1.00, 512.8, 2.6)">r</text><text xml:space="preserve" font-family="Aller-Bold,Aller" font-weight="bold" font-size="80.0" fill="#A2CCA0" transform="matrix(1.00, 0.00, -0.00, -1.00, 543.8, 2.6)">d</text><text xml:space="preserve" font-family="Aller-Bold,Aller" font-weight="bold" font-size="80.0" fill="#A2CCA0" transform="matrix(1.00, 0.00, -0.00, -1.00, 590.8, 2.6)">w</text><text xml:space="preserve" font-family="Aller-Bold,Aller" font-weight="bold" font-size="80.0" fill="#A2CCA0" transform="matrix(1.00, 0.00, -0.00, -1.00, 655.3, 2.6)">a</text><text xml:space="preserve" font-family="Aller-Bold,Aller" font-weight="bold" font-size="80.0" fill="#A2CCA0" transform="matrix(1.00, 0.00, -0.00, -1.00, 697.1, 2.6)">r</text><text xml:space="preserve" font-family="Aller-Bold,Aller" font-weight="bold" font-size="80.0" fill="#A2CCA0" transform="matrix(1.00, 0.00, -0.00, -1.00, 728.0, 2.6)">e</text></g></svg>