<?xml version="1.0" encoding="UTF-8" standalone="no"?><svg xmlns="http://www.w3.org/2000/svg" xmlns:xlink="http://www.w3.org/1999/xlink" clip-rule="evenodd" stroke-miterlimit="4.00" viewBox="0 0 720 540"><desc>SVG generated by Keynote</desc><defs></defs><g transform="matrix(1.00, 0.00, -0.00, -1.00, 0.0, 540.0)"><path d="M 0.0 540.0 L 720.0 540.0 L 720.0 0.0 L 0.0 0.0 Z M 0.0 540.0 " fill="#000000"></path><text xml:space="preserve" font-family="HelveticaNeue-Bold" font-weight="bold" font-size="49.3" fill="#A2CCA0" transform="matrix(1.00, 0.00, -0.00, -1.00, 14.0, 170.0)">S</text><text xml:space="preserve" font-family="HelveticaNeue-Bold" font-weight="bold" font-size="49.3" fill="#A2CCA0" transform="matrix(1.00, 0.00, -0.00, -1.00, 46.0, 170.0)">o</text><text xml:space="preserve" font-family="HelveticaNeue-Bold" font-weight="bold" font-size="49.3" fill="#A2CCA0" transform="matrix(1.00, 0.00, -0.00, -1.00, 76.1, 170.0)">f</text><text xml:space="preserve" font-family="HelveticaNeue-Bold" font-weight="bold" font-size="49.3" fill="#A2CCA0" transform="matrix(1.00, 0.00, -0.00, -1.00, 92.5, 170.0)">t</text><text xml:space="preserve" font-family="HelveticaNeue-Bold" font-weight="bold" font-size="49.3" fill="#A2CCA0" transform="matrix(1.00, 0.00, -0.00, -1.00, 109.8, 170.0)">w</text><text xml:space="preserve" font-family="HelveticaNeue-Bold" font-weight="bold" font-size="49.3" fill="#A2CCA0" transform="matrix(1.00, 0.00, -0.00, -1.00, 150.0, 170.0)">a</text><text xml:space="preserve" font-family="HelveticaNeue-Bold" font-weight="bold" font-size="49.3" fill="#A2CCA0" transform="matrix(1.00, 0.00, -0.00, -1.00, 178.3, 170.0)">r</text><text xml:space="preserve" font-family="HelveticaNeue-Bold" font-weight="bold" font-size="49.3" fill="#A2CCA0" transform="matrix(1.00, 0.00, -0.00, -1.00, 196.5, 170.0)">e</text><text xml:space="preserve" font-family="HelveticaNeue-Bold" font-weight="bold" font-size="49.3" fill="#A2CCA0" transform="matrix(1.00, 0.00, -0.00, -1.00, 224.8, 170.0)"> </text><text xml:space="preserve" font-family="HelveticaNeue-Bold" font-weight="bold" font-size="49.3" fill="#A2CCA0" transform="matrix(1.00, 0.00, -0.00, -1.00, 238.5, 170.0)">&gt;</text><text xml:space="preserve" font-family="HelveticaNeue-Bold" font-weight="bold" font-size="49.3" fill="#A2CCA0" transform="matrix(1.00, 0.00, -0.00, -1.00, 268.1, 170.0)"> </text><text xml:space="preserve" font-family="HelveticaNeue-Bold" font-weight="bold" font-size="49.3" fill="#A2CCA0" transform="matrix(1.00, 0.00, -0.00, -1.00, 281.8, 170.0)">P</text><text xml:space="preserve" font-family="HelveticaNeue-Bold" font-weight="bold" font-size="49.3" fill="#A2CCA0" transform="matrix(1.00, 0.00, -0.00, -1.00, 314.7, 170.0)">l</text><text xml:space="preserve" font-family="HelveticaNeue-Bold" font-weight="bold" font-size="49.3" fill="#A2CCA0" transform="matrix(1.00, 0.00, -0.00, -1.00, 327.4, 170.0)">a</text><text xml:space="preserve" font-family="HelveticaNeue-Bold" font-weight="bold" font-size="49.3" fill="#A2CCA0" transform="matrix(1.00, 0.00, -0.00, -1.00, 355.7, 170.0)">t</text><text xml:space="preserve" font-family="HelveticaNeue-Bold" font-weight="bold" font-size="49.3" fill="#A2CCA0" transform="matrix(1.00, 0.00, -0.00, -1.00, 373.0, 170.0)">f</text><text xml:space="preserve" font-family="HelveticaNeue-Bold" font-weight="bold" font-size="49.3" fill="#A2CCA0" transform="matrix(1.00, 0.00, -0.00, -1.00, 389.4, 170.0)">o</text><text xml:space="preserve" font-family="HelveticaNeue-Bold" font-weight="bold" font-size="49.3" fill="#A2CCA0" transform="matrix(1.00, 0.00, -0.00, -1.00, 419.5, 170.0)">r</text><text xml:space="preserve" font-family="HelveticaNeue-Bold" font-weight="bold" font-size="49.3" fill="#A2CCA0" transform="matrix(1.00, 0.00, -0.00, -1.00, 438.7, 170.0)">m</text><text xml:space="preserve" font-family="HelveticaNeue-Bold" font-weight="bold" font-size="49.3" fill="#A2CCA0" transform="matrix(1.00, 0.00, -0.00, -1.00, 483.3, 170.0)"> </text><text xml:space="preserve" font-family="HelveticaNeue-Bold" font-weight="bold" font-size="49.3" fill="#A2CCA0" transform="matrix(1.00, 0.00, -0.00, -1.00, 497.0, 170.0)">&gt;</text><text xml:space="preserve" font-family="HelveticaNeue-Bold" font-weight="bold" font-size="49.3" fill="#A2CCA0" transform="matrix(1.00, 0.00, -0.00, -1.00, 526.6, 170.0)"> </text><text xml:space="preserve" font-family="HelveticaNeue-Bold" font-weight="bold" font-size="49.3" fill="#A2CCA0" transform="matrix(1.00, 0.00, -0.00, -1.00, 540.3, 170.0)">S</text><text xml:space="preserve" font-family="HelveticaNeue-Bold" font-weight="bold" font-size="49.3" fill="#A2CCA0" transform="matrix(1.00, 0.00, -0.00, -1.00, 572.3, 170.0)">e</text><text xml:space="preserve" font-family="HelveticaNeue-Bold" font-weight="bold" font-size="49.3" fill="#A2CCA0" transform="matrix(1.00, 0.00, -0.00, -1.00, 600.6, 170.0)">n</text><text xml:space="preserve" font-family="HelveticaNeue-Bold" font-weight="bold" font-size="49.3" fill="#A2CCA0" transform="matrix(1.00, 0.00, -0.00, -1.00, 629.8, 170.0)">s</text><text xml:space="preserve" font-family="HelveticaNeue-Bold" font-weight="bold" font-size="49.3" fill="#A2CCA0" transform="matrix(1.00, 0.00, -0.00, -1.00, 656.3, 170.0)">o</text><text xml:space="preserve" font-family="HelveticaNeue-Bold" font-weight="bold" font-size="49.3" fill="#A2CCA0" transform="matrix(1.00, 0.00, -0.00, -1.00, 686.4, 170.0)">r</text><g><clipPath id="clip-942"><path d="M 611.0 136.6 L 701.9 136.6 L 701.9 19.0 L 611.0 19.0 Z M 611.0 136.6 "></path></clipPath><g clip-path="url(#clip-942)"><g><clipPath id="clip-943"><path d="M 611.0 19.0 L 702.0 19.0 L 702.0 137.0 L 611.0 137.0 Z M 611.0 19.0 "></path></clipPath><g clip-path="url(#clip-943)"><path d="M 611.0 23.0 L 650.1 23.0 L 650.1 19.0 L 611.0 19.0 Z M 611.0 23.0 " fill="#FFFEFE"></path></g></g></g></g><g><clipPath id="clip-944"><path d="M 611.0 19.0 L 702.0 19.0 L 702.0 137.0 L 611.0 137.0 Z M 611.0 19.0 "></path></clipPath><g clip-path="url(#clip-944)"><path d="M 656.6 120.7 C 658.7 120.7 660.4 122.3 660.5 124.4 C 660.5 126.4 658.9 128.2 656.9 128.2 C 654.8 128.3 653.1 126.7 653.0 124.6 C 653.0 122.5 654.6 120.8 656.6 120.7 " fill="#FFFEFE"></path><path d="M 649.7 121.9 C 650.4 121.9 652.5 121.6 654.0 120.5 C 655.4 119.3 657.0 117.0 657.0 116.8 C 657.1 117.0 658.7 119.3 659.3 119.9 C 660.3 120.8 661.5 121.7 664.4 121.9 L 664.4 118.0 C 663.9 118.0 662.8 117.7 661.8 116.8 C 660.8 116.0 659.7 114.4 659.4 113.3 C 659.0 112.1 659.0 111.2 658.9 110.5 L 659.0 102.8 L 655.1 102.8 L 655.2 110.4 C 655.2 111.2 655.1 112.6 654.7 113.4 C 654.3 114.1 653.5 116.1 652.0 117.1 C 651.5 117.4 650.8 118.0 649.7 118.0 L 649.7 121.9 " fill="#FFFEFE"></path><path d="M 657.0 132.0 C 657.1 131.9 660.4 129.7 663.2 126.9 C 664.0 126.0 666.4 123.2 666.4 119.7 C 666.4 116.5 664.6 114.3 664.4 114.1 C 663.8 113.3 661.4 111.4 660.0 111.2 L 660.0 107.2 C 661.7 107.5 664.6 108.6 666.3 110.3 C 667.9 112.0 669.3 114.0 669.9 116.6 C 670.6 119.5 670.1 122.8 669.2 124.8 C 668.0 127.3 665.9 129.8 663.3 131.9 L 657.0 136.6 L 650.6 131.8 C 648.1 129.7 646.0 127.3 644.8 124.7 C 643.9 122.8 643.4 119.4 644.2 116.5 C 644.8 114.0 646.2 111.9 647.8 110.3 C 649.5 108.6 652.4 107.5 654.1 107.1 L 654.1 111.2 C 652.7 111.4 650.3 113.3 649.6 114.0 C 649.4 114.3 647.7 116.5 647.7 119.6 C 647.6 123.1 650.0 126.0 650.8 126.8 C 653.6 129.6 656.9 131.9 657.0 132.0 " fill="#FFFEFE"></path><path d="M 638.8 99.4 C 638.7 100.1 638.3 100.5 637.6 100.5 C 636.8 100.5 636.4 99.8 636.4 98.5 C 636.4 97.6 636.6 96.7 637.7 96.7 C 638.4 96.7 638.7 97.2 638.8 97.8 L 640.8 97.8 C 640.6 96.1 639.4 95.0 637.7 95.0 C 635.6 95.0 634.3 96.4 634.3 98.6 C 634.3 100.8 635.7 102.1 637.5 102.1 C 639.5 102.1 640.6 101.1 640.8 99.4 L 638.8 99.4 " fill="#FFFEFE"></path><path d="M 641.3 101.9 L 643.2 101.9 L 643.2 95.2 L 641.3 95.2 Z M 641.3 101.9 " fill="#FFFEFE"></path><path d="M 645.6 97.2 C 645.6 96.7 646.1 96.3 646.6 96.3 C 646.9 96.3 647.1 96.4 647.3 96.7 L 649.1 96.7 C 648.8 95.5 647.6 95.1 646.5 95.1 C 644.9 95.1 643.7 96.0 643.7 97.6 C 643.7 99.2 644.9 100.3 646.4 100.3 C 648.2 100.3 649.3 99.0 649.2 97.2 L 645.6 97.2 Z M 647.4 98.2 C 647.4 98.7 647.0 99.1 646.5 99.1 C 646.0 99.1 645.6 98.7 645.6 98.2 L 647.4 98.2 " fill="#FFFEFE"></path><path d="M 649.2 100.1 L 651.1 100.1 L 651.9 97.0 L 652.8 100.1 L 654.6 100.1 L 653.0 95.2 L 650.9 95.2 L 649.2 100.1 " fill="#FFFEFE"></path><path d="M 656.2 97.2 C 656.2 96.7 656.7 96.3 657.2 96.3 C 657.5 96.3 657.7 96.4 657.9 96.7 L 659.7 96.7 C 659.3 95.5 658.1 95.1 657.0 95.1 C 655.5 95.1 654.3 96.0 654.3 97.6 C 654.3 99.2 655.5 100.3 657.0 100.3 C 658.8 100.3 659.9 99.0 659.8 97.2 L 656.2 97.2 Z M 657.9 98.2 C 657.9 98.7 657.5 99.1 657.1 99.1 C 656.5 99.1 656.2 98.7 656.2 98.2 L 657.9 98.2 " fill="#FFFEFE"></path><path d="M 660.2 101.9 L 662.1 101.9 L 662.1 95.2 L 660.2 95.2 Z M 660.2 101.9 " fill="#FFFEFE"></path><path d="M 666.2 95.2 L 666.1 95.7 C 665.6 95.2 665.0 95.1 664.3 95.1 C 663.4 95.1 662.6 95.5 662.6 96.6 C 662.6 98.8 666.0 97.8 666.0 98.7 C 666.0 99.0 665.6 99.1 665.4 99.1 C 665.1 99.1 664.8 99.0 664.7 98.6 L 662.9 98.6 C 662.9 99.6 663.6 100.3 665.5 100.3 C 667.7 100.3 667.9 99.4 667.9 98.2 L 667.9 95.9 C 667.9 95.7 667.9 95.5 668.1 95.3 L 668.1 95.2 L 666.2 95.2 Z M 666.0 97.4 C 665.4 97.1 664.6 97.2 664.6 96.6 C 664.6 96.4 664.8 96.2 665.2 96.2 C 665.8 96.2 666.0 96.7 666.0 97.4 " fill="#FFFEFE"></path><path d="M 668.6 100.1 L 670.3 100.1 L 670.3 99.3 C 670.8 99.9 671.2 100.3 671.9 100.3 C 673.2 100.3 673.8 99.5 673.8 98.2 L 673.8 95.2 L 671.9 95.2 L 671.9 97.8 C 671.9 98.3 671.8 98.7 671.2 98.7 C 670.6 98.7 670.5 98.3 670.5 97.7 L 670.5 95.2 L 668.6 95.2 L 668.6 100.1 " fill="#FFFEFE"></path><path d="M 677.8 95.2 L 677.8 95.9 C 677.4 95.3 677.0 95.1 676.3 95.1 C 674.9 95.1 674.2 96.2 674.2 97.6 C 674.2 99.2 675.1 100.3 676.2 100.3 C 676.8 100.3 677.2 100.1 677.6 99.6 L 677.6 101.9 L 679.5 101.9 L 679.5 95.2 L 677.8 95.2 Z M 677.7 97.6 C 677.7 98.2 677.5 98.8 676.9 98.8 C 676.2 98.8 676.1 98.1 676.1 97.6 C 676.1 97.1 676.2 96.5 676.8 96.5 C 677.5 96.5 677.7 97.1 677.7 97.6 " fill="#FFFEFE"></path><path d="M 630.9 87.0 L 630.9 93.7 L 633.5 93.7 L 634.7 89.5 L 635.8 93.7 L 638.4 93.7 L 638.4 87.0 L 636.5 87.0 L 636.5 89.0 L 636.5 90.0 L 636.6 91.3 L 636.6 91.3 L 635.4 87.0 L 633.9 87.0 L 632.7 91.3 L 632.7 91.3 L 632.8 90.3 L 632.8 89.2 L 632.8 87.0 L 630.9 87.0 " fill="#FFFEFE"></path><path d="M 640.7 89.0 C 640.7 88.4 641.1 88.0 641.6 88.0 C 641.9 88.0 642.2 88.1 642.3 88.4 L 644.1 88.4 C 643.8 87.2 642.6 86.8 641.5 86.8 C 640.0 86.8 638.8 87.7 638.8 89.3 C 638.8 91.0 640.0 92.0 641.5 92.0 C 643.2 92.0 644.3 90.7 644.3 89.0 L 640.7 89.0 Z M 642.4 89.9 C 642.4 90.4 642.0 90.8 641.6 90.8 C 641.0 90.8 640.7 90.5 640.7 89.9 L 642.4 89.9 " fill="#FFFEFE"></path><path d="M 647.8 87.0 C 645.3 86.8 645.0 87.0 645.0 88.7 L 645.0 90.7 L 644.4 90.7 L 644.4 91.8 L 645.1 91.8 L 645.1 93.4 L 646.9 93.4 L 646.9 91.8 L 647.8 91.8 L 647.8 90.7 L 646.9 90.7 L 646.9 88.9 C 646.9 88.5 647.0 88.3 647.5 88.3 L 647.8 88.3 L 647.8 87.0 " fill="#FFFEFE"></path><path d="M 648.3 91.8 L 650.0 91.8 L 650.0 90.9 L 650.0 90.9 C 650.3 91.6 650.8 92.0 651.5 92.0 C 651.6 92.0 651.7 92.0 651.7 92.0 L 651.7 90.0 C 651.6 90.0 651.5 90.1 651.4 90.1 C 650.6 90.1 650.2 89.7 650.2 88.6 L 650.2 87.0 L 648.3 87.0 L 648.3 91.8 " fill="#FFFEFE"></path><path d="M 654.5 92.0 C 656.1 92.0 657.2 91.0 657.2 89.4 C 657.2 87.7 656.0 86.8 654.5 86.8 C 652.9 86.8 651.8 87.7 651.8 89.3 C 651.8 91.0 652.9 92.0 654.5 92.0 M 653.7 89.4 C 653.7 88.5 654.0 88.1 654.5 88.1 C 655.0 88.1 655.3 88.5 655.3 89.4 C 655.3 90.2 655.0 90.7 654.5 90.7 C 653.8 90.7 653.7 90.0 653.7 89.4 " fill="#FFFEFE"></path><path d="M 659.3 91.8 L 659.3 91.1 L 659.3 91.1 C 659.5 91.7 660.2 92.0 660.8 92.0 C 662.2 92.0 662.9 90.8 662.9 89.4 C 662.9 87.5 661.7 86.8 660.7 86.8 C 660.2 86.8 659.8 87.0 659.5 87.4 L 659.5 85.3 L 657.6 85.3 L 657.6 91.8 L 659.3 91.8 Z M 661.0 89.4 C 661.0 90.2 660.7 90.5 660.2 90.5 C 659.7 90.5 659.4 90.1 659.4 89.4 C 659.4 88.8 659.7 88.3 660.2 88.3 C 660.7 88.3 661.0 88.7 661.0 89.4 " fill="#FFFEFE"></path><path d="M 666.7 87.0 L 666.6 87.5 C 666.1 87.0 665.5 86.8 664.8 86.8 C 663.9 86.8 663.1 87.3 663.1 88.3 C 663.1 90.5 666.5 89.5 666.5 90.4 C 666.5 90.8 666.1 90.8 665.9 90.8 C 665.6 90.8 665.3 90.8 665.2 90.3 L 663.4 90.3 C 663.4 91.4 664.1 92.0 666.0 92.0 C 668.2 92.0 668.4 91.1 668.4 90.0 L 668.4 87.7 C 668.4 87.4 668.4 87.3 668.6 87.0 L 668.6 87.0 L 666.7 87.0 Z M 666.5 89.1 C 665.9 88.8 665.1 89.0 665.1 88.3 C 665.1 88.1 665.3 87.9 665.7 87.9 C 666.3 87.9 666.5 88.4 666.5 89.1 " fill="#FFFEFE"></path><path d="M 669.2 91.8 L 670.9 91.8 L 670.9 90.9 L 670.9 90.9 C 671.2 91.6 671.6 92.0 672.4 92.0 C 672.4 92.0 672.5 92.0 672.6 92.0 L 672.6 90.0 C 672.5 90.0 672.3 90.1 672.2 90.1 C 671.4 90.1 671.1 89.7 671.1 88.6 L 671.1 87.0 L 669.2 87.0 L 669.2 91.8 " fill="#FFFEFE"></path><path d="M 674.8 88.3 L 674.8 87.0 L 673.0 87.0 L 673.0 93.7 L 674.8 93.7 L 674.8 90.3 L 676.0 91.8 L 678.2 91.8 L 676.5 89.9 L 678.5 87.0 L 676.2 87.0 L 675.2 88.7 L 674.8 88.3 " fill="#FFFEFE"></path></g></g><g><clipPath id="clip-945"><path d="M 611.0 136.6 L 701.9 136.6 L 701.9 19.0 L 611.0 19.0 Z M 611.0 136.6 "></path></clipPath><g clip-path="url(#clip-945)"><g><clipPath id="clip-946"><path d="M 611.0 19.0 L 702.0 19.0 L 702.0 137.0 L 611.0 137.0 Z M 611.0 19.0 "></path></clipPath><g clip-path="url(#clip-946)"><path d="M 680.2 88.5 C 680.2 88.3 680.3 88.1 680.4 88.0 C 680.5 87.9 680.7 87.9 680.8 87.9 C 681.1 87.9 681.4 88.0 681.4 88.3 C 681.4 89.1 678.5 88.5 678.5 90.4 C 678.5 91.6 679.8 92.0 680.8 92.0 C 681.8 92.0 683.0 91.7 683.1 90.4 L 681.4 90.4 C 681.4 90.6 681.3 90.7 681.2 90.8 C 681.1 90.9 681.0 90.9 680.9 90.9 C 680.5 90.9 680.3 90.8 680.3 90.6 C 680.3 89.9 683.3 90.3 683.3 88.5 C 683.3 87.5 682.5 86.8 680.8 86.8 C 679.7 86.8 678.5 87.2 678.4 88.5 L 680.2 88.5 " fill="#FFFEFE"></path><path d="M 666.7 34.4 L 666.7 41.9 C 666.7 44.8 665.3 46.3 662.5 46.3 L 656.2 46.3 L 656.2 19.0 L 659.7 19.0 L 659.7 30.0 L 662.6 30.0 C 665.3 30.0 666.7 31.5 666.7 34.4 M 663.3 34.6 C 663.3 33.6 662.8 33.1 661.9 33.1 L 659.7 33.1 L 659.7 43.2 L 661.7 43.2 C 662.8 43.2 663.3 42.7 663.3 41.7 L 663.3 34.6 " fill="#FFFFFF"></path><path d="M 676.7 22.1 L 671.9 22.1 L 671.9 46.3 L 668.4 46.3 L 668.4 19.0 L 676.7 19.0 L 676.7 22.1 " fill="#FFFFFF"></path><path d="M 689.0 19.0 L 689.0 41.9 C 689.0 44.8 687.7 46.3 684.9 46.3 L 682.3 46.3 C 679.5 46.3 678.2 44.8 678.2 41.9 L 678.2 19.0 L 681.6 19.0 L 681.6 30.1 L 685.6 30.1 L 685.6 19.0 L 689.0 19.0 Z M 685.6 33.2 L 681.6 33.2 L 681.6 41.7 C 681.6 42.7 682.1 43.2 683.1 43.2 L 684.1 43.2 C 685.1 43.2 685.6 42.7 685.6 41.7 L 685.6 33.2 " fill="#FFFFFF"></path><path d="M 697.7 30.2 L 701.8 46.3 L 698.4 46.3 L 696.1 35.2 L 696.0 35.2 L 693.4 46.3 L 690.0 46.3 L 694.2 30.2 L 694.2 19.0 L 697.7 19.0 L 697.7 30.2 " fill="#FFFFFF"></path></g></g></g></g><g><clipPath id="clip-947"><path d="M 611.0 19.0 L 702.0 19.0 L 702.0 137.0 L 611.0 137.0 Z M 611.0 19.0 "></path></clipPath><g clip-path="url(#clip-947)"><path d="M 621.9 26.1 L 621.9 42.8 C 621.9 45.1 620.5 46.3 617.7 46.3 L 615.1 46.3 C 612.4 46.3 611.0 45.1 611.0 42.8 L 611.0 26.1 L 614.5 26.1 L 614.5 33.5 L 618.4 33.5 L 618.4 26.1 L 621.9 26.1 Z M 618.4 35.9 L 614.5 35.9 L 614.5 42.7 C 614.5 43.5 615.0 43.8 616.0 43.8 L 616.9 43.8 C 617.9 43.8 618.4 43.5 618.4 42.7 L 618.4 35.9 " fill="#FFFEFE"></path><path d="M 628.7 46.3 L 625.2 46.3 L 625.2 26.1 L 628.7 26.1 L 628.7 39.3 L 632.4 30.1 L 632.4 26.1 L 635.8 26.1 L 635.8 46.3 L 632.4 46.3 L 632.4 36.5 L 628.7 46.3 " fill="#FFFEFE"></path><path d="M 650.1 29.0 L 650.1 42.4 C 650.1 45.0 648.4 46.3 645.2 46.3 L 639.2 46.3 L 639.2 26.1 L 645.9 26.1 C 648.7 26.1 650.1 27.1 650.1 29.0 M 646.6 29.4 C 646.6 28.8 646.1 28.5 645.2 28.5 L 642.6 28.5 L 642.6 43.8 L 645.0 43.8 C 646.1 43.8 646.6 43.4 646.6 42.4 L 646.6 29.4 " fill="#FFFEFE"></path><path d="M 617.9 55.9 L 617.9 54.4 C 617.9 53.3 617.5 52.8 616.6 52.8 L 615.7 52.8 C 614.8 52.8 614.4 53.3 614.4 54.4 L 614.4 71.9 C 614.4 73.0 614.8 73.5 615.7 73.5 L 616.4 73.5 C 617.4 73.5 617.9 73.0 617.9 71.9 L 617.9 69.1 L 621.3 69.1 L 621.3 72.2 C 621.3 75.3 619.9 76.8 617.2 76.8 L 615.1 76.8 C 612.4 76.8 611.0 75.3 611.0 72.2 L 611.0 54.1 C 611.0 51.0 612.4 49.5 615.1 49.5 L 617.2 49.5 C 619.9 49.5 621.3 51.0 621.3 54.1 L 621.3 55.9 L 617.9 55.9 " fill="#FFFEFE"></path><path d="M 634.5 54.1 L 634.5 72.1 C 634.5 75.3 633.1 76.8 630.4 76.8 L 627.2 76.8 C 624.5 76.8 623.1 75.3 623.1 72.1 L 623.1 54.1 C 623.1 51.0 624.5 49.5 627.2 49.5 L 630.4 49.5 C 633.1 49.5 634.5 51.0 634.5 54.1 M 631.1 54.4 C 631.1 53.3 630.7 52.8 629.8 52.8 L 628.0 52.8 C 627.0 52.8 626.5 53.3 626.5 54.4 L 626.5 71.9 C 626.5 73.0 627.0 73.5 628.0 73.5 L 629.6 73.5 C 630.6 73.5 631.1 73.0 631.1 71.9 L 631.1 54.4 " fill="#FFFEFE"></path><path d="M 640.1 76.8 L 636.3 76.8 L 636.3 49.5 L 639.7 49.5 L 639.4 67.4 L 641.9 54.4 L 644.5 54.4 L 647.1 67.4 L 646.7 49.5 L 650.1 49.5 L 650.1 76.8 L 646.4 76.8 L 643.2 60.8 L 640.1 76.8 " fill="#FFFEFE"></path><path d="M 660.3 49.5 L 660.3 52.8 L 655.3 52.8 L 655.3 61.9 L 659.8 61.9 L 659.8 65.2 L 655.3 65.2 L 655.3 73.5 L 660.3 73.5 L 660.3 76.8 L 651.9 76.8 L 651.9 49.5 L 660.3 49.5 " fill="#FFFEFE"></path><path d="M 677.2 54.1 L 677.2 72.1 C 677.2 75.3 675.9 76.8 673.2 76.8 L 669.9 76.8 C 667.2 76.8 665.9 75.3 665.9 72.1 L 665.9 54.1 C 665.9 51.0 667.3 49.5 670.0 49.5 L 673.2 49.5 C 675.9 49.5 677.2 51.0 677.2 54.1 M 673.9 54.4 C 673.9 53.3 673.4 52.8 672.5 52.8 L 670.8 52.8 C 669.8 52.8 669.3 53.3 669.3 54.4 L 669.3 71.9 C 669.3 73.0 669.8 73.5 670.8 73.5 L 672.3 73.5 C 673.4 73.5 673.9 73.0 673.9 71.9 L 673.9 54.4 " fill="#FFFFFF"></path><path d="M 686.7 76.8 L 686.7 54.6 C 686.7 53.4 686.3 52.8 685.3 52.8 L 684.0 52.8 C 683.0 52.8 682.5 53.4 682.5 54.6 L 682.5 76.8 L 679.1 76.8 L 679.1 54.7 C 679.1 51.2 680.5 49.5 683.2 49.5 L 686.0 49.5 C 688.7 49.5 690.1 51.2 690.1 54.7 L 690.1 76.8 L 686.7 76.8 " fill="#FFFFFF"></path><path d="M 701.8 73.5 L 701.8 76.8 L 692.0 76.8 L 692.0 73.5 L 695.2 73.5 L 695.2 49.5 L 698.6 49.5 L 698.6 73.5 L 701.8 73.5 " fill="#FFFFFF"></path><path d="M 611.0 84.0 L 701.9 84.0 L 701.9 80.0 L 611.0 80.0 Z M 611.0 84.0 " fill="#FFFEFE"></path></g></g><image xlink:href="../../ACE9E015-5DD2-4185-BCA1-AAA047EA0667/assets/A624B3D33BFB9733056A0F7706252EFF.png" width="263.00" height="263.00" transform="matrix(0.56, 0.00, -0.00, -0.57, 51.0, 376.0)"></image><image xlink:href="../../074E317F-F298-46FD-82DB-3EFAC3BB4BE7/assets/F6E64AC7F656F69362BC31E1EAEA01B2.png" width="147.00" height="153.00" transform="matrix(1.00, 0.00, -0.00, 1.00, 51.0, 223.0)"></image><image xlink:href="../../C9E3EEC9-56FF-4C5B-BE23-9243F3735231/assets/CA057AFE0A210BDA13616D6768F67EEA.jpeg" width="328.00" height="438.00" transform="matrix(0.38, 0.00, -0.00, -0.38, 303.0, 384.0)"></image><image xlink:href="../../074E317F-F298-46FD-82DB-3EFAC3BB4BE7/assets/AAF812D09BE4D91C96FBBE7DB1E41475.png" width="122.00" height="169.00" transform="matrix(1.00, 0.00, -0.00, 1.00, 303.0, 215.0)"></image><image xlink:href="../../C9E3EEC9-56FF-4C5B-BE23-9243F3735231/assets/98031A566A807686E5E4A696BAED9410.jpeg" width="173.00" height="118.00" transform="matrix(0.99, 0.00, -0.00, -0.99, 530.0, 360.0)"></image><image xlink:href="../../074E317F-F298-46FD-82DB-3EFAC3BB4BE7/assets/A9100BA1F312FFDF869904EC91A0CB3E.png" width="171.00" height="121.00" transform="matrix(1.00, 0.00, -0.00, 1.00, 530.0, 239.0)"></image></g></svg>