<?xml version="1.0" encoding="UTF-8" standalone="no"?><svg xmlns="http://www.w3.org/2000/svg" xmlns:xlink="http://www.w3.org/1999/xlink" clip-rule="evenodd" stroke-miterlimit="4.00" viewBox="0 0 1024 768"><desc>SVG generated by Keynote</desc><defs><pattern id="00A0DF17-BA76-410F-85A9-CEE1BCBE5CB5" patternUnits="userSpaceOnUse" width="256" height="256" viewBox="0 0 256 256" patternTransform="matrix(0.500000, 0.000000, 0.000000, -0.500000, 202.887500, 460.845000)"><image xlink:href="C2E6FBB4C3857A0E73F6D4A465A166F0.jpeg" width="256.00" height="256.00"></image></pattern></defs><g transform="matrix(1.00, 0.00, -0.00, -1.00, 0.0, 768.0)"><path d="M 0.0 768.0 L 1024.0 768.0 L 1024.0 0.0 L 0.0 0.0 Z M 0.0 768.0 " fill="#000000"></path><g><clipPath id="clip-68"><path d="M 202.9 460.8 L 844.8 460.8 L 844.8 -3.2 L 202.9 -3.2 Z M 202.9 460.8 "></path></clipPath><g clip-path="url(#clip-68)"><path d="M 202.9 0.0 L 844.8 0.0 L 844.8 460.8 L 202.9 460.8 Z M 202.9 0.0 " fill="url(#00A0DF17-BA76-410F-85A9-CEE1BCBE5CB5)"></path><path d="M 202.9 460.8 L 844.8 460.8 L 844.8 -3.2 L 202.9 -3.2 Z M 202.9 460.8 " fill="#FEFFFE" fill-opacity="0.85"></path></g></g><text xml:space="preserve" font-family="Helvetica-Light" font-size="28.5" fill="#FEFFFF" transform="matrix(1.00, 0.00, -0.00, -1.00, 79.0, 551.7)">•</text><text xml:space="preserve" font-family="Helvetica-Light" font-size="38.0" fill="#FEFFFF" transform="matrix(1.00, 0.00, -0.00, -1.00, 114.0, 548.0)">U</text><text xml:space="preserve" font-family="Helvetica-Light" font-size="38.0" fill="#FEFFFF" transform="matrix(1.00, 0.00, -0.00, -1.00, 141.4, 548.0)">s</text><text xml:space="preserve" font-family="Helvetica-Light" font-size="38.0" fill="#FEFFFF" transform="matrix(1.00, 0.00, -0.00, -1.00, 160.4, 548.0)">e</text><text xml:space="preserve" font-family="Helvetica-Light" font-size="38.0" fill="#FEFFFF" transform="matrix(1.00, 0.00, -0.00, -1.00, 181.6, 548.0)"> </text><text xml:space="preserve" font-family="Helvetica-Light" font-size="38.0" fill="#FEFFFF" transform="matrix(1.00, 0.00, -0.00, -1.00, 192.1, 548.0)">f</text><text xml:space="preserve" font-family="Helvetica-Light" font-size="38.0" fill="#FEFFFF" transform="matrix(1.00, 0.00, -0.00, -1.00, 202.7, 548.0)">e</text><text xml:space="preserve" font-family="Helvetica-Light" font-size="38.0" fill="#FEFFFF" transform="matrix(1.00, 0.00, -0.00, -1.00, 223.8, 548.0)">a</text><text xml:space="preserve" font-family="Helvetica-Light" font-size="38.0" fill="#FEFFFF" transform="matrix(1.00, 0.00, -0.00, -1.00, 244.9, 548.0)">t</text><text xml:space="preserve" font-family="Helvetica-Light" font-size="38.0" fill="#FEFFFF" transform="matrix(1.00, 0.00, -0.00, -1.00, 255.5, 548.0)">u</text><text xml:space="preserve" font-family="Helvetica-Light" font-size="38.0" fill="#FEFFFF" transform="matrix(1.00, 0.00, -0.00, -1.00, 276.6, 548.0)">r</text><text xml:space="preserve" font-family="Helvetica-Light" font-size="38.0" fill="#FEFFFF" transform="matrix(1.00, 0.00, -0.00, -1.00, 288.6, 548.0)">e</text><text xml:space="preserve" font-family="Helvetica-Light" font-size="38.0" fill="#FEFFFF" transform="matrix(1.00, 0.00, -0.00, -1.00, 309.7, 548.0)"> </text><text xml:space="preserve" font-family="Helvetica-Light" font-size="38.0" fill="#FEFFFF" transform="matrix(1.00, 0.00, -0.00, -1.00, 320.3, 548.0)">m</text><text xml:space="preserve" font-family="Helvetica-Light" font-size="38.0" fill="#FEFFFF" transform="matrix(1.00, 0.00, -0.00, -1.00, 352.0, 548.0)">a</text><text xml:space="preserve" font-family="Helvetica-Light" font-size="38.0" fill="#FEFFFF" transform="matrix(1.00, 0.00, -0.00, -1.00, 373.1, 548.0)">t</text><text xml:space="preserve" font-family="Helvetica-Light" font-size="38.0" fill="#FEFFFF" transform="matrix(1.00, 0.00, -0.00, -1.00, 383.6, 548.0)">c</text><text xml:space="preserve" font-family="Helvetica-Light" font-size="38.0" fill="#FEFFFF" transform="matrix(1.00, 0.00, -0.00, -1.00, 404.8, 548.0)">h</text><text xml:space="preserve" font-family="Helvetica-Light" font-size="38.0" fill="#FEFFFF" transform="matrix(1.00, 0.00, -0.00, -1.00, 425.9, 548.0)">i</text><text xml:space="preserve" font-family="Helvetica-Light" font-size="38.0" fill="#FEFFFF" transform="matrix(1.00, 0.00, -0.00, -1.00, 434.3, 548.0)">n</text><text xml:space="preserve" font-family="Helvetica-Light" font-size="38.0" fill="#FEFFFF" transform="matrix(1.00, 0.00, -0.00, -1.00, 455.5, 548.0)">g</text><text xml:space="preserve" font-family="Helvetica-Light" font-size="38.0" fill="#FEFFFF" transform="matrix(1.00, 0.00, -0.00, -1.00, 478.7, 548.0)"> </text><text xml:space="preserve" font-family="Helvetica-Light" font-size="38.0" fill="#FEFFFF" transform="matrix(1.00, 0.00, -0.00, -1.00, 489.2, 548.0)">t</text><text xml:space="preserve" font-family="Helvetica-Light" font-size="38.0" fill="#FEFFFF" transform="matrix(1.00, 0.00, -0.00, -1.00, 499.8, 548.0)">o</text><text xml:space="preserve" font-family="Helvetica-Light" font-size="38.0" fill="#FEFFFF" transform="matrix(1.00, 0.00, -0.00, -1.00, 520.9, 548.0)"> </text><text xml:space="preserve" font-family="Helvetica-Light" font-size="38.0" fill="#FEFFFF" transform="matrix(1.00, 0.00, -0.00, -1.00, 531.5, 548.0)">c</text><text xml:space="preserve" font-family="Helvetica-Light" font-size="38.0" fill="#FEFFFF" transform="matrix(1.00, 0.00, -0.00, -1.00, 552.6, 548.0)">a</text><text xml:space="preserve" font-family="Helvetica-Light" font-size="38.0" fill="#FEFFFF" transform="matrix(1.00, 0.00, -0.00, -1.00, 573.8, 548.0)">l</text><text xml:space="preserve" font-family="Helvetica-Light" font-size="38.0" fill="#FEFFFF" transform="matrix(1.00, 0.00, -0.00, -1.00, 582.2, 548.0)">c</text><text xml:space="preserve" font-family="Helvetica-Light" font-size="38.0" fill="#FEFFFF" transform="matrix(1.00, 0.00, -0.00, -1.00, 603.3, 548.0)">u</text><text xml:space="preserve" font-family="Helvetica-Light" font-size="38.0" fill="#FEFFFF" transform="matrix(1.00, 0.00, -0.00, -1.00, 624.5, 548.0)">l</text><text xml:space="preserve" font-family="Helvetica-Light" font-size="38.0" fill="#FEFFFF" transform="matrix(1.00, 0.00, -0.00, -1.00, 632.9, 548.0)">a</text><text xml:space="preserve" font-family="Helvetica-Light" font-size="38.0" fill="#FEFFFF" transform="matrix(1.00, 0.00, -0.00, -1.00, 654.0, 548.0)">t</text><text xml:space="preserve" font-family="Helvetica-Light" font-size="38.0" fill="#FEFFFF" transform="matrix(1.00, 0.00, -0.00, -1.00, 664.6, 548.0)">e</text><text xml:space="preserve" font-family="Helvetica-Light" font-size="38.0" fill="#FEFFFF" transform="matrix(1.00, 0.00, -0.00, -1.00, 685.7, 548.0)"> </text><text xml:space="preserve" font-family="Helvetica-Light" font-size="38.0" fill="#FEFFFF" transform="matrix(1.00, 0.00, -0.00, -1.00, 696.3, 548.0)">a</text><text xml:space="preserve" font-family="Helvetica-Light" font-size="38.0" fill="#FEFFFF" transform="matrix(1.00, 0.00, -0.00, -1.00, 717.4, 548.0)">n</text><text xml:space="preserve" font-family="Helvetica-Light" font-size="38.0" fill="#FEFFFF" transform="matrix(1.00, 0.00, -0.00, -1.00, 738.5, 548.0)">d</text><text xml:space="preserve" font-family="Helvetica-Light" font-size="38.0" fill="#FEFFFF" transform="matrix(1.00, 0.00, -0.00, -1.00, 761.7, 548.0)"> </text><text xml:space="preserve" font-family="Helvetica-Light" font-size="38.0" fill="#FEFFFF" transform="matrix(1.00, 0.00, -0.00, -1.00, 772.3, 548.0)">c</text><text xml:space="preserve" font-family="Helvetica-Light" font-size="38.0" fill="#FEFFFF" transform="matrix(1.00, 0.00, -0.00, -1.00, 793.4, 548.0)">o</text><text xml:space="preserve" font-family="Helvetica-Light" font-size="38.0" fill="#FEFFFF" transform="matrix(1.00, 0.00, -0.00, -1.00, 814.6, 548.0)">r</text><text xml:space="preserve" font-family="Helvetica-Light" font-size="38.0" fill="#FEFFFF" transform="matrix(1.00, 0.00, -0.00, -1.00, 827.2, 548.0)">r</text><text xml:space="preserve" font-family="Helvetica-Light" font-size="38.0" fill="#FEFFFF" transform="matrix(1.00, 0.00, -0.00, -1.00, 839.2, 548.0)">e</text><text xml:space="preserve" font-family="Helvetica-Light" font-size="38.0" fill="#FEFFFF" transform="matrix(1.00, 0.00, -0.00, -1.00, 860.3, 548.0)">c</text><text xml:space="preserve" font-family="Helvetica-Light" font-size="38.0" fill="#FEFFFF" transform="matrix(1.00, 0.00, -0.00, -1.00, 881.4, 548.0)">t</text><text xml:space="preserve" font-family="Helvetica-Light" font-size="38.0" fill="#FEFFFF" transform="matrix(1.00, 0.00, -0.00, -1.00, 892.0, 548.0)"> </text><text xml:space="preserve" font-family="Helvetica-Light" font-size="38.0" fill="#FEFFFF" transform="matrix(1.00, 0.00, -0.00, -1.00, 114.0, 502.0)">f</text><text xml:space="preserve" font-family="Helvetica-Light" font-size="38.0" fill="#FEFFFF" transform="matrix(1.00, 0.00, -0.00, -1.00, 124.6, 502.0)">o</text><text xml:space="preserve" font-family="Helvetica-Light" font-size="38.0" fill="#FEFFFF" transform="matrix(1.00, 0.00, -0.00, -1.00, 145.7, 502.0)">r</text><text xml:space="preserve" font-family="Helvetica-Light" font-size="38.0" fill="#FEFFFF" transform="matrix(1.00, 0.00, -0.00, -1.00, 158.3, 502.0)"> </text><text xml:space="preserve" font-family="Helvetica-Light" font-size="38.0" fill="#FEFFFF" transform="matrix(1.00, 0.00, -0.00, -1.00, 168.9, 502.0)">x</text><text xml:space="preserve" font-family="Helvetica-Light" font-size="38.0" fill="#FEFFFF" transform="matrix(1.00, 0.00, -0.00, -1.00, 187.9, 502.0)">y</text><text xml:space="preserve" font-family="Helvetica-Light" font-size="38.0" fill="#FEFFFF" transform="matrix(1.00, 0.00, -0.00, -1.00, 206.9, 502.0)"> </text><text xml:space="preserve" font-family="Helvetica-Light" font-size="38.0" fill="#FEFFFF" transform="matrix(1.00, 0.00, -0.00, -1.00, 217.5, 502.0)">o</text><text xml:space="preserve" font-family="Helvetica-Light" font-size="38.0" fill="#FEFFFF" transform="matrix(1.00, 0.00, -0.00, -1.00, 238.6, 502.0)">f</text><text xml:space="preserve" font-family="Helvetica-Light" font-size="38.0" fill="#FEFFFF" transform="matrix(1.00, 0.00, -0.00, -1.00, 248.5, 502.0)">f</text><text xml:space="preserve" font-family="Helvetica-Light" font-size="38.0" fill="#FEFFFF" transform="matrix(1.00, 0.00, -0.00, -1.00, 259.0, 502.0)">s</text><text xml:space="preserve" font-family="Helvetica-Light" font-size="38.0" fill="#FEFFFF" transform="matrix(1.00, 0.00, -0.00, -1.00, 278.0, 502.0)">e</text><text xml:space="preserve" font-family="Helvetica-Light" font-size="38.0" fill="#FEFFFF" transform="matrix(1.00, 0.00, -0.00, -1.00, 299.2, 502.0)">t</text><text xml:space="preserve" font-family="Helvetica-Light" font-size="38.0" fill="#FEFFFF" transform="matrix(1.00, 0.00, -0.00, -1.00, 309.7, 502.0)">s</text><text xml:space="preserve" font-family="Helvetica-Light" font-size="80.0" fill="#FEFFFF" transform="matrix(1.00, 0.00, -0.00, -1.00, 195.0, 677.0)">T</text><text xml:space="preserve" font-family="Helvetica-Light" font-size="80.0" fill="#FEFFFF" transform="matrix(1.00, 0.00, -0.00, -1.00, 239.5, 677.0)">h</text><text xml:space="preserve" font-family="Helvetica-Light" font-size="80.0" fill="#FEFFFF" transform="matrix(1.00, 0.00, -0.00, -1.00, 284.0, 677.0)">e</text><text xml:space="preserve" font-family="Helvetica-Light" font-size="80.0" fill="#FEFFFF" transform="matrix(1.00, 0.00, -0.00, -1.00, 328.4, 677.0)"> </text><text xml:space="preserve" font-family="Helvetica-Light" font-size="80.0" fill="#FEFFFF" transform="matrix(1.00, 0.00, -0.00, -1.00, 350.7, 677.0)">F</text><text xml:space="preserve" font-family="Helvetica-Light" font-size="80.0" fill="#FEFFFF" transform="matrix(1.00, 0.00, -0.00, -1.00, 395.2, 677.0)">u</text><text xml:space="preserve" font-family="Helvetica-Light" font-size="80.0" fill="#FEFFFF" transform="matrix(1.00, 0.00, -0.00, -1.00, 439.6, 677.0)">t</text><text xml:space="preserve" font-family="Helvetica-Light" font-size="80.0" fill="#FEFFFF" transform="matrix(1.00, 0.00, -0.00, -1.00, 461.9, 677.0)">u</text><text xml:space="preserve" font-family="Helvetica-Light" font-size="80.0" fill="#FEFFFF" transform="matrix(1.00, 0.00, -0.00, -1.00, 506.4, 677.0)">r</text><text xml:space="preserve" font-family="Helvetica-Light" font-size="80.0" fill="#FEFFFF" transform="matrix(1.00, 0.00, -0.00, -1.00, 531.6, 677.0)">e</text><text xml:space="preserve" font-family="Helvetica-Light" font-size="80.0" fill="#FEFFFF" transform="matrix(1.00, 0.00, -0.00, -1.00, 576.0, 677.0)"> </text><text xml:space="preserve" font-family="Helvetica-Light" font-size="80.0" fill="#FEFFFF" transform="matrix(1.00, 0.00, -0.00, -1.00, 598.3, 677.0)">(</text><text xml:space="preserve" font-family="Helvetica-Light" font-size="80.0" fill="#FEFFFF" transform="matrix(1.00, 0.00, -0.00, -1.00, 624.9, 677.0)">c</text><text xml:space="preserve" font-family="Helvetica-Light" font-size="80.0" fill="#FEFFFF" transform="matrix(1.00, 0.00, -0.00, -1.00, 669.4, 677.0)">o</text><text xml:space="preserve" font-family="Helvetica-Light" font-size="80.0" fill="#FEFFFF" transform="matrix(1.00, 0.00, -0.00, -1.00, 713.9, 677.0)">n</text><text xml:space="preserve" font-family="Helvetica-Light" font-size="80.0" fill="#FEFFFF" transform="matrix(1.00, 0.00, -0.00, -1.00, 758.4, 677.0)">t</text><text xml:space="preserve" font-family="Helvetica-Light" font-size="80.0" fill="#FEFFFF" transform="matrix(1.00, 0.00, -0.00, -1.00, 780.6, 677.0)">.</text><text xml:space="preserve" font-family="Helvetica-Light" font-size="80.0" fill="#FEFFFF" transform="matrix(1.00, 0.00, -0.00, -1.00, 802.8, 677.0)">)</text><image xlink:href="0DE8699C2E90E1EE2E50EFB994E1F6B5.png" width="651.00" height="464.00" transform="matrix(1.00, 0.00, -0.00, -1.00, 198.0, 461.0)"></image><text xml:space="preserve" font-family="Helvetica-Light" font-size="16.0" fill="#FEFFFF" transform="matrix(0.00, 1.00, 1.00, -0.00, 190.0, 33.0)">h</text><text xml:space="preserve" font-family="Helvetica-Light" font-size="16.0" fill="#FEFFFF" transform="matrix(0.00, 1.00, 1.00, -0.00, 190.0, 41.9)">t</text><text xml:space="preserve" font-family="Helvetica-Light" font-size="16.0" fill="#FEFFFF" transform="matrix(0.00, 1.00, 1.00, -0.00, 190.0, 46.3)">t</text><text xml:space="preserve" font-family="Helvetica-Light" font-size="16.0" fill="#FEFFFF" transform="matrix(0.00, 1.00, 1.00, -0.00, 190.0, 50.8)">p</text><text xml:space="preserve" font-family="Helvetica-Light" font-size="16.0" fill="#FEFFFF" transform="matrix(0.00, 1.00, 1.00, -0.00, 190.0, 60.6)">:</text><text xml:space="preserve" font-family="Helvetica-Light" font-size="16.0" fill="#FEFFFF" transform="matrix(0.00, 1.00, 1.00, -0.00, 190.0, 65.0)">/</text><text xml:space="preserve" font-family="Helvetica-Light" font-size="16.0" fill="#FEFFFF" transform="matrix(0.00, 1.00, 1.00, -0.00, 190.0, 69.5)">/</text><text xml:space="preserve" font-family="Helvetica-Light" font-size="16.0" fill="#FEFFFF" transform="matrix(0.00, 1.00, 1.00, -0.00, 190.0, 73.9)">w</text><text xml:space="preserve" font-family="Helvetica-Light" font-size="16.0" fill="#FEFFFF" transform="matrix(0.00, 1.00, 1.00, -0.00, 190.0, 85.5)">w</text><text xml:space="preserve" font-family="Helvetica-Light" font-size="16.0" fill="#FEFFFF" transform="matrix(0.00, 1.00, 1.00, -0.00, 190.0, 97.0)">w</text><text xml:space="preserve" font-family="Helvetica-Light" font-size="16.0" fill="#FEFFFF" transform="matrix(0.00, 1.00, 1.00, -0.00, 190.0, 107.7)">.</text><text xml:space="preserve" font-family="Helvetica-Light" font-size="16.0" fill="#FEFFFF" transform="matrix(0.00, 1.00, 1.00, -0.00, 190.0, 112.1)">g</text><text xml:space="preserve" font-family="Helvetica-Light" font-size="16.0" fill="#FEFFFF" transform="matrix(0.00, 1.00, 1.00, -0.00, 190.0, 121.9)">e</text><text xml:space="preserve" font-family="Helvetica-Light" font-size="16.0" fill="#FEFFFF" transform="matrix(0.00, 1.00, 1.00, -0.00, 190.0, 130.8)">o</text><text xml:space="preserve" font-family="Helvetica-Light" font-size="16.0" fill="#FEFFFF" transform="matrix(0.00, 1.00, 1.00, -0.00, 190.0, 139.7)">.</text><text xml:space="preserve" font-family="Helvetica-Light" font-size="16.0" fill="#FEFFFF" transform="matrix(0.00, 1.00, 1.00, -0.00, 190.0, 144.2)">u</text><text xml:space="preserve" font-family="Helvetica-Light" font-size="16.0" fill="#FEFFFF" transform="matrix(0.00, 1.00, 1.00, -0.00, 190.0, 153.0)">n</text><text xml:space="preserve" font-family="Helvetica-Light" font-size="16.0" fill="#FEFFFF" transform="matrix(0.00, 1.00, 1.00, -0.00, 190.0, 161.9)">i</text><text xml:space="preserve" font-family="Helvetica-Light" font-size="16.0" fill="#FEFFFF" transform="matrix(0.00, 1.00, 1.00, -0.00, 190.0, 165.5)">z</text><text xml:space="preserve" font-family="Helvetica-Light" font-size="16.0" fill="#FEFFFF" transform="matrix(0.00, 1.00, 1.00, -0.00, 190.0, 173.5)">h</text><text xml:space="preserve" font-family="Helvetica-Light" font-size="16.0" fill="#FEFFFF" transform="matrix(0.00, 1.00, 1.00, -0.00, 190.0, 182.4)">.</text><text xml:space="preserve" font-family="Helvetica-Light" font-size="16.0" fill="#FEFFFF" transform="matrix(0.00, 1.00, 1.00, -0.00, 190.0, 186.8)">c</text><text xml:space="preserve" font-family="Helvetica-Light" font-size="16.0" fill="#FEFFFF" transform="matrix(0.00, 1.00, 1.00, -0.00, 190.0, 195.7)">h</text><text xml:space="preserve" font-family="Helvetica-Light" font-size="16.0" fill="#FEFFFF" transform="matrix(0.00, 1.00, 1.00, -0.00, 190.0, 204.6)">/</text><text xml:space="preserve" font-family="Helvetica-Light" font-size="16.0" fill="#FEFFFF" transform="matrix(0.00, 1.00, 1.00, -0.00, 190.0, 209.1)">~</text><text xml:space="preserve" font-family="Helvetica-Light" font-size="16.0" fill="#FEFFFF" transform="matrix(0.00, 1.00, 1.00, -0.00, 190.0, 219.6)">k</text><text xml:space="preserve" font-family="Helvetica-Light" font-size="16.0" fill="#FEFFFF" transform="matrix(0.00, 1.00, 1.00, -0.00, 190.0, 227.6)">a</text><text xml:space="preserve" font-family="Helvetica-Light" font-size="16.0" fill="#FEFFFF" transform="matrix(0.00, 1.00, 1.00, -0.00, 190.0, 236.5)">e</text><text xml:space="preserve" font-family="Helvetica-Light" font-size="16.0" fill="#FEFFFF" transform="matrix(0.00, 1.00, 1.00, -0.00, 190.0, 245.4)">a</text><text xml:space="preserve" font-family="Helvetica-Light" font-size="16.0" fill="#FEFFFF" transform="matrix(0.00, 1.00, 1.00, -0.00, 190.0, 254.3)">e</text><text xml:space="preserve" font-family="Helvetica-Light" font-size="16.0" fill="#FEFFFF" transform="matrix(0.00, 1.00, 1.00, -0.00, 190.0, 263.2)">b</text><text xml:space="preserve" font-family="Helvetica-Light" font-size="16.0" fill="#FEFFFF" transform="matrix(0.00, 1.00, 1.00, -0.00, 190.0, 273.0)">/</text><text xml:space="preserve" font-family="Helvetica-Light" font-size="16.0" fill="#FEFFFF" transform="matrix(0.00, 1.00, 1.00, -0.00, 190.0, 277.4)">d</text><text xml:space="preserve" font-family="Helvetica-Light" font-size="16.0" fill="#FEFFFF" transform="matrix(0.00, 1.00, 1.00, -0.00, 190.0, 287.2)">i</text><text xml:space="preserve" font-family="Helvetica-Light" font-size="16.0" fill="#FEFFFF" transform="matrix(0.00, 1.00, 1.00, -0.00, 190.0, 290.8)">g</text><text xml:space="preserve" font-family="Helvetica-Light" font-size="16.0" fill="#FEFFFF" transform="matrix(0.00, 1.00, 1.00, -0.00, 190.0, 300.6)">i</text><text xml:space="preserve" font-family="Helvetica-Light" font-size="16.0" fill="#FEFFFF" transform="matrix(0.00, 1.00, 1.00, -0.00, 190.0, 304.1)">p</text><text xml:space="preserve" font-family="Helvetica-Light" font-size="16.0" fill="#FEFFFF" transform="matrix(0.00, 1.00, 1.00, -0.00, 190.0, 313.9)">h</text><text xml:space="preserve" font-family="Helvetica-Light" font-size="16.0" fill="#FEFFFF" transform="matrix(0.00, 1.00, 1.00, -0.00, 190.0, 322.8)">o</text><text xml:space="preserve" font-family="Helvetica-Light" font-size="16.0" fill="#FEFFFF" transform="matrix(0.00, 1.00, 1.00, -0.00, 190.0, 331.7)">t</text><text xml:space="preserve" font-family="Helvetica-Light" font-size="16.0" fill="#FEFFFF" transform="matrix(0.00, 1.00, 1.00, -0.00, 190.0, 336.1)">o</text><text xml:space="preserve" font-family="Helvetica-Light" font-size="16.0" fill="#FEFFFF" transform="matrix(0.00, 1.00, 1.00, -0.00, 190.0, 345.0)">.</text><text xml:space="preserve" font-family="Helvetica-Light" font-size="16.0" fill="#FEFFFF" transform="matrix(0.00, 1.00, 1.00, -0.00, 190.0, 349.5)">h</text><text xml:space="preserve" font-family="Helvetica-Light" font-size="16.0" fill="#FEFFFF" transform="matrix(0.00, 1.00, 1.00, -0.00, 190.0, 358.4)">t</text><text xml:space="preserve" font-family="Helvetica-Light" font-size="16.0" fill="#FEFFFF" transform="matrix(0.00, 1.00, 1.00, -0.00, 190.0, 362.8)">m</text><text xml:space="preserve" font-family="Helvetica-Light" font-size="16.0" fill="#FEFFFF" transform="matrix(0.00, 1.00, 1.00, -0.00, 190.0, 376.1)">l</text><g><clipPath id="clip-69"><path d="M 189.6 32.2 L 189.6 379.9 L 192.4 379.9 L 192.4 32.2 Z M 189.6 32.2 "></path></clipPath><g clip-path="url(#clip-69)"><path d="M 4.5 20.5 L 351.2 20.5 " fill="none" stroke="#FEFFFF" stroke-width="0.80" stroke-miterlimit="0.00" transform="matrix(0.00, 1.00, 1.00, 0.00, 170.5, 28.7)"></path></g></g></g></svg>