<?xml version="1.0" encoding="UTF-8" standalone="no"?><svg xmlns="http://www.w3.org/2000/svg" xmlns:xlink="http://www.w3.org/1999/xlink" clip-rule="evenodd" stroke-miterlimit="4.00" viewBox="0 0 720 540"><desc>SVG generated by Keynote</desc><defs></defs><g transform="matrix(1.00, 0.00, -0.00, -1.00, 0.0, 540.0)"><path d="M 0.0 540.0 L 720.0 540.0 L 720.0 0.0 L 0.0 0.0 Z M 0.0 540.0 " fill="#000000"></path><g><clipPath id="clip-42"><path d="M 1.0 511.0 L 589.0 511.0 L 589.0 29.0 L 1.0 29.0 Z M 0.5 511.4 "></path></clipPath><g clip-path="url(#clip-42)"><g><clipPath id="clip-43"><path d="M 329.6 31.4 C 333.7 35.9 347.8 44.8 356.5 48.6 C 357.9 49.2 361.1 50.6 363.7 51.7 C 366.3 52.9 368.8 53.8 369.4 53.8 C 370.0 53.8 372.5 54.5 375.0 55.3 C 403.2 64.9 450.3 64.9 481.7 55.2 C 491.1 52.3 491.2 52.3 502.0 47.2 C 510.3 43.3 511.1 43.1 518.2 42.7 C 521.4 42.5 522.6 42.0 523.1 40.5 C 523.4 39.5 523.2 38.1 522.6 37.5 C 521.8 36.7 522.5 35.4 525.2 32.6 L 528.9 29.0 L 428.0 29.0 L 327.2 29.0 L 329.6 31.4 M 526.5 40.2 C 526.5 43.4 527.7 44.1 530.1 42.4 C 531.6 41.2 531.7 40.8 530.6 39.4 C 528.6 37.0 526.5 37.4 526.5 40.2 M 324.5 155.7 C 288.4 159.7 253.7 170.4 229.4 185.1 C 226.2 187.1 223.3 188.6 223.1 188.4 C 222.8 188.2 221.9 189.0 221.1 190.1 C 219.8 192.0 219.6 192.0 219.0 190.4 C 218.6 189.4 217.4 188.6 216.4 188.6 C 214.9 188.6 214.5 189.3 214.5 191.9 C 214.5 194.6 213.5 196.0 208.1 200.8 C 204.6 203.9 199.6 209.3 197.0 212.8 C 189.5 222.7 182.5 237.9 182.5 244.2 C 182.5 247.0 178.3 249.9 176.6 248.2 C 175.6 247.3 175.7 247.7 176.6 249.8 C 177.3 251.3 178.3 252.4 178.9 252.2 C 179.5 252.0 181.2 252.9 182.7 254.3 C 185.3 256.7 185.3 257.0 184.0 259.6 C 183.2 261.1 182.1 265.4 181.6 269.1 C 180.7 275.3 180.8 276.0 182.8 278.6 C 184.0 280.1 185.4 281.4 185.8 281.4 C 186.3 281.5 190.6 285.0 195.4 289.2 C 200.2 293.5 207.2 299.7 211.0 303.0 C 214.8 306.3 219.6 310.5 221.7 312.3 C 226.6 316.7 226.5 315.2 221.4 308.0 C 218.6 304.2 217.6 302.0 218.3 301.3 C 218.9 300.6 220.2 301.4 221.9 303.8 C 224.5 307.1 224.8 307.3 234.8 308.4 C 240.4 309.0 249.2 310.0 254.3 310.6 C 261.3 311.3 264.0 311.3 265.0 310.4 C 265.8 309.8 267.5 309.5 268.8 309.8 C 274.8 311.3 300.6 313.6 314.6 313.9 C 323.2 314.1 331.1 314.5 332.1 314.8 C 333.5 315.2 334.7 314.3 336.8 311.3 C 340.9 305.4 348.4 302.3 359.9 301.7 C 364.9 301.5 370.1 301.7 371.4 302.2 C 373.9 303.1 378.1 312.0 376.5 313.0 C 376.0 313.3 373.8 313.4 371.6 313.0 L 367.6 312.0 L 370.6 320.1 C 372.2 324.4 373.9 328.8 374.4 329.9 C 374.9 331.0 377.7 338.2 380.5 345.9 C 383.4 353.6 386.3 361.2 387.0 362.9 C 387.7 364.5 389.1 368.0 390.1 370.6 C 392.6 376.9 391.7 376.9 418.0 371.3 C 432.2 368.2 452.1 361.5 465.5 355.1 C 501.3 338.1 524.9 312.1 527.9 286.0 C 528.6 280.6 529.1 279.5 530.9 279.5 C 532.9 279.5 532.6 274.7 530.5 274.2 C 529.3 273.9 528.5 272.3 528.1 269.0 C 527.1 263.0 528.2 261.8 532.6 264.3 C 537.7 267.3 545.9 268.8 553.3 268.2 C 558.1 267.8 560.7 268.1 563.2 269.3 C 566.5 270.9 566.8 270.9 572.1 268.1 C 579.8 264.1 582.5 260.2 582.5 253.5 C 582.5 248.5 582.2 247.9 578.2 244.1 C 569.9 236.2 552.4 232.6 538.3 236.0 C 534.3 237.0 530.4 238.2 529.8 238.7 C 527.6 240.5 526.4 239.1 523.6 232.0 C 515.7 211.8 496.5 193.2 469.1 179.2 C 446.4 167.6 418.9 159.8 387.5 156.1 C 374.0 154.5 337.5 154.3 324.5 155.7 M 108.4 188.6 C 94.7 190.3 80.6 195.6 72.4 202.1 C 67.5 206.0 62.5 213.0 62.5 216.1 C 62.5 219.1 59.3 221.9 57.7 220.4 C 56.9 219.5 56.5 219.5 56.5 220.3 C 56.5 220.9 56.2 222.2 55.9 223.1 C 55.3 224.4 55.7 224.7 58.0 224.4 C 59.8 224.2 61.0 224.6 61.5 225.6 C 66.0 235.1 67.5 237.3 71.9 240.8 C 77.9 245.5 82.1 247.7 90.5 250.5 C 98.0 253.1 111.9 255.5 119.0 255.5 C 125.6 255.5 140.6 253.6 142.8 252.4 C 144.1 251.7 145.1 251.8 146.0 252.5 C 148.0 254.1 151.3 252.9 152.0 250.2 L 153.0 248.0 L 154.4 250.4 C 155.4 251.7 156.7 252.5 157.3 252.2 C 157.9 251.8 158.6 251.9 158.9 252.4 C 159.2 252.9 161.1 253.3 163.0 253.2 C 166.2 253.1 166.5 252.9 166.5 250.2 C 166.5 247.8 166.2 247.4 164.5 247.8 C 163.5 248.1 162.1 247.7 161.5 247.0 C 160.6 246.0 161.4 245.0 165.0 242.5 C 173.9 236.4 179.4 225.5 177.3 217.9 C 175.0 209.2 166.6 199.8 158.2 196.7 C 153.8 195.0 156.0 193.6 162.9 193.6 C 169.0 193.6 169.2 193.5 168.8 191.3 C 168.4 189.1 167.8 188.9 162.5 188.9 C 156.9 188.9 156.6 189.0 156.3 191.5 C 155.9 194.6 155.3 194.6 143.0 191.3 C 132.8 188.5 118.3 187.4 108.4 188.6 M 171.2 191.2 C 170.8 193.4 171.1 193.5 177.0 193.4 C 182.7 193.3 183.1 193.1 182.8 191.2 C 182.4 189.3 181.6 189.0 177.0 189.0 C 172.2 189.0 171.6 189.2 171.2 191.2 M 185.3 191.1 C 185.0 192.7 185.2 193.6 186.0 193.6 C 186.8 193.6 187.0 192.7 186.7 191.1 C 186.5 189.7 186.1 188.6 186.0 188.6 C 185.9 188.6 185.5 189.7 185.3 191.1 M 191.2 189.3 C 190.8 189.6 190.5 190.7 190.5 191.7 C 190.5 195.2 196.0 194.8 197.0 191.3 L 198.0 189.1 L 199.3 191.2 C 200.3 192.3 201.7 193.3 202.5 193.4 C 211.9 194.2 211.5 194.3 211.5 191.5 C 211.5 189.1 211.1 188.8 207.8 188.8 C 205.7 188.8 203.5 189.2 202.8 189.7 C 202.1 190.4 201.4 190.3 201.0 189.7 C 200.3 188.5 192.2 188.2 191.2 189.3 M 180.0 220.6 C 179.2 221.8 181.2 224.6 182.8 224.6 C 183.4 224.6 183.1 224.0 182.0 223.2 C 181.0 222.5 180.5 221.3 180.9 220.7 C 181.3 220.1 181.4 219.6 181.1 219.6 C 180.8 219.6 180.3 220.0 180.0 220.6 M 169.5 250.5 C 169.5 253.0 169.9 253.6 171.3 253.3 C 172.4 253.1 173.0 252.1 173.0 250.5 C 173.0 249.0 172.4 247.9 171.3 247.7 C 169.9 247.5 169.5 248.1 169.5 250.5 M 160.5 365.3 C 155.7 366.8 151.7 369.3 149.2 372.5 C 147.1 375.2 146.1 375.7 142.7 375.5 C 139.0 375.4 138.8 375.5 139.3 377.9 C 139.6 379.8 140.1 380.1 141.0 379.3 C 142.0 378.6 142.5 378.6 143.0 379.4 C 143.5 380.1 144.1 379.9 144.9 378.8 C 146.0 377.3 146.4 377.5 148.2 381.0 C 149.6 383.8 151.7 385.6 155.8 387.7 C 160.7 390.2 162.4 390.6 170.3 390.6 C 180.7 390.6 187.1 388.3 192.2 382.8 C 196.0 378.7 197.3 375.4 195.1 375.4 C 194.3 375.4 193.0 374.4 192.4 373.1 C 189.6 367.8 181.0 364.4 170.5 364.5 C 166.4 364.5 161.9 364.9 160.5 365.3 M 454.5 375.9 C 451.5 376.5 446.4 378.0 443.2 379.2 C 410.4 390.9 406.8 418.0 436.0 432.8 C 443.5 436.6 446.2 437.4 459.0 439.8 C 477.2 443.2 499.4 439.9 514.0 431.8 C 521.2 427.7 524.8 424.5 528.6 418.5 C 532.3 412.7 532.6 404.3 529.4 397.7 C 524.7 387.8 510.9 379.6 492.5 375.7 C 484.6 374.1 462.2 374.1 454.5 375.9 M 198.1 376.2 C 197.8 376.7 198.2 377.9 198.9 378.9 C 200.5 381.1 203.8 380.2 203.3 377.6 C 203.0 375.7 199.1 374.6 198.1 376.2 M 268.5 437.9 C 267.1 438.1 263.3 438.8 260.0 439.4 C 241.1 442.9 226.6 452.0 221.4 463.8 C 219.4 468.2 217.6 469.6 215.0 468.6 C 214.2 468.3 212.8 468.5 212.1 469.2 C 211.1 470.0 210.5 470.0 210.0 469.3 C 209.2 468.0 205.5 467.9 205.5 469.2 C 205.5 469.7 206.2 469.9 207.0 469.6 C 208.0 469.2 208.8 470.0 209.6 471.9 C 210.5 474.3 210.8 474.5 211.6 473.1 C 212.4 471.5 212.8 471.6 216.3 473.2 C 219.2 474.6 220.6 476.3 222.4 480.1 C 229.7 496.4 260.4 507.7 287.6 504.2 C 300.7 502.5 306.8 500.8 316.2 496.2 C 325.5 491.6 332.5 484.8 334.8 478.0 C 336.1 473.9 336.3 473.7 340.3 473.9 C 344.3 474.0 344.5 473.9 344.5 471.1 C 344.5 468.9 344.1 468.2 342.8 468.3 C 337.6 468.8 336.6 468.2 334.5 463.5 C 329.5 452.1 316.5 443.8 297.5 439.7 C 290.7 438.2 272.9 437.1 268.5 437.9 M 31.8 455.8 C 28.9 456.6 24.8 458.4 22.6 459.8 C 19.1 462.1 18.0 463.8 16.1 469.5 C 15.4 471.8 13.4 471.7 12.8 469.3 C 12.4 467.8 11.3 467.4 6.4 467.4 C 0.8 467.3 0.5 467.4 0.5 469.8 C 0.5 472.4 3.1 473.2 5.2 471.2 C 6.0 470.4 6.5 470.4 7.0 471.2 C 7.3 471.8 9.5 472.2 11.7 472.2 C 15.2 472.2 16.3 472.8 19.2 476.2 C 24.0 481.7 31.1 484.2 42.3 484.2 C 55.1 484.2 65.1 480.0 67.5 473.8 C 68.1 472.2 69.0 471.9 72.1 472.1 C 75.7 472.3 76.1 472.1 76.3 469.8 C 76.5 467.5 76.2 467.2 72.6 467.2 C 69.3 467.2 68.3 466.8 67.0 464.5 C 62.1 456.3 45.4 452.1 31.8 455.8 M 79.5 469.7 C 79.5 472.6 82.9 473.3 83.9 470.7 C 84.7 468.5 83.8 467.2 81.4 467.2 C 80.0 467.2 79.5 467.9 79.5 469.7 M 347.9 469.7 C 347.0 471.9 348.2 474.2 350.2 474.2 C 351.7 474.2 351.7 474.1 349.9 472.7 C 348.0 471.3 348.0 471.2 349.9 469.7 C 351.7 468.4 351.7 468.2 350.2 468.2 C 349.2 468.2 348.2 468.9 347.9 469.7 M 548.9 498.2 C 546.0 498.6 541.3 500.1 538.4 501.4 C 534.7 503.1 531.6 503.7 528.7 503.5 C 526.3 503.4 524.6 503.6 525.0 504.1 C 525.3 504.6 525.1 505.3 524.5 505.7 C 522.8 506.7 523.4 508.2 525.5 508.2 C 526.6 508.2 527.8 508.9 528.1 509.7 C 529.0 511.9 583.0 511.9 583.9 509.7 C 584.2 508.9 585.3 508.2 586.5 508.2 C 588.0 508.2 588.5 507.5 588.5 505.7 C 588.5 502.2 584.8 502.2 584.3 505.7 C 583.9 509.0 582.1 509.0 581.7 505.7 C 581.5 504.2 580.7 503.2 579.8 503.2 C 578.9 503.2 575.4 502.1 572.1 500.8 C 565.1 498.0 556.3 497.0 548.9 498.2 "></path></clipPath><g clip-path="url(#clip-43)"><image xlink:href="5D03E5358BFAE8916ACEF1DBB6C29C6F.png" width="719.00" height="482.00" transform="matrix(1.00, 0.00, -0.00, -1.00, 1.0, 511.0)"></image></g></g></g></g></g></svg>