<?xml version="1.0" encoding="UTF-8" standalone="no"?><svg xmlns="http://www.w3.org/2000/svg" xmlns:xlink="http://www.w3.org/1999/xlink" clip-rule="evenodd" stroke-miterlimit="4.00" viewBox="0 0 94 120"><desc>SVG generated by Keynote</desc><defs></defs><g transform="matrix(1.00, 0.00, -0.00, -1.00, 0.0, 120.0)"><g><clipPath id="clip-84"><path d="M 2.0 118.6 L 92.9 118.6 L 92.9 1.0 L 2.0 1.0 Z M 2.0 118.6 "></path></clipPath><g clip-path="url(#clip-84)"><g><clipPath id="clip-85"><path d="M 2.0 1.0 L 93.0 1.0 L 93.0 119.0 L 2.0 119.0 Z M 2.0 1.0 "></path></clipPath><g clip-path="url(#clip-85)"><path d="M 2.0 5.0 L 41.1 5.0 L 41.1 1.0 L 2.0 1.0 Z M 2.0 5.0 " fill="#FFFEFE"></path></g></g></g></g><g><clipPath id="clip-86"><path d="M 2.0 1.0 L 93.0 1.0 L 93.0 119.0 L 2.0 119.0 Z M 2.0 1.0 "></path></clipPath><g clip-path="url(#clip-86)"><path d="M 47.6 102.7 C 49.7 102.7 51.4 104.3 51.5 106.4 C 51.5 108.4 49.9 110.2 47.9 110.2 C 45.8 110.3 44.1 108.7 44.0 106.6 C 44.0 104.5 45.6 102.8 47.6 102.7 " fill="#FFFEFE"></path><path d="M 40.7 103.9 C 41.4 103.9 43.5 103.6 45.0 102.5 C 46.4 101.3 48.0 99.0 48.0 98.8 C 48.1 99.0 49.7 101.3 50.3 101.9 C 51.3 102.8 52.5 103.7 55.4 103.9 L 55.4 100.0 C 54.9 100.0 53.8 99.7 52.8 98.8 C 51.8 98.0 50.7 96.4 50.4 95.3 C 50.0 94.1 50.0 93.2 49.9 92.5 L 50.0 84.8 L 46.1 84.8 L 46.2 92.4 C 46.2 93.2 46.1 94.6 45.7 95.4 C 45.3 96.1 44.5 98.1 43.0 99.1 C 42.5 99.4 41.8 100.0 40.7 100.0 L 40.7 103.9 " fill="#FFFEFE"></path><path d="M 48.0 114.0 C 48.1 113.9 51.4 111.7 54.2 108.9 C 55.0 108.0 57.4 105.2 57.4 101.7 C 57.4 98.5 55.6 96.3 55.4 96.1 C 54.8 95.3 52.4 93.4 51.0 93.2 L 51.0 89.2 C 52.7 89.5 55.6 90.6 57.3 92.3 C 58.9 94.0 60.3 96.0 60.9 98.6 C 61.6 101.5 61.1 104.8 60.2 106.8 C 59.0 109.3 56.9 111.8 54.3 113.9 L 48.0 118.6 L 41.6 113.8 C 39.1 111.7 37.0 109.3 35.8 106.7 C 34.9 104.8 34.4 101.4 35.2 98.5 C 35.8 96.0 37.2 93.9 38.8 92.3 C 40.5 90.6 43.4 89.5 45.1 89.1 L 45.1 93.2 C 43.7 93.4 41.3 95.3 40.6 96.0 C 40.4 96.3 38.7 98.5 38.7 101.6 C 38.6 105.1 41.0 108.0 41.8 108.8 C 44.6 111.6 47.9 113.9 48.0 114.0 " fill="#FFFEFE"></path><path d="M 29.8 81.4 C 29.7 82.1 29.3 82.5 28.6 82.5 C 27.8 82.5 27.4 81.8 27.4 80.5 C 27.4 79.6 27.6 78.7 28.7 78.7 C 29.4 78.7 29.7 79.2 29.8 79.8 L 31.8 79.8 C 31.6 78.1 30.4 77.0 28.7 77.0 C 26.6 77.0 25.3 78.4 25.3 80.6 C 25.3 82.8 26.7 84.1 28.5 84.1 C 30.5 84.1 31.6 83.1 31.8 81.4 L 29.8 81.4 " fill="#FFFEFE"></path><path d="M 32.3 83.9 L 34.2 83.9 L 34.2 77.2 L 32.3 77.2 Z M 32.3 83.9 " fill="#FFFEFE"></path><path d="M 36.6 79.2 C 36.6 78.7 37.1 78.3 37.6 78.3 C 37.9 78.3 38.1 78.4 38.3 78.7 L 40.1 78.7 C 39.8 77.5 38.6 77.1 37.5 77.1 C 35.9 77.1 34.7 78.0 34.7 79.6 C 34.7 81.2 35.9 82.3 37.4 82.3 C 39.2 82.3 40.3 81.0 40.2 79.2 L 36.6 79.2 Z M 38.4 80.2 C 38.4 80.7 38.0 81.1 37.5 81.1 C 37.0 81.1 36.6 80.7 36.6 80.2 L 38.4 80.2 " fill="#FFFEFE"></path><path d="M 40.2 82.1 L 42.1 82.1 L 42.9 79.0 L 43.8 82.1 L 45.6 82.1 L 44.0 77.2 L 41.9 77.2 L 40.2 82.1 " fill="#FFFEFE"></path><path d="M 47.2 79.2 C 47.2 78.7 47.7 78.3 48.2 78.3 C 48.5 78.3 48.7 78.4 48.9 78.7 L 50.7 78.7 C 50.3 77.5 49.1 77.1 48.0 77.1 C 46.5 77.1 45.3 78.0 45.3 79.6 C 45.3 81.2 46.5 82.3 48.0 82.3 C 49.8 82.3 50.9 81.0 50.8 79.2 L 47.2 79.2 Z M 48.9 80.2 C 48.9 80.7 48.5 81.1 48.1 81.1 C 47.5 81.1 47.2 80.7 47.2 80.2 L 48.9 80.2 " fill="#FFFEFE"></path><path d="M 51.2 83.9 L 53.1 83.9 L 53.1 77.2 L 51.2 77.2 Z M 51.2 83.9 " fill="#FFFEFE"></path><path d="M 57.2 77.2 L 57.1 77.7 C 56.6 77.2 56.0 77.1 55.3 77.1 C 54.4 77.1 53.6 77.5 53.6 78.6 C 53.6 80.8 57.0 79.8 57.0 80.7 C 57.0 81.0 56.6 81.1 56.4 81.1 C 56.1 81.1 55.8 81.0 55.7 80.6 L 53.9 80.6 C 53.9 81.6 54.6 82.3 56.5 82.3 C 58.7 82.3 58.9 81.4 58.9 80.2 L 58.9 77.9 C 58.9 77.7 58.9 77.5 59.1 77.3 L 59.1 77.2 L 57.2 77.2 Z M 57.0 79.4 C 56.4 79.1 55.6 79.2 55.6 78.6 C 55.6 78.4 55.8 78.2 56.2 78.2 C 56.8 78.2 57.0 78.7 57.0 79.4 " fill="#FFFEFE"></path><path d="M 59.6 82.1 L 61.3 82.1 L 61.3 81.3 C 61.8 81.9 62.2 82.3 62.9 82.3 C 64.2 82.3 64.8 81.5 64.8 80.2 L 64.8 77.2 L 62.9 77.2 L 62.9 79.8 C 62.9 80.3 62.8 80.7 62.2 80.7 C 61.6 80.7 61.5 80.3 61.5 79.7 L 61.5 77.2 L 59.6 77.2 L 59.6 82.1 " fill="#FFFEFE"></path><path d="M 68.8 77.2 L 68.8 77.9 C 68.4 77.3 68.0 77.1 67.3 77.1 C 65.9 77.1 65.2 78.2 65.2 79.6 C 65.2 81.2 66.1 82.3 67.2 82.3 C 67.8 82.3 68.2 82.1 68.6 81.6 L 68.6 83.9 L 70.5 83.9 L 70.5 77.2 L 68.8 77.2 Z M 68.7 79.6 C 68.7 80.2 68.5 80.8 67.9 80.8 C 67.2 80.8 67.1 80.1 67.1 79.6 C 67.1 79.1 67.2 78.5 67.8 78.5 C 68.5 78.5 68.7 79.1 68.7 79.6 " fill="#FFFEFE"></path><path d="M 21.9 69.0 L 21.9 75.7 L 24.5 75.7 L 25.7 71.5 L 26.8 75.7 L 29.4 75.7 L 29.4 69.0 L 27.5 69.0 L 27.5 71.0 L 27.5 72.0 L 27.6 73.3 L 27.6 73.3 L 26.4 69.0 L 24.9 69.0 L 23.7 73.3 L 23.7 73.3 L 23.8 72.3 L 23.8 71.2 L 23.8 69.0 L 21.9 69.0 " fill="#FFFEFE"></path><path d="M 31.7 71.0 C 31.7 70.4 32.1 70.0 32.6 70.0 C 32.9 70.0 33.2 70.1 33.3 70.4 L 35.1 70.4 C 34.8 69.2 33.6 68.8 32.5 68.8 C 31.0 68.8 29.8 69.7 29.8 71.3 C 29.8 73.0 31.0 74.0 32.5 74.0 C 34.2 74.0 35.3 72.7 35.3 71.0 L 31.7 71.0 Z M 33.4 71.9 C 33.4 72.4 33.0 72.8 32.6 72.8 C 32.0 72.8 31.7 72.5 31.7 71.9 L 33.4 71.9 " fill="#FFFEFE"></path><path d="M 38.8 69.0 C 36.3 68.8 36.0 69.0 36.0 70.7 L 36.0 72.7 L 35.4 72.7 L 35.4 73.8 L 36.1 73.8 L 36.1 75.4 L 37.9 75.4 L 37.9 73.8 L 38.8 73.8 L 38.8 72.7 L 37.9 72.7 L 37.9 70.9 C 37.9 70.5 38.0 70.3 38.5 70.3 L 38.8 70.3 L 38.8 69.0 " fill="#FFFEFE"></path><path d="M 39.3 73.8 L 41.0 73.8 L 41.0 72.9 L 41.0 72.9 C 41.3 73.6 41.8 74.0 42.5 74.0 C 42.6 74.0 42.7 74.0 42.7 74.0 L 42.7 72.0 C 42.6 72.0 42.5 72.1 42.4 72.1 C 41.6 72.1 41.2 71.7 41.2 70.6 L 41.2 69.0 L 39.3 69.0 L 39.3 73.8 " fill="#FFFEFE"></path><path d="M 45.5 74.0 C 47.1 74.0 48.2 73.0 48.2 71.4 C 48.2 69.7 47.0 68.8 45.5 68.8 C 43.9 68.8 42.8 69.7 42.8 71.3 C 42.8 73.0 43.9 74.0 45.5 74.0 M 44.7 71.4 C 44.7 70.5 45.0 70.1 45.5 70.1 C 46.0 70.1 46.3 70.5 46.3 71.4 C 46.3 72.2 46.0 72.7 45.5 72.7 C 44.8 72.7 44.7 72.0 44.7 71.4 " fill="#FFFEFE"></path><path d="M 50.3 73.8 L 50.3 73.1 L 50.3 73.1 C 50.5 73.7 51.2 74.0 51.8 74.0 C 53.2 74.0 53.9 72.8 53.9 71.4 C 53.9 69.5 52.7 68.8 51.7 68.8 C 51.2 68.8 50.8 69.0 50.5 69.4 L 50.5 67.3 L 48.6 67.3 L 48.6 73.8 L 50.3 73.8 Z M 52.0 71.4 C 52.0 72.2 51.7 72.5 51.2 72.5 C 50.7 72.5 50.4 72.1 50.4 71.4 C 50.4 70.8 50.7 70.3 51.2 70.3 C 51.7 70.3 52.0 70.7 52.0 71.4 " fill="#FFFEFE"></path><path d="M 57.7 69.0 L 57.6 69.5 C 57.1 69.0 56.5 68.8 55.8 68.8 C 54.9 68.8 54.1 69.3 54.1 70.3 C 54.1 72.5 57.5 71.5 57.5 72.4 C 57.5 72.8 57.1 72.8 56.9 72.8 C 56.6 72.8 56.3 72.8 56.2 72.3 L 54.4 72.3 C 54.4 73.4 55.1 74.0 57.0 74.0 C 59.2 74.0 59.4 73.1 59.4 72.0 L 59.4 69.7 C 59.4 69.4 59.4 69.3 59.6 69.0 L 59.6 69.0 L 57.7 69.0 Z M 57.5 71.1 C 56.9 70.8 56.1 71.0 56.1 70.3 C 56.1 70.1 56.3 69.9 56.7 69.9 C 57.3 69.9 57.5 70.4 57.5 71.1 " fill="#FFFEFE"></path><path d="M 60.2 73.8 L 61.9 73.8 L 61.9 72.9 L 61.9 72.9 C 62.2 73.6 62.6 74.0 63.4 74.0 C 63.4 74.0 63.5 74.0 63.6 74.0 L 63.6 72.0 C 63.5 72.0 63.3 72.1 63.2 72.1 C 62.4 72.1 62.1 71.7 62.1 70.6 L 62.1 69.0 L 60.2 69.0 L 60.2 73.8 " fill="#FFFEFE"></path><path d="M 65.8 70.3 L 65.8 69.0 L 64.0 69.0 L 64.0 75.7 L 65.8 75.7 L 65.8 72.3 L 67.0 73.8 L 69.2 73.8 L 67.5 71.9 L 69.5 69.0 L 67.2 69.0 L 66.2 70.7 L 65.8 70.3 " fill="#FFFEFE"></path></g></g><g><clipPath id="clip-87"><path d="M 2.0 118.6 L 92.9 118.6 L 92.9 1.0 L 2.0 1.0 Z M 2.0 118.6 "></path></clipPath><g clip-path="url(#clip-87)"><g><clipPath id="clip-88"><path d="M 2.0 1.0 L 93.0 1.0 L 93.0 119.0 L 2.0 119.0 Z M 2.0 1.0 "></path></clipPath><g clip-path="url(#clip-88)"><path d="M 71.2 70.5 C 71.2 70.3 71.3 70.1 71.4 70.0 C 71.5 69.9 71.7 69.9 71.8 69.9 C 72.1 69.9 72.4 70.0 72.4 70.3 C 72.4 71.1 69.5 70.5 69.5 72.4 C 69.5 73.6 70.8 74.0 71.8 74.0 C 72.8 74.0 74.0 73.7 74.1 72.4 L 72.4 72.4 C 72.4 72.6 72.3 72.7 72.2 72.8 C 72.1 72.9 72.0 72.9 71.9 72.9 C 71.5 72.9 71.3 72.8 71.3 72.6 C 71.3 71.9 74.3 72.3 74.3 70.5 C 74.3 69.5 73.5 68.8 71.8 68.8 C 70.7 68.8 69.5 69.2 69.4 70.5 L 71.2 70.5 " fill="#FFFEFE"></path><path d="M 57.7 16.4 L 57.7 23.9 C 57.7 26.8 56.3 28.3 53.5 28.3 L 47.2 28.3 L 47.2 1.0 L 50.7 1.0 L 50.7 12.0 L 53.6 12.0 C 56.3 12.0 57.7 13.5 57.7 16.4 M 54.3 16.6 C 54.3 15.6 53.8 15.1 52.9 15.1 L 50.7 15.1 L 50.7 25.2 L 52.7 25.2 C 53.8 25.2 54.3 24.7 54.3 23.7 L 54.3 16.6 " fill="#FFFFFF"></path><path d="M 67.7 4.1 L 62.9 4.1 L 62.9 28.3 L 59.4 28.3 L 59.4 1.0 L 67.7 1.0 L 67.7 4.1 " fill="#FFFFFF"></path><path d="M 80.0 1.0 L 80.0 23.9 C 80.0 26.8 78.7 28.3 75.9 28.3 L 73.3 28.3 C 70.5 28.3 69.2 26.8 69.2 23.9 L 69.2 1.0 L 72.6 1.0 L 72.6 12.1 L 76.6 12.1 L 76.6 1.0 L 80.0 1.0 Z M 76.6 15.2 L 72.6 15.2 L 72.6 23.7 C 72.6 24.7 73.1 25.2 74.1 25.2 L 75.1 25.2 C 76.1 25.2 76.6 24.7 76.6 23.7 L 76.6 15.2 " fill="#FFFFFF"></path><path d="M 88.7 12.2 L 92.8 28.3 L 89.4 28.3 L 87.1 17.2 L 87.0 17.2 L 84.4 28.3 L 81.0 28.3 L 85.2 12.2 L 85.2 1.0 L 88.7 1.0 L 88.7 12.2 " fill="#FFFFFF"></path></g></g></g></g><g><clipPath id="clip-89"><path d="M 2.0 1.0 L 93.0 1.0 L 93.0 119.0 L 2.0 119.0 Z M 2.0 1.0 "></path></clipPath><g clip-path="url(#clip-89)"><path d="M 12.9 8.1 L 12.9 24.8 C 12.9 27.1 11.5 28.3 8.7 28.3 L 6.1 28.3 C 3.4 28.3 2.0 27.1 2.0 24.8 L 2.0 8.1 L 5.5 8.1 L 5.5 15.5 L 9.4 15.5 L 9.4 8.1 L 12.9 8.1 Z M 9.4 17.9 L 5.5 17.9 L 5.5 24.7 C 5.5 25.5 6.0 25.8 7.0 25.8 L 7.9 25.8 C 8.9 25.8 9.4 25.5 9.4 24.7 L 9.4 17.9 " fill="#FFFEFE"></path><path d="M 19.7 28.3 L 16.2 28.3 L 16.2 8.1 L 19.7 8.1 L 19.7 21.3 L 23.4 12.1 L 23.4 8.1 L 26.8 8.1 L 26.8 28.3 L 23.4 28.3 L 23.4 18.5 L 19.7 28.3 " fill="#FFFEFE"></path><path d="M 41.1 11.0 L 41.1 24.4 C 41.1 27.0 39.4 28.3 36.2 28.3 L 30.2 28.3 L 30.2 8.1 L 36.9 8.1 C 39.7 8.1 41.1 9.1 41.1 11.0 M 37.6 11.4 C 37.6 10.8 37.1 10.5 36.2 10.5 L 33.6 10.5 L 33.6 25.8 L 36.0 25.8 C 37.1 25.8 37.6 25.4 37.6 24.4 L 37.6 11.4 " fill="#FFFEFE"></path><path d="M 8.9 37.9 L 8.9 36.4 C 8.9 35.3 8.5 34.8 7.6 34.8 L 6.7 34.8 C 5.8 34.8 5.4 35.3 5.4 36.4 L 5.4 53.9 C 5.4 55.0 5.8 55.5 6.7 55.5 L 7.4 55.5 C 8.4 55.5 8.9 55.0 8.9 53.9 L 8.9 51.1 L 12.3 51.1 L 12.3 54.2 C 12.3 57.3 10.9 58.8 8.2 58.8 L 6.1 58.8 C 3.4 58.8 2.0 57.3 2.0 54.2 L 2.0 36.1 C 2.0 33.0 3.4 31.5 6.1 31.5 L 8.2 31.5 C 10.9 31.5 12.3 33.0 12.3 36.1 L 12.3 37.9 L 8.9 37.9 " fill="#FFFEFE"></path><path d="M 25.5 36.1 L 25.5 54.1 C 25.5 57.3 24.1 58.8 21.4 58.8 L 18.2 58.8 C 15.5 58.8 14.1 57.3 14.1 54.1 L 14.1 36.1 C 14.1 33.0 15.5 31.5 18.2 31.5 L 21.4 31.5 C 24.1 31.5 25.5 33.0 25.5 36.1 M 22.1 36.4 C 22.1 35.3 21.7 34.8 20.8 34.8 L 19.0 34.8 C 18.0 34.8 17.5 35.3 17.5 36.4 L 17.5 53.9 C 17.5 55.0 18.0 55.5 19.0 55.5 L 20.6 55.5 C 21.6 55.5 22.1 55.0 22.1 53.9 L 22.1 36.4 " fill="#FFFEFE"></path><path d="M 31.1 58.8 L 27.3 58.8 L 27.3 31.5 L 30.7 31.5 L 30.4 49.4 L 32.9 36.4 L 35.5 36.4 L 38.1 49.4 L 37.7 31.5 L 41.1 31.5 L 41.1 58.8 L 37.4 58.8 L 34.2 42.8 L 31.1 58.8 " fill="#FFFEFE"></path><path d="M 51.3 31.5 L 51.3 34.8 L 46.3 34.8 L 46.3 43.9 L 50.8 43.9 L 50.8 47.2 L 46.3 47.2 L 46.3 55.5 L 51.3 55.5 L 51.3 58.8 L 42.9 58.8 L 42.9 31.5 L 51.3 31.5 " fill="#FFFEFE"></path><path d="M 68.2 36.1 L 68.2 54.1 C 68.2 57.3 66.9 58.8 64.2 58.8 L 60.9 58.8 C 58.2 58.8 56.9 57.3 56.9 54.1 L 56.9 36.1 C 56.9 33.0 58.3 31.5 61.0 31.5 L 64.2 31.5 C 66.9 31.5 68.2 33.0 68.2 36.1 M 64.9 36.4 C 64.9 35.3 64.4 34.8 63.5 34.8 L 61.8 34.8 C 60.8 34.8 60.3 35.3 60.3 36.4 L 60.3 53.9 C 60.3 55.0 60.8 55.5 61.8 55.5 L 63.3 55.5 C 64.4 55.5 64.9 55.0 64.9 53.9 L 64.9 36.4 " fill="#FFFFFF"></path><path d="M 77.7 58.8 L 77.7 36.6 C 77.7 35.4 77.3 34.8 76.3 34.8 L 75.0 34.8 C 74.0 34.8 73.5 35.4 73.5 36.6 L 73.5 58.8 L 70.1 58.8 L 70.1 36.7 C 70.1 33.2 71.5 31.5 74.2 31.5 L 77.0 31.5 C 79.7 31.5 81.1 33.2 81.1 36.7 L 81.1 58.8 L 77.7 58.8 " fill="#FFFFFF"></path><path d="M 92.8 55.5 L 92.8 58.8 L 83.0 58.8 L 83.0 55.5 L 86.2 55.5 L 86.2 31.5 L 89.6 31.5 L 89.6 55.5 L 92.8 55.5 " fill="#FFFFFF"></path><path d="M 2.0 66.0 L 92.9 66.0 L 92.9 62.0 L 2.0 62.0 Z M 2.0 66.0 " fill="#FFFEFE"></path></g></g></g></svg>