<?xml version="1.0" encoding="UTF-8" standalone="no"?><svg xmlns="http://www.w3.org/2000/svg" xmlns:xlink="http://www.w3.org/1999/xlink" clip-rule="evenodd" stroke-miterlimit="4.00" viewBox="0 0 416 103"><desc>SVG generated by Keynote</desc><defs></defs><g transform="matrix(1.00, 0.00, -0.00, -1.00, 0.0, 103.0)"><g><clipPath id="clip-90"><path d="M 2.0 101.0 L 414.0 101.0 L 414.0 1.0 L 2.0 1.0 Z M 1.8 101.5 "></path></clipPath><g clip-path="url(#clip-90)"><g><clipPath id="clip-91"><path d="M 85.2 101.5 C 84.6 101.5 84.1 101.5 83.5 101.4 C 77.1 101.0 72.1 97.8 68.8 92.0 C 67.2 89.3 67.1 88.9 67.1 83.8 C 67.1 79.1 67.3 78.2 68.3 76.4 C 69.4 74.6 69.5 74.1 68.9 73.4 C 68.0 72.3 64.7 72.5 61.6 73.8 C 59.3 74.8 58.1 74.9 52.6 74.9 C 46.7 74.9 46.0 74.8 43.3 73.6 C 40.3 72.1 37.8 72.2 35.6 73.0 L 34.4 73.0 L 35.9 76.6 C 38.9 83.6 37.5 90.7 32.2 96.1 C 28.1 100.2 25.6 101.3 19.6 101.3 C 13.5 101.3 11.0 100.2 6.9 96.1 C 3.2 92.4 1.8 88.8 1.8 83.7 C 1.8 76.5 6.5 69.8 13.3 67.2 C 17.5 65.5 23.1 65.8 27.0 67.7 C 29.2 68.8 29.8 68.9 30.3 68.3 C 31.5 66.8 31.4 63.7 30.0 59.6 C 27.8 52.9 28.3 45.6 31.3 39.6 C 32.3 37.7 32.2 36.1 31.2 34.0 C 30.7 33.1 30.6 33.2 28.5 34.4 C 27.3 35.1 24.8 35.9 22.9 36.2 C 16.7 37.4 10.6 35.4 6.5 30.9 C 3.0 27.0 2.1 24.6 2.0 19.0 C 2.0 14.7 2.2 13.8 3.5 11.3 C 4.2 9.7 5.8 7.5 6.9 6.4 C 9.6 3.8 13.7 1.6 15.3 1.9 C 16.0 2.0 16.7 1.9 16.8 1.6 C 17.4 0.7 24.9 1.6 27.5 2.9 C 31.4 4.9 34.5 8.3 36.1 12.4 C 37.3 15.4 37.5 16.3 37.2 19.8 C 37.1 22.3 36.6 24.6 35.9 26.1 C 34.9 28.2 34.9 28.4 35.7 29.0 C 37.4 30.3 39.7 30.2 43.0 28.9 C 47.1 27.3 52.2 26.4 54.8 26.8 C 57.8 27.3 63.7 29.1 64.1 29.6 C 64.6 30.4 67.2 29.9 68.3 29.0 L 69.4 28.0 L 68.3 26.1 C 67.3 24.2 67.1 23.0 67.1 19.0 C 67.1 14.7 67.3 13.8 68.5 11.3 C 71.4 5.5 76.5 1.9 82.6 1.4 C 84.5 1.2 86.5 1.3 87.0 1.5 C 87.5 1.7 88.5 1.8 89.1 1.8 C 90.5 1.6 94.4 3.8 96.8 6.0 C 104.0 12.7 104.3 23.7 97.5 31.2 C 95.7 33.2 91.3 35.8 90.1 35.6 C 89.8 35.6 88.8 35.8 88.0 36.2 C 86.3 36.9 80.8 36.6 80.0 35.8 C 79.7 35.5 79.1 35.4 78.8 35.5 C 78.4 35.7 77.3 35.3 76.3 34.7 C 72.8 32.5 71.9 35.5 74.5 40.4 C 75.4 42.0 76.2 44.2 76.3 45.3 C 76.3 46.5 76.5 47.5 76.7 47.7 C 77.2 48.2 77.1 54.3 76.6 54.6 C 76.3 54.8 76.2 55.4 76.4 55.9 C 76.6 57.0 74.9 61.9 73.6 63.8 C 72.8 65.0 72.8 66.8 73.5 68.1 C 74.0 69.0 74.1 69.0 76.9 67.7 C 81.1 65.8 86.7 65.5 90.9 67.2 C 92.5 67.8 94.8 69.1 95.9 70.1 C 97.9 71.8 101.0 75.8 100.9 76.6 C 100.8 76.8 101.1 77.7 101.5 78.5 C 102.4 80.6 102.4 87.7 101.5 89.4 C 101.1 90.1 100.8 90.9 100.8 91.2 C 101.0 92.1 98.1 95.7 95.6 97.7 C 92.5 100.2 89.2 101.4 85.2 101.5 Z M 84.3 97.4 C 84.8 97.4 85.4 97.4 86.1 97.3 C 89.8 97.1 91.3 96.4 94.5 93.5 C 98.5 89.9 99.7 82.7 97.1 77.7 C 95.7 75.0 92.1 71.7 89.6 70.8 C 86.6 69.8 84.0 69.7 81.4 70.4 C 80.0 70.8 78.7 71.1 78.5 71.1 C 77.9 71.2 72.2 76.4 72.3 76.8 C 72.4 77.1 72.0 78.2 71.4 79.4 C 69.2 83.6 70.9 89.9 75.4 94.0 C 78.3 96.6 80.4 97.5 84.3 97.4 Z M 25.2 97.0 L 28.7 94.0 C 31.3 91.4 32.2 90.1 32.7 88.2 C 34.4 82.5 33.3 78.2 29.3 74.2 C 26.9 71.9 25.9 71.2 23.3 70.5 C 19.7 69.5 19.6 69.5 16.1 70.4 C 12.8 71.3 11.0 72.5 8.7 75.3 C 4.4 80.6 4.7 88.1 9.4 92.9 C 13.7 97.3 13.6 96.9 19.7 97.0 L 25.2 97.0 Z M 26.2 91.9 C 25.7 91.9 24.2 90.8 22.8 89.4 C 21.4 88.0 19.9 86.9 19.3 86.9 C 18.0 86.8 16.5 85.4 16.5 84.1 C 16.5 83.5 15.4 82.0 14.0 80.5 C 11.3 77.9 11.0 77.3 12.0 76.3 C 13.1 75.3 13.9 75.6 16.7 78.2 C 18.1 79.6 19.4 80.7 19.6 80.7 C 20.6 80.5 22.1 81.5 22.4 82.4 C 22.6 83.1 22.7 83.6 22.6 83.7 C 22.4 83.7 23.5 84.9 24.9 86.3 C 26.3 87.7 27.2 88.9 27.0 88.9 C 26.7 88.9 26.8 89.2 27.1 89.6 C 27.9 90.5 27.3 91.9 26.2 91.9 Z M 77.5 91.8 C 77.0 91.7 76.7 91.2 76.6 90.4 C 76.5 89.4 77.1 88.5 79.0 86.6 C 80.6 85.1 81.6 83.7 81.6 83.0 C 81.6 81.8 82.3 81.1 84.2 80.5 C 84.9 80.3 86.5 79.1 87.8 77.9 C 90.3 75.6 90.6 75.5 92.0 76.0 C 93.4 76.6 92.8 78.2 90.3 80.8 C 88.9 82.2 87.7 83.7 87.7 84.2 C 87.7 85.3 86.2 86.9 85.1 86.9 C 84.6 86.9 83.0 88.0 81.6 89.4 C 79.8 91.2 78.4 92.0 77.5 91.8 Z M 127.3 68.6 C 125.3 68.6 123.2 68.2 121.5 67.4 C 118.4 66.0 117.6 65.1 115.9 61.3 C 114.7 58.6 114.6 58.0 114.8 53.0 C 114.9 48.2 115.1 47.3 116.5 44.8 C 118.1 41.9 121.8 39.0 123.4 39.4 C 123.9 39.5 124.5 39.4 124.7 39.1 C 124.9 38.8 126.2 38.7 128.2 38.8 C 134.3 39.3 137.8 42.6 139.4 49.1 C 141.2 57.0 138.5 64.6 132.7 67.6 C 131.3 68.3 129.3 68.7 127.3 68.6 Z M 361.3 68.6 C 358.8 68.6 358.0 68.1 357.3 65.7 C 356.3 62.6 352.8 54.7 352.2 54.5 C 352.0 54.4 351.3 55.2 350.9 56.3 C 350.4 57.4 349.5 59.5 348.7 61.0 C 348.0 62.5 347.5 64.0 347.5 64.2 C 347.7 64.8 346.1 67.8 345.4 68.2 C 344.4 68.9 340.1 68.7 339.5 67.9 C 339.0 67.3 338.9 65.1 339.0 59.9 C 339.1 55.9 339.1 52.4 338.9 52.1 C 338.7 51.9 338.5 48.9 338.4 45.6 C 338.3 40.2 338.3 39.5 339.1 39.5 C 339.5 39.5 340.1 39.3 340.3 39.1 C 340.8 38.6 341.9 38.6 343.1 39.2 C 344.0 39.7 344.1 40.4 344.1 46.0 C 344.1 50.9 344.2 52.4 344.8 52.9 C 345.4 53.4 345.7 53.2 346.4 51.6 C 348.9 45.7 349.1 45.3 350.4 45.0 C 351.1 44.8 352.0 45.0 352.4 45.3 C 352.8 45.6 353.4 45.7 353.8 45.5 C 354.1 45.3 354.3 45.4 354.1 45.6 C 353.9 45.9 354.2 46.5 354.8 47.0 C 355.3 47.4 355.9 48.4 356.1 49.2 C 356.6 51.5 358.3 54.5 358.8 54.2 C 359.1 54.0 359.0 50.8 359.0 46.8 L 359.0 40.0 L 360.6 39.0 C 362.4 38.3 364.0 38.6 365.2 39.4 C 366.1 40.1 366.1 40.6 365.5 53.2 C 365.1 60.4 364.6 66.8 364.3 67.5 C 363.8 68.4 363.3 68.6 361.3 68.6 Z M 223.2 68.6 C 222.0 68.6 221.1 68.1 220.7 68.0 L 219.0 68.0 L 219.0 53.6 C 219.0 39.4 219.5 39.1 220.5 39.4 C 221.0 39.5 221.6 39.4 221.8 39.2 C 222.1 38.7 229.8 38.5 230.3 39.0 C 230.5 39.2 231.4 39.4 232.3 39.5 C 234.6 39.6 238.1 41.6 239.9 43.8 C 241.7 46.1 243.1 51.3 242.7 54.9 C 242.0 61.0 239.8 64.8 235.6 66.9 C 233.3 68.1 232.2 68.3 227.5 68.5 C 226.0 68.6 224.5 68.6 223.2 68.6 Z M 127.0 62.5 C 129.6 62.5 130.8 61.8 131.6 59.8 C 133.6 55.0 133.0 48.8 130.2 46.0 C 128.4 44.2 127.3 44.0 125.4 44.9 C 122.8 46.3 122.3 48.0 122.0 53.4 L 122.0 58.5 L 123.2 60.5 C 124.7 62.2 125.2 62.5 127.0 62.5 Z M 226.0 62.3 L 229.0 62.0 C 231.5 62.0 232.0 62.0 233.2 60.6 C 237.0 56.5 236.2 48.2 231.9 45.8 C 229.7 44.5 227.3 44.2 226.6 45.0 C 226.2 45.5 225.9 48.4 226.0 54.0 L 226.0 62.3 Z M 156.9 61.0 C 156.7 61.0 156.5 60.9 156.3 60.6 C 156.0 60.3 155.4 60.2 155.0 60.3 C 154.7 60.5 153.7 60.2 153.0 59.8 C 151.8 59.0 151.6 59.0 150.8 59.7 C 149.9 60.6 146.2 60.7 146.2 59.9 C 146.2 59.7 146.0 52.9 146.0 44.8 L 146.0 30.0 L 149.0 30.0 L 152.0 30.0 L 152.0 34.3 L 152.0 38.0 L 155.0 39.0 C 158.9 39.4 162.3 41.3 163.8 44.2 C 165.4 47.3 165.5 53.1 164.0 56.3 C 162.9 58.5 159.9 60.8 158.7 60.3 C 158.3 60.2 157.8 60.3 157.5 60.6 C 157.2 60.9 157.1 61.0 156.9 61.0 Z M 379.3 60.9 C 379.0 60.9 378.8 60.8 378.5 60.6 C 378.1 60.3 377.4 60.1 376.9 60.3 C 376.0 60.7 372.3 60.1 372.7 59.6 C 372.9 59.5 372.8 59.1 372.6 58.8 C 372.3 58.4 372.6 57.6 373.0 56.6 L 373.0 55.0 L 377.0 55.0 C 380.0 55.3 380.5 55.4 381.4 54.5 C 382.5 53.2 382.3 53.1 378.0 52.7 C 373.0 52.3 370.6 49.6 371.2 44.9 C 371.4 43.0 371.8 42.2 373.3 40.8 C 374.5 39.7 375.5 39.2 376.1 39.4 C 376.7 39.5 377.3 39.4 377.4 39.1 C 377.9 38.5 385.4 39.2 387.5 40.0 L 389.0 40.0 L 389.0 47.7 C 388.9 54.1 388.4 55.4 387.5 56.9 C 386.3 59.0 383.5 60.7 382.1 60.3 C 381.5 60.2 380.7 60.3 380.2 60.6 C 379.8 60.8 379.5 61.0 379.3 60.9 Z M 301.3 60.9 C 301.1 60.9 300.9 60.8 300.7 60.6 C 300.4 60.3 299.9 60.2 299.5 60.3 C 299.1 60.5 298.2 60.2 297.4 59.7 C 296.2 58.9 296.0 58.9 295.4 59.7 C 295.0 60.4 294.2 60.1 292.4 60.0 L 290.0 60.0 L 290.0 49.9 C 290.0 40.5 290.0 39.5 290.7 39.5 C 291.2 39.5 291.8 39.3 292.0 39.1 C 292.4 38.6 292.6 38.6 294.6 39.0 L 296.0 39.0 L 296.0 46.1 C 296.2 51.8 296.7 53.0 297.5 53.9 C 298.5 55.1 300.3 55.3 301.2 54.3 C 301.6 53.9 301.8 51.6 301.8 47.0 C 301.8 40.6 302.0 39.7 303.4 39.4 C 303.5 39.4 304.0 39.2 304.5 39.0 C 305.0 38.8 306.2 38.7 307.1 39.0 L 309.0 40.0 L 309.0 47.6 C 309.0 55.7 308.7 55.8 307.3 57.9 C 306.0 59.8 303.8 61.1 303.0 60.3 C 302.8 60.1 302.4 60.3 302.0 60.6 C 301.7 60.8 301.5 60.9 301.3 60.9 Z M 205.7 60.9 C 205.5 60.8 205.2 60.8 205.1 60.6 C 204.8 60.3 204.3 60.2 203.9 60.3 C 203.5 60.5 202.6 60.3 202.0 59.8 C 200.9 59.1 200.6 59.1 199.8 59.8 C 199.3 60.1 197.9 60.0 196.7 60.0 L 195.0 60.0 L 195.0 49.9 C 195.0 40.2 194.6 39.3 195.4 39.1 C 196.8 38.7 198.2 38.7 199.5 39.0 C 200.6 39.3 200.6 39.5 200.6 45.5 C 200.6 50.8 200.8 51.9 201.7 53.3 C 202.5 54.7 203.0 55.0 204.1 54.8 C 206.2 54.6 207.0 52.9 207.0 45.7 L 207.0 39.0 L 208.3 39.0 C 209.1 38.8 210.5 38.8 211.3 39.0 L 213.0 39.0 L 213.0 47.3 C 213.0 51.8 212.6 55.5 212.4 55.7 C 212.1 55.8 212.0 56.4 212.2 56.9 C 212.5 58.1 209.5 60.6 208.1 60.4 C 207.5 60.3 206.7 60.5 206.3 60.7 C 206.1 60.8 205.9 60.9 205.7 60.9 Z M 405.6 60.9 C 405.3 60.8 405.1 60.8 405.0 60.6 C 404.7 60.3 404.1 60.2 403.8 60.3 C 403.4 60.5 402.5 60.3 401.8 59.8 C 400.7 59.1 400.5 59.1 400.0 59.8 C 399.5 60.3 398.6 60.1 397.0 60.0 L 395.0 60.0 L 395.0 45.2 L 394.0 30.0 L 397.7 30.0 L 401.0 30.0 L 401.0 34.3 L 401.0 38.0 L 402.8 39.0 C 403.6 39.1 404.7 38.9 405.1 39.1 C 405.5 39.3 406.2 39.3 406.5 39.3 C 408.8 38.9 414.1 44.7 413.6 47.1 C 413.5 47.8 413.6 48.5 413.8 48.6 C 414.4 49.0 414.4 51.8 413.8 52.1 C 413.5 52.3 413.4 52.8 413.6 53.4 C 414.2 55.7 410.0 60.8 407.8 60.4 C 407.3 60.3 406.6 60.5 406.2 60.7 C 406.0 60.8 405.8 60.9 405.6 60.9 Z M 179.3 60.9 C 179.0 60.8 178.8 60.7 178.6 60.6 C 178.2 60.3 177.8 60.1 177.6 60.3 C 177.0 60.9 174.8 60.0 173.1 58.6 C 170.8 56.6 169.6 53.8 169.6 49.9 C 169.7 44.2 171.5 41.0 175.9 39.4 C 177.8 38.7 183.2 38.5 183.6 39.2 C 183.7 39.4 184.3 39.5 184.9 39.4 C 186.5 38.9 188.1 40.7 187.7 42.5 C 187.5 43.3 187.1 44.2 186.8 44.3 C 186.5 44.5 184.5 44.6 182.4 44.4 C 178.7 44.2 178.4 44.3 177.3 45.5 C 175.7 47.2 176.0 46.8 183.1 47.0 L 189.0 48.0 L 189.0 50.0 C 189.2 53.8 187.7 57.2 185.2 59.0 C 184.1 59.9 182.7 60.5 182.1 60.5 C 181.5 60.4 180.6 60.5 180.1 60.7 C 179.9 60.9 179.6 60.9 179.3 60.9 Z M 273.9 60.9 C 273.6 60.8 273.4 60.7 273.2 60.6 C 272.8 60.3 272.4 60.1 272.2 60.3 C 271.2 61.4 266.8 58.5 265.4 55.9 C 264.4 53.8 264.0 48.5 264.7 45.9 C 265.4 43.2 268.3 39.9 270.5 39.3 C 272.7 38.6 276.3 38.6 276.7 39.2 C 276.8 39.5 277.3 39.6 277.7 39.4 C 279.3 38.8 283.7 43.2 283.8 45.5 C 283.9 46.1 284.1 47.0 284.3 47.5 C 285.1 49.3 284.2 54.4 282.7 56.5 C 281.1 58.8 278.4 60.6 276.8 60.5 C 276.2 60.4 275.2 60.5 274.8 60.7 C 274.5 60.9 274.2 60.9 273.9 60.9 Z M 323.7 60.8 C 323.5 60.8 323.3 60.8 323.1 60.7 C 322.7 60.5 321.9 60.4 321.2 60.4 C 319.7 60.6 317.0 58.8 315.3 56.5 C 313.1 53.5 313.1 46.4 315.3 43.2 C 316.7 41.1 319.6 39.1 320.8 39.4 C 321.3 39.5 321.8 39.4 322.0 39.2 C 322.4 38.5 326.9 38.6 329.6 39.3 C 331.6 39.8 331.9 40.0 331.9 41.3 C 331.9 43.5 330.8 45.4 329.9 45.0 C 329.4 44.8 327.5 44.5 325.6 44.3 C 322.4 44.0 322.1 44.1 321.4 45.2 C 321.0 45.8 320.8 46.6 320.9 46.8 C 321.1 47.1 323.7 47.3 326.8 47.3 C 332.8 47.3 333.4 47.6 333.4 50.6 C 333.4 52.5 331.9 56.6 330.7 57.9 C 329.3 59.4 327.0 60.6 325.8 60.4 C 325.4 60.3 324.7 60.5 324.3 60.7 C 324.2 60.8 323.9 60.8 323.7 60.8 Z M 258.6 60.5 C 257.6 60.4 256.5 60.1 255.7 59.6 C 254.5 58.8 254.4 58.8 253.8 59.7 C 253.3 60.3 252.5 60.1 250.9 60.0 L 249.0 60.0 L 249.0 49.7 C 248.9 40.5 248.5 39.1 249.2 39.4 C 249.6 39.6 250.1 39.5 250.2 39.2 C 250.6 38.6 252.2 38.6 252.7 39.1 C 252.9 39.3 253.5 39.5 253.9 39.5 C 254.7 39.5 254.8 40.4 255.1 46.2 C 255.3 53.8 255.7 54.4 258.9 54.4 C 260.1 54.4 260.8 54.7 261.1 55.4 C 261.8 56.7 261.8 59.2 261.0 59.9 C 260.6 60.3 259.7 60.5 258.6 60.5 Z M 323.5 55.4 C 325.2 55.4 327.1 53.8 326.5 52.8 C 326.3 52.6 325.0 52.4 323.5 52.4 C 320.4 52.4 319.9 52.8 321.0 54.3 C 321.5 55.1 322.3 55.4 323.5 55.4 Z M 179.6 55.4 C 181.2 55.4 182.6 54.5 182.1 53.2 C 181.9 52.6 181.1 52.4 179.3 52.4 C 176.4 52.4 175.7 53.0 177.0 54.5 C 177.6 55.2 178.6 55.5 179.6 55.4 Z M 274.5 55.4 C 275.4 55.4 276.2 54.9 276.7 54.1 C 277.8 52.5 277.9 47.2 277.0 45.4 C 276.5 44.6 275.9 44.3 274.4 44.3 C 272.6 44.3 272.3 44.5 271.5 45.9 C 270.4 48.0 270.7 52.9 272.1 54.4 C 272.7 55.1 273.6 55.5 274.5 55.4 Z M 154.7 54.9 C 157.1 54.9 157.9 53.6 157.9 49.8 C 157.9 47.0 157.7 46.3 156.7 45.4 C 155.6 44.3 152.9 43.9 152.1 44.6 C 151.5 45.3 151.8 51.4 152.5 53.2 C 153.1 54.6 153.5 54.9 154.7 54.9 Z M 403.9 54.9 C 404.6 54.8 405.5 54.4 406.1 53.5 C 407.1 52.3 407.2 51.7 407.0 49.1 C 406.8 46.8 406.4 45.9 405.5 45.2 C 404.3 44.3 402.0 44.0 401.4 44.6 C 400.6 45.3 401.0 52.7 401.8 53.8 C 402.4 54.6 403.1 54.9 403.9 54.9 Z M 380.3 48.5 C 381.9 48.6 382.0 48.5 382.0 46.6 C 382.0 44.6 381.9 44.5 380.2 44.4 C 378.3 44.2 377.1 45.0 377.1 46.4 C 377.1 47.6 378.4 48.4 380.3 48.5 Z M 84.6 32.7 C 86.7 32.7 88.9 32.3 90.3 31.6 C 95.7 28.9 98.4 24.6 98.4 19.0 C 98.4 13.1 95.5 8.7 89.7 6.1 C 86.4 4.5 83.3 4.4 79.8 5.8 C 74.2 8.1 69.9 14.6 70.6 19.9 C 71.2 24.9 74.3 29.3 78.9 31.6 C 80.4 32.3 82.5 32.7 84.6 32.7 Z M 19.8 32.7 C 24.1 32.8 25.7 32.0 29.5 28.3 C 31.8 26.0 32.3 25.3 33.0 22.2 C 33.6 19.2 33.7 18.3 33.1 15.8 C 32.1 11.3 28.9 7.8 24.3 5.9 C 20.9 4.5 18.0 4.5 14.6 6.0 C 5.5 9.9 2.8 20.7 9.1 27.9 C 12.0 31.2 15.1 32.5 19.8 32.7 Z M 13.1 27.0 C 12.7 27.0 12.4 26.8 12.0 26.5 C 11.0 25.5 11.3 24.7 13.9 21.9 C 15.2 20.4 16.5 18.6 16.7 17.8 C 16.9 16.9 17.5 16.3 18.4 16.1 C 19.2 15.9 21.0 14.7 22.5 13.3 C 25.2 10.8 26.8 10.2 27.4 11.7 C 27.9 13.0 27.8 13.3 25.5 15.5 C 24.3 16.7 23.1 18.4 22.9 19.2 C 22.5 20.2 21.6 21.1 20.0 22.0 C 18.7 22.7 16.7 24.1 15.7 25.2 C 14.4 26.4 13.7 27.0 13.1 27.0 Z M 91.8 27.0 C 91.0 27.1 89.7 26.3 87.9 24.6 C 86.6 23.2 85.0 22.0 84.5 22.0 C 83.1 22.0 81.6 20.6 81.6 19.2 C 81.6 18.5 80.7 17.3 79.1 16.0 C 76.7 14.0 75.9 12.2 76.9 11.2 C 77.7 10.3 79.3 11.1 81.8 13.4 C 83.3 14.8 84.8 15.9 85.1 15.9 C 85.9 15.9 87.7 17.8 87.7 18.6 C 87.7 19.0 88.9 20.4 90.3 21.8 C 92.2 23.7 92.8 24.6 92.7 25.5 C 92.6 26.4 92.3 26.8 91.8 27.0 Z M 91.8 27.0 "></path></clipPath><g clip-path="url(#clip-91)"><image xlink:href="9FF59CC8E21F361771A728B5D29D3565.png" width="435.00" height="121.00" transform="matrix(1.00, 0.00, -0.00, -1.01, -13.0, 113.0)"></image></g></g></g></g></g></svg>