<?xml version="1.0" encoding="UTF-8" standalone="no"?><svg xmlns="http://www.w3.org/2000/svg" xmlns:xlink="http://www.w3.org/1999/xlink" clip-rule="evenodd" stroke-miterlimit="4.00" viewBox="0 0 22 8"><desc>SVG generated by Keynote</desc><defs></defs><g transform="matrix(1.00, 0.00, -0.00, -1.00, 0.0, 8.0)"><g><clipPath id="clip-82"><path d="M 2.0 6.0 L 20.0 6.0 L 20.0 2.0 L 2.0 2.0 Z M 1.7 6.3 "></path></clipPath><g clip-path="url(#clip-82)"><g><clipPath id="clip-83"><path d="M 5.4 6.3 C 5.4 6.3 5.4 6.3 5.4 6.3 C 5.1 6.3 4.9 6.1 4.7 5.8 C 4.6 5.7 4.6 5.7 4.6 5.5 C 4.6 5.3 4.6 5.2 4.7 5.1 C 4.7 5.1 4.7 5.0 4.7 5.0 C 4.7 5.0 4.5 5.0 4.4 5.0 C 4.3 5.1 4.2 5.1 4.0 5.1 C 3.7 5.1 3.7 5.1 3.5 5.0 C 3.4 4.9 3.3 5.0 3.2 5.0 L 3.0 5.0 L 3.0 5.1 C 3.1 5.5 3.3 5.8 3.0 6.0 C 2.9 6.2 2.7 6.3 2.5 6.3 C 2.2 6.3 2.1 6.2 1.9 6.0 C 1.7 5.9 1.7 5.7 1.7 5.5 C 1.7 5.1 1.9 4.8 2.2 4.7 C 2.4 4.6 2.6 4.7 2.8 4.7 C 2.9 4.8 2.9 4.8 3.0 4.8 C 3.0 4.7 3.0 4.6 2.9 4.4 C 2.8 4.1 2.9 3.7 3.0 3.5 C 3.0 3.4 3.0 3.3 3.0 3.2 C 3.0 3.2 3.0 3.2 2.9 3.2 C 2.8 3.3 2.7 3.3 2.6 3.3 C 2.3 3.4 2.1 3.3 1.9 3.1 C 1.7 2.9 1.7 2.8 1.7 2.5 C 1.7 2.3 1.7 2.3 1.7 2.2 C 1.8 2.1 1.8 2.0 1.9 2.0 C 2.0 1.8 2.2 1.7 2.3 1.8 C 2.3 1.8 2.3 1.8 2.3 1.7 C 2.4 1.7 2.7 1.7 2.8 1.8 C 3.0 1.9 3.1 2.0 3.2 2.2 C 3.3 2.4 3.3 2.4 3.3 2.6 C 3.3 2.7 3.2 2.8 3.2 2.9 C 3.2 3.0 3.2 3.0 3.2 3.0 C 3.3 3.0 3.4 3.0 3.5 3.0 C 3.7 2.9 3.9 2.9 4.1 2.9 C 4.2 2.9 4.5 3.0 4.5 3.0 C 4.5 3.1 4.6 3.0 4.7 3.0 L 5.0 3.0 L 5.0 2.9 C 5.0 2.8 4.6 2.7 4.6 2.5 C 4.6 2.3 4.6 2.3 4.7 2.2 C 4.8 1.9 5.1 1.8 5.3 1.7 C 5.4 1.7 5.5 1.7 5.5 1.7 C 5.6 1.7 5.6 1.8 5.6 1.8 C 5.7 1.7 5.9 1.8 6.0 1.9 C 6.3 2.2 6.3 2.7 6.0 3.1 C 5.9 3.2 5.7 3.3 5.7 3.3 C 5.7 3.3 5.6 3.3 5.6 3.3 C 5.5 3.3 5.2 3.3 5.2 3.3 C 5.2 3.3 5.2 3.3 5.2 3.3 C 5.1 3.3 5.1 3.3 5.0 3.2 C 4.9 3.1 4.8 3.3 5.0 3.5 C 5.0 3.6 5.0 3.7 5.0 3.7 C 5.0 3.8 5.1 3.8 5.1 3.8 C 5.1 3.9 5.1 4.1 5.1 4.2 C 5.0 4.2 5.0 4.2 5.0 4.2 C 5.1 4.3 5.0 4.5 4.9 4.6 C 4.9 4.6 4.9 4.7 4.9 4.8 C 4.9 4.8 4.9 4.8 5.1 4.7 C 5.3 4.7 5.5 4.6 5.7 4.7 C 5.8 4.8 5.9 4.8 5.9 4.9 C 6.0 4.9 6.2 5.1 6.2 5.1 C 6.2 5.2 6.2 5.2 6.2 5.2 C 6.2 5.3 6.2 5.7 6.2 5.7 C 6.2 5.8 6.2 5.8 6.2 5.8 C 6.2 5.9 6.0 6.0 5.9 6.1 C 5.8 6.2 5.6 6.3 5.4 6.3 Z M 5.4 6.1 C 5.4 6.1 5.5 6.1 5.5 6.1 C 5.7 6.1 5.7 6.1 5.9 5.9 C 6.1 5.8 6.1 5.4 6.0 5.2 C 5.9 5.1 5.8 4.9 5.6 4.9 C 5.5 4.8 5.4 4.8 5.3 4.9 C 5.2 4.9 5.2 4.9 5.1 4.9 C 5.1 4.9 4.9 5.1 4.9 5.2 C 4.9 5.2 4.8 5.2 4.8 5.3 C 4.7 5.5 4.8 5.8 5.0 5.9 C 5.1 6.1 5.2 6.1 5.4 6.1 Z M 2.7 6.0 L 2.7 6.1 C 3.0 5.8 3.0 5.8 3.1 5.7 C 3.1 5.4 3.1 5.2 2.9 5.0 C 2.8 4.9 2.8 4.9 2.6 4.9 C 2.5 4.8 2.5 4.8 2.3 4.9 C 2.2 4.9 2.1 5.0 2.0 5.1 C 1.8 5.3 1.8 5.7 2.0 5.9 C 2.2 6.1 2.2 6.0 2.5 6.0 L 2.7 6.0 Z M 2.8 5.8 C 2.7 5.8 2.7 5.8 2.6 5.7 C 2.6 5.7 2.5 5.6 2.5 5.6 C 2.4 5.6 2.3 5.6 2.3 5.5 C 2.3 5.5 2.3 5.4 2.2 5.3 C 2.1 5.2 2.1 5.2 2.1 5.1 C 2.2 5.1 2.2 5.1 2.3 5.2 C 2.4 5.3 2.5 5.3 2.5 5.3 C 2.5 5.3 2.6 5.4 2.6 5.4 C 2.6 5.4 2.6 5.5 2.6 5.5 C 2.6 5.5 2.6 5.5 2.7 5.6 C 2.8 5.7 2.8 5.7 2.8 5.7 C 2.8 5.7 2.8 5.7 2.8 5.7 C 2.8 5.8 2.8 5.8 2.8 5.8 Z M 5.1 5.8 C 5.1 5.8 5.1 5.8 5.1 5.8 C 5.1 5.7 5.1 5.7 5.2 5.6 C 5.2 5.5 5.3 5.5 5.3 5.4 C 5.3 5.4 5.3 5.4 5.4 5.3 C 5.4 5.3 5.5 5.3 5.6 5.2 C 5.7 5.1 5.7 5.1 5.8 5.1 C 5.8 5.1 5.8 5.2 5.7 5.3 C 5.6 5.4 5.6 5.5 5.6 5.5 C 5.6 5.5 5.5 5.6 5.4 5.6 C 5.4 5.6 5.3 5.7 5.3 5.7 C 5.2 5.8 5.1 5.9 5.1 5.8 Z M 7.4 4.8 C 7.3 4.8 7.2 4.8 7.1 4.7 C 7.0 4.7 6.9 4.6 6.8 4.5 C 6.8 4.3 6.8 4.3 6.8 4.1 C 6.8 3.9 6.8 3.8 6.9 3.7 C 6.9 3.6 7.1 3.4 7.2 3.5 C 7.2 3.5 7.2 3.5 7.2 3.4 C 7.3 3.4 7.3 3.4 7.4 3.4 C 7.7 3.5 7.8 3.6 7.9 3.9 C 8.0 4.3 7.9 4.6 7.6 4.7 C 7.5 4.8 7.5 4.8 7.4 4.8 Z M 18.0 4.8 C 17.9 4.8 17.8 4.8 17.8 4.7 C 17.8 4.5 17.6 4.2 17.6 4.1 C 17.6 4.1 17.5 4.2 17.5 4.2 C 17.5 4.3 17.5 4.4 17.4 4.4 C 17.4 4.5 17.4 4.6 17.4 4.6 C 17.4 4.6 17.3 4.8 17.3 4.8 C 17.2 4.8 17.0 4.8 17.0 4.8 C 17.0 4.7 17.0 4.6 17.0 4.4 C 17.0 4.2 17.0 4.1 17.0 4.0 C 17.0 4.0 17.0 3.9 17.0 3.7 C 16.9 3.5 16.9 3.5 17.0 3.5 C 17.0 3.5 17.0 3.5 17.0 3.4 C 17.1 3.4 17.1 3.4 17.2 3.5 C 17.2 3.5 17.2 3.5 17.2 3.8 C 17.2 4.0 17.2 4.1 17.2 4.1 C 17.3 4.1 17.3 4.1 17.3 4.0 C 17.4 3.7 17.4 3.7 17.5 3.7 C 17.5 3.7 17.6 3.7 17.6 3.7 C 17.6 3.7 17.6 3.7 17.7 3.7 C 17.7 3.7 17.7 3.7 17.7 3.7 C 17.7 3.8 17.7 3.8 17.7 3.8 C 17.7 3.8 17.7 3.9 17.8 3.9 C 17.8 4.0 17.9 4.1 17.9 4.1 C 17.9 4.1 18.0 4.0 18.0 3.8 L 18.0 3.0 L 18.0 3.0 C 18.0 3.0 18.1 3.4 18.2 3.5 C 18.2 3.5 18.2 3.5 18.2 4.1 C 18.2 4.4 18.1 4.7 18.1 4.7 C 18.1 4.8 18.1 4.8 18.0 4.8 Z M 11.7 4.8 C 11.7 4.8 11.6 5.0 11.6 5.0 L 12.0 5.0 L 12.0 4.1 C 12.0 3.5 11.5 3.4 11.6 3.5 C 11.6 3.5 11.6 3.5 11.7 3.5 C 11.7 3.4 12.0 3.4 12.0 3.4 C 12.0 3.5 12.1 3.5 12.1 3.5 C 12.2 3.5 12.4 3.6 12.5 3.7 C 12.6 3.8 12.6 4.0 12.6 4.2 C 12.6 4.4 12.5 4.6 12.3 4.7 C 12.2 4.8 12.1 4.8 11.9 4.8 C 11.8 4.8 11.8 4.8 11.7 4.8 Z M 7.3 4.5 C 7.5 4.5 7.5 4.5 7.6 4.4 C 7.6 4.2 7.6 3.9 7.5 3.8 C 7.4 3.7 7.4 3.7 7.3 3.7 C 7.2 3.8 7.0 3.9 7.0 4.1 L 7.0 4.3 L 7.0 4.4 C 7.1 4.5 7.3 4.5 7.3 4.5 Z M 12.0 4.5 L 12.0 5.0 C 12.1 5.0 12.1 4.5 12.2 4.4 C 12.3 4.2 12.3 3.9 12.1 3.8 C 12.0 3.7 11.9 3.7 11.9 3.7 C 11.9 3.7 12.0 3.9 12.0 4.1 L 12.0 4.5 Z M 8.7 4.4 C 8.7 4.4 8.7 4.4 8.7 4.4 C 8.7 4.4 8.6 4.4 8.6 4.4 C 8.6 4.4 8.6 4.4 8.5 4.4 C 8.5 4.4 8.5 4.4 8.4 4.4 C 8.4 4.4 8.2 4.4 8.2 4.4 C 8.2 4.4 8.0 4.1 8.0 3.7 L 8.0 3.0 L 8.3 3.0 L 8.0 3.0 L 8.0 3.2 L 8.0 3.0 L 8.6 3.0 C 8.8 3.0 9.0 3.5 9.0 3.7 C 9.1 3.8 9.1 4.1 9.0 4.2 C 9.0 4.3 8.8 4.4 8.8 4.4 C 8.8 4.4 8.7 4.4 8.7 4.4 C 8.7 4.4 8.7 4.4 8.7 4.4 Z M 18.8 4.4 C 18.8 4.4 18.8 4.4 18.8 4.4 C 18.8 4.4 18.7 4.4 18.7 4.4 C 18.7 4.4 18.5 4.4 18.5 4.4 C 18.5 4.4 18.5 4.4 18.5 4.3 C 18.5 4.3 19.0 4.3 19.0 4.2 L 19.0 4.0 L 18.7 4.0 C 18.8 4.0 18.9 4.2 18.9 4.1 C 19.0 4.1 18.9 4.1 18.8 4.1 C 18.5 4.0 18.4 3.9 18.4 3.7 C 18.4 3.6 18.5 3.6 18.5 3.5 C 18.6 3.5 18.6 3.5 18.7 3.5 C 18.7 3.5 18.7 3.5 18.7 3.4 C 18.7 3.4 19.1 3.0 19.2 3.0 L 19.0 4.0 L 19.0 3.8 C 19.0 4.1 19.2 4.2 19.2 4.3 C 19.1 4.3 19.0 4.4 18.9 4.4 C 18.9 4.4 18.9 4.4 18.8 4.4 C 18.8 4.4 18.8 4.4 18.8 4.4 Z M 15.3 4.4 C 15.3 4.4 15.3 4.4 15.2 4.4 C 15.2 4.4 15.2 4.4 15.2 4.4 C 15.2 4.4 15.1 4.4 15.1 4.4 C 15.0 4.3 15.0 4.3 15.0 4.4 C 15.0 4.4 14.9 4.0 14.9 4.0 L 15.0 4.0 L 15.0 3.9 C 15.0 3.5 14.8 3.5 14.8 3.5 C 14.8 3.5 14.8 3.5 14.8 3.4 C 14.9 3.4 14.9 3.0 15.0 3.0 L 15.0 3.0 L 15.0 3.8 C 15.0 4.0 15.1 4.1 15.1 4.1 C 15.1 4.2 15.2 4.2 15.3 4.1 C 15.3 4.1 15.3 4.0 15.3 3.8 C 15.3 3.5 15.3 3.5 15.4 3.5 C 15.4 3.5 15.4 3.5 15.4 3.4 C 15.4 3.4 15.5 3.0 15.5 3.0 L 16.0 3.0 L 16.0 3.8 C 16.0 4.2 15.6 4.2 15.5 4.3 C 15.5 4.4 15.4 4.4 15.3 4.4 C 15.3 4.4 15.3 4.4 15.3 4.4 C 15.3 4.4 15.3 4.4 15.3 4.4 Z M 10.9 4.4 C 10.9 4.4 10.9 4.4 10.9 4.4 C 10.9 4.4 10.9 4.4 10.8 4.4 C 10.8 4.4 10.8 4.4 10.8 4.4 C 10.7 4.4 10.7 4.4 10.7 4.4 C 10.6 4.4 10.6 4.0 10.5 4.0 L 10.0 4.0 L 10.0 3.9 C 10.0 3.5 10.4 3.5 10.5 3.4 C 10.5 3.4 10.6 3.4 10.6 3.4 C 10.7 3.5 10.7 3.5 10.7 3.7 C 10.7 4.0 10.7 4.0 10.7 4.1 C 10.8 4.2 10.8 4.2 10.8 4.2 C 10.9 4.2 11.0 4.1 11.0 3.7 L 11.0 3.0 L 11.0 3.0 C 11.1 3.0 11.1 3.0 11.2 3.0 L 11.0 3.0 L 11.0 3.8 C 11.0 4.0 11.2 4.2 11.2 4.2 C 11.2 4.2 11.2 4.2 11.2 4.3 C 11.2 4.3 11.1 4.4 11.0 4.4 C 11.0 4.4 11.0 4.4 11.0 4.4 C 10.9 4.4 10.9 4.4 10.9 4.4 Z M 20.0 4.4 C 20.0 4.4 20.0 4.4 20.0 4.4 C 20.0 4.4 19.9 4.4 19.9 4.4 C 19.9 4.4 19.9 4.4 19.8 4.4 C 19.8 4.4 19.8 4.4 19.7 4.4 C 19.7 4.4 19.7 4.0 19.6 4.0 L 20.0 4.0 L 20.0 3.7 L 20.0 3.0 L 19.6 3.0 L 20.0 3.0 L 20.0 3.2 L 20.0 3.0 L 19.9 3.0 C 19.9 3.0 20.0 3.4 20.0 3.4 C 20.0 3.5 20.0 3.5 20.0 3.5 C 20.2 3.4 20.4 3.7 20.4 3.8 C 20.4 3.8 20.4 3.9 20.4 3.9 C 20.4 3.9 20.4 4.0 20.4 4.0 C 20.4 4.0 20.4 4.1 20.4 4.1 C 20.4 4.2 20.2 4.4 20.1 4.4 C 20.1 4.4 20.0 4.4 20.0 4.4 C 20.0 4.4 20.0 4.4 20.0 4.4 Z M 9.7 4.4 C 9.7 4.4 9.7 4.4 9.7 4.4 C 9.7 4.4 9.7 4.4 9.6 4.4 C 9.6 4.4 9.5 4.4 9.4 4.3 C 9.3 4.2 9.3 4.1 9.3 3.9 C 9.3 3.7 9.4 3.5 9.6 3.5 C 9.7 3.4 9.9 3.4 9.9 3.5 C 9.9 3.5 10.0 3.5 10.0 3.5 C 10.1 3.4 10.1 3.5 10.1 3.6 C 10.1 3.6 10.1 3.7 10.1 3.7 C 10.1 3.7 10.0 3.7 9.9 3.7 C 9.7 3.7 9.7 3.7 9.6 3.7 C 9.6 3.8 9.6 4.0 9.9 4.0 L 10.0 4.0 L 10.0 3.9 C 10.0 4.1 10.1 4.3 10.0 4.4 C 9.9 4.4 9.9 4.4 9.9 4.4 C 9.8 4.4 9.8 4.4 9.8 4.4 C 9.8 4.4 9.7 4.4 9.7 4.4 Z M 14.0 4.4 C 14.0 4.4 14.0 4.4 14.0 4.4 C 14.0 4.4 14.0 4.4 13.9 4.4 C 13.9 4.5 13.7 4.3 13.6 4.2 C 13.6 4.1 13.6 3.9 13.6 3.8 C 13.6 3.6 13.8 3.5 13.9 3.5 C 14.0 3.4 14.1 3.4 14.1 3.5 C 14.2 3.5 14.2 3.5 14.2 3.5 C 14.3 3.4 14.5 3.6 14.5 3.7 C 14.5 3.8 14.5 3.8 14.5 3.8 C 14.5 3.9 14.5 4.1 14.4 4.2 C 14.3 4.3 14.2 4.4 14.2 4.4 C 14.1 4.4 14.1 4.4 14.1 4.4 C 14.0 4.4 14.0 4.4 14.0 4.4 Z M 16.3 4.4 C 16.3 4.4 16.3 4.4 16.3 4.4 C 16.2 4.4 16.2 4.4 16.2 4.4 C 16.1 4.4 16.0 4.3 15.9 4.2 C 15.8 4.1 15.8 3.8 15.9 3.6 C 16.0 3.5 16.1 3.4 16.2 3.5 C 16.2 3.5 16.2 3.5 16.2 3.5 C 16.2 3.4 16.4 3.4 16.6 3.5 C 16.6 3.5 16.7 3.5 16.7 3.5 C 16.7 3.6 16.6 3.7 16.6 3.7 C 16.5 3.7 16.5 3.7 16.4 3.7 C 16.2 3.7 16.2 3.7 16.2 3.7 C 16.2 3.8 16.2 3.8 16.2 3.8 C 16.2 3.8 16.3 3.8 16.4 3.8 C 16.7 3.8 16.7 3.8 16.7 4.0 C 16.7 4.1 16.7 4.2 16.6 4.3 C 16.5 4.4 16.4 4.4 16.4 4.4 C 16.4 4.4 16.3 4.4 16.3 4.4 C 16.3 4.4 16.3 4.4 16.3 4.4 Z M 13.3 4.4 C 13.3 4.4 13.2 4.4 13.2 4.4 C 13.1 4.3 13.1 4.3 13.1 4.4 C 13.1 4.4 13.1 4.0 13.0 4.0 L 13.0 4.0 L 13.0 3.9 C 13.0 3.5 12.9 3.4 12.9 3.5 C 12.9 3.5 12.9 3.5 12.9 3.5 C 13.0 3.4 13.0 3.4 13.1 3.4 C 13.1 3.5 13.1 3.5 13.1 3.5 C 13.1 3.5 13.2 3.5 13.2 3.8 C 13.2 4.1 13.2 4.1 13.3 4.1 C 13.4 4.1 13.4 4.2 13.4 4.2 C 13.5 4.2 13.5 4.4 13.4 4.4 C 13.4 4.4 13.4 4.4 13.3 4.4 Z M 16.3 4.2 C 16.4 4.2 16.4 4.1 16.4 4.1 C 16.4 4.1 16.3 4.1 16.3 4.1 C 16.1 4.1 16.1 4.1 16.2 4.1 C 16.2 4.2 16.2 4.2 16.3 4.2 Z M 9.7 4.2 C 9.8 4.2 9.9 4.1 9.9 4.1 C 9.8 4.1 9.8 4.1 9.7 4.1 C 9.6 4.1 9.6 4.1 9.6 4.1 C 9.6 4.2 9.7 4.2 9.7 4.2 Z M 14.0 4.2 C 14.1 4.2 14.1 4.2 14.2 4.1 C 14.2 4.1 14.2 3.8 14.2 3.7 C 14.1 3.7 14.1 3.7 14.0 3.7 C 14.0 3.7 13.9 3.7 13.9 3.8 C 13.9 3.9 13.9 4.1 13.9 4.1 C 14.0 4.2 14.0 4.2 14.0 4.2 Z M 8.6 4.2 C 8.7 4.2 8.8 4.1 8.8 3.9 C 8.8 3.8 8.7 3.8 8.7 3.7 C 8.6 3.7 8.5 3.7 8.5 3.7 C 8.5 3.7 8.5 4.0 8.5 4.1 C 8.5 4.2 8.6 4.2 8.6 4.2 Z M 19.9 4.2 C 20.0 4.2 20.0 4.1 20.0 4.1 C 20.1 4.0 20.1 4.0 20.1 3.9 C 20.1 3.8 20.0 3.8 20.0 3.7 C 19.9 3.7 19.8 3.7 19.8 3.7 C 19.8 3.7 19.8 4.1 19.8 4.1 C 19.9 4.2 19.9 4.2 19.9 4.2 Z M 18.9 3.9 C 18.9 3.9 18.9 3.9 18.9 3.8 C 18.9 3.7 18.9 3.7 18.8 3.7 C 18.8 3.7 18.7 3.7 18.7 3.8 C 18.7 3.8 18.8 3.9 18.9 3.9 Z M 5.4 3.2 C 5.5 3.2 5.6 3.1 5.7 3.1 C 5.9 3.0 6.0 2.8 6.0 2.5 C 6.0 2.3 5.9 2.1 5.7 1.9 C 5.5 1.9 5.4 1.9 5.2 1.9 C 5.0 2.0 4.8 2.3 4.8 2.6 C 4.8 2.8 5.0 3.0 5.2 3.1 C 5.2 3.1 5.3 3.2 5.4 3.2 Z M 2.5 3.2 C 2.7 3.2 2.7 3.1 2.9 3.0 C 3.0 2.9 3.0 2.8 3.1 2.7 C 3.1 2.5 3.1 2.5 3.1 2.4 C 3.0 2.2 2.9 2.0 2.7 1.9 C 2.5 1.9 2.4 1.9 2.2 1.9 C 1.8 2.1 1.7 2.6 2.0 2.9 C 2.1 3.1 2.3 3.1 2.5 3.2 Z M 2.2 2.9 C 2.2 2.9 2.1 2.9 2.1 2.9 C 2.1 2.8 2.1 2.8 2.2 2.7 C 2.3 2.6 2.3 2.5 2.3 2.5 C 2.3 2.4 2.4 2.4 2.4 2.4 C 2.4 2.4 2.5 2.3 2.6 2.3 C 2.7 2.2 2.8 2.1 2.8 2.2 C 2.8 2.3 2.8 2.3 2.7 2.4 C 2.7 2.4 2.6 2.5 2.6 2.5 C 2.6 2.6 2.6 2.6 2.5 2.7 C 2.4 2.7 2.3 2.8 2.3 2.8 C 2.2 2.9 2.2 2.9 2.2 2.9 Z M 5.7 2.9 C 5.7 2.9 5.7 2.9 5.6 2.8 C 5.5 2.7 5.4 2.7 5.4 2.7 C 5.4 2.7 5.3 2.6 5.3 2.5 C 5.3 2.5 5.2 2.5 5.2 2.4 C 5.1 2.3 5.0 2.2 5.1 2.2 C 5.1 2.1 5.2 2.2 5.3 2.3 C 5.4 2.3 5.4 2.4 5.4 2.4 C 5.5 2.4 5.6 2.5 5.6 2.5 C 5.6 2.5 5.6 2.6 5.7 2.7 C 5.8 2.7 5.8 2.8 5.8 2.8 C 5.8 2.9 5.8 2.9 5.7 2.9 Z M 5.7 2.9 "></path></clipPath><g clip-path="url(#clip-83)"><image xlink:href="../../676E69D9-C3F8-423D-8D6E-0944E69E2AA1/assets/64477AE05C351B8F588CA61E74E1889C.png" width="20.00" height="5.00" transform="matrix(1.00, 0.00, -0.00, -1.20, 1.0, 7.0)"></image></g></g></g></g></g></svg>