<?xml version="1.0" encoding="UTF-8" standalone="no"?><svg xmlns="http://www.w3.org/2000/svg" xmlns:xlink="http://www.w3.org/1999/xlink" clip-rule="evenodd" stroke-miterlimit="4.00" viewBox="0 0 720 540"><desc>SVG generated by Keynote</desc><defs></defs><g transform="matrix(1.00, 0.00, -0.00, -1.00, 0.0, 540.0)"><path d="M 0.0 540.0 L 720.0 540.0 L 720.0 0.0 L 0.0 0.0 Z M 0.0 540.0 " fill="#000000"></path><image xlink:href="../../2FE3439C-CF77-4253-9FD3-C7E8B506A34B/assets/482E7AF7DD8871447C39461A55C5892F.png" width="660.00" height="443.00" transform="matrix(1.00, 0.00, -0.00, -1.00, 30.3, 561.6)"></image><text xml:space="preserve" font-family="Helvetica-Bold" font-weight="bold" font-size="56.0" fill="#FEFFFF" transform="matrix(1.00, 0.00, -0.00, -1.00, 248.0, 243.0)">T</text><text xml:space="preserve" font-family="Helvetica-Bold" font-weight="bold" font-size="56.0" fill="#FEFFFF" transform="matrix(1.00, 0.00, -0.00, -1.00, 282.2, 243.0)">h</text><text xml:space="preserve" font-family="Helvetica-Bold" font-weight="bold" font-size="56.0" fill="#FEFFFF" transform="matrix(1.00, 0.00, -0.00, -1.00, 316.4, 243.0)">e</text><text xml:space="preserve" font-family="Helvetica-Bold" font-weight="bold" font-size="56.0" fill="#FEFFFF" transform="matrix(1.00, 0.00, -0.00, -1.00, 347.5, 243.0)"> </text><text xml:space="preserve" font-family="Helvetica-Bold" font-weight="bold" font-size="56.0" fill="#FEFFFF" transform="matrix(1.00, 0.00, -0.00, -1.00, 363.1, 243.0)">L</text><text xml:space="preserve" font-family="Helvetica-Bold" font-weight="bold" font-size="56.0" fill="#FEFFFF" transform="matrix(1.00, 0.00, -0.00, -1.00, 397.3, 243.0)">a</text><text xml:space="preserve" font-family="Helvetica-Bold" font-weight="bold" font-size="56.0" fill="#FEFFFF" transform="matrix(1.00, 0.00, -0.00, -1.00, 428.4, 243.0)">w</text><g opacity="0.48"><g><clipPath id="clip-33"><path d="M 145.0 540.0 L 609.0 540.0 L 609.0 0.0 L 145.0 0.0 Z M 145.1 540.0 "></path></clipPath><g clip-path="url(#clip-33)"><g><clipPath id="clip-34"><path d="M 144.0 0.0 L 610.0 0.0 L 610.0 540.0 L 144.0 540.0 Z M 144.0 0.0 "></path></clipPath><g clip-path="url(#clip-34)"><image xlink:href="../../2FE3439C-CF77-4253-9FD3-C7E8B506A34B/assets/7C88B57723AC64C5B31592534C7C3D73.png" width="463.00" height="540.00" transform="matrix(1.00, 0.00, -0.00, -1.00, 145.0, 540.0)"></image></g></g></g></g></g><text xml:space="preserve" font-family="Calibri" font-size="14.0" fill="#0463C1" transform="matrix(1.00, 0.00, -0.00, -1.00, 18.0, 6.0)">h</text><text xml:space="preserve" font-family="Calibri" font-size="14.0" fill="#0463C1" transform="matrix(1.00, 0.00, -0.00, -1.00, 25.2, 6.0)">t</text><text xml:space="preserve" font-family="Calibri" font-size="14.0" fill="#0463C1" transform="matrix(1.00, 0.00, -0.00, -1.00, 29.7, 6.0)">t</text><text xml:space="preserve" font-family="Calibri" font-size="14.0" fill="#0463C1" transform="matrix(1.00, 0.00, -0.00, -1.00, 34.4, 6.0)">p</text><text xml:space="preserve" font-family="Calibri" font-size="14.0" fill="#0463C1" transform="matrix(1.00, 0.00, -0.00, -1.00, 41.8, 6.0)">:</text><text xml:space="preserve" font-family="Calibri" font-size="14.0" fill="#0463C1" transform="matrix(1.00, 0.00, -0.00, -1.00, 45.5, 6.0)">/</text><text xml:space="preserve" font-family="Calibri" font-size="14.0" fill="#0463C1" transform="matrix(1.00, 0.00, -0.00, -1.00, 50.9, 6.0)">/</text><text xml:space="preserve" font-family="Calibri" font-size="14.0" fill="#0463C1" transform="matrix(1.00, 0.00, -0.00, -1.00, 56.3, 6.0)">i</text><text xml:space="preserve" font-family="Calibri" font-size="14.0" fill="#0463C1" transform="matrix(1.00, 0.00, -0.00, -1.00, 59.6, 6.0)">m</text><text xml:space="preserve" font-family="Calibri" font-size="14.0" fill="#0463C1" transform="matrix(1.00, 0.00, -0.00, -1.00, 70.7, 6.0)">a</text><text xml:space="preserve" font-family="Calibri" font-size="14.0" fill="#0463C1" transform="matrix(1.00, 0.00, -0.00, -1.00, 77.4, 6.0)">g</text><text xml:space="preserve" font-family="Calibri" font-size="14.0" fill="#0463C1" transform="matrix(1.00, 0.00, -0.00, -1.00, 83.9, 6.0)">e</text><text xml:space="preserve" font-family="Calibri" font-size="14.0" fill="#0463C1" transform="matrix(1.00, 0.00, -0.00, -1.00, 90.9, 6.0)">s</text><text xml:space="preserve" font-family="Calibri" font-size="14.0" fill="#0463C1" transform="matrix(1.00, 0.00, -0.00, -1.00, 96.3, 6.0)">.</text><text xml:space="preserve" font-family="Calibri" font-size="14.0" fill="#0463C1" transform="matrix(1.00, 0.00, -0.00, -1.00, 99.6, 6.0)">f</text><text xml:space="preserve" font-family="Calibri" font-size="14.0" fill="#0463C1" transform="matrix(1.00, 0.00, -0.00, -1.00, 103.9, 6.0)">i</text><text xml:space="preserve" font-family="Calibri" font-size="14.0" fill="#0463C1" transform="matrix(1.00, 0.00, -0.00, -1.00, 107.1, 6.0)">n</text><text xml:space="preserve" font-family="Calibri" font-size="14.0" fill="#0463C1" transform="matrix(1.00, 0.00, -0.00, -1.00, 114.5, 6.0)">e</text><text xml:space="preserve" font-family="Calibri" font-size="14.0" fill="#0463C1" transform="matrix(1.00, 0.00, -0.00, -1.00, 121.4, 6.0)">a</text><text xml:space="preserve" font-family="Calibri" font-size="14.0" fill="#0463C1" transform="matrix(1.00, 0.00, -0.00, -1.00, 128.1, 6.0)">r</text><text xml:space="preserve" font-family="Calibri" font-size="14.0" fill="#0463C1" transform="matrix(1.00, 0.00, -0.00, -1.00, 133.0, 6.0)">t</text><text xml:space="preserve" font-family="Calibri" font-size="14.0" fill="#0463C1" transform="matrix(1.00, 0.00, -0.00, -1.00, 137.5, 6.0)">a</text><text xml:space="preserve" font-family="Calibri" font-size="14.0" fill="#0463C1" transform="matrix(1.00, 0.00, -0.00, -1.00, 144.2, 6.0)">m</text><text xml:space="preserve" font-family="Calibri" font-size="14.0" fill="#0463C1" transform="matrix(1.00, 0.00, -0.00, -1.00, 155.4, 6.0)">e</text><text xml:space="preserve" font-family="Calibri" font-size="14.0" fill="#0463C1" transform="matrix(1.00, 0.00, -0.00, -1.00, 162.4, 6.0)">r</text><text xml:space="preserve" font-family="Calibri" font-size="14.0" fill="#0463C1" transform="matrix(1.00, 0.00, -0.00, -1.00, 167.3, 6.0)">i</text><text xml:space="preserve" font-family="Calibri" font-size="14.0" fill="#0463C1" transform="matrix(1.00, 0.00, -0.00, -1.00, 170.5, 6.0)">c</text><text xml:space="preserve" font-family="Calibri" font-size="14.0" fill="#0463C1" transform="matrix(1.00, 0.00, -0.00, -1.00, 176.3, 6.0)">a</text><text xml:space="preserve" font-family="Calibri" font-size="14.0" fill="#0463C1" transform="matrix(1.00, 0.00, -0.00, -1.00, 183.0, 6.0)">.</text><text xml:space="preserve" font-family="Calibri" font-size="14.0" fill="#0463C1" transform="matrix(1.00, 0.00, -0.00, -1.00, 186.5, 6.0)">c</text><text xml:space="preserve" font-family="Calibri" font-size="14.0" fill="#0463C1" transform="matrix(1.00, 0.00, -0.00, -1.00, 192.3, 6.0)">o</text><text xml:space="preserve" font-family="Calibri" font-size="14.0" fill="#0463C1" transform="matrix(1.00, 0.00, -0.00, -1.00, 199.7, 6.0)">m</text><text xml:space="preserve" font-family="Calibri" font-size="14.0" fill="#0463C1" transform="matrix(1.00, 0.00, -0.00, -1.00, 210.9, 6.0)">/</text><text xml:space="preserve" font-family="Calibri" font-size="14.0" fill="#0463C1" transform="matrix(1.00, 0.00, -0.00, -1.00, 216.3, 6.0)">i</text><text xml:space="preserve" font-family="Calibri" font-size="14.0" fill="#0463C1" transform="matrix(1.00, 0.00, -0.00, -1.00, 219.5, 6.0)">m</text><text xml:space="preserve" font-family="Calibri" font-size="14.0" fill="#0463C1" transform="matrix(1.00, 0.00, -0.00, -1.00, 230.7, 6.0)">a</text><text xml:space="preserve" font-family="Calibri" font-size="14.0" fill="#0463C1" transform="matrix(1.00, 0.00, -0.00, -1.00, 237.4, 6.0)">g</text><text xml:space="preserve" font-family="Calibri" font-size="14.0" fill="#0463C1" transform="matrix(1.00, 0.00, -0.00, -1.00, 243.9, 6.0)">e</text><text xml:space="preserve" font-family="Calibri" font-size="14.0" fill="#0463C1" transform="matrix(1.00, 0.00, -0.00, -1.00, 250.8, 6.0)">s</text><text xml:space="preserve" font-family="Calibri" font-size="14.0" fill="#0463C1" transform="matrix(1.00, 0.00, -0.00, -1.00, 256.3, 6.0)">-</text><text xml:space="preserve" font-family="Calibri" font-size="14.0" fill="#0463C1" transform="matrix(1.00, 0.00, -0.00, -1.00, 260.6, 6.0)">m</text><text xml:space="preserve" font-family="Calibri" font-size="14.0" fill="#0463C1" transform="matrix(1.00, 0.00, -0.00, -1.00, 271.8, 6.0)">e</text><text xml:space="preserve" font-family="Calibri" font-size="14.0" fill="#0463C1" transform="matrix(1.00, 0.00, -0.00, -1.00, 278.7, 6.0)">d</text><text xml:space="preserve" font-family="Calibri" font-size="14.0" fill="#0463C1" transform="matrix(1.00, 0.00, -0.00, -1.00, 286.1, 6.0)">i</text><text xml:space="preserve" font-family="Calibri" font-size="14.0" fill="#0463C1" transform="matrix(1.00, 0.00, -0.00, -1.00, 289.3, 6.0)">u</text><text xml:space="preserve" font-family="Calibri" font-size="14.0" fill="#0463C1" transform="matrix(1.00, 0.00, -0.00, -1.00, 296.7, 6.0)">m</text><text xml:space="preserve" font-family="Calibri" font-size="14.0" fill="#0463C1" transform="matrix(1.00, 0.00, -0.00, -1.00, 307.9, 6.0)">-</text><text xml:space="preserve" font-family="Calibri" font-size="14.0" fill="#0463C1" transform="matrix(1.00, 0.00, -0.00, -1.00, 312.2, 6.0)">l</text><text xml:space="preserve" font-family="Calibri" font-size="14.0" fill="#0463C1" transform="matrix(1.00, 0.00, -0.00, -1.00, 315.4, 6.0)">a</text><text xml:space="preserve" font-family="Calibri" font-size="14.0" fill="#0463C1" transform="matrix(1.00, 0.00, -0.00, -1.00, 322.1, 6.0)">r</text><text xml:space="preserve" font-family="Calibri" font-size="14.0" fill="#0463C1" transform="matrix(1.00, 0.00, -0.00, -1.00, 326.8, 6.0)">g</text><text xml:space="preserve" font-family="Calibri" font-size="14.0" fill="#0463C1" transform="matrix(1.00, 0.00, -0.00, -1.00, 333.2, 6.0)">e</text><text xml:space="preserve" font-family="Calibri" font-size="14.0" fill="#0463C1" transform="matrix(1.00, 0.00, -0.00, -1.00, 340.2, 6.0)">-</text><text xml:space="preserve" font-family="Calibri" font-size="14.0" fill="#0463C1" transform="matrix(1.00, 0.00, -0.00, -1.00, 344.5, 6.0)">5</text><text xml:space="preserve" font-family="Calibri" font-size="14.0" fill="#0463C1" transform="matrix(1.00, 0.00, -0.00, -1.00, 351.6, 6.0)">/</text><text xml:space="preserve" font-family="Calibri" font-size="14.0" fill="#0463C1" transform="matrix(1.00, 0.00, -0.00, -1.00, 357.0, 6.0)">1</text><text xml:space="preserve" font-family="Calibri" font-size="14.0" fill="#0463C1" transform="matrix(1.00, 0.00, -0.00, -1.00, 364.1, 6.0)">-</text><text xml:space="preserve" font-family="Calibri" font-size="14.0" fill="#0463C1" transform="matrix(1.00, 0.00, -0.00, -1.00, 368.4, 6.0)">u</text><text xml:space="preserve" font-family="Calibri" font-size="14.0" fill="#0463C1" transform="matrix(1.00, 0.00, -0.00, -1.00, 375.7, 6.0)">s</text><text xml:space="preserve" font-family="Calibri" font-size="14.0" fill="#0463C1" transform="matrix(1.00, 0.00, -0.00, -1.00, 381.2, 6.0)">-</text><text xml:space="preserve" font-family="Calibri" font-size="14.0" fill="#0463C1" transform="matrix(1.00, 0.00, -0.00, -1.00, 385.5, 6.0)">m</text><text xml:space="preserve" font-family="Calibri" font-size="14.0" fill="#0463C1" transform="matrix(1.00, 0.00, -0.00, -1.00, 396.7, 6.0)">a</text><text xml:space="preserve" font-family="Calibri" font-size="14.0" fill="#0463C1" transform="matrix(1.00, 0.00, -0.00, -1.00, 403.4, 6.0)">r</text><text xml:space="preserve" font-family="Calibri" font-size="14.0" fill="#0463C1" transform="matrix(1.00, 0.00, -0.00, -1.00, 408.0, 6.0)">s</text><text xml:space="preserve" font-family="Calibri" font-size="14.0" fill="#0463C1" transform="matrix(1.00, 0.00, -0.00, -1.00, 413.5, 6.0)">h</text><text xml:space="preserve" font-family="Calibri" font-size="14.0" fill="#0463C1" transform="matrix(1.00, 0.00, -0.00, -1.00, 420.9, 6.0)">a</text><text xml:space="preserve" font-family="Calibri" font-size="14.0" fill="#0463C1" transform="matrix(1.00, 0.00, -0.00, -1.00, 427.6, 6.0)">l</text><text xml:space="preserve" font-family="Calibri" font-size="14.0" fill="#0463C1" transform="matrix(1.00, 0.00, -0.00, -1.00, 430.8, 6.0)">-</text><text xml:space="preserve" font-family="Calibri" font-size="14.0" fill="#0463C1" transform="matrix(1.00, 0.00, -0.00, -1.00, 435.1, 6.0)">l</text><text xml:space="preserve" font-family="Calibri" font-size="14.0" fill="#0463C1" transform="matrix(1.00, 0.00, -0.00, -1.00, 438.3, 6.0)">a</text><text xml:space="preserve" font-family="Calibri" font-size="14.0" fill="#0463C1" transform="matrix(1.00, 0.00, -0.00, -1.00, 444.9, 6.0)">w</text><text xml:space="preserve" font-family="Calibri" font-size="14.0" fill="#0463C1" transform="matrix(1.00, 0.00, -0.00, -1.00, 454.6, 6.0)">-</text><text xml:space="preserve" font-family="Calibri" font-size="14.0" fill="#0463C1" transform="matrix(1.00, 0.00, -0.00, -1.00, 458.9, 6.0)">e</text><text xml:space="preserve" font-family="Calibri" font-size="14.0" fill="#0463C1" transform="matrix(1.00, 0.00, -0.00, -1.00, 465.9, 6.0)">n</text><text xml:space="preserve" font-family="Calibri" font-size="14.0" fill="#0463C1" transform="matrix(1.00, 0.00, -0.00, -1.00, 473.1, 6.0)">f</text><text xml:space="preserve" font-family="Calibri" font-size="14.0" fill="#0463C1" transform="matrix(1.00, 0.00, -0.00, -1.00, 477.1, 6.0)">o</text><text xml:space="preserve" font-family="Calibri" font-size="14.0" fill="#0463C1" transform="matrix(1.00, 0.00, -0.00, -1.00, 484.5, 6.0)">r</text><text xml:space="preserve" font-family="Calibri" font-size="14.0" fill="#0463C1" transform="matrix(1.00, 0.00, -0.00, -1.00, 489.2, 6.0)">c</text><text xml:space="preserve" font-family="Calibri" font-size="14.0" fill="#0463C1" transform="matrix(1.00, 0.00, -0.00, -1.00, 495.1, 6.0)">e</text><text xml:space="preserve" font-family="Calibri" font-size="14.0" fill="#0463C1" transform="matrix(1.00, 0.00, -0.00, -1.00, 502.1, 6.0)">m</text><text xml:space="preserve" font-family="Calibri" font-size="14.0" fill="#0463C1" transform="matrix(1.00, 0.00, -0.00, -1.00, 513.2, 6.0)">e</text><text xml:space="preserve" font-family="Calibri" font-size="14.0" fill="#0463C1" transform="matrix(1.00, 0.00, -0.00, -1.00, 520.2, 6.0)">n</text><text xml:space="preserve" font-family="Calibri" font-size="14.0" fill="#0463C1" transform="matrix(1.00, 0.00, -0.00, -1.00, 527.4, 6.0)">t</text><text xml:space="preserve" font-family="Calibri" font-size="14.0" fill="#0463C1" transform="matrix(1.00, 0.00, -0.00, -1.00, 531.7, 6.0)">-</text><text xml:space="preserve" font-family="Calibri" font-size="14.0" fill="#0463C1" transform="matrix(1.00, 0.00, -0.00, -1.00, 536.0, 6.0)">b</text><text xml:space="preserve" font-family="Calibri" font-size="14.0" fill="#0463C1" transform="matrix(1.00, 0.00, -0.00, -1.00, 543.3, 6.0)">a</text><text xml:space="preserve" font-family="Calibri" font-size="14.0" fill="#0463C1" transform="matrix(1.00, 0.00, -0.00, -1.00, 550.0, 6.0)">d</text><text xml:space="preserve" font-family="Calibri" font-size="14.0" fill="#0463C1" transform="matrix(1.00, 0.00, -0.00, -1.00, 557.4, 6.0)">g</text><text xml:space="preserve" font-family="Calibri" font-size="14.0" fill="#0463C1" transform="matrix(1.00, 0.00, -0.00, -1.00, 563.9, 6.0)">e</text><text xml:space="preserve" font-family="Calibri" font-size="14.0" fill="#0463C1" transform="matrix(1.00, 0.00, -0.00, -1.00, 570.8, 6.0)">-</text><text xml:space="preserve" font-family="Calibri" font-size="14.0" fill="#0463C1" transform="matrix(1.00, 0.00, -0.00, -1.00, 575.1, 6.0)">c</text><text xml:space="preserve" font-family="Calibri" font-size="14.0" fill="#0463C1" transform="matrix(1.00, 0.00, -0.00, -1.00, 580.9, 6.0)">o</text><text xml:space="preserve" font-family="Calibri" font-size="14.0" fill="#0463C1" transform="matrix(1.00, 0.00, -0.00, -1.00, 588.3, 6.0)">w</text><text xml:space="preserve" font-family="Calibri" font-size="14.0" fill="#0463C1" transform="matrix(1.00, 0.00, -0.00, -1.00, 598.3, 6.0)">b</text><text xml:space="preserve" font-family="Calibri" font-size="14.0" fill="#0463C1" transform="matrix(1.00, 0.00, -0.00, -1.00, 605.6, 6.0)">o</text><text xml:space="preserve" font-family="Calibri" font-size="14.0" fill="#0463C1" transform="matrix(1.00, 0.00, -0.00, -1.00, 612.9, 6.0)">y</text><text xml:space="preserve" font-family="Calibri" font-size="14.0" fill="#0463C1" transform="matrix(1.00, 0.00, -0.00, -1.00, 619.0, 6.0)">-</text><text xml:space="preserve" font-family="Calibri" font-size="14.0" fill="#0463C1" transform="matrix(1.00, 0.00, -0.00, -1.00, 623.3, 6.0)">p</text><text xml:space="preserve" font-family="Calibri" font-size="14.0" fill="#0463C1" transform="matrix(1.00, 0.00, -0.00, -1.00, 630.6, 6.0)">a</text><text xml:space="preserve" font-family="Calibri" font-size="14.0" fill="#0463C1" transform="matrix(1.00, 0.00, -0.00, -1.00, 637.3, 6.0)">u</text><text xml:space="preserve" font-family="Calibri" font-size="14.0" fill="#0463C1" transform="matrix(1.00, 0.00, -0.00, -1.00, 644.7, 6.0)">l</text><text xml:space="preserve" font-family="Calibri" font-size="14.0" fill="#0463C1" transform="matrix(1.00, 0.00, -0.00, -1.00, 647.9, 6.0)">-</text><text xml:space="preserve" font-family="Calibri" font-size="14.0" fill="#0463C1" transform="matrix(1.00, 0.00, -0.00, -1.00, 652.2, 6.0)">w</text><text xml:space="preserve" font-family="Calibri" font-size="14.0" fill="#0463C1" transform="matrix(1.00, 0.00, -0.00, -1.00, 662.0, 6.0)">a</text><text xml:space="preserve" font-family="Calibri" font-size="14.0" fill="#0463C1" transform="matrix(1.00, 0.00, -0.00, -1.00, 668.7, 6.0)">r</text><text xml:space="preserve" font-family="Calibri" font-size="14.0" fill="#0463C1" transform="matrix(1.00, 0.00, -0.00, -1.00, 673.4, 6.0)">d</text><text xml:space="preserve" font-family="Calibri" font-size="14.0" fill="#0463C1" transform="matrix(1.00, 0.00, -0.00, -1.00, 680.8, 6.0)">.</text><text xml:space="preserve" font-family="Calibri" font-size="14.0" fill="#0463C1" transform="matrix(1.00, 0.00, -0.00, -1.00, 684.3, 6.0)">j</text><text xml:space="preserve" font-family="Calibri" font-size="14.0" fill="#0463C1" transform="matrix(1.00, 0.00, -0.00, -1.00, 687.7, 6.0)">p</text><text xml:space="preserve" font-family="Calibri" font-size="14.0" fill="#0463C1" transform="matrix(1.00, 0.00, -0.00, -1.00, 695.0, 6.0)">g</text><g><clipPath id="clip-35"><path d="M 16.7 2.7 L 701.3 2.7 L 701.3 5.6 L 16.7 5.6 Z M 16.7 2.7 "></path></clipPath><g clip-path="url(#clip-35)"><path d="M 3.6 18.4 L 687.1 18.4 " fill="none" stroke="#0463C1" stroke-width="0.92" stroke-miterlimit="0.00" transform="matrix(1.00, 0.00, 0.00, -1.00, 14.1, 22.6)"></path></g></g></g></svg>