<?xml version="1.0" encoding="UTF-8" standalone="no"?><svg xmlns="http://www.w3.org/2000/svg" xmlns:xlink="http://www.w3.org/1999/xlink" clip-rule="evenodd" stroke-miterlimit="4.00" viewBox="0 0 720 540"><desc>SVG generated by Keynote</desc><defs></defs><g transform="matrix(1.00, 0.00, -0.00, -1.00, 0.0, 540.0)"><path d="M 0.0 540.0 L 720.0 540.0 L 720.0 0.0 L 0.0 0.0 Z M 0.0 540.0 " fill="#000000"></path><text xml:space="preserve" font-family="HelveticaNeue-Bold" font-weight="bold" font-size="49.3" fill="#000000" transform="matrix(1.00, 0.00, -0.00, -1.00, -414.0, 225.0)">S</text><text xml:space="preserve" font-family="HelveticaNeue-Bold" font-weight="bold" font-size="49.3" fill="#000000" transform="matrix(1.00, 0.00, -0.00, -1.00, -382.0, 225.0)">o</text><text xml:space="preserve" font-family="HelveticaNeue-Bold" font-weight="bold" font-size="49.3" fill="#000000" transform="matrix(1.00, 0.00, -0.00, -1.00, -351.9, 225.0)">f</text><text xml:space="preserve" font-family="HelveticaNeue-Bold" font-weight="bold" font-size="49.3" fill="#000000" transform="matrix(1.00, 0.00, -0.00, -1.00, -335.5, 225.0)">t</text><text xml:space="preserve" font-family="HelveticaNeue-Bold" font-weight="bold" font-size="49.3" fill="#000000" transform="matrix(1.00, 0.00, -0.00, -1.00, -318.2, 225.0)">w</text><text xml:space="preserve" font-family="HelveticaNeue-Bold" font-weight="bold" font-size="49.3" fill="#000000" transform="matrix(1.00, 0.00, -0.00, -1.00, -278.0, 225.0)">a</text><text xml:space="preserve" font-family="HelveticaNeue-Bold" font-weight="bold" font-size="49.3" fill="#000000" transform="matrix(1.00, 0.00, -0.00, -1.00, -249.7, 225.0)">r</text><text xml:space="preserve" font-family="HelveticaNeue-Bold" font-weight="bold" font-size="49.3" fill="#000000" transform="matrix(1.00, 0.00, -0.00, -1.00, -231.5, 225.0)">e</text><text xml:space="preserve" font-family="HelveticaNeue-Bold" font-weight="bold" font-size="49.3" fill="#000000" transform="matrix(1.00, 0.00, -0.00, -1.00, -203.2, 225.0)"> </text><text xml:space="preserve" font-family="HelveticaNeue-Bold" font-weight="bold" font-size="49.3" fill="#000000" transform="matrix(1.00, 0.00, -0.00, -1.00, -189.5, 225.0)">&gt;</text><text xml:space="preserve" font-family="HelveticaNeue-Bold" font-weight="bold" font-size="49.3" fill="#000000" transform="matrix(1.00, 0.00, -0.00, -1.00, -159.9, 225.0)"> </text><text xml:space="preserve" font-family="HelveticaNeue-Bold" font-weight="bold" font-size="49.3" fill="#000000" transform="matrix(1.00, 0.00, -0.00, -1.00, -146.2, 225.0)">P</text><text xml:space="preserve" font-family="HelveticaNeue-Bold" font-weight="bold" font-size="49.3" fill="#000000" transform="matrix(1.00, 0.00, -0.00, -1.00, -113.3, 225.0)">l</text><text xml:space="preserve" font-family="HelveticaNeue-Bold" font-weight="bold" font-size="49.3" fill="#000000" transform="matrix(1.00, 0.00, -0.00, -1.00, -100.6, 225.0)">a</text><text xml:space="preserve" font-family="HelveticaNeue-Bold" font-weight="bold" font-size="49.3" fill="#000000" transform="matrix(1.00, 0.00, -0.00, -1.00, -72.3, 225.0)">t</text><text xml:space="preserve" font-family="HelveticaNeue-Bold" font-weight="bold" font-size="49.3" fill="#000000" transform="matrix(1.00, 0.00, -0.00, -1.00, -55.0, 225.0)">f</text><text xml:space="preserve" font-family="HelveticaNeue-Bold" font-weight="bold" font-size="49.3" fill="#000000" transform="matrix(1.00, 0.00, -0.00, -1.00, -38.6, 225.0)">o</text><text xml:space="preserve" font-family="HelveticaNeue-Bold" font-weight="bold" font-size="49.3" fill="#000000" transform="matrix(1.00, 0.00, -0.00, -1.00, -8.5, 225.0)">r</text><text xml:space="preserve" font-family="HelveticaNeue-Bold" font-weight="bold" font-size="49.3" fill="#000000" transform="matrix(1.00, 0.00, -0.00, -1.00, 10.7, 225.0)">m</text><text xml:space="preserve" font-family="HelveticaNeue-Bold" font-weight="bold" font-size="49.3" fill="#000000" transform="matrix(1.00, 0.00, -0.00, -1.00, 55.3, 225.0)"> </text><text xml:space="preserve" font-family="HelveticaNeue-Bold" font-weight="bold" font-size="49.3" fill="#000000" transform="matrix(1.00, 0.00, -0.00, -1.00, 69.0, 225.0)">&gt;</text><text xml:space="preserve" font-family="HelveticaNeue-Bold" font-weight="bold" font-size="49.3" fill="#000000" transform="matrix(1.00, 0.00, -0.00, -1.00, 98.6, 225.0)"> </text><text xml:space="preserve" font-family="HelveticaNeue-Bold" font-weight="bold" font-size="49.3" fill="#A7D3A9" transform="matrix(1.00, 0.00, -0.00, -1.00, 112.3, 225.0)">S</text><text xml:space="preserve" font-family="HelveticaNeue-Bold" font-weight="bold" font-size="49.3" fill="#A7D3A9" transform="matrix(1.00, 0.00, -0.00, -1.00, 144.3, 225.0)">e</text><text xml:space="preserve" font-family="HelveticaNeue-Bold" font-weight="bold" font-size="49.3" fill="#A7D3A9" transform="matrix(1.00, 0.00, -0.00, -1.00, 172.6, 225.0)">n</text><text xml:space="preserve" font-family="HelveticaNeue-Bold" font-weight="bold" font-size="49.3" fill="#A7D3A9" transform="matrix(1.00, 0.00, -0.00, -1.00, 201.8, 225.0)">s</text><text xml:space="preserve" font-family="HelveticaNeue-Bold" font-weight="bold" font-size="49.3" fill="#A7D3A9" transform="matrix(1.00, 0.00, -0.00, -1.00, 228.3, 225.0)">o</text><text xml:space="preserve" font-family="HelveticaNeue-Bold" font-weight="bold" font-size="49.3" fill="#A7D3A9" transform="matrix(1.00, 0.00, -0.00, -1.00, 258.4, 225.0)">r</text><g><clipPath id="clip-960"><path d="M 611.0 530.6 L 701.9 530.6 L 701.9 414.0 L 611.0 414.0 Z M 611.0 530.6 "></path></clipPath><g clip-path="url(#clip-960)"><g><clipPath id="clip-961"><path d="M 611.0 414.0 L 702.0 414.0 L 702.0 531.0 L 611.0 531.0 Z M 611.0 414.0 "></path></clipPath><g clip-path="url(#clip-961)"><path d="M 611.0 417.9 L 650.1 417.9 L 650.1 414.0 L 611.0 414.0 Z M 611.0 417.9 " fill="#FFFEFE"></path></g></g></g></g><g><clipPath id="clip-962"><path d="M 611.0 414.0 L 702.0 414.0 L 702.0 531.0 L 611.0 531.0 Z M 611.0 414.0 "></path></clipPath><g clip-path="url(#clip-962)"><path d="M 656.6 514.9 C 658.7 514.8 660.4 516.4 660.5 518.5 C 660.5 520.5 658.9 522.2 656.9 522.3 C 654.8 522.4 653.1 520.7 653.0 518.7 C 653.0 516.6 654.6 514.9 656.6 514.9 " fill="#FFFEFE"></path><path d="M 649.7 516.0 C 650.4 516.0 652.5 515.7 654.0 514.6 C 655.4 513.5 657.0 511.2 657.0 510.9 C 657.1 511.2 658.7 513.5 659.3 514.0 C 660.3 514.9 661.5 515.8 664.4 516.1 L 664.4 512.2 C 663.9 512.1 662.8 511.8 661.8 511.0 C 660.8 510.2 659.7 508.6 659.4 507.5 C 659.0 506.3 659.0 505.4 658.9 504.7 L 659.0 497.1 L 655.1 497.1 L 655.2 504.7 C 655.2 505.4 655.1 506.8 654.7 507.6 C 654.3 508.3 653.5 510.3 652.0 511.2 C 651.5 511.5 650.8 512.1 649.7 512.1 L 649.7 516.0 " fill="#FFFEFE"></path><path d="M 657.0 526.0 C 657.1 525.9 660.4 523.7 663.2 521.0 C 664.0 520.1 666.4 517.3 666.4 513.8 C 666.4 510.7 664.6 508.5 664.4 508.3 C 663.8 507.5 661.4 505.6 660.0 505.4 L 660.0 501.4 C 661.7 501.8 664.6 502.9 666.3 504.5 C 667.9 506.2 669.3 508.2 669.9 510.7 C 670.6 513.6 670.1 517.0 669.2 518.9 C 668.0 521.4 665.9 523.9 663.3 525.9 L 657.0 530.6 L 650.6 525.9 C 648.1 523.8 646.0 521.4 644.8 518.8 C 643.9 516.9 643.4 513.6 644.2 510.7 C 644.8 508.2 646.2 506.2 647.8 504.5 C 649.5 502.8 652.4 501.7 654.1 501.4 L 654.1 505.4 C 652.7 505.6 650.3 507.5 649.6 508.2 C 649.4 508.4 647.7 510.7 647.7 513.8 C 647.6 517.2 650.0 520.1 650.8 520.9 C 653.6 523.7 656.9 525.9 657.0 526.0 " fill="#FFFEFE"></path><path d="M 638.8 493.7 C 638.7 494.4 638.3 494.8 637.6 494.8 C 636.8 494.8 636.4 494.1 636.4 492.8 C 636.4 491.9 636.6 491.0 637.7 491.0 C 638.4 491.0 638.7 491.5 638.8 492.2 L 640.8 492.2 C 640.6 490.4 639.4 489.4 637.7 489.4 C 635.6 489.4 634.3 490.8 634.3 492.9 C 634.3 495.1 635.7 496.4 637.5 496.4 C 639.5 496.4 640.6 495.4 640.8 493.7 L 638.8 493.7 " fill="#FFFEFE"></path><path d="M 641.3 496.2 L 643.2 496.2 L 643.2 489.6 L 641.3 489.6 Z M 641.3 496.2 " fill="#FFFEFE"></path><path d="M 645.6 491.6 C 645.6 491.0 646.1 490.6 646.6 490.6 C 646.9 490.6 647.1 490.8 647.3 491.0 L 649.1 491.0 C 648.8 489.8 647.6 489.4 646.5 489.4 C 644.9 489.4 643.7 490.3 643.7 492.0 C 643.7 493.5 644.9 494.6 646.4 494.6 C 648.2 494.6 649.3 493.3 649.2 491.6 L 645.6 491.6 Z M 647.4 492.5 C 647.4 493.0 647.0 493.4 646.5 493.4 C 646.0 493.4 645.6 493.1 645.6 492.5 L 647.4 492.5 " fill="#FFFEFE"></path><path d="M 649.2 494.4 L 651.1 494.4 L 651.9 491.4 L 652.8 494.4 L 654.6 494.4 L 653.0 489.6 L 650.9 489.6 L 649.2 494.4 " fill="#FFFEFE"></path><path d="M 656.2 491.6 C 656.2 491.0 656.7 490.6 657.2 490.6 C 657.5 490.6 657.7 490.8 657.9 491.0 L 659.7 491.0 C 659.3 489.8 658.1 489.4 657.0 489.4 C 655.5 489.4 654.3 490.3 654.3 492.0 C 654.3 493.5 655.5 494.6 657.0 494.6 C 658.8 494.6 659.9 493.3 659.8 491.6 L 656.2 491.6 Z M 657.9 492.5 C 657.9 493.0 657.5 493.4 657.1 493.4 C 656.5 493.4 656.2 493.1 656.2 492.5 L 657.9 492.5 " fill="#FFFEFE"></path><path d="M 660.2 496.2 L 662.1 496.2 L 662.1 489.6 L 660.2 489.6 Z M 660.2 496.2 " fill="#FFFEFE"></path><path d="M 666.2 489.6 L 666.1 490.1 C 665.6 489.6 665.0 489.4 664.3 489.4 C 663.4 489.4 662.6 489.9 662.6 490.9 C 662.6 493.1 666.0 492.1 666.0 493.0 C 666.0 493.4 665.6 493.4 665.4 493.4 C 665.1 493.4 664.8 493.4 664.7 492.9 L 662.9 492.9 C 662.9 494.0 663.6 494.6 665.5 494.6 C 667.7 494.6 667.9 493.7 667.9 492.6 L 667.9 490.3 C 667.9 490.0 667.9 489.9 668.1 489.7 L 668.1 489.6 L 666.2 489.6 Z M 666.0 491.7 C 665.4 491.4 664.6 491.6 664.6 490.9 C 664.6 490.7 664.8 490.5 665.2 490.5 C 665.8 490.5 666.0 491.1 666.0 491.7 " fill="#FFFEFE"></path><path d="M 668.6 494.4 L 670.3 494.4 L 670.3 493.7 C 670.8 494.2 671.2 494.6 671.9 494.6 C 673.2 494.6 673.8 493.8 673.8 492.5 L 673.8 489.6 L 671.9 489.6 L 671.9 492.1 C 671.9 492.6 671.8 493.0 671.2 493.0 C 670.6 493.0 670.5 492.7 670.5 492.0 L 670.5 489.6 L 668.6 489.6 L 668.6 494.4 " fill="#FFFEFE"></path><path d="M 677.8 489.6 L 677.8 490.2 C 677.4 489.6 677.0 489.4 676.3 489.4 C 674.9 489.4 674.2 490.5 674.2 491.9 C 674.2 493.5 675.1 494.6 676.2 494.6 C 676.8 494.6 677.2 494.4 677.6 493.9 L 677.6 496.2 L 679.5 496.2 L 679.5 489.6 L 677.8 489.6 Z M 677.7 492.0 C 677.7 492.5 677.5 493.1 676.9 493.1 C 676.2 493.1 676.1 492.5 676.1 491.9 C 676.1 491.4 676.2 490.8 676.8 490.8 C 677.5 490.8 677.7 491.4 677.7 492.0 " fill="#FFFEFE"></path><path d="M 630.9 481.4 L 630.9 488.0 L 633.5 488.0 L 634.7 483.9 L 635.8 488.0 L 638.4 488.0 L 638.4 481.4 L 636.5 481.4 L 636.5 483.4 L 636.5 484.4 L 636.6 485.7 L 636.6 485.7 L 635.4 481.4 L 633.9 481.4 L 632.7 485.7 L 632.7 485.7 L 632.8 484.7 L 632.8 483.6 L 632.8 481.4 L 630.9 481.4 " fill="#FFFEFE"></path><path d="M 640.7 483.4 C 640.7 482.8 641.1 482.4 641.6 482.4 C 641.9 482.4 642.2 482.6 642.3 482.8 L 644.1 482.8 C 643.8 481.6 642.6 481.2 641.5 481.2 C 640.0 481.2 638.8 482.1 638.8 483.8 C 638.8 485.3 640.0 486.4 641.5 486.4 C 643.2 486.4 644.3 485.1 644.3 483.4 L 640.7 483.4 Z M 642.4 484.3 C 642.4 484.8 642.0 485.2 641.6 485.2 C 641.0 485.2 640.7 484.9 640.7 484.3 L 642.4 484.3 " fill="#FFFEFE"></path><path d="M 647.8 481.4 C 645.3 481.2 645.0 481.4 645.0 483.1 L 645.0 485.1 L 644.4 485.1 L 644.4 486.2 L 645.1 486.2 L 645.1 487.7 L 646.9 487.7 L 646.9 486.2 L 647.8 486.2 L 647.8 485.1 L 646.9 485.1 L 646.9 483.4 C 646.9 482.9 647.0 482.8 647.5 482.8 L 647.8 482.8 L 647.8 481.4 " fill="#FFFEFE"></path><path d="M 648.3 486.2 L 650.0 486.2 L 650.0 485.2 L 650.0 485.2 C 650.3 486.0 650.8 486.4 651.5 486.4 C 651.6 486.4 651.7 486.3 651.7 486.3 L 651.7 484.4 C 651.6 484.4 651.5 484.5 651.4 484.5 C 650.6 484.5 650.2 484.1 650.2 483.1 L 650.2 481.4 L 648.3 481.4 L 648.3 486.2 " fill="#FFFEFE"></path><path d="M 654.5 486.4 C 656.1 486.4 657.2 485.4 657.2 483.8 C 657.2 482.1 656.0 481.2 654.5 481.2 C 652.9 481.2 651.8 482.1 651.8 483.7 C 651.8 485.4 652.9 486.4 654.5 486.4 M 653.7 483.8 C 653.7 482.9 654.0 482.5 654.5 482.5 C 655.0 482.5 655.3 482.9 655.3 483.8 C 655.3 484.6 655.0 485.1 654.5 485.1 C 653.8 485.1 653.7 484.4 653.7 483.8 " fill="#FFFEFE"></path><path d="M 659.3 486.2 L 659.3 485.5 L 659.3 485.5 C 659.5 486.1 660.2 486.4 660.8 486.4 C 662.2 486.4 662.9 485.2 662.9 483.8 C 662.9 481.9 661.7 481.2 660.7 481.2 C 660.2 481.2 659.8 481.5 659.5 481.9 L 659.5 479.7 L 657.6 479.7 L 657.6 486.2 L 659.3 486.2 Z M 661.0 483.8 C 661.0 484.6 660.7 484.9 660.2 484.9 C 659.7 484.9 659.4 484.5 659.4 483.8 C 659.4 483.2 659.7 482.7 660.2 482.7 C 660.7 482.7 661.0 483.1 661.0 483.8 " fill="#FFFEFE"></path><path d="M 666.7 481.4 L 666.6 481.9 C 666.1 481.4 665.5 481.2 664.8 481.2 C 663.9 481.2 663.1 481.7 663.1 482.7 C 663.1 484.9 666.5 483.9 666.5 484.8 C 666.5 485.2 666.1 485.2 665.9 485.2 C 665.6 485.2 665.3 485.2 665.2 484.7 L 663.4 484.7 C 663.4 485.8 664.1 486.4 666.0 486.4 C 668.2 486.4 668.4 485.5 668.4 484.4 L 668.4 482.1 C 668.4 481.8 668.4 481.7 668.6 481.5 L 668.6 481.4 L 666.7 481.4 Z M 666.5 483.5 C 665.9 483.2 665.1 483.4 665.1 482.7 C 665.1 482.5 665.3 482.3 665.7 482.3 C 666.3 482.3 666.5 482.9 666.5 483.5 " fill="#FFFEFE"></path><path d="M 669.2 486.2 L 670.9 486.2 L 670.9 485.2 L 670.9 485.2 C 671.2 486.0 671.6 486.4 672.4 486.4 C 672.4 486.4 672.5 486.3 672.6 486.3 L 672.6 484.4 C 672.5 484.4 672.3 484.5 672.2 484.5 C 671.4 484.5 671.1 484.1 671.1 483.1 L 671.1 481.4 L 669.2 481.4 L 669.2 486.2 " fill="#FFFEFE"></path><path d="M 674.8 482.7 L 674.8 481.4 L 673.0 481.4 L 673.0 488.0 L 674.8 488.0 L 674.8 484.7 L 676.0 486.2 L 678.2 486.2 L 676.5 484.3 L 678.5 481.4 L 676.2 481.4 L 675.2 483.1 L 674.8 482.7 " fill="#FFFEFE"></path></g></g><g><clipPath id="clip-963"><path d="M 611.0 530.6 L 701.9 530.6 L 701.9 414.0 L 611.0 414.0 Z M 611.0 530.6 "></path></clipPath><g clip-path="url(#clip-963)"><g><clipPath id="clip-964"><path d="M 611.0 414.0 L 702.0 414.0 L 702.0 531.0 L 611.0 531.0 Z M 611.0 414.0 "></path></clipPath><g clip-path="url(#clip-964)"><path d="M 680.2 482.9 C 680.2 482.7 680.3 482.5 680.4 482.4 C 680.5 482.3 680.7 482.3 680.8 482.3 C 681.1 482.3 681.4 482.4 681.4 482.7 C 681.4 483.5 678.5 482.9 678.5 484.8 C 678.5 486.0 679.8 486.4 680.8 486.4 C 681.8 486.4 683.0 486.1 683.1 484.8 L 681.4 484.8 C 681.4 485.0 681.3 485.1 681.2 485.2 C 681.1 485.3 681.0 485.3 680.9 485.3 C 680.5 485.3 680.3 485.2 680.3 485.0 C 680.3 484.3 683.3 484.7 683.3 482.9 C 683.3 481.9 682.5 481.2 680.8 481.2 C 679.7 481.2 678.5 481.6 678.4 482.9 L 680.2 482.9 " fill="#FFFEFE"></path><path d="M 666.7 429.2 L 666.7 436.7 C 666.7 439.6 665.3 441.1 662.5 441.1 L 656.2 441.1 L 656.2 414.0 L 659.7 414.0 L 659.7 424.9 L 662.6 424.9 C 665.3 424.9 666.7 426.4 666.7 429.2 M 663.3 429.5 C 663.3 428.5 662.8 428.0 661.9 428.0 L 659.7 428.0 L 659.7 438.0 L 661.7 438.0 C 662.8 438.0 663.3 437.5 663.3 436.5 L 663.3 429.5 " fill="#FFFFFF"></path><path d="M 676.7 417.1 L 671.9 417.1 L 671.9 441.1 L 668.4 441.1 L 668.4 414.0 L 676.7 414.0 L 676.7 417.1 " fill="#FFFFFF"></path><path d="M 689.0 414.0 L 689.0 436.7 C 689.0 439.6 687.7 441.1 684.9 441.1 L 682.3 441.1 C 679.5 441.1 678.2 439.6 678.2 436.7 L 678.2 414.0 L 681.6 414.0 L 681.6 425.0 L 685.6 425.0 L 685.6 414.0 L 689.0 414.0 Z M 685.6 428.1 L 681.6 428.1 L 681.6 436.5 C 681.6 437.5 682.1 438.0 683.1 438.0 L 684.1 438.0 C 685.1 438.0 685.6 437.5 685.6 436.5 L 685.6 428.1 " fill="#FFFFFF"></path><path d="M 697.7 425.1 L 701.8 441.1 L 698.4 441.1 L 696.1 430.1 L 696.0 430.1 L 693.4 441.1 L 690.0 441.1 L 694.2 425.1 L 694.2 414.0 L 697.7 414.0 L 697.7 425.1 " fill="#FFFFFF"></path></g></g></g></g><g><clipPath id="clip-965"><path d="M 611.0 414.0 L 702.0 414.0 L 702.0 531.0 L 611.0 531.0 Z M 611.0 414.0 "></path></clipPath><g clip-path="url(#clip-965)"><path d="M 621.9 421.0 L 621.9 437.6 C 621.9 439.9 620.5 441.1 617.7 441.1 L 615.1 441.1 C 612.4 441.1 611.0 439.9 611.0 437.6 L 611.0 421.0 L 614.5 421.0 L 614.5 428.4 L 618.4 428.4 L 618.4 421.0 L 621.9 421.0 Z M 618.4 430.8 L 614.5 430.8 L 614.5 437.5 C 614.5 438.2 615.0 438.6 616.0 438.6 L 616.9 438.6 C 617.9 438.6 618.4 438.2 618.4 437.5 L 618.4 430.8 " fill="#FFFEFE"></path><path d="M 628.7 441.1 L 625.2 441.1 L 625.2 421.0 L 628.7 421.0 L 628.7 434.1 L 632.4 425.0 L 632.4 421.0 L 635.8 421.0 L 635.8 441.1 L 632.4 441.1 L 632.4 431.4 L 628.7 441.1 " fill="#FFFEFE"></path><path d="M 650.1 423.9 L 650.1 437.2 C 650.1 439.8 648.4 441.1 645.2 441.1 L 639.2 441.1 L 639.2 421.0 L 645.9 421.0 C 648.7 421.0 650.1 422.0 650.1 423.9 M 646.6 424.3 C 646.6 423.7 646.1 423.5 645.2 423.5 L 642.6 423.5 L 642.6 438.6 L 645.0 438.6 C 646.1 438.6 646.6 438.2 646.6 437.2 L 646.6 424.3 " fill="#FFFEFE"></path><path d="M 617.9 450.6 L 617.9 449.1 C 617.9 448.1 617.5 447.5 616.6 447.5 L 615.7 447.5 C 614.8 447.5 614.4 448.1 614.4 449.1 L 614.4 466.5 C 614.4 467.5 614.8 468.0 615.7 468.0 L 616.4 468.0 C 617.4 468.0 617.9 467.5 617.9 466.5 L 617.9 463.7 L 621.3 463.7 L 621.3 466.7 C 621.3 469.8 619.9 471.3 617.2 471.3 L 615.1 471.3 C 612.4 471.3 611.0 469.8 611.0 466.7 L 611.0 448.8 C 611.0 445.8 612.4 444.2 615.1 444.2 L 617.2 444.2 C 619.9 444.2 621.3 445.8 621.3 448.8 L 621.3 450.6 L 617.9 450.6 " fill="#FFFEFE"></path><path d="M 634.5 448.8 L 634.5 466.7 C 634.5 469.8 633.1 471.3 630.4 471.3 L 627.2 471.3 C 624.5 471.3 623.1 469.8 623.1 466.7 L 623.1 448.8 C 623.1 445.8 624.5 444.2 627.2 444.2 L 630.4 444.2 C 633.1 444.2 634.5 445.8 634.5 448.8 M 631.1 449.1 C 631.1 448.1 630.7 447.5 629.8 447.5 L 628.0 447.5 C 627.0 447.5 626.5 448.1 626.5 449.1 L 626.5 466.5 C 626.5 467.5 627.0 468.0 628.0 468.0 L 629.6 468.0 C 630.6 468.0 631.1 467.5 631.1 466.5 L 631.1 449.1 " fill="#FFFEFE"></path><path d="M 640.1 471.3 L 636.3 471.3 L 636.3 444.2 L 639.7 444.2 L 639.4 462.0 L 641.9 449.1 L 644.5 449.1 L 647.1 462.0 L 646.7 444.2 L 650.1 444.2 L 650.1 471.3 L 646.4 471.3 L 643.2 455.4 L 640.1 471.3 " fill="#FFFEFE"></path><path d="M 660.3 444.2 L 660.3 447.5 L 655.3 447.5 L 655.3 456.5 L 659.8 456.5 L 659.8 459.8 L 655.3 459.8 L 655.3 468.0 L 660.3 468.0 L 660.3 471.3 L 651.9 471.3 L 651.9 444.2 L 660.3 444.2 " fill="#FFFEFE"></path><path d="M 677.2 448.8 L 677.2 466.7 C 677.2 469.8 675.9 471.3 673.2 471.3 L 669.9 471.3 C 667.2 471.3 665.9 469.8 665.9 466.7 L 665.9 448.8 C 665.9 445.8 667.3 444.2 670.0 444.2 L 673.2 444.2 C 675.9 444.2 677.2 445.8 677.2 448.8 M 673.9 449.1 C 673.9 448.1 673.4 447.5 672.5 447.5 L 670.8 447.5 C 669.8 447.5 669.3 448.1 669.3 449.1 L 669.3 466.5 C 669.3 467.5 669.8 468.0 670.8 468.0 L 672.3 468.0 C 673.4 468.0 673.9 467.5 673.9 466.5 L 673.9 449.1 " fill="#FFFFFF"></path><path d="M 686.7 471.3 L 686.7 449.3 C 686.7 448.1 686.3 447.5 685.3 447.5 L 684.0 447.5 C 683.0 447.5 682.5 448.1 682.5 449.3 L 682.5 471.3 L 679.1 471.3 L 679.1 449.4 C 679.1 446.0 680.5 444.2 683.2 444.2 L 686.0 444.2 C 688.7 444.2 690.1 446.0 690.1 449.4 L 690.1 471.3 L 686.7 471.3 " fill="#FFFFFF"></path><path d="M 701.8 468.0 L 701.8 471.3 L 692.0 471.3 L 692.0 468.0 L 695.2 468.0 L 695.2 444.2 L 698.6 444.2 L 698.6 468.0 L 701.8 468.0 " fill="#FFFFFF"></path><path d="M 611.0 478.4 L 701.9 478.4 L 701.9 474.5 L 611.0 474.5 Z M 611.0 478.4 " fill="#FFFEFE"></path></g></g><image xlink:href="../../ACE9E015-5DD2-4185-BCA1-AAA047EA0667/assets/A624B3D33BFB9733056A0F7706252EFF.png" width="263.00" height="263.00" transform="matrix(0.01, 0.00, -0.00, -0.01, 51.0, 227.0)"></image><image xlink:href="../../53C0C231-7653-4306-96C4-39A4F186DDCA/assets/118065E3CE5EC029B4467DB6BF035644.jpeg" width="336.00" height="228.00" transform="matrix(1.00, 0.00, -0.00, -1.00, 295.0, 364.0)"></image><image xlink:href="../../53C0C231-7653-4306-96C4-39A4F186DDCA/assets/0493945BECE79B2B975ED5898C4E2828.png" width="335.00" height="232.00" transform="matrix(1.00, 0.00, -0.00, 1.00, 295.0, 132.0)"></image><image xlink:href="../../C9E3EEC9-56FF-4C5B-BE23-9243F3735231/assets/CA057AFE0A210BDA13616D6768F67EEA.jpeg" width="328.00" height="438.00" transform="matrix(0.01, 0.00, -0.00, -0.01, 608.0, 53.0)"></image></g></svg>