<?xml version="1.0" encoding="UTF-8" standalone="no"?><svg xmlns="http://www.w3.org/2000/svg" xmlns:xlink="http://www.w3.org/1999/xlink" clip-rule="evenodd" stroke-miterlimit="4.00" viewBox="0 0 147 19"><desc>SVG generated by Keynote</desc><defs></defs><g transform="matrix(1.00, 0.00, -0.00, -1.00, 0.0, 19.0)"><text xml:space="preserve" font-family="HelveticaNeue" font-size="16.0" fill="#FEFFFF" transform="matrix(1.00, 0.00, -0.00, -1.00, 1.2, 6.0)">(</text><text xml:space="preserve" font-family="HelveticaNeue" font-size="16.0" fill="#A7D3A9" transform="matrix(1.00, 0.00, -0.00, -1.00, 5.3, 6.0)">w</text><text xml:space="preserve" font-family="HelveticaNeue" font-size="16.0" fill="#A7D3A9" transform="matrix(1.00, 0.00, -0.00, -1.00, 17.5, 6.0)">e</text><text xml:space="preserve" font-family="HelveticaNeue" font-size="16.0" fill="#A7D3A9" transform="matrix(1.00, 0.00, -0.00, -1.00, 26.0, 6.0)">a</text><text xml:space="preserve" font-family="HelveticaNeue" font-size="16.0" fill="#A7D3A9" transform="matrix(1.00, 0.00, -0.00, -1.00, 34.6, 6.0)">t</text><text xml:space="preserve" font-family="HelveticaNeue" font-size="16.0" fill="#A7D3A9" transform="matrix(1.00, 0.00, -0.00, -1.00, 39.7, 6.0)">h</text><text xml:space="preserve" font-family="HelveticaNeue" font-size="16.0" fill="#A7D3A9" transform="matrix(1.00, 0.00, -0.00, -1.00, 48.6, 6.0)">e</text><text xml:space="preserve" font-family="HelveticaNeue" font-size="16.0" fill="#A7D3A9" transform="matrix(1.00, 0.00, -0.00, -1.00, 57.2, 6.0)">r</text><text xml:space="preserve" font-family="HelveticaNeue" font-size="16.0" fill="#A7D3A9" transform="matrix(1.00, 0.00, -0.00, -1.00, 62.5, 6.0)"> </text><text xml:space="preserve" font-family="HelveticaNeue" font-size="16.0" fill="#A7D3A9" transform="matrix(1.00, 0.00, -0.00, -1.00, 66.9, 6.0)">c</text><text xml:space="preserve" font-family="HelveticaNeue" font-size="16.0" fill="#A7D3A9" transform="matrix(1.00, 0.00, -0.00, -1.00, 75.5, 6.0)">o</text><text xml:space="preserve" font-family="HelveticaNeue" font-size="16.0" fill="#A7D3A9" transform="matrix(1.00, 0.00, -0.00, -1.00, 84.7, 6.0)">n</text><text xml:space="preserve" font-family="HelveticaNeue" font-size="16.0" fill="#A7D3A9" transform="matrix(1.00, 0.00, -0.00, -1.00, 93.6, 6.0)">d</text><text xml:space="preserve" font-family="HelveticaNeue" font-size="16.0" fill="#A7D3A9" transform="matrix(1.00, 0.00, -0.00, -1.00, 103.1, 6.0)">i</text><text xml:space="preserve" font-family="HelveticaNeue" font-size="16.0" fill="#A7D3A9" transform="matrix(1.00, 0.00, -0.00, -1.00, 106.7, 6.0)">t</text><text xml:space="preserve" font-family="HelveticaNeue" font-size="16.0" fill="#A7D3A9" transform="matrix(1.00, 0.00, -0.00, -1.00, 111.7, 6.0)">i</text><text xml:space="preserve" font-family="HelveticaNeue" font-size="16.0" fill="#A7D3A9" transform="matrix(1.00, 0.00, -0.00, -1.00, 115.2, 6.0)">o</text><text xml:space="preserve" font-family="HelveticaNeue" font-size="16.0" fill="#A7D3A9" transform="matrix(1.00, 0.00, -0.00, -1.00, 124.4, 6.0)">n</text><text xml:space="preserve" font-family="HelveticaNeue" font-size="16.0" fill="#A7D3A9" transform="matrix(1.00, 0.00, -0.00, -1.00, 133.3, 6.0)">s</text><text xml:space="preserve" font-family="HelveticaNeue" font-size="16.0" fill="#FEFFFF" transform="matrix(1.00, 0.00, -0.00, -1.00, 141.3, 6.0)">)</text></g></svg>