<?xml version="1.0" encoding="UTF-8" standalone="no"?><svg xmlns="http://www.w3.org/2000/svg" xmlns:xlink="http://www.w3.org/1999/xlink" clip-rule="evenodd" stroke-miterlimit="10" viewBox="0 0 325 59"><desc>SVG generated by Keynote</desc><defs></defs><g transform="matrix(1.00, 0.00, -0.00, -1.00, 0.0, 59.0)"><text xml:space="preserve" font-family="Aller-Bold,Aller" font-weight="bold" font-size="72.0" fill="#A7D3A9" transform="matrix(1.00, 0.00, -0.00, -1.00, -3.6, 3.5)">r</text><text xml:space="preserve" font-family="Aller-Bold,Aller" font-weight="bold" font-size="72.0" fill="#A7D3A9" transform="matrix(1.00, 0.00, -0.00, -1.00, 24.3, 3.5)">o</text><text xml:space="preserve" font-family="Aller-Bold,Aller" font-weight="bold" font-size="72.0" fill="#A7D3A9" transform="matrix(1.00, 0.00, -0.00, -1.00, 66.0, 3.5)">b</text><text xml:space="preserve" font-family="Aller-Bold,Aller" font-weight="bold" font-size="72.0" fill="#A7D3A9" transform="matrix(1.00, 0.00, -0.00, -1.00, 108.5, 3.5)">o</text><text xml:space="preserve" font-family="Aller-Bold,Aller" font-weight="bold" font-size="72.0" fill="#A7D3A9" transform="matrix(1.00, 0.00, -0.00, -1.00, 150.3, 3.5)">t</text><text xml:space="preserve" font-family="Aller-Bold,Aller" font-weight="bold" font-size="72.0" fill="#A7D3A9" transform="matrix(1.00, 0.00, -0.00, -1.00, 177.8, 3.5)">s</text><text xml:space="preserve" font-family="Aller-Bold,Aller" font-weight="bold" font-size="72.0" fill="#A7D3A9" transform="matrix(1.00, 0.00, -0.00, -1.00, 211.0, 3.5)"> </text><text xml:space="preserve" font-family="Aller-Bold,Aller" font-weight="bold" font-size="72.0" fill="#A7D3A9" transform="matrix(1.00, 0.00, -0.00, -1.00, 226.8, 3.5)">f</text><text xml:space="preserve" font-family="Aller-Bold,Aller" font-weight="bold" font-size="72.0" fill="#A7D3A9" transform="matrix(1.00, 0.00, -0.00, -1.00, 253.2, 3.5)">o</text><text xml:space="preserve" font-family="Aller-Bold,Aller" font-weight="bold" font-size="72.0" fill="#A7D3A9" transform="matrix(1.00, 0.00, -0.00, -1.00, 294.9, 3.5)">r</text></g></svg>