<?xml version="1.0" encoding="UTF-8" standalone="no"?><svg xmlns="http://www.w3.org/2000/svg" xmlns:xlink="http://www.w3.org/1999/xlink" clip-rule="evenodd" stroke-miterlimit="10" viewBox="0 0 577 53"><desc>SVG generated by Keynote</desc><defs></defs><g transform="matrix(1.00, 0.00, -0.00, -1.00, 0.0, 53.0)"><text xml:space="preserve" font-family="Aller-Bold,Aller" font-weight="bold" font-size="49.6" fill="#D6D6D6" transform="matrix(1.00, 0.00, -0.00, -1.00, 0.4, 14.1)">f</text><text xml:space="preserve" font-family="Aller-Bold,Aller" font-weight="bold" font-size="49.6" fill="#D6D6D6" transform="matrix(1.00, 0.00, -0.00, -1.00, 20.0, 14.1)">r</text><text xml:space="preserve" font-family="Aller-Bold,Aller" font-weight="bold" font-size="49.6" fill="#D6D6D6" transform="matrix(1.00, 0.00, -0.00, -1.00, 39.2, 14.1)">o</text><text xml:space="preserve" font-family="Aller-Bold,Aller" font-weight="bold" font-size="49.6" fill="#D6D6D6" transform="matrix(1.00, 0.00, -0.00, -1.00, 68.0, 14.1)">m</text><text xml:space="preserve" font-family="Aller-Bold,Aller" font-weight="bold" font-size="49.6" fill="#D6D6D6" transform="matrix(1.00, 0.00, -0.00, -1.00, 111.6, 14.1)"> </text><text xml:space="preserve" font-family="Aller-Bold,Aller" font-weight="bold" font-size="49.6" fill="#D6D6D6" transform="matrix(1.00, 0.00, -0.00, -1.00, 122.5, 14.1)">y</text><text xml:space="preserve" font-family="Aller-Bold,Aller" font-weight="bold" font-size="49.6" fill="#D6D6D6" transform="matrix(1.00, 0.00, -0.00, -1.00, 148.7, 14.1)">o</text><text xml:space="preserve" font-family="Aller-Bold,Aller" font-weight="bold" font-size="49.6" fill="#D6D6D6" transform="matrix(1.00, 0.00, -0.00, -1.00, 177.4, 14.1)">u</text><text xml:space="preserve" font-family="Aller-Bold,Aller" font-weight="bold" font-size="49.6" fill="#D6D6D6" transform="matrix(1.00, 0.00, -0.00, -1.00, 205.8, 14.1)">r</text><text xml:space="preserve" font-family="Aller-Bold,Aller" font-weight="bold" font-size="49.6" fill="#D6D6D6" transform="matrix(1.00, 0.00, -0.00, -1.00, 225.7, 14.1)"> </text><text xml:space="preserve" font-family="Aller-Bold,Aller" font-weight="bold" font-size="49.6" fill="#D6D6D6" transform="matrix(1.00, 0.00, -0.00, -1.00, 236.7, 14.1)">f</text><text xml:space="preserve" font-family="Aller-Bold,Aller" font-weight="bold" font-size="49.6" fill="#D6D6D6" transform="matrix(1.00, 0.00, -0.00, -1.00, 256.3, 14.1)">r</text><text xml:space="preserve" font-family="Aller-Bold,Aller" font-weight="bold" font-size="49.6" fill="#D6D6D6" transform="matrix(1.00, 0.00, -0.00, -1.00, 276.2, 14.1)">i</text><text xml:space="preserve" font-family="Aller-Bold,Aller" font-weight="bold" font-size="49.6" fill="#D6D6D6" transform="matrix(1.00, 0.00, -0.00, -1.00, 291.5, 14.1)">e</text><text xml:space="preserve" font-family="Aller-Bold,Aller" font-weight="bold" font-size="49.6" fill="#D6D6D6" transform="matrix(1.00, 0.00, -0.00, -1.00, 319.3, 14.1)">n</text><text xml:space="preserve" font-family="Aller-Bold,Aller" font-weight="bold" font-size="49.6" fill="#D6D6D6" transform="matrix(1.00, 0.00, -0.00, -1.00, 348.4, 14.1)">d</text><text xml:space="preserve" font-family="Aller-Bold,Aller" font-weight="bold" font-size="49.6" fill="#D6D6D6" transform="matrix(1.00, 0.00, -0.00, -1.00, 377.6, 14.1)">l</text><text xml:space="preserve" font-family="Aller-Bold,Aller" font-weight="bold" font-size="49.6" fill="#D6D6D6" transform="matrix(1.00, 0.00, -0.00, -1.00, 393.7, 14.1)">y</text><text xml:space="preserve" font-family="Aller-Bold,Aller" font-weight="bold" font-size="49.6" fill="#D6D6D6" transform="matrix(1.00, 0.00, -0.00, -1.00, 420.6, 14.1)"> </text><text xml:space="preserve" font-family="Aller-Bold,Aller" font-weight="bold" font-size="49.6" fill="#A7D3A9" transform="matrix(1.00, 0.00, -0.00, -1.00, 431.5, 14.1)">ﬂ</text><text xml:space="preserve" font-family="Aller-Bold,Aller" font-weight="bold" font-size="49.6" fill="#A7D3A9" transform="matrix(1.00, 0.00, -0.00, -1.00, 465.1, 14.1)">y</text><text xml:space="preserve" font-family="Aller-Bold,Aller" font-weight="bold" font-size="49.6" fill="#A7D3A9" transform="matrix(1.00, 0.00, -0.00, -1.00, 492.0, 14.1)">i</text><text xml:space="preserve" font-family="Aller-Bold,Aller" font-weight="bold" font-size="49.6" fill="#A7D3A9" transform="matrix(1.00, 0.00, -0.00, -1.00, 507.2, 14.1)">n</text><text xml:space="preserve" font-family="Aller-Bold,Aller" font-weight="bold" font-size="49.6" fill="#A7D3A9" transform="matrix(1.00, 0.00, -0.00, -1.00, 536.3, 14.1)">g</text><text xml:space="preserve" font-family="Aller-Bold,Aller" font-weight="bold" font-size="49.6" fill="#A7D3A9" transform="matrix(1.00, 0.00, -0.00, -1.00, 563.9, 14.1)">,</text></g></svg>