<?xml version="1.0" encoding="UTF-8" standalone="no"?><svg xmlns="http://www.w3.org/2000/svg" xmlns:xlink="http://www.w3.org/1999/xlink" clip-rule="evenodd" stroke-miterlimit="4.00" viewBox="0 0 720 540"><desc>SVG generated by Keynote</desc><defs></defs><g transform="matrix(1.00, 0.00, -0.00, -1.00, 0.0, 540.0)"><path d="M 0.0 540.0 L 720.0 540.0 L 720.0 0.0 L 0.0 0.0 Z M 0.0 540.0 " fill="#000000"></path><g><clipPath id="clip-46"><path d="M 6.0 500.0 L 714.0 500.0 L 714.0 43.0 L 6.0 43.0 Z M 5.8 499.5 "></path></clipPath><g clip-path="url(#clip-46)"><g><clipPath id="clip-47"><path d="M 319.5 43.9 C 245.5 49.3 185.3 65.2 125.6 95.1 C 109.0 103.4 80.8 121.4 70.5 130.3 C 41.8 155.0 24.8 176.4 15.5 199.7 C 8.3 217.5 6.1 230.6 6.0 257.1 C 6.0 269.5 5.9 287.3 5.8 296.5 C 5.6 317.6 9.2 332.1 19.6 352.8 C 23.6 360.8 27.5 368.0 28.1 368.7 C 29.1 369.6 72.9 359.7 92.5 354.1 C 94.1 353.7 96.2 355.5 98.7 359.2 C 105.3 369.2 119.8 383.7 133.7 394.1 C 158.6 412.8 181.4 424.3 218.7 436.9 C 232.4 441.6 243.5 445.9 243.5 446.5 C 243.5 447.2 239.4 455.9 234.3 465.8 C 229.2 475.7 225.3 484.0 225.5 484.2 C 229.3 487.2 284.0 495.8 313.5 498.1 C 353.6 501.3 414.1 499.0 450.9 493.1 C 481.5 488.1 529.2 476.7 532.3 473.5 C 533.1 472.8 528.3 469.3 520.7 465.2 C 502.1 455.2 483.5 445.0 480.4 443.1 C 478.0 441.7 482.8 438.1 486.0 438.9 C 487.8 439.3 498.7 445.0 510.2 451.5 C 521.8 458.0 532.5 463.4 534.1 463.4 C 541.4 463.4 585.9 444.5 610.1 431.0 C 627.5 421.3 657.5 398.8 668.3 387.4 C 671.6 383.8 673.4 383.0 676.5 383.7 C 680.2 384.4 681.2 383.6 686.9 375.2 C 698.6 358.1 703.5 348.2 709.5 329.6 C 712.6 320.2 713.5 313.9 714.0 299.4 C 714.4 289.4 714.1 278.6 713.5 275.4 C 712.7 272.2 712.8 264.6 713.5 258.0 C 714.4 250.4 714.2 242.1 713.2 233.8 C 711.3 218.9 706.0 200.1 703.7 200.1 C 701.8 200.1 649.1 206.9 641.2 208.2 C 635.8 209.1 635.8 209.0 631.5 200.5 C 629.1 195.8 623.2 186.7 618.5 180.3 C 586.3 136.8 514.6 101.7 432.4 89.2 C 422.8 87.7 414.3 85.9 413.6 85.2 C 412.8 84.4 416.4 76.5 422.4 65.6 L 432.5 47.0 L 426.3 46.0 C 404.0 42.4 351.6 41.5 319.5 43.9 "></path></clipPath><g clip-path="url(#clip-47)"><image xlink:href="27A29137E15E0A0EA1179F81F4EE5F09.png" width="883.00" height="592.00" transform="matrix(1.00, 0.00, -0.00, -1.00, -90.0, 571.0)"></image></g></g></g></g></g></svg>