<?xml version="1.0" encoding="UTF-8" standalone="no"?>
<!-- Created with Inkscape (http://www.inkscape.org/) -->

<svg
   xmlns:dc="http://purl.org/dc/elements/1.1/"
   xmlns:cc="http://creativecommons.org/ns#"
   xmlns:rdf="http://www.w3.org/1999/02/22-rdf-syntax-ns#"
   xmlns:svg="http://www.w3.org/2000/svg"
   xmlns="http://www.w3.org/2000/svg"
   xmlns:sodipodi="http://sodipodi.sourceforge.net/DTD/sodipodi-0.dtd"
   xmlns:inkscape="http://www.inkscape.org/namespaces/inkscape"
   width="2213.385"
   height="1245.0289"
   id="svg2"
   version="1.1"
   inkscape:version="0.48.4 r9939"
   sodipodi:docname="other.svg"
   inkscape:export-filename="/home/stephen/Desktop/bubble.png"
   inkscape:export-xdpi="300"
   inkscape:export-ydpi="300">
  <defs
     id="defs4" />
  <sodipodi:namedview
     id="base"
     pagecolor="#ffffff"
     bordercolor="#666666"
     borderopacity="1.0"
     inkscape:pageopacity="0.0"
     inkscape:pageshadow="2"
     inkscape:zoom="0.49497475"
     inkscape:cx="1331.3509"
     inkscape:cy="498.52611"
     inkscape:document-units="px"
     inkscape:current-layer="layer1"
     showgrid="false"
     fit-margin-top="0"
     fit-margin-left="0"
     fit-margin-right="0"
     fit-margin-bottom="0"
     inkscape:window-width="1920"
     inkscape:window-height="1056"
     inkscape:window-x="0"
     inkscape:window-y="24"
     inkscape:window-maximized="1" />
  <metadata
     id="metadata7">
    <rdf:RDF>
      <cc:Work
         rdf:about="">
        <dc:format>image/svg+xml</dc:format>
        <dc:type
           rdf:resource="http://purl.org/dc/dcmitype/StillImage" />
        <dc:title></dc:title>
      </cc:Work>
    </rdf:RDF>
  </metadata>
  <g
     inkscape:label="Layer 1"
     inkscape:groupmode="layer"
     id="layer1"
     transform="translate(710.2289,173.76601)">
    <text
       xml:space="preserve"
       style="font-size:40px;font-style:normal;font-weight:normal;line-height:125%;letter-spacing:0px;word-spacing:0px;fill:#000000;fill-opacity:1;stroke:none;font-family:Sans"
       x="1137.8571"
       y="597.71429"
       id="text4434"
       sodipodi:linespacing="125%"
       transform="translate(-712.57147,-180.06639)"><tspan
         sodipodi:role="line"
         id="tspan4436"
         x="1137.8571"
         y="597.71429" /></text>
    <g
       id="g4473"
       transform="translate(2.0203065,6.0609156)">
      <path
         style="fill:#cccc30"
         d="m -712.24921,442.68752 0,-622.51445 1106.6925,0 1106.69251,0 0,622.51445 0,622.51448 -1106.69251,0 -1106.6925,0 0,-622.51448 z"
         id="path4489"
         inkscape:connector-curvature="0" />
      <path
         style="fill:#a2a226"
         d="m -712.24921,442.68752 0,-622.51445 1106.6925,0 1106.69251,0 0,622.51445 0,622.51448 -1106.69251,0 -1106.6925,0 0,-622.51448 z M 655.30205,893.33015 c 0.38963,-1.55241 0.19848,-21.06568 -0.2638,-26.9313 -1.52185,-19.30892 -4.84019,-35.71278 -10.79422,-53.36034 -14.15662,-41.95964 -41.55718,-78.80814 -77.98917,-104.88045 -28.75021,-20.57489 -61.65525,-33.46244 -96.92154,-37.96012 -6.36327,-0.81153 -16.45543,-1.64732 -20.30723,-1.68176 -1.32322,-0.0117 -2.66662,-0.12366 -2.98534,-0.24849 -0.57214,-0.22413 -0.57214,-0.23003 0,-0.46637 0.31872,-0.13163 3.15074,-0.34982 6.29338,-0.48478 36.07839,-1.5497 69.12468,-11.09529 99.57021,-28.76134 28.75969,-16.68784 54.35574,-41.22177 72.33399,-69.33245 19.10726,-29.876 30.1415,-62.8834 33.10139,-99.01829 0.51641,-6.30459 0.51611,-25.86905 0,-32.02791 -3.96058,-47.21583 -21.37923,-88.77396 -52.05798,-124.20216 -4.83534,-5.5839 -14.87253,-15.61823 -20.4748,-20.46894 -35.1985,-30.47659 -76.97149,-48.00886 -123.60071,-51.87563 -12.60712,-1.04547 -30.47918,-0.60029 -43.60609,1.08618 -62.80008,8.06821 -118.37234,43.30995 -152.67509,96.82057 -18.93593,29.53913 -30.02246,62.90223 -32.92789,99.09107 -0.50445,6.2831 -0.50219,25.03507 0.004,31.27609 2.10145,25.92195 8.33198,50.2328 18.68268,72.89798 22.75886,49.83547 64.51615,89.49893 115.49143,109.70031 22.0795,8.75002 44.89229,13.57156 69.99475,14.79353 4.63033,0.22542 5.55108,0.37726 5.08898,0.8394 -0.10971,0.10967 -2.73735,0.3007 -5.83922,0.42448 -50.22242,2.00399 -95.36973,19.74478 -132.99963,52.26258 -5.57511,4.81772 -16.21915,15.47349 -21.07025,21.09347 -27.68944,32.07799 -45.02801,70.64126 -50.36684,112.02253 -1.31522,10.19438 -1.71748,16.90514 -1.71522,28.61479 0,5.97942 0.094,11.02043 0.20642,11.20225 0.14823,0.23984 58.61865,0.33063 212.92162,0.33063 l 212.71731,0 0.18961,-0.75553 z"
         id="path4487"
         inkscape:connector-curvature="0" />
      <path
         style="fill:#5a5a15"
         d="m -712.24921,442.68752 0,-622.51445 1106.6925,0 1106.69251,0 0,622.51445 0,622.51448 -1106.69251,0 -1106.6925,0 0,-622.51448 z M 655.49605,894.05263 c 0.547,-1.02207 0.44121,-21.41152 -0.14805,-28.53645 -0.94926,-11.47764 -2.474,-21.48668 -4.84527,-31.80658 -18.25218,-79.43438 -80.71734,-141.91531 -160.12604,-160.16654 -10.17604,-2.33885 -20.82023,-3.93534 -32.47902,-4.87143 -3.39075,-0.27225 -6.2148,-0.54267 -6.27567,-0.60092 -0.22678,-0.21707 1.49217,-0.39922 8.26305,-0.87564 46.28297,-3.25647 89.10054,-20.96941 124.62065,-51.55352 5.32087,-4.58149 16.48027,-15.67278 20.9114,-20.78383 28.30808,-32.65167 45.59763,-71.02881 51.07771,-113.37582 2.30406,-17.80446 2.26229,-38.01209 -0.115,-55.63535 -6.26803,-46.46574 -27.27723,-89.0408 -60.30166,-122.20091 -36.63516,-36.7857 -83.9558,-58.516 -136.07536,-62.48767 -6.49824,-0.49518 -24.04536,-0.49717 -30.52426,-0.003 -36.47325,2.77942 -70.06882,13.97431 -100.29401,33.42046 -52.79807,33.96902 -88.195,89.73121 -96.2467,151.62127 -1.7164,13.19325 -2.23477,29.27782 -1.35534,42.05347 3.25184,47.23958 20.88651,90.09212 51.85411,126.00655 4.55497,5.28259 15.33599,16.12429 20.48647,20.60177 32.42332,28.18676 71.15062,45.69592 113.0751,51.1229 4.6384,0.60041 15.99646,1.65384 17.83183,1.65384 0.28205,0 0.51281,0.10426 0.51281,0.23168 0,0.12742 -3.28174,0.46494 -7.29275,0.75003 -19.46311,1.38336 -36.62974,4.80109 -54.50761,10.85199 -45.46606,15.38832 -85.24377,46.61024 -111.16865,87.25737 -19.02605,29.83059 -29.78088,61.86209 -32.92996,98.07652 -0.65063,7.48247 -0.74296,28.66165 -0.12817,29.40244 0.36668,0.4418 18.27561,0.48234 213.12058,0.48234 l 212.72023,0 0.33958,-0.63451 z"
         id="path4485"
         inkscape:connector-curvature="0" />
      <path
         style="fill:#a80000"
         d="m -712.24921,442.68752 0,-622.51445 1106.6925,0 1106.69251,0 0,622.51445 0,622.51448 -1106.69251,0 -1106.6925,0 0,-622.51448 z M 655.8126,894.49642 c 0.63458,-0.76464 0.53879,-22.13887 -0.13427,-29.96228 -3.9853,-46.32302 -21.41426,-87.8503 -51.58914,-122.91939 -4.82554,-5.60823 -16.09371,-16.8752 -21.68861,-21.6863 -32.41806,-27.87662 -70.88745,-45.09468 -112.77438,-50.47534 -3.93068,-0.50492 -10.24343,-1.13195 -12.48036,-1.23961 -1.51704,-0.073 1.16603,-0.50821 4.37321,-0.70931 11.7737,-0.73823 28.9481,-3.79081 41.49258,-7.3749 26.98793,-7.71076 51.48769,-20.20137 73.67504,-37.56144 12.66694,-9.911 25.63732,-22.82947 35.90288,-35.75918 24.00831,-30.23902 39.55819,-67.30371 44.37732,-105.77787 2.20818,-17.62922 2.16073,-36.85989 -0.13464,-54.58279 -4.02706,-31.09321 -14.92606,-61.03474 -31.80081,-87.36253 -24.34407,-37.98135 -60.16849,-67.5083 -101.87498,-83.96674 -19.44005,-7.67151 -40.22815,-12.4643 -61.95072,-14.28297 -6.16744,-0.51636 -26.9098,-0.51654 -33.08048,-2.7e-4 -46.35962,3.8785 -88.01842,21.26545 -123.29998,51.46119 -5.04111,4.31442 -16.85493,16.05311 -21.21115,21.07623 -28.35397,32.6947 -45.91189,71.80109 -51.24091,114.12765 -2.18271,17.33643 -2.14031,36.53971 0.11966,54.20573 7.08529,55.38518 35.75495,105.8154 80.00105,140.72267 30.57888,24.12472 67.48058,39.48528 106.00791,44.12641 3.39075,0.40846 7.45063,0.83607 9.02195,0.95026 3.54313,0.25742 2.8833,0.57307 -1.80439,0.86319 -8.41709,0.52092 -21.77718,2.56548 -31.65534,4.84436 -53.99517,12.4567 -101.52851,45.94993 -131.64553,92.76082 -19.29178,29.98526 -30.47488,63.22918 -33.43489,99.3918 -0.56072,6.85034 -0.5467,28.44347 0.0189,29.12483 0.38319,0.46163 15.66508,0.49723 213.40748,0.49723 196.73486,0 213.02586,-0.0375 213.40261,-0.49145 z"
         id="path4483"
         inkscape:connector-curvature="0" />
      <path
         style="fill:#007e00"
         d="m -712.24921,442.68752 0,-622.51445 1106.6925,0 1106.69251,0 0,622.51445 0,622.51448 -1106.69251,0 -1106.6925,0 0,-622.51448 z M 655.8126,894.49642 c 0.63458,-0.76464 0.53879,-22.13887 -0.13427,-29.96228 -3.9853,-46.32302 -21.41426,-87.8503 -51.58914,-122.91939 -4.82554,-5.60823 -16.09371,-16.8752 -21.68861,-21.6863 -32.41806,-27.87662 -70.88745,-45.09468 -112.77438,-50.47534 -3.93068,-0.50492 -10.24343,-1.13195 -12.48036,-1.23961 -1.51704,-0.073 1.16603,-0.50821 4.37321,-0.70931 11.7737,-0.73823 28.9481,-3.79081 41.49258,-7.3749 26.98793,-7.71076 51.48769,-20.20137 73.67504,-37.56144 12.66694,-9.911 25.63732,-22.82947 35.90288,-35.75918 24.00831,-30.23902 39.55819,-67.30371 44.37732,-105.77787 2.20818,-17.62922 2.16073,-36.85989 -0.13464,-54.58279 -4.02706,-31.09321 -14.92606,-61.03474 -31.80081,-87.36253 -24.34407,-37.98135 -60.16849,-67.5083 -101.87498,-83.96674 -19.44005,-7.67151 -40.22815,-12.4643 -61.95072,-14.28297 -6.16744,-0.51636 -26.9098,-0.51654 -33.08048,-2.7e-4 -46.35962,3.8785 -88.01842,21.26545 -123.29998,51.46119 -5.04111,4.31442 -16.85493,16.05311 -21.21115,21.07623 -28.35397,32.6947 -45.91189,71.80109 -51.24091,114.12765 -2.18271,17.33643 -2.14031,36.53971 0.11966,54.20573 7.08529,55.38518 35.75495,105.8154 80.00105,140.72267 30.57888,24.12472 67.48058,39.48528 106.00791,44.12641 3.39075,0.40846 7.45063,0.83607 9.02195,0.95026 3.54313,0.25742 2.8833,0.57307 -1.80439,0.86319 -8.41709,0.52092 -21.77718,2.56548 -31.65534,4.84436 -53.99517,12.4567 -101.52851,45.94993 -131.64553,92.76082 -19.29178,29.98526 -30.47488,63.22918 -33.43489,99.3918 -0.56072,6.85034 -0.5467,28.44347 0.0189,29.12483 0.38319,0.46163 15.66508,0.49723 213.40748,0.49723 196.73486,0 213.02586,-0.0375 213.40261,-0.49145 z m -856.37628,-0.93146 c 0.41474,-1.65255 0.21253,-21.73288 -0.28097,-27.89842 -3.71719,-46.44207 -21.09747,-88.30268 -51.2558,-123.45033 -4.38142,-5.1063 -16.12674,-16.92731 -21.08054,-21.21643 -32.29488,-27.96173 -70.47267,-45.25265 -112.17291,-50.80377 -4.82449,-0.64221 -15.65128,-1.65904 -17.66501,-1.65904 l -0.67962,0 0,112.92472 0,112.92472 101.46434,0 101.46433,0 0.20618,-0.82145 z M -393.97076,666.87479 c 38.87564,-3.15338 75.70664,-16.70639 107.37696,-39.51243 15.8054,-11.38158 31.25152,-26.21974 43.22807,-41.52659 21.61127,-27.62067 35.93875,-59.55394 42.05239,-93.72686 2.13823,-11.95194 3.01592,-21.42598 3.22721,-34.83591 0.1799,-11.41646 -0.26073,-19.7267 -1.60257,-30.22352 -7.92362,-61.98491 -42.39892,-117.00403 -94.9313,-151.50077 -26.76749,-17.57759 -57.27182,-28.80976 -89.53097,-32.96672 -6.44883,-0.83101 -18.80012,-1.81109 -19.25795,-1.52813 -0.18523,0.11446 -0.28961,76.97421 -0.28961,213.22957 l 0,213.05061 2.03292,0 c 1.11812,0 4.5808,-0.20666 7.69485,-0.45925 z"
         id="path4481"
         inkscape:connector-curvature="0" />
      <path
         style="fill:#5f0000"
         d="m -712.24921,442.68752 0,-622.51445 1106.6925,0 1106.69251,0 0,622.51445 0,622.51448 -1106.69251,0 -1106.6925,0 0,-622.51448 z M 655.8126,894.49642 c 0.63458,-0.76464 0.53879,-22.13887 -0.13427,-29.96228 -3.9853,-46.32302 -21.41426,-87.8503 -51.58914,-122.91939 -4.82554,-5.60823 -16.09371,-16.8752 -21.68861,-21.6863 -32.41806,-27.87662 -70.88745,-45.09468 -112.77438,-50.47534 -3.93068,-0.50492 -10.24343,-1.13195 -12.48036,-1.23961 -1.51704,-0.073 1.16603,-0.50821 4.37321,-0.70931 11.7737,-0.73823 28.9481,-3.79081 41.49258,-7.3749 26.98793,-7.71076 51.48769,-20.20137 73.67504,-37.56144 12.66694,-9.911 25.63732,-22.82947 35.90288,-35.75918 24.00831,-30.23902 39.55819,-67.30371 44.37732,-105.77787 2.20818,-17.62922 2.16073,-36.85989 -0.13464,-54.58279 -4.02706,-31.09321 -14.92606,-61.03474 -31.80081,-87.36253 -24.34407,-37.98135 -60.16849,-67.5083 -101.87498,-83.96674 -19.44005,-7.67151 -40.22815,-12.4643 -61.95072,-14.28297 -6.16744,-0.51636 -26.9098,-0.51654 -33.08048,-2.7e-4 -46.35962,3.8785 -88.01842,21.26545 -123.29998,51.46119 -5.04111,4.31442 -16.85493,16.05311 -21.21115,21.07623 -28.35397,32.6947 -45.91189,71.80109 -51.24091,114.12765 -2.18271,17.33643 -2.14031,36.53971 0.11966,54.20573 7.08529,55.38518 35.75495,105.8154 80.00105,140.72267 30.57888,24.12472 67.48058,39.48528 106.00791,44.12641 3.39075,0.40846 7.45063,0.83607 9.02195,0.95026 3.54313,0.25742 2.8833,0.57307 -1.80439,0.86319 -8.41709,0.52092 -21.77718,2.56548 -31.65534,4.84436 -53.99517,12.4567 -101.52851,45.94993 -131.64553,92.76082 -19.29178,29.98526 -30.47488,63.22918 -33.43489,99.3918 -0.56072,6.85034 -0.5467,28.44347 0.0189,29.12483 0.38319,0.46163 15.66508,0.49723 213.40748,0.49723 196.73486,0 213.02586,-0.0375 213.40261,-0.49145 z m -856.37628,-0.93146 c 0.41474,-1.65255 0.21253,-21.73288 -0.28097,-27.89842 -3.71719,-46.44207 -21.09747,-88.30268 -51.2558,-123.45033 -4.38142,-5.1063 -16.12674,-16.92731 -21.08054,-21.21643 -32.29488,-27.96173 -70.47267,-45.25265 -112.17291,-50.80377 -4.82449,-0.64221 -15.65128,-1.65904 -17.66501,-1.65904 l -0.67962,0 0,112.92472 0,112.92472 101.46434,0 101.46433,0 0.20618,-0.82145 z m 427.95589,0.20315 c 0.4108,-1.29438 0.19989,-22.02126 -0.28597,-28.10157 -3.72068,-46.56185 -21.24913,-88.64161 -51.54886,-123.75106 -4.84187,-5.61045 -15.80995,-16.5766 -21.39868,-21.39492 -35.45831,-30.5703 -78.386072,-48.34384 -124.502911,-51.54835 -3.721554,-0.25859 -7.638794,-0.5436 -8.704978,-0.63331 -3.347264,-0.28172 -1.370404,-0.6896 4.849238,-1.00053 31.642894,-1.58191 59.353272,-8.78903 86.990031,-22.625 27.27991,-13.65734 52.74668,-34.54489 71.78534,-58.8776 29.70242,-37.96171 45.36765,-83.46159 45.36765,-131.77091 0,-56.52398 -21.91711,-109.75444 -61.74824,-149.96897 -36.2934,-36.64273 -83.355142,-58.42078 -135.381358,-62.64847 -6.349107,-0.51593 -25.8928757,-0.51927 -32.17828764,-0.005 -51.97683536,4.24862 -98.61363936,25.72034 -134.98090436,62.14565 -30.86055,30.9098 -51.29664,70.0609 -58.95661,112.94797 -3.72784,20.87161 -4.30738,43.29588 -1.66684,64.49526 3.90627,31.3609 14.97861,61.81987 32.2231,88.64269 16.30615,25.36334 38.83721,47.83876 64.440539,64.28147 29.842805,19.16536 65.352869,30.85648 100.4443736,33.06969 7.9768474,0.50309 9.4730474,0.64425 9.4730474,0.89368 0,0.29487 -3.0544714,0.61864 -5.8361791,0.61864 -2.963079,0 -12.5973785,0.79594 -18.3727199,1.51788 -58.695211,7.33716 -111.958671,39.18494 -146.682171,87.70561 -23.06539,32.23028 -36.2424,69.05935 -39.1822,109.51232 -0.50989,7.01655 -0.54195,25.97022 -0.0452,26.73772 0.19427,0.30016 43.11947,0.37591 212.972924,0.37591 l 212.729636,0 0.19626,-0.6183 z m 857.13729,0.24239 c 0.4948,-0.76443 0.4617,-20.21395 -0.046,-27.14103 -3.8368,-52.335 -25.3469,-99.41192 -62.2475,-136.23392 -33.59521,-33.52379 -76.88403,-54.73848 -123.61599,-60.58091 -17.43567,-2.1798 -36.35328,-2.17411 -53.98133,0.0162 -37.69542,4.68383 -74.07396,19.85899 -104.35388,43.53078 -13.02526,10.18268 -26.58865,23.74959 -36.72472,36.73428 -26.22798,33.59893 -41.17101,72.35434 -44.64226,115.78167 -0.47678,5.96504 -0.66904,25.86644 -0.2654,27.47466 l 0.1993,0.79411 212.7173,0 c 169.84358,0 212.76628,-0.0758 212.96058,-0.37591 z M -393.97076,666.87479 c 38.87564,-3.15338 75.70664,-16.70639 107.37696,-39.51243 15.8054,-11.38158 31.25152,-26.21974 43.22807,-41.52659 21.61127,-27.62067 35.93875,-59.55394 42.05239,-93.72686 2.13823,-11.95194 3.01592,-21.42598 3.22721,-34.83591 0.1799,-11.41646 -0.26073,-19.7267 -1.60257,-30.22352 -7.92362,-61.98491 -42.39892,-117.00403 -94.9313,-151.50077 -26.76749,-17.57759 -57.27182,-28.80976 -89.53097,-32.96672 -6.44883,-0.83101 -18.80012,-1.81109 -19.25795,-1.52813 -0.18523,0.11446 -0.28961,76.97421 -0.28961,213.22957 l 0,213.05061 2.03292,0 c 1.11812,0 4.5808,-0.20666 7.69485,-0.45925 z"
         id="path4479"
         inkscape:connector-curvature="0" />
      <path
         style="fill:#005000"
         d="m -712.24921,442.68752 0,-622.51445 1106.6925,0 1106.69251,0 0,622.51445 0,622.51448 -1106.69251,0 -1106.6925,0 0,-622.51448 z m 511.84528,452.00621 c 0.70576,-0.44578 0.81396,-19.02949 0.16201,-27.82426 -3.90004,-52.6105 -25.53047,-99.89929 -62.56617,-136.78324 -25.86458,-25.75859 -57.395,-44.24387 -92.62301,-54.30193 -12.05323,-3.44137 -27.75091,-6.27868 -40.13519,-7.25437 -2.22608,-0.17539 -4.09925,-0.37071 -4.16264,-0.43408 -0.1667,-0.16669 1.92892,-0.41236 6.55601,-0.76849 12.87796,-0.99118 28.06629,-3.77105 41.04094,-7.51158 46.42443,-13.38397 87.00413,-42.1909 115.22858,-81.79903 20.4985,-28.76606 33.5203,-62.25927 37.82401,-97.28668 1.23201,-10.02705 1.51927,-15.037 1.51741,-26.46438 -0.003,-11.49318 -0.31812,-17.07891 -1.50862,-26.649 -7.3824,-59.34334 -39.36746,-112.82335 -88.39514,-147.7994 -28.62824,-20.4232 -62.17862,-33.48045 -97.25244,-37.84906 -6.8943,-0.85871 -15.05938,-1.47268 -17.62706,-1.32544 l -1.80439,0.10345 -0.0749,326.71441 c -0.0553,241.07624 0.0135,326.82093 0.26236,327.12082 0.28215,0.33994 16.91907,0.40565 101.72221,0.4018 63.31511,-0.003 101.55432,-0.1116 101.83604,-0.28954 z m 856.21653,-0.19731 c 0.63458,-0.76464 0.53879,-22.13887 -0.13427,-29.96228 -3.9853,-46.32302 -21.41426,-87.8503 -51.58914,-122.91939 -4.82554,-5.60823 -16.09371,-16.8752 -21.68861,-21.6863 -32.41806,-27.87662 -70.88745,-45.09468 -112.77438,-50.47534 -3.93068,-0.50492 -10.24343,-1.13195 -12.48036,-1.23961 -1.51704,-0.073 1.16603,-0.50821 4.37321,-0.70931 11.7737,-0.73823 28.9481,-3.79081 41.49258,-7.3749 26.98793,-7.71076 51.48769,-20.20137 73.67504,-37.56144 12.66694,-9.911 25.63732,-22.82947 35.90288,-35.75918 24.00831,-30.23902 39.55819,-67.30371 44.37732,-105.77787 2.20818,-17.62922 2.16073,-36.85989 -0.13464,-54.58279 -4.02706,-31.09321 -14.92606,-61.03474 -31.80081,-87.36253 -24.34407,-37.98135 -60.16849,-67.5083 -101.87498,-83.96674 -19.44005,-7.67151 -40.22815,-12.4643 -61.95072,-14.28297 -6.16744,-0.51636 -26.9098,-0.51654 -33.08048,-2.7e-4 -46.35962,3.8785 -88.01842,21.26545 -123.29998,51.46119 -5.04111,4.31442 -16.85493,16.05311 -21.21115,21.07623 -28.35397,32.6947 -45.91189,71.80109 -51.24091,114.12765 -2.18271,17.33643 -2.14031,36.53971 0.11966,54.20573 7.08529,55.38518 35.75495,105.8154 80.00105,140.72267 30.57888,24.12472 67.48058,39.48528 106.00791,44.12641 3.39075,0.40846 7.45063,0.83607 9.02195,0.95026 3.54313,0.25742 2.8833,0.57307 -1.80439,0.86319 -8.41709,0.52092 -21.77718,2.56548 -31.65534,4.84436 -53.99517,12.4567 -101.52851,45.94993 -131.64553,92.76082 -19.29178,29.98526 -30.47488,63.22918 -33.43489,99.3918 -0.56072,6.85034 -0.5467,28.44347 0.0189,29.12483 0.38319,0.46163 15.66508,0.49723 213.40748,0.49723 196.73486,0 213.02586,-0.0375 213.40261,-0.49145 z m -428.42039,-0.72831 c 0.4108,-1.29438 0.19989,-22.02126 -0.28597,-28.10157 -3.72068,-46.56185 -21.24913,-88.64161 -51.54886,-123.75106 -4.84187,-5.61045 -15.80995,-16.5766 -21.39868,-21.39492 -35.45831,-30.5703 -78.386072,-48.34384 -124.502911,-51.54835 -3.721554,-0.25859 -7.638794,-0.5436 -8.704978,-0.63331 -3.347264,-0.28172 -1.370404,-0.6896 4.849238,-1.00053 31.642894,-1.58191 59.353272,-8.78903 86.990031,-22.625 27.27991,-13.65734 52.74668,-34.54489 71.78534,-58.8776 29.70242,-37.96171 45.36765,-83.46159 45.36765,-131.77091 0,-56.52398 -21.91711,-109.75444 -61.74824,-149.96897 -36.2934,-36.64273 -83.355142,-58.42078 -135.381358,-62.64847 -6.349107,-0.51593 -25.8928757,-0.51927 -32.17828764,-0.005 -51.97683536,4.24862 -98.61363936,25.72034 -134.98090436,62.14565 -30.86055,30.9098 -51.29664,70.0609 -58.95661,112.94797 -3.72784,20.87161 -4.30738,43.29588 -1.66684,64.49526 3.90627,31.3609 14.97861,61.81987 32.2231,88.64269 16.30615,25.36334 38.83721,47.83876 64.440539,64.28147 29.842805,19.16536 65.352869,30.85648 100.4443736,33.06969 7.9768474,0.50309 9.4730474,0.64425 9.4730474,0.89368 0,0.29487 -3.0544714,0.61864 -5.8361791,0.61864 -2.963079,0 -12.5973785,0.79594 -18.3727199,1.51788 -58.695211,7.33716 -111.958671,39.18494 -146.682171,87.70561 -23.06539,32.23028 -36.2424,69.05935 -39.1822,109.51232 -0.50989,7.01655 -0.54195,25.97022 -0.0452,26.73772 0.19427,0.30016 43.11947,0.37591 212.972924,0.37591 l 212.729636,0 0.19626,-0.6183 z m 857.13729,0.24239 c 0.4948,-0.76443 0.4617,-20.21395 -0.046,-27.14103 -3.8368,-52.335 -25.3469,-99.41192 -62.2475,-136.23392 -33.59521,-33.52379 -76.88403,-54.73848 -123.61599,-60.58091 -17.43567,-2.1798 -36.35328,-2.17411 -53.98133,0.0162 -37.69542,4.68383 -74.07396,19.85899 -104.35388,43.53078 -13.02526,10.18268 -26.58865,23.74959 -36.72472,36.73428 -26.22798,33.59893 -41.17101,72.35434 -44.64226,115.78167 -0.47678,5.96504 -0.66904,25.86644 -0.2654,27.47466 l 0.1993,0.79411 212.7173,0 c 169.84358,0 212.76628,-0.0758 212.96058,-0.37591 z"
         id="path4477"
         inkscape:connector-curvature="0" />
      <path
         style="fill:#000000"
         d="m -712.24921,442.68752 0,-622.51445 1106.6925,0 1106.69251,0 0,622.51445 0,622.51448 -1106.69251,0 -1106.6925,0 0,-622.51448 z m 511.84528,452.00621 c 0.70576,-0.44578 0.81396,-19.02949 0.16201,-27.82426 -3.90004,-52.6105 -25.53047,-99.89929 -62.56617,-136.78324 -25.86458,-25.75859 -57.395,-44.24387 -92.62301,-54.30193 -12.05323,-3.44137 -27.75091,-6.27868 -40.13519,-7.25437 -2.22608,-0.17539 -4.09925,-0.37071 -4.16264,-0.43408 -0.1667,-0.16669 1.92892,-0.41236 6.55601,-0.76849 12.87796,-0.99118 28.06629,-3.77105 41.04094,-7.51158 46.42443,-13.38397 87.00413,-42.1909 115.22858,-81.79903 20.4985,-28.76606 33.5203,-62.25927 37.82401,-97.28668 1.23201,-10.02705 1.51927,-15.037 1.51741,-26.46438 -0.003,-11.49318 -0.31812,-17.07891 -1.50862,-26.649 -7.3824,-59.34334 -39.36746,-112.82335 -88.39514,-147.7994 -28.62824,-20.4232 -62.17862,-33.48045 -97.25244,-37.84906 -6.8943,-0.85871 -15.05938,-1.47268 -17.62706,-1.32544 l -1.80439,0.10345 -0.0749,326.71441 c -0.0553,241.07624 0.0135,326.82093 0.26236,327.12082 0.28215,0.33994 16.91907,0.40565 101.72221,0.4018 63.31511,-0.003 101.55432,-0.1116 101.83604,-0.28954 z m 428.09019,-0.0554 c 0.10953,-0.10952 0.29304,-1.66581 0.40779,-3.45841 l 0.20859,-3.25924 0.202,3.23446 c 0.11106,1.77895 0.28516,3.36907 0.38686,3.5336 0.12231,0.19791 72.31607,0.29913 213.34906,0.29913 197.90395,0 213.19372,-0.0356 213.57691,-0.49723 0.56733,-0.6835 0.57918,-21.99337 0.0159,-28.8241 -2.72703,-33.07726 -11.93318,-62.9102 -28.02647,-90.82095 -29.68357,-51.48059 -79.9121,-88.63628 -137.58071,-101.77296 -9.56919,-2.17982 -21.52811,-4.03621 -30.37389,-4.7149 -3.30965,-0.25394 -2.58759,-0.54258 2.1053,-0.8416 1.81933,-0.1159 6.01445,-0.54853 9.3225,-0.96135 42.16958,-5.26259 80.96995,-22.56166 113.5262,-50.61541 5.31696,-4.58162 16.46885,-15.66566 20.9081,-20.78092 30.82598,-35.51998 48.32481,-77.09258 52.35873,-124.39054 0.66429,-7.78876 0.66026,-25.22281 -0.008,-33.19283 -2.99405,-35.727 -13.8461,-68.30749 -32.60496,-97.88814 -34.27316,-54.04502 -91.31588,-90.18496 -154.48113,-97.87301 -17.00289,-2.06949 -35.63415,-2.06934 -52.62804,0 -35.42565,4.31459 -69.63538,17.75251 -98.79035,38.8058 -48.17421,34.7874 -79.88856,88.09918 -87.19802,146.57969 -0.68146,5.45214 -1.50294,15.18677 -1.5478,18.34165 -0.0402,2.82706 -0.49799,1.44721 -0.54776,-1.65104 -0.0199,-1.24052 -0.22696,-4.55609 -0.46009,-7.36793 C 224.33202,370.47485 188.80265,311.11858 132.95717,274.72151 102.97699,255.18205 68.910172,243.76252 31.911337,240.84996 25.008132,240.30657 6.8611416,240.39321 -0.22893798,241.00345 -32.713731,243.79939 -61.652357,252.70627 -89.182626,268.38206 c -23.505844,13.3843 -45.037364,31.90408 -61.987684,53.31713 -21.64979,27.34986 -36.43286,60.06119 -42.58589,94.23224 -3.74795,20.81448 -4.38289,43.2871 -1.82228,64.49749 7.56954,62.70125 43.21953,119.33677 96.821912,153.81658 29.231658,18.80331 63.054436,30.27411 97.5874226,33.09627 2.3156337,0.18922 4.2579091,0.3914 4.3161609,0.44929 0.185371,0.18417 -1.7887519,0.42818 -6.1205509,0.75655 -45.0900506,3.41791 -88.1980096,21.62865 -123.4503446,52.15101 -4.96502,4.29884 -16.70934,16.12093 -21.07681,21.21644 -27.91536,32.56851 -45.14812,71.34271 -50.32179,113.22545 -1.26223,10.21823 -1.52883,14.98164 -1.52883,27.31567 0,11.2184 0.0229,11.6944 0.58462,12.10508 0.50424,0.36866 29.85171,0.41702 213.419248,0.35164 117.059012,-0.0417 212.924242,-0.16543 213.033762,-0.27499 z m 0.50298,-21.00538 c -0.21758,-7.1317 -1.70413,-20.56989 -3.24321,-29.31835 -9.10261,-51.74091 -37.18397,-98.41698 -78.90709,-131.15724 -32.53231,-25.52824 -72.752761,-41.27623 -113.967734,-44.62322 -2.2277,-0.18092 -4.102281,-0.38088 -4.165795,-0.44439 -0.198483,-0.19849 1.738319,-0.43146 6.3833,-0.76789 29.864849,-2.16301 62.061902,-12.12237 88.443529,-27.3578 39.57779,-22.8562 70.72195,-57.17951 89.09124,-98.18547 10.36814,-23.14491 16.76768,-48.74288 18.1192,-72.47632 0.18838,-3.30805 0.43384,-6.62362 0.54547,-7.36793 0.19884,-1.32598 0.20447,-1.31386 0.27863,0.60147 0.17403,4.49581 1.06997,14.65498 1.73717,19.69792 5.52968,41.79553 22.76494,80.02826 50.6351,112.32326 4.55728,5.28084 15.33093,16.11515 20.48328,20.59861 29.80648,25.93696 65.02098,42.88869 103.32331,49.73824 5.47533,0.97915 15.34399,2.26806 19.97667,2.60906 3.50037,0.25767 2.89343,0.57175 -1.65403,0.85597 -4.61262,0.28828 -14.37172,1.53653 -20.44975,2.61562 -43.02285,7.63834 -82.43641,28.20035 -113.52088,59.22376 -36.90266,36.83012 -58.55822,84.20753 -62.40181,136.52085 -0.6593,8.97338 -0.64733,8.85628 -0.7066,6.91385 z m 856.60126,20.92813 c 0.5607,-0.40996 0.5838,-0.89345 0.5838,-12.25482 0,-12.49693 -0.261,-17.15553 -1.5388,-27.46606 -4.7777,-38.55084 -20.2557,-75.39386 -44.4752,-105.86646 -35.1132,-44.17889 -85.66773,-72.64813 -141.19148,-79.51046 -17.38112,-2.14819 -36.7787,-2.09784 -53.98134,0.14005 -47.13292,6.13159 -90.10152,27.28466 -123.72614,60.90928 -33.61798,33.61798 -54.81066,76.73119 -60.89257,123.8765 -1.31417,10.18713 -1.7468,17.97241 -1.63502,29.42099 0.0958,9.81032 0.12992,10.3458 0.68459,10.75116 0.88102,0.64383 425.29156,0.64365 426.17216,-1.8e-4 z"
         id="path4475"
         inkscape:connector-curvature="0" />
    </g>
    <g
       id="g4558"
       transform="translate(224.25386,84.852814)">
      <text
         transform="scale(1.0430665,0.95871165)"
         sodipodi:linespacing="125%"
         id="text2996"
         y="140.58076"
         x="530.70129"
         style="font-size:41.72266006px;font-style:normal;font-weight:normal;line-height:125%;letter-spacing:0px;word-spacing:0px;fill:#000000;fill-opacity:1;stroke:none;font-family:Sans"
         xml:space="preserve"><tspan
           id="tspan3995"
           style="font-size:36px;fill:#ffffff"
           y="140.58076"
           x="530.70129"
           sodipodi:role="line">AARONR</tspan></text>
      <text
         transform="scale(1.0430665,0.95871165)"
         sodipodi:linespacing="125%"
         id="text2996-1"
         y="140.18416"
         x="414.75049"
         style="font-size:41.72266006px;font-style:normal;font-weight:normal;line-height:125%;letter-spacing:0px;word-spacing:0px;fill:#000000;fill-opacity:1;stroke:none;font-family:Sans"
         xml:space="preserve"><tspan
           id="tspan3995-32"
           style="font-size:36px;fill:#ffffff"
           y="140.18416"
           x="414.75049"
           sodipodi:role="line">data</tspan></text>
    </g>
  </g>
</svg>
