<?xml version="1.0" encoding="UTF-8" standalone="no"?><svg xmlns="http://www.w3.org/2000/svg" xmlns:xlink="http://www.w3.org/1999/xlink" clip-rule="evenodd" stroke-miterlimit="10" viewBox="0 0 400 53"><desc>SVG generated by Keynote</desc><defs></defs><g transform="matrix(1.00, 0.00, -0.00, -1.00, 0.0, 53.0)"><text xml:space="preserve" font-family="Aller-Bold,Aller" font-weight="bold" font-size="49.6" fill="#D6D6D6" transform="matrix(1.00, 0.00, -0.00, -1.00, -1.6, 14.1)">p</text><text xml:space="preserve" font-family="Aller-Bold,Aller" font-weight="bold" font-size="49.6" fill="#D6D6D6" transform="matrix(1.00, 0.00, -0.00, -1.00, 27.7, 14.1)">h</text><text xml:space="preserve" font-family="Aller-Bold,Aller" font-weight="bold" font-size="49.6" fill="#D6D6D6" transform="matrix(1.00, 0.00, -0.00, -1.00, 56.8, 14.1)">o</text><text xml:space="preserve" font-family="Aller-Bold,Aller" font-weight="bold" font-size="49.6" fill="#D6D6D6" transform="matrix(1.00, 0.00, -0.00, -1.00, 85.6, 14.1)">t</text><text xml:space="preserve" font-family="Aller-Bold,Aller" font-weight="bold" font-size="49.6" fill="#D6D6D6" transform="matrix(1.00, 0.00, -0.00, -1.00, 104.6, 14.1)">o</text><text xml:space="preserve" font-family="Aller-Bold,Aller" font-weight="bold" font-size="49.6" fill="#D6D6D6" transform="matrix(1.00, 0.00, -0.00, -1.00, 133.3, 14.1)">g</text><text xml:space="preserve" font-family="Aller-Bold,Aller" font-weight="bold" font-size="49.6" fill="#D6D6D6" transform="matrix(1.00, 0.00, -0.00, -1.00, 161.4, 14.1)">r</text><text xml:space="preserve" font-family="Aller-Bold,Aller" font-weight="bold" font-size="49.6" fill="#D6D6D6" transform="matrix(1.00, 0.00, -0.00, -1.00, 180.9, 14.1)">a</text><text xml:space="preserve" font-family="Aller-Bold,Aller" font-weight="bold" font-size="49.6" fill="#D6D6D6" transform="matrix(1.00, 0.00, -0.00, -1.00, 206.7, 14.1)">m</text><text xml:space="preserve" font-family="Aller-Bold,Aller" font-weight="bold" font-size="49.6" fill="#D6D6D6" transform="matrix(1.00, 0.00, -0.00, -1.00, 250.3, 14.1)">m</text><text xml:space="preserve" font-family="Aller-Bold,Aller" font-weight="bold" font-size="49.6" fill="#D6D6D6" transform="matrix(1.00, 0.00, -0.00, -1.00, 293.9, 14.1)">e</text><text xml:space="preserve" font-family="Aller-Bold,Aller" font-weight="bold" font-size="49.6" fill="#D6D6D6" transform="matrix(1.00, 0.00, -0.00, -1.00, 321.8, 14.1)">t</text><text xml:space="preserve" font-family="Aller-Bold,Aller" font-weight="bold" font-size="49.6" fill="#D6D6D6" transform="matrix(1.00, 0.00, -0.00, -1.00, 340.8, 14.1)">r</text><text xml:space="preserve" font-family="Aller-Bold,Aller" font-weight="bold" font-size="49.6" fill="#D6D6D6" transform="matrix(1.00, 0.00, -0.00, -1.00, 360.8, 14.1)">i</text><text xml:space="preserve" font-family="Aller-Bold,Aller" font-weight="bold" font-size="49.6" fill="#D6D6D6" transform="matrix(1.00, 0.00, -0.00, -1.00, 376.0, 14.1)">c</text></g></svg>