<?xml version="1.0" encoding="UTF-8" standalone="no"?><svg xmlns="http://www.w3.org/2000/svg" xmlns:xlink="http://www.w3.org/1999/xlink" clip-rule="evenodd" stroke-miterlimit="10" viewBox="0 0 224 41"><desc>SVG generated by Keynote</desc><defs></defs><g transform="matrix(1.00, 0.00, -0.00, -1.00, 0.0, 41.0)"><text xml:space="preserve" font-family="Aller-Bold,Aller" font-weight="bold" font-size="49.6" fill="#A7D3A9" transform="matrix(1.00, 0.00, -0.00, -1.00, -2.4, 2.1)">r</text><text xml:space="preserve" font-family="Aller-Bold,Aller" font-weight="bold" font-size="49.6" fill="#A7D3A9" transform="matrix(1.00, 0.00, -0.00, -1.00, 16.8, 2.1)">o</text><text xml:space="preserve" font-family="Aller-Bold,Aller" font-weight="bold" font-size="49.6" fill="#A7D3A9" transform="matrix(1.00, 0.00, -0.00, -1.00, 45.6, 2.1)">b</text><text xml:space="preserve" font-family="Aller-Bold,Aller" font-weight="bold" font-size="49.6" fill="#A7D3A9" transform="matrix(1.00, 0.00, -0.00, -1.00, 74.9, 2.1)">o</text><text xml:space="preserve" font-family="Aller-Bold,Aller" font-weight="bold" font-size="49.6" fill="#A7D3A9" transform="matrix(1.00, 0.00, -0.00, -1.00, 103.6, 2.1)">t</text><text xml:space="preserve" font-family="Aller-Bold,Aller" font-weight="bold" font-size="49.6" fill="#A7D3A9" transform="matrix(1.00, 0.00, -0.00, -1.00, 122.6, 2.1)">s</text><text xml:space="preserve" font-family="Aller-Bold,Aller" font-weight="bold" font-size="49.6" fill="#A7D3A9" transform="matrix(1.00, 0.00, -0.00, -1.00, 145.4, 2.1)"> </text><text xml:space="preserve" font-family="Aller-Bold,Aller" font-weight="bold" font-size="49.6" fill="#A7D3A9" transform="matrix(1.00, 0.00, -0.00, -1.00, 156.4, 2.1)">f</text><text xml:space="preserve" font-family="Aller-Bold,Aller" font-weight="bold" font-size="49.6" fill="#A7D3A9" transform="matrix(1.00, 0.00, -0.00, -1.00, 174.5, 2.1)">o</text><text xml:space="preserve" font-family="Aller-Bold,Aller" font-weight="bold" font-size="49.6" fill="#A7D3A9" transform="matrix(1.00, 0.00, -0.00, -1.00, 203.3, 2.1)">r</text></g></svg>