<?xml version="1.0" encoding="UTF-8" standalone="no"?><svg xmlns="http://www.w3.org/2000/svg" xmlns:xlink="http://www.w3.org/1999/xlink" clip-rule="evenodd" stroke-miterlimit="10" viewBox="0 0 839 76"><desc>SVG generated by Keynote</desc><defs></defs><g transform="matrix(1.00, 0.00, -0.00, -1.00, 0.0, 76.0)"><text xml:space="preserve" font-family="Aller-Bold,Aller" font-weight="bold" font-size="72.0" fill="#000000" transform="matrix(1.00, 0.00, -0.00, -1.00, 0.8, 20.5)">f</text><text xml:space="preserve" font-family="Aller-Bold,Aller" font-weight="bold" font-size="72.0" fill="#000000" transform="matrix(1.00, 0.00, -0.00, -1.00, 29.3, 20.5)">r</text><text xml:space="preserve" font-family="Aller-Bold,Aller" font-weight="bold" font-size="72.0" fill="#000000" transform="matrix(1.00, 0.00, -0.00, -1.00, 57.2, 20.5)">o</text><text xml:space="preserve" font-family="Aller-Bold,Aller" font-weight="bold" font-size="72.0" fill="#000000" transform="matrix(1.00, 0.00, -0.00, -1.00, 98.9, 20.5)">m</text><text xml:space="preserve" font-family="Aller-Bold,Aller" font-weight="bold" font-size="72.0" fill="#000000" transform="matrix(1.00, 0.00, -0.00, -1.00, 162.2, 20.5)"> </text><text xml:space="preserve" font-family="Aller-Bold,Aller" font-weight="bold" font-size="72.0" fill="#000000" transform="matrix(1.00, 0.00, -0.00, -1.00, 178.1, 20.5)">y</text><text xml:space="preserve" font-family="Aller-Bold,Aller" font-weight="bold" font-size="72.0" fill="#000000" transform="matrix(1.00, 0.00, -0.00, -1.00, 216.0, 20.5)">o</text><text xml:space="preserve" font-family="Aller-Bold,Aller" font-weight="bold" font-size="72.0" fill="#000000" transform="matrix(1.00, 0.00, -0.00, -1.00, 257.8, 20.5)">u</text><text xml:space="preserve" font-family="Aller-Bold,Aller" font-weight="bold" font-size="72.0" fill="#000000" transform="matrix(1.00, 0.00, -0.00, -1.00, 299.0, 20.5)">r</text><text xml:space="preserve" font-family="Aller-Bold,Aller" font-weight="bold" font-size="72.0" fill="#000000" transform="matrix(1.00, 0.00, -0.00, -1.00, 327.9, 20.5)"> </text><text xml:space="preserve" font-family="Aller-Bold,Aller" font-weight="bold" font-size="72.0" fill="#000000" transform="matrix(1.00, 0.00, -0.00, -1.00, 343.7, 20.5)">f</text><text xml:space="preserve" font-family="Aller-Bold,Aller" font-weight="bold" font-size="72.0" fill="#000000" transform="matrix(1.00, 0.00, -0.00, -1.00, 372.3, 20.5)">r</text><text xml:space="preserve" font-family="Aller-Bold,Aller" font-weight="bold" font-size="72.0" fill="#000000" transform="matrix(1.00, 0.00, -0.00, -1.00, 401.2, 20.5)">i</text><text xml:space="preserve" font-family="Aller-Bold,Aller" font-weight="bold" font-size="72.0" fill="#000000" transform="matrix(1.00, 0.00, -0.00, -1.00, 423.3, 20.5)">e</text><text xml:space="preserve" font-family="Aller-Bold,Aller" font-weight="bold" font-size="72.0" fill="#000000" transform="matrix(1.00, 0.00, -0.00, -1.00, 463.8, 20.5)">n</text><text xml:space="preserve" font-family="Aller-Bold,Aller" font-weight="bold" font-size="72.0" fill="#000000" transform="matrix(1.00, 0.00, -0.00, -1.00, 506.0, 20.5)">d</text><text xml:space="preserve" font-family="Aller-Bold,Aller" font-weight="bold" font-size="72.0" fill="#000000" transform="matrix(1.00, 0.00, -0.00, -1.00, 548.4, 20.5)">l</text><text xml:space="preserve" font-family="Aller-Bold,Aller" font-weight="bold" font-size="72.0" fill="#000000" transform="matrix(1.00, 0.00, -0.00, -1.00, 571.7, 20.5)">y</text><text xml:space="preserve" font-family="Aller-Bold,Aller" font-weight="bold" font-size="72.0" fill="#D6D6D6" transform="matrix(1.00, 0.00, -0.00, -1.00, 610.7, 20.5)"> </text><text xml:space="preserve" font-family="Aller-Bold,Aller" font-weight="bold" font-size="72.0" fill="#A7D3A9" transform="matrix(1.00, 0.00, -0.00, -1.00, 626.6, 20.5)">ﬂ</text><text xml:space="preserve" font-family="Aller-Bold,Aller" font-weight="bold" font-size="72.0" fill="#A7D3A9" transform="matrix(1.00, 0.00, -0.00, -1.00, 675.4, 20.5)">y</text><text xml:space="preserve" font-family="Aller-Bold,Aller" font-weight="bold" font-size="72.0" fill="#A7D3A9" transform="matrix(1.00, 0.00, -0.00, -1.00, 714.4, 20.5)">i</text><text xml:space="preserve" font-family="Aller-Bold,Aller" font-weight="bold" font-size="72.0" fill="#A7D3A9" transform="matrix(1.00, 0.00, -0.00, -1.00, 736.5, 20.5)">n</text><text xml:space="preserve" font-family="Aller-Bold,Aller" font-weight="bold" font-size="72.0" fill="#A7D3A9" transform="matrix(1.00, 0.00, -0.00, -1.00, 778.8, 20.5)">g</text><text xml:space="preserve" font-family="Aller-Bold,Aller" font-weight="bold" font-size="72.0" fill="#A7D3A9" transform="matrix(1.00, 0.00, -0.00, -1.00, 818.8, 20.5)">,</text></g></svg>