<?xml version="1.0" encoding="UTF-8" standalone="no"?><svg xmlns="http://www.w3.org/2000/svg" xmlns:xlink="http://www.w3.org/1999/xlink" clip-rule="evenodd" stroke-miterlimit="10" viewBox="0 0 384 53"><desc>SVG generated by Keynote</desc><defs></defs><g transform="matrix(1.00, 0.00, -0.00, -1.00, 0.0, 53.0)"><text xml:space="preserve" font-family="Aller-Bold,Aller" font-weight="bold" font-size="49.6" fill="#D6D6D6" transform="matrix(1.00, 0.00, -0.00, -1.00, -0.4, 14.1)">e</text><text xml:space="preserve" font-family="Aller-Bold,Aller" font-weight="bold" font-size="49.6" fill="#D6D6D6" transform="matrix(1.00, 0.00, -0.00, -1.00, 27.5, 14.1)">n</text><text xml:space="preserve" font-family="Aller-Bold,Aller" font-weight="bold" font-size="49.6" fill="#D6D6D6" transform="matrix(1.00, 0.00, -0.00, -1.00, 56.6, 14.1)">g</text><text xml:space="preserve" font-family="Aller-Bold,Aller" font-weight="bold" font-size="49.6" fill="#D6D6D6" transform="matrix(1.00, 0.00, -0.00, -1.00, 84.7, 14.1)">i</text><text xml:space="preserve" font-family="Aller-Bold,Aller" font-weight="bold" font-size="49.6" fill="#D6D6D6" transform="matrix(1.00, 0.00, -0.00, -1.00, 99.9, 14.1)">n</text><text xml:space="preserve" font-family="Aller-Bold,Aller" font-weight="bold" font-size="49.6" fill="#D6D6D6" transform="matrix(1.00, 0.00, -0.00, -1.00, 129.0, 14.1)">e</text><text xml:space="preserve" font-family="Aller-Bold,Aller" font-weight="bold" font-size="49.6" fill="#D6D6D6" transform="matrix(1.00, 0.00, -0.00, -1.00, 156.9, 14.1)">e</text><text xml:space="preserve" font-family="Aller-Bold,Aller" font-weight="bold" font-size="49.6" fill="#D6D6D6" transform="matrix(1.00, 0.00, -0.00, -1.00, 184.8, 14.1)">r</text><text xml:space="preserve" font-family="Aller-Bold,Aller" font-weight="bold" font-size="49.6" fill="#D6D6D6" transform="matrix(1.00, 0.00, -0.00, -1.00, 204.7, 14.1)">i</text><text xml:space="preserve" font-family="Aller-Bold,Aller" font-weight="bold" font-size="49.6" fill="#D6D6D6" transform="matrix(1.00, 0.00, -0.00, -1.00, 219.9, 14.1)">n</text><text xml:space="preserve" font-family="Aller-Bold,Aller" font-weight="bold" font-size="49.6" fill="#D6D6D6" transform="matrix(1.00, 0.00, -0.00, -1.00, 249.1, 14.1)">g</text><text xml:space="preserve" font-family="Aller-Bold,Aller" font-weight="bold" font-size="49.6" fill="#D6D6D6" transform="matrix(1.00, 0.00, -0.00, -1.00, 276.6, 14.1)">,</text><text xml:space="preserve" font-family="Aller-Bold,Aller" font-weight="bold" font-size="49.6" fill="#D6D6D6" transform="matrix(1.00, 0.00, -0.00, -1.00, 291.1, 14.1)"> </text><text xml:space="preserve" font-family="Aller-Bold,Aller" font-weight="bold" font-size="49.6" fill="#D6D6D6" transform="matrix(1.00, 0.00, -0.00, -1.00, 302.0, 14.1)">a</text><text xml:space="preserve" font-family="Aller-Bold,Aller" font-weight="bold" font-size="49.6" fill="#D6D6D6" transform="matrix(1.00, 0.00, -0.00, -1.00, 327.9, 14.1)">n</text><text xml:space="preserve" font-family="Aller-Bold,Aller" font-weight="bold" font-size="49.6" fill="#D6D6D6" transform="matrix(1.00, 0.00, -0.00, -1.00, 357.0, 14.1)">d</text></g></svg>